G04 #@! TF.GenerationSoftware,KiCad,Pcbnew,(5.1.4-0)*
G04 #@! TF.CreationDate,2021-10-16T03:16:45+01:00*
G04 #@! TF.ProjectId,PR-4PP,50522d34-5050-42e6-9b69-6361645f7063,rev?*
G04 #@! TF.SameCoordinates,Original*
G04 #@! TF.FileFunction,Copper,L1,Top*
G04 #@! TF.FilePolarity,Positive*
%FSLAX46Y46*%
G04 Gerber Fmt 4.6, Leading zero omitted, Abs format (unit mm)*
G04 Created by KiCad (PCBNEW (5.1.4-0)) date 2021-10-16 03:16:45*
%MOMM*%
%LPD*%
G04 APERTURE LIST*
%ADD10R,1.905000X1.905000*%
%ADD11C,1.905000*%
%ADD12C,2.250000*%
%ADD13C,2.250000*%
%ADD14O,1.700000X2.700000*%
%ADD15C,0.800000*%
%ADD16C,0.381000*%
%ADD17C,0.254000*%
G04 APERTURE END LIST*
D10*
X71120000Y-93980000D03*
D11*
X68580000Y-93980000D03*
D12*
X67350000Y-84900000D03*
X66695001Y-85630000D03*
D13*
X66040000Y-86360000D02*
X67350002Y-84900000D01*
D12*
X72390000Y-83820000D03*
X72370000Y-84110000D03*
D13*
X72350000Y-84400000D02*
X72390000Y-83820000D01*
D10*
X90170000Y-74930000D03*
D11*
X87630000Y-74930000D03*
D12*
X86400000Y-65850000D03*
X85745001Y-66580000D03*
D13*
X85090000Y-67310000D02*
X86400002Y-65850000D01*
D12*
X91440000Y-64770000D03*
X91420000Y-65060000D03*
D13*
X91400000Y-65350000D02*
X91440000Y-64770000D01*
D10*
X71120000Y-74930000D03*
D11*
X68580000Y-74930000D03*
D12*
X67350000Y-65850000D03*
X66695001Y-66580000D03*
D13*
X66040000Y-67310000D02*
X67350002Y-65850000D01*
D12*
X72390000Y-64770000D03*
X72370000Y-65060000D03*
D13*
X72350000Y-65350000D02*
X72390000Y-64770000D01*
D14*
X26512500Y-61912500D03*
X33812500Y-61912500D03*
X33812500Y-66412500D03*
X26512500Y-66412500D03*
D10*
X90170000Y-93980000D03*
D11*
X87630000Y-93980000D03*
D12*
X86400000Y-84900000D03*
X85745001Y-85630000D03*
D13*
X85090000Y-86360000D02*
X86400002Y-84900000D01*
D12*
X91440000Y-83820000D03*
X91420000Y-84110000D03*
D13*
X91400000Y-84400000D02*
X91440000Y-83820000D01*
D15*
X59817000Y-76756500D03*
X55753000Y-89408000D03*
X40996000Y-82575000D03*
X41021000Y-78008250D03*
X38989000Y-69977000D03*
X34850000Y-90372000D03*
X35433000Y-72009000D03*
D16*
X59817000Y-77322185D02*
X59817000Y-76756500D01*
X59817000Y-86106000D02*
X59817000Y-77322185D01*
X56515000Y-89408000D02*
X59817000Y-86106000D01*
X55753000Y-89408000D02*
X56515000Y-89408000D01*
X40996000Y-86081000D02*
X40996000Y-82575000D01*
X44323000Y-89408000D02*
X40996000Y-86081000D01*
X55753000Y-89408000D02*
X44323000Y-89408000D01*
X41021000Y-82550000D02*
X40996000Y-82575000D01*
X41021000Y-78008250D02*
X41021000Y-82550000D01*
X41021000Y-77442565D02*
X40513000Y-76934565D01*
X41021000Y-78008250D02*
X41021000Y-77442565D01*
X40513000Y-76934565D02*
X40513000Y-72009000D01*
X40513000Y-72009000D02*
X40513000Y-71501000D01*
X40513000Y-71501000D02*
X38989000Y-69977000D01*
D17*
X66675000Y-84225000D02*
X67350000Y-84900000D01*
X66675000Y-67945000D02*
X66675000Y-84225000D01*
X66040000Y-67310000D02*
X66675000Y-67945000D01*
X85979000Y-84479000D02*
X86400000Y-84900000D01*
X85979000Y-68199000D02*
X85979000Y-84479000D01*
X85090000Y-67310000D02*
X85979000Y-68199000D01*
X35033001Y-72408999D02*
X35433000Y-72009000D01*
X34850000Y-72592000D02*
X35033001Y-72408999D01*
X34850000Y-90372000D02*
X34850000Y-72592000D01*
M02*
