G04 #@! TF.GenerationSoftware,KiCad,Pcbnew,(5.1.4-0)*
G04 #@! TF.CreationDate,2021-10-16T03:16:45+01:00*
G04 #@! TF.ProjectId,PR-4PP,50522d34-5050-42e6-9b69-6361645f7063,rev?*
G04 #@! TF.SameCoordinates,Original*
G04 #@! TF.FileFunction,Copper,L2,Bot*
G04 #@! TF.FilePolarity,Positive*
%FSLAX46Y46*%
G04 Gerber Fmt 4.6, Leading zero omitted, Abs format (unit mm)*
G04 Created by KiCad (PCBNEW (5.1.4-0)) date 2021-10-16 03:16:45*
%MOMM*%
%LPD*%
G04 APERTURE LIST*
%ADD10R,1.905000X1.905000*%
%ADD11C,1.905000*%
%ADD12C,2.250000*%
%ADD13C,2.250000*%
%ADD14O,1.700000X2.700000*%
%ADD15R,0.500000X2.250000*%
%ADD16R,1.400000X1.200000*%
%ADD17R,0.550000X1.500000*%
%ADD18R,1.500000X0.550000*%
%ADD19R,1.800000X1.100000*%
%ADD20C,0.100000*%
%ADD21C,0.975000*%
%ADD22C,1.250000*%
%ADD23R,1.200000X0.900000*%
%ADD24C,0.800000*%
%ADD25C,0.381000*%
%ADD26C,0.254000*%
G04 APERTURE END LIST*
D10*
X71120000Y-93980000D03*
D11*
X68580000Y-93980000D03*
D12*
X67350000Y-84900000D03*
X66695001Y-85630000D03*
D13*
X66040000Y-86360000D02*
X67350002Y-84900000D01*
D12*
X72390000Y-83820000D03*
X72370000Y-84110000D03*
D13*
X72350000Y-84400000D02*
X72390000Y-83820000D01*
D10*
X90170000Y-74930000D03*
D11*
X87630000Y-74930000D03*
D12*
X86400000Y-65850000D03*
X85745001Y-66580000D03*
D13*
X85090000Y-67310000D02*
X86400002Y-65850000D01*
D12*
X91440000Y-64770000D03*
X91420000Y-65060000D03*
D13*
X91400000Y-65350000D02*
X91440000Y-64770000D01*
D10*
X71120000Y-74930000D03*
D11*
X68580000Y-74930000D03*
D12*
X67350000Y-65850000D03*
X66695001Y-66580000D03*
D13*
X66040000Y-67310000D02*
X67350002Y-65850000D01*
D12*
X72390000Y-64770000D03*
X72370000Y-65060000D03*
D13*
X72350000Y-65350000D02*
X72390000Y-64770000D01*
D14*
X26512500Y-61912500D03*
X33812500Y-61912500D03*
X33812500Y-66412500D03*
X26512500Y-66412500D03*
D15*
X28562500Y-66412500D03*
X29362500Y-66412500D03*
X30162500Y-66412500D03*
X30962500Y-66412500D03*
X31762500Y-66412500D03*
D16*
X49518750Y-67412500D03*
X47318750Y-67412500D03*
X47318750Y-69112500D03*
X49518750Y-69112500D03*
D17*
X44418750Y-85075000D03*
X45218750Y-85075000D03*
X46018750Y-85075000D03*
X46818750Y-85075000D03*
X47618750Y-85075000D03*
X48418750Y-85075000D03*
X49218750Y-85075000D03*
X50018750Y-85075000D03*
X50818750Y-85075000D03*
X51618750Y-85075000D03*
X52418750Y-85075000D03*
D18*
X54118750Y-83375000D03*
X54118750Y-82575000D03*
X54118750Y-81775000D03*
X54118750Y-80975000D03*
X54118750Y-80175000D03*
X54118750Y-79375000D03*
X54118750Y-78575000D03*
X54118750Y-77775000D03*
X54118750Y-76975000D03*
X54118750Y-76175000D03*
X54118750Y-75375000D03*
D17*
X52418750Y-73675000D03*
X51618750Y-73675000D03*
X50818750Y-73675000D03*
X50018750Y-73675000D03*
X49218750Y-73675000D03*
X48418750Y-73675000D03*
X47618750Y-73675000D03*
X46818750Y-73675000D03*
X46018750Y-73675000D03*
X45218750Y-73675000D03*
X44418750Y-73675000D03*
D18*
X42718750Y-75375000D03*
X42718750Y-76175000D03*
X42718750Y-76975000D03*
X42718750Y-77775000D03*
X42718750Y-78575000D03*
X42718750Y-79375000D03*
X42718750Y-80175000D03*
X42718750Y-80975000D03*
X42718750Y-81775000D03*
X42718750Y-82575000D03*
X42718750Y-83375000D03*
D19*
X34850000Y-95512500D03*
X28650000Y-91812500D03*
X34850000Y-91812500D03*
X28650000Y-95512500D03*
D20*
G36*
X58423892Y-83507424D02*
G01*
X58447553Y-83510934D01*
X58470757Y-83516746D01*
X58493279Y-83524804D01*
X58514903Y-83535032D01*
X58535420Y-83547329D01*
X58554633Y-83561579D01*
X58572357Y-83577643D01*
X58588421Y-83595367D01*
X58602671Y-83614580D01*
X58614968Y-83635097D01*
X58625196Y-83656721D01*
X58633254Y-83679243D01*
X58639066Y-83702447D01*
X58642576Y-83726108D01*
X58643750Y-83750000D01*
X58643750Y-84237500D01*
X58642576Y-84261392D01*
X58639066Y-84285053D01*
X58633254Y-84308257D01*
X58625196Y-84330779D01*
X58614968Y-84352403D01*
X58602671Y-84372920D01*
X58588421Y-84392133D01*
X58572357Y-84409857D01*
X58554633Y-84425921D01*
X58535420Y-84440171D01*
X58514903Y-84452468D01*
X58493279Y-84462696D01*
X58470757Y-84470754D01*
X58447553Y-84476566D01*
X58423892Y-84480076D01*
X58400000Y-84481250D01*
X57487500Y-84481250D01*
X57463608Y-84480076D01*
X57439947Y-84476566D01*
X57416743Y-84470754D01*
X57394221Y-84462696D01*
X57372597Y-84452468D01*
X57352080Y-84440171D01*
X57332867Y-84425921D01*
X57315143Y-84409857D01*
X57299079Y-84392133D01*
X57284829Y-84372920D01*
X57272532Y-84352403D01*
X57262304Y-84330779D01*
X57254246Y-84308257D01*
X57248434Y-84285053D01*
X57244924Y-84261392D01*
X57243750Y-84237500D01*
X57243750Y-83750000D01*
X57244924Y-83726108D01*
X57248434Y-83702447D01*
X57254246Y-83679243D01*
X57262304Y-83656721D01*
X57272532Y-83635097D01*
X57284829Y-83614580D01*
X57299079Y-83595367D01*
X57315143Y-83577643D01*
X57332867Y-83561579D01*
X57352080Y-83547329D01*
X57372597Y-83535032D01*
X57394221Y-83524804D01*
X57416743Y-83516746D01*
X57439947Y-83510934D01*
X57463608Y-83507424D01*
X57487500Y-83506250D01*
X58400000Y-83506250D01*
X58423892Y-83507424D01*
X58423892Y-83507424D01*
G37*
D21*
X57943750Y-83993750D03*
D20*
G36*
X58423892Y-85382424D02*
G01*
X58447553Y-85385934D01*
X58470757Y-85391746D01*
X58493279Y-85399804D01*
X58514903Y-85410032D01*
X58535420Y-85422329D01*
X58554633Y-85436579D01*
X58572357Y-85452643D01*
X58588421Y-85470367D01*
X58602671Y-85489580D01*
X58614968Y-85510097D01*
X58625196Y-85531721D01*
X58633254Y-85554243D01*
X58639066Y-85577447D01*
X58642576Y-85601108D01*
X58643750Y-85625000D01*
X58643750Y-86112500D01*
X58642576Y-86136392D01*
X58639066Y-86160053D01*
X58633254Y-86183257D01*
X58625196Y-86205779D01*
X58614968Y-86227403D01*
X58602671Y-86247920D01*
X58588421Y-86267133D01*
X58572357Y-86284857D01*
X58554633Y-86300921D01*
X58535420Y-86315171D01*
X58514903Y-86327468D01*
X58493279Y-86337696D01*
X58470757Y-86345754D01*
X58447553Y-86351566D01*
X58423892Y-86355076D01*
X58400000Y-86356250D01*
X57487500Y-86356250D01*
X57463608Y-86355076D01*
X57439947Y-86351566D01*
X57416743Y-86345754D01*
X57394221Y-86337696D01*
X57372597Y-86327468D01*
X57352080Y-86315171D01*
X57332867Y-86300921D01*
X57315143Y-86284857D01*
X57299079Y-86267133D01*
X57284829Y-86247920D01*
X57272532Y-86227403D01*
X57262304Y-86205779D01*
X57254246Y-86183257D01*
X57248434Y-86160053D01*
X57244924Y-86136392D01*
X57243750Y-86112500D01*
X57243750Y-85625000D01*
X57244924Y-85601108D01*
X57248434Y-85577447D01*
X57254246Y-85554243D01*
X57262304Y-85531721D01*
X57272532Y-85510097D01*
X57284829Y-85489580D01*
X57299079Y-85470367D01*
X57315143Y-85452643D01*
X57332867Y-85436579D01*
X57352080Y-85422329D01*
X57372597Y-85410032D01*
X57394221Y-85399804D01*
X57416743Y-85391746D01*
X57439947Y-85385934D01*
X57463608Y-85382424D01*
X57487500Y-85381250D01*
X58400000Y-85381250D01*
X58423892Y-85382424D01*
X58423892Y-85382424D01*
G37*
D21*
X57943750Y-85868750D03*
D20*
G36*
X37818142Y-71444174D02*
G01*
X37841803Y-71447684D01*
X37865007Y-71453496D01*
X37887529Y-71461554D01*
X37909153Y-71471782D01*
X37929670Y-71484079D01*
X37948883Y-71498329D01*
X37966607Y-71514393D01*
X37982671Y-71532117D01*
X37996921Y-71551330D01*
X38009218Y-71571847D01*
X38019446Y-71593471D01*
X38027504Y-71615993D01*
X38033316Y-71639197D01*
X38036826Y-71662858D01*
X38038000Y-71686750D01*
X38038000Y-72174250D01*
X38036826Y-72198142D01*
X38033316Y-72221803D01*
X38027504Y-72245007D01*
X38019446Y-72267529D01*
X38009218Y-72289153D01*
X37996921Y-72309670D01*
X37982671Y-72328883D01*
X37966607Y-72346607D01*
X37948883Y-72362671D01*
X37929670Y-72376921D01*
X37909153Y-72389218D01*
X37887529Y-72399446D01*
X37865007Y-72407504D01*
X37841803Y-72413316D01*
X37818142Y-72416826D01*
X37794250Y-72418000D01*
X36881750Y-72418000D01*
X36857858Y-72416826D01*
X36834197Y-72413316D01*
X36810993Y-72407504D01*
X36788471Y-72399446D01*
X36766847Y-72389218D01*
X36746330Y-72376921D01*
X36727117Y-72362671D01*
X36709393Y-72346607D01*
X36693329Y-72328883D01*
X36679079Y-72309670D01*
X36666782Y-72289153D01*
X36656554Y-72267529D01*
X36648496Y-72245007D01*
X36642684Y-72221803D01*
X36639174Y-72198142D01*
X36638000Y-72174250D01*
X36638000Y-71686750D01*
X36639174Y-71662858D01*
X36642684Y-71639197D01*
X36648496Y-71615993D01*
X36656554Y-71593471D01*
X36666782Y-71571847D01*
X36679079Y-71551330D01*
X36693329Y-71532117D01*
X36709393Y-71514393D01*
X36727117Y-71498329D01*
X36746330Y-71484079D01*
X36766847Y-71471782D01*
X36788471Y-71461554D01*
X36810993Y-71453496D01*
X36834197Y-71447684D01*
X36857858Y-71444174D01*
X36881750Y-71443000D01*
X37794250Y-71443000D01*
X37818142Y-71444174D01*
X37818142Y-71444174D01*
G37*
D21*
X37338000Y-71930500D03*
D20*
G36*
X37818142Y-69569174D02*
G01*
X37841803Y-69572684D01*
X37865007Y-69578496D01*
X37887529Y-69586554D01*
X37909153Y-69596782D01*
X37929670Y-69609079D01*
X37948883Y-69623329D01*
X37966607Y-69639393D01*
X37982671Y-69657117D01*
X37996921Y-69676330D01*
X38009218Y-69696847D01*
X38019446Y-69718471D01*
X38027504Y-69740993D01*
X38033316Y-69764197D01*
X38036826Y-69787858D01*
X38038000Y-69811750D01*
X38038000Y-70299250D01*
X38036826Y-70323142D01*
X38033316Y-70346803D01*
X38027504Y-70370007D01*
X38019446Y-70392529D01*
X38009218Y-70414153D01*
X37996921Y-70434670D01*
X37982671Y-70453883D01*
X37966607Y-70471607D01*
X37948883Y-70487671D01*
X37929670Y-70501921D01*
X37909153Y-70514218D01*
X37887529Y-70524446D01*
X37865007Y-70532504D01*
X37841803Y-70538316D01*
X37818142Y-70541826D01*
X37794250Y-70543000D01*
X36881750Y-70543000D01*
X36857858Y-70541826D01*
X36834197Y-70538316D01*
X36810993Y-70532504D01*
X36788471Y-70524446D01*
X36766847Y-70514218D01*
X36746330Y-70501921D01*
X36727117Y-70487671D01*
X36709393Y-70471607D01*
X36693329Y-70453883D01*
X36679079Y-70434670D01*
X36666782Y-70414153D01*
X36656554Y-70392529D01*
X36648496Y-70370007D01*
X36642684Y-70346803D01*
X36639174Y-70323142D01*
X36638000Y-70299250D01*
X36638000Y-69811750D01*
X36639174Y-69787858D01*
X36642684Y-69764197D01*
X36648496Y-69740993D01*
X36656554Y-69718471D01*
X36666782Y-69696847D01*
X36679079Y-69676330D01*
X36693329Y-69657117D01*
X36709393Y-69639393D01*
X36727117Y-69623329D01*
X36746330Y-69609079D01*
X36766847Y-69596782D01*
X36788471Y-69586554D01*
X36810993Y-69578496D01*
X36834197Y-69572684D01*
X36857858Y-69569174D01*
X36881750Y-69568000D01*
X37794250Y-69568000D01*
X37818142Y-69569174D01*
X37818142Y-69569174D01*
G37*
D21*
X37338000Y-70055500D03*
D20*
G36*
X32039642Y-70616924D02*
G01*
X32063303Y-70620434D01*
X32086507Y-70626246D01*
X32109029Y-70634304D01*
X32130653Y-70644532D01*
X32151170Y-70656829D01*
X32170383Y-70671079D01*
X32188107Y-70687143D01*
X32204171Y-70704867D01*
X32218421Y-70724080D01*
X32230718Y-70744597D01*
X32240946Y-70766221D01*
X32249004Y-70788743D01*
X32254816Y-70811947D01*
X32258326Y-70835608D01*
X32259500Y-70859500D01*
X32259500Y-71347000D01*
X32258326Y-71370892D01*
X32254816Y-71394553D01*
X32249004Y-71417757D01*
X32240946Y-71440279D01*
X32230718Y-71461903D01*
X32218421Y-71482420D01*
X32204171Y-71501633D01*
X32188107Y-71519357D01*
X32170383Y-71535421D01*
X32151170Y-71549671D01*
X32130653Y-71561968D01*
X32109029Y-71572196D01*
X32086507Y-71580254D01*
X32063303Y-71586066D01*
X32039642Y-71589576D01*
X32015750Y-71590750D01*
X31103250Y-71590750D01*
X31079358Y-71589576D01*
X31055697Y-71586066D01*
X31032493Y-71580254D01*
X31009971Y-71572196D01*
X30988347Y-71561968D01*
X30967830Y-71549671D01*
X30948617Y-71535421D01*
X30930893Y-71519357D01*
X30914829Y-71501633D01*
X30900579Y-71482420D01*
X30888282Y-71461903D01*
X30878054Y-71440279D01*
X30869996Y-71417757D01*
X30864184Y-71394553D01*
X30860674Y-71370892D01*
X30859500Y-71347000D01*
X30859500Y-70859500D01*
X30860674Y-70835608D01*
X30864184Y-70811947D01*
X30869996Y-70788743D01*
X30878054Y-70766221D01*
X30888282Y-70744597D01*
X30900579Y-70724080D01*
X30914829Y-70704867D01*
X30930893Y-70687143D01*
X30948617Y-70671079D01*
X30967830Y-70656829D01*
X30988347Y-70644532D01*
X31009971Y-70634304D01*
X31032493Y-70626246D01*
X31055697Y-70620434D01*
X31079358Y-70616924D01*
X31103250Y-70615750D01*
X32015750Y-70615750D01*
X32039642Y-70616924D01*
X32039642Y-70616924D01*
G37*
D21*
X31559500Y-71103250D03*
D20*
G36*
X32039642Y-72491924D02*
G01*
X32063303Y-72495434D01*
X32086507Y-72501246D01*
X32109029Y-72509304D01*
X32130653Y-72519532D01*
X32151170Y-72531829D01*
X32170383Y-72546079D01*
X32188107Y-72562143D01*
X32204171Y-72579867D01*
X32218421Y-72599080D01*
X32230718Y-72619597D01*
X32240946Y-72641221D01*
X32249004Y-72663743D01*
X32254816Y-72686947D01*
X32258326Y-72710608D01*
X32259500Y-72734500D01*
X32259500Y-73222000D01*
X32258326Y-73245892D01*
X32254816Y-73269553D01*
X32249004Y-73292757D01*
X32240946Y-73315279D01*
X32230718Y-73336903D01*
X32218421Y-73357420D01*
X32204171Y-73376633D01*
X32188107Y-73394357D01*
X32170383Y-73410421D01*
X32151170Y-73424671D01*
X32130653Y-73436968D01*
X32109029Y-73447196D01*
X32086507Y-73455254D01*
X32063303Y-73461066D01*
X32039642Y-73464576D01*
X32015750Y-73465750D01*
X31103250Y-73465750D01*
X31079358Y-73464576D01*
X31055697Y-73461066D01*
X31032493Y-73455254D01*
X31009971Y-73447196D01*
X30988347Y-73436968D01*
X30967830Y-73424671D01*
X30948617Y-73410421D01*
X30930893Y-73394357D01*
X30914829Y-73376633D01*
X30900579Y-73357420D01*
X30888282Y-73336903D01*
X30878054Y-73315279D01*
X30869996Y-73292757D01*
X30864184Y-73269553D01*
X30860674Y-73245892D01*
X30859500Y-73222000D01*
X30859500Y-72734500D01*
X30860674Y-72710608D01*
X30864184Y-72686947D01*
X30869996Y-72663743D01*
X30878054Y-72641221D01*
X30888282Y-72619597D01*
X30900579Y-72599080D01*
X30914829Y-72579867D01*
X30930893Y-72562143D01*
X30948617Y-72546079D01*
X30967830Y-72531829D01*
X30988347Y-72519532D01*
X31009971Y-72509304D01*
X31032493Y-72501246D01*
X31055697Y-72495434D01*
X31079358Y-72491924D01*
X31103250Y-72490750D01*
X32015750Y-72490750D01*
X32039642Y-72491924D01*
X32039642Y-72491924D01*
G37*
D21*
X31559500Y-72978250D03*
D20*
G36*
X28864642Y-70616924D02*
G01*
X28888303Y-70620434D01*
X28911507Y-70626246D01*
X28934029Y-70634304D01*
X28955653Y-70644532D01*
X28976170Y-70656829D01*
X28995383Y-70671079D01*
X29013107Y-70687143D01*
X29029171Y-70704867D01*
X29043421Y-70724080D01*
X29055718Y-70744597D01*
X29065946Y-70766221D01*
X29074004Y-70788743D01*
X29079816Y-70811947D01*
X29083326Y-70835608D01*
X29084500Y-70859500D01*
X29084500Y-71347000D01*
X29083326Y-71370892D01*
X29079816Y-71394553D01*
X29074004Y-71417757D01*
X29065946Y-71440279D01*
X29055718Y-71461903D01*
X29043421Y-71482420D01*
X29029171Y-71501633D01*
X29013107Y-71519357D01*
X28995383Y-71535421D01*
X28976170Y-71549671D01*
X28955653Y-71561968D01*
X28934029Y-71572196D01*
X28911507Y-71580254D01*
X28888303Y-71586066D01*
X28864642Y-71589576D01*
X28840750Y-71590750D01*
X27928250Y-71590750D01*
X27904358Y-71589576D01*
X27880697Y-71586066D01*
X27857493Y-71580254D01*
X27834971Y-71572196D01*
X27813347Y-71561968D01*
X27792830Y-71549671D01*
X27773617Y-71535421D01*
X27755893Y-71519357D01*
X27739829Y-71501633D01*
X27725579Y-71482420D01*
X27713282Y-71461903D01*
X27703054Y-71440279D01*
X27694996Y-71417757D01*
X27689184Y-71394553D01*
X27685674Y-71370892D01*
X27684500Y-71347000D01*
X27684500Y-70859500D01*
X27685674Y-70835608D01*
X27689184Y-70811947D01*
X27694996Y-70788743D01*
X27703054Y-70766221D01*
X27713282Y-70744597D01*
X27725579Y-70724080D01*
X27739829Y-70704867D01*
X27755893Y-70687143D01*
X27773617Y-70671079D01*
X27792830Y-70656829D01*
X27813347Y-70644532D01*
X27834971Y-70634304D01*
X27857493Y-70626246D01*
X27880697Y-70620434D01*
X27904358Y-70616924D01*
X27928250Y-70615750D01*
X28840750Y-70615750D01*
X28864642Y-70616924D01*
X28864642Y-70616924D01*
G37*
D21*
X28384500Y-71103250D03*
D20*
G36*
X28864642Y-72491924D02*
G01*
X28888303Y-72495434D01*
X28911507Y-72501246D01*
X28934029Y-72509304D01*
X28955653Y-72519532D01*
X28976170Y-72531829D01*
X28995383Y-72546079D01*
X29013107Y-72562143D01*
X29029171Y-72579867D01*
X29043421Y-72599080D01*
X29055718Y-72619597D01*
X29065946Y-72641221D01*
X29074004Y-72663743D01*
X29079816Y-72686947D01*
X29083326Y-72710608D01*
X29084500Y-72734500D01*
X29084500Y-73222000D01*
X29083326Y-73245892D01*
X29079816Y-73269553D01*
X29074004Y-73292757D01*
X29065946Y-73315279D01*
X29055718Y-73336903D01*
X29043421Y-73357420D01*
X29029171Y-73376633D01*
X29013107Y-73394357D01*
X28995383Y-73410421D01*
X28976170Y-73424671D01*
X28955653Y-73436968D01*
X28934029Y-73447196D01*
X28911507Y-73455254D01*
X28888303Y-73461066D01*
X28864642Y-73464576D01*
X28840750Y-73465750D01*
X27928250Y-73465750D01*
X27904358Y-73464576D01*
X27880697Y-73461066D01*
X27857493Y-73455254D01*
X27834971Y-73447196D01*
X27813347Y-73436968D01*
X27792830Y-73424671D01*
X27773617Y-73410421D01*
X27755893Y-73394357D01*
X27739829Y-73376633D01*
X27725579Y-73357420D01*
X27713282Y-73336903D01*
X27703054Y-73315279D01*
X27694996Y-73292757D01*
X27689184Y-73269553D01*
X27685674Y-73245892D01*
X27684500Y-73222000D01*
X27684500Y-72734500D01*
X27685674Y-72710608D01*
X27689184Y-72686947D01*
X27694996Y-72663743D01*
X27703054Y-72641221D01*
X27713282Y-72619597D01*
X27725579Y-72599080D01*
X27739829Y-72579867D01*
X27755893Y-72562143D01*
X27773617Y-72546079D01*
X27792830Y-72531829D01*
X27813347Y-72519532D01*
X27834971Y-72509304D01*
X27857493Y-72501246D01*
X27880697Y-72495434D01*
X27904358Y-72491924D01*
X27928250Y-72490750D01*
X28840750Y-72490750D01*
X28864642Y-72491924D01*
X28864642Y-72491924D01*
G37*
D21*
X28384500Y-72978250D03*
D10*
X90170000Y-93980000D03*
D11*
X87630000Y-93980000D03*
D12*
X86400000Y-84900000D03*
X85745001Y-85630000D03*
D13*
X85090000Y-86360000D02*
X86400002Y-84900000D01*
D12*
X91440000Y-83820000D03*
X91420000Y-84110000D03*
D13*
X91400000Y-84400000D02*
X91440000Y-83820000D01*
D20*
G36*
X27993254Y-75326204D02*
G01*
X28017523Y-75329804D01*
X28041321Y-75335765D01*
X28064421Y-75344030D01*
X28086599Y-75354520D01*
X28107643Y-75367133D01*
X28127348Y-75381747D01*
X28145527Y-75398223D01*
X28162003Y-75416402D01*
X28176617Y-75436107D01*
X28189230Y-75457151D01*
X28199720Y-75479329D01*
X28207985Y-75502429D01*
X28213946Y-75526227D01*
X28217546Y-75550496D01*
X28218750Y-75575000D01*
X28218750Y-76825000D01*
X28217546Y-76849504D01*
X28213946Y-76873773D01*
X28207985Y-76897571D01*
X28199720Y-76920671D01*
X28189230Y-76942849D01*
X28176617Y-76963893D01*
X28162003Y-76983598D01*
X28145527Y-77001777D01*
X28127348Y-77018253D01*
X28107643Y-77032867D01*
X28086599Y-77045480D01*
X28064421Y-77055970D01*
X28041321Y-77064235D01*
X28017523Y-77070196D01*
X27993254Y-77073796D01*
X27968750Y-77075000D01*
X27218750Y-77075000D01*
X27194246Y-77073796D01*
X27169977Y-77070196D01*
X27146179Y-77064235D01*
X27123079Y-77055970D01*
X27100901Y-77045480D01*
X27079857Y-77032867D01*
X27060152Y-77018253D01*
X27041973Y-77001777D01*
X27025497Y-76983598D01*
X27010883Y-76963893D01*
X26998270Y-76942849D01*
X26987780Y-76920671D01*
X26979515Y-76897571D01*
X26973554Y-76873773D01*
X26969954Y-76849504D01*
X26968750Y-76825000D01*
X26968750Y-75575000D01*
X26969954Y-75550496D01*
X26973554Y-75526227D01*
X26979515Y-75502429D01*
X26987780Y-75479329D01*
X26998270Y-75457151D01*
X27010883Y-75436107D01*
X27025497Y-75416402D01*
X27041973Y-75398223D01*
X27060152Y-75381747D01*
X27079857Y-75367133D01*
X27100901Y-75354520D01*
X27123079Y-75344030D01*
X27146179Y-75335765D01*
X27169977Y-75329804D01*
X27194246Y-75326204D01*
X27218750Y-75325000D01*
X27968750Y-75325000D01*
X27993254Y-75326204D01*
X27993254Y-75326204D01*
G37*
D22*
X27593750Y-76200000D03*
D20*
G36*
X25193254Y-75326204D02*
G01*
X25217523Y-75329804D01*
X25241321Y-75335765D01*
X25264421Y-75344030D01*
X25286599Y-75354520D01*
X25307643Y-75367133D01*
X25327348Y-75381747D01*
X25345527Y-75398223D01*
X25362003Y-75416402D01*
X25376617Y-75436107D01*
X25389230Y-75457151D01*
X25399720Y-75479329D01*
X25407985Y-75502429D01*
X25413946Y-75526227D01*
X25417546Y-75550496D01*
X25418750Y-75575000D01*
X25418750Y-76825000D01*
X25417546Y-76849504D01*
X25413946Y-76873773D01*
X25407985Y-76897571D01*
X25399720Y-76920671D01*
X25389230Y-76942849D01*
X25376617Y-76963893D01*
X25362003Y-76983598D01*
X25345527Y-77001777D01*
X25327348Y-77018253D01*
X25307643Y-77032867D01*
X25286599Y-77045480D01*
X25264421Y-77055970D01*
X25241321Y-77064235D01*
X25217523Y-77070196D01*
X25193254Y-77073796D01*
X25168750Y-77075000D01*
X24418750Y-77075000D01*
X24394246Y-77073796D01*
X24369977Y-77070196D01*
X24346179Y-77064235D01*
X24323079Y-77055970D01*
X24300901Y-77045480D01*
X24279857Y-77032867D01*
X24260152Y-77018253D01*
X24241973Y-77001777D01*
X24225497Y-76983598D01*
X24210883Y-76963893D01*
X24198270Y-76942849D01*
X24187780Y-76920671D01*
X24179515Y-76897571D01*
X24173554Y-76873773D01*
X24169954Y-76849504D01*
X24168750Y-76825000D01*
X24168750Y-75575000D01*
X24169954Y-75550496D01*
X24173554Y-75526227D01*
X24179515Y-75502429D01*
X24187780Y-75479329D01*
X24198270Y-75457151D01*
X24210883Y-75436107D01*
X24225497Y-75416402D01*
X24241973Y-75398223D01*
X24260152Y-75381747D01*
X24279857Y-75367133D01*
X24300901Y-75354520D01*
X24323079Y-75344030D01*
X24346179Y-75335765D01*
X24369977Y-75329804D01*
X24394246Y-75326204D01*
X24418750Y-75325000D01*
X25168750Y-75325000D01*
X25193254Y-75326204D01*
X25193254Y-75326204D01*
G37*
D22*
X24793750Y-76200000D03*
D23*
X96837500Y-87250000D03*
X96837500Y-90550000D03*
X77787500Y-87250000D03*
X77787500Y-90550000D03*
X96837500Y-68200000D03*
X96837500Y-71500000D03*
X77787500Y-68137500D03*
X77787500Y-71437500D03*
D20*
G36*
X39559142Y-77787174D02*
G01*
X39582803Y-77790684D01*
X39606007Y-77796496D01*
X39628529Y-77804554D01*
X39650153Y-77814782D01*
X39670670Y-77827079D01*
X39689883Y-77841329D01*
X39707607Y-77857393D01*
X39723671Y-77875117D01*
X39737921Y-77894330D01*
X39750218Y-77914847D01*
X39760446Y-77936471D01*
X39768504Y-77958993D01*
X39774316Y-77982197D01*
X39777826Y-78005858D01*
X39779000Y-78029750D01*
X39779000Y-78942250D01*
X39777826Y-78966142D01*
X39774316Y-78989803D01*
X39768504Y-79013007D01*
X39760446Y-79035529D01*
X39750218Y-79057153D01*
X39737921Y-79077670D01*
X39723671Y-79096883D01*
X39707607Y-79114607D01*
X39689883Y-79130671D01*
X39670670Y-79144921D01*
X39650153Y-79157218D01*
X39628529Y-79167446D01*
X39606007Y-79175504D01*
X39582803Y-79181316D01*
X39559142Y-79184826D01*
X39535250Y-79186000D01*
X39047750Y-79186000D01*
X39023858Y-79184826D01*
X39000197Y-79181316D01*
X38976993Y-79175504D01*
X38954471Y-79167446D01*
X38932847Y-79157218D01*
X38912330Y-79144921D01*
X38893117Y-79130671D01*
X38875393Y-79114607D01*
X38859329Y-79096883D01*
X38845079Y-79077670D01*
X38832782Y-79057153D01*
X38822554Y-79035529D01*
X38814496Y-79013007D01*
X38808684Y-78989803D01*
X38805174Y-78966142D01*
X38804000Y-78942250D01*
X38804000Y-78029750D01*
X38805174Y-78005858D01*
X38808684Y-77982197D01*
X38814496Y-77958993D01*
X38822554Y-77936471D01*
X38832782Y-77914847D01*
X38845079Y-77894330D01*
X38859329Y-77875117D01*
X38875393Y-77857393D01*
X38893117Y-77841329D01*
X38912330Y-77827079D01*
X38932847Y-77814782D01*
X38954471Y-77804554D01*
X38976993Y-77796496D01*
X39000197Y-77790684D01*
X39023858Y-77787174D01*
X39047750Y-77786000D01*
X39535250Y-77786000D01*
X39559142Y-77787174D01*
X39559142Y-77787174D01*
G37*
D21*
X39291500Y-78486000D03*
D20*
G36*
X37684142Y-77787174D02*
G01*
X37707803Y-77790684D01*
X37731007Y-77796496D01*
X37753529Y-77804554D01*
X37775153Y-77814782D01*
X37795670Y-77827079D01*
X37814883Y-77841329D01*
X37832607Y-77857393D01*
X37848671Y-77875117D01*
X37862921Y-77894330D01*
X37875218Y-77914847D01*
X37885446Y-77936471D01*
X37893504Y-77958993D01*
X37899316Y-77982197D01*
X37902826Y-78005858D01*
X37904000Y-78029750D01*
X37904000Y-78942250D01*
X37902826Y-78966142D01*
X37899316Y-78989803D01*
X37893504Y-79013007D01*
X37885446Y-79035529D01*
X37875218Y-79057153D01*
X37862921Y-79077670D01*
X37848671Y-79096883D01*
X37832607Y-79114607D01*
X37814883Y-79130671D01*
X37795670Y-79144921D01*
X37775153Y-79157218D01*
X37753529Y-79167446D01*
X37731007Y-79175504D01*
X37707803Y-79181316D01*
X37684142Y-79184826D01*
X37660250Y-79186000D01*
X37172750Y-79186000D01*
X37148858Y-79184826D01*
X37125197Y-79181316D01*
X37101993Y-79175504D01*
X37079471Y-79167446D01*
X37057847Y-79157218D01*
X37037330Y-79144921D01*
X37018117Y-79130671D01*
X37000393Y-79114607D01*
X36984329Y-79096883D01*
X36970079Y-79077670D01*
X36957782Y-79057153D01*
X36947554Y-79035529D01*
X36939496Y-79013007D01*
X36933684Y-78989803D01*
X36930174Y-78966142D01*
X36929000Y-78942250D01*
X36929000Y-78029750D01*
X36930174Y-78005858D01*
X36933684Y-77982197D01*
X36939496Y-77958993D01*
X36947554Y-77936471D01*
X36957782Y-77914847D01*
X36970079Y-77894330D01*
X36984329Y-77875117D01*
X37000393Y-77857393D01*
X37018117Y-77841329D01*
X37037330Y-77827079D01*
X37057847Y-77814782D01*
X37079471Y-77804554D01*
X37101993Y-77796496D01*
X37125197Y-77790684D01*
X37148858Y-77787174D01*
X37172750Y-77786000D01*
X37660250Y-77786000D01*
X37684142Y-77787174D01*
X37684142Y-77787174D01*
G37*
D21*
X37416500Y-78486000D03*
D20*
G36*
X44136392Y-68713674D02*
G01*
X44160053Y-68717184D01*
X44183257Y-68722996D01*
X44205779Y-68731054D01*
X44227403Y-68741282D01*
X44247920Y-68753579D01*
X44267133Y-68767829D01*
X44284857Y-68783893D01*
X44300921Y-68801617D01*
X44315171Y-68820830D01*
X44327468Y-68841347D01*
X44337696Y-68862971D01*
X44345754Y-68885493D01*
X44351566Y-68908697D01*
X44355076Y-68932358D01*
X44356250Y-68956250D01*
X44356250Y-69443750D01*
X44355076Y-69467642D01*
X44351566Y-69491303D01*
X44345754Y-69514507D01*
X44337696Y-69537029D01*
X44327468Y-69558653D01*
X44315171Y-69579170D01*
X44300921Y-69598383D01*
X44284857Y-69616107D01*
X44267133Y-69632171D01*
X44247920Y-69646421D01*
X44227403Y-69658718D01*
X44205779Y-69668946D01*
X44183257Y-69677004D01*
X44160053Y-69682816D01*
X44136392Y-69686326D01*
X44112500Y-69687500D01*
X43200000Y-69687500D01*
X43176108Y-69686326D01*
X43152447Y-69682816D01*
X43129243Y-69677004D01*
X43106721Y-69668946D01*
X43085097Y-69658718D01*
X43064580Y-69646421D01*
X43045367Y-69632171D01*
X43027643Y-69616107D01*
X43011579Y-69598383D01*
X42997329Y-69579170D01*
X42985032Y-69558653D01*
X42974804Y-69537029D01*
X42966746Y-69514507D01*
X42960934Y-69491303D01*
X42957424Y-69467642D01*
X42956250Y-69443750D01*
X42956250Y-68956250D01*
X42957424Y-68932358D01*
X42960934Y-68908697D01*
X42966746Y-68885493D01*
X42974804Y-68862971D01*
X42985032Y-68841347D01*
X42997329Y-68820830D01*
X43011579Y-68801617D01*
X43027643Y-68783893D01*
X43045367Y-68767829D01*
X43064580Y-68753579D01*
X43085097Y-68741282D01*
X43106721Y-68731054D01*
X43129243Y-68722996D01*
X43152447Y-68717184D01*
X43176108Y-68713674D01*
X43200000Y-68712500D01*
X44112500Y-68712500D01*
X44136392Y-68713674D01*
X44136392Y-68713674D01*
G37*
D21*
X43656250Y-69200000D03*
D20*
G36*
X44136392Y-66838674D02*
G01*
X44160053Y-66842184D01*
X44183257Y-66847996D01*
X44205779Y-66856054D01*
X44227403Y-66866282D01*
X44247920Y-66878579D01*
X44267133Y-66892829D01*
X44284857Y-66908893D01*
X44300921Y-66926617D01*
X44315171Y-66945830D01*
X44327468Y-66966347D01*
X44337696Y-66987971D01*
X44345754Y-67010493D01*
X44351566Y-67033697D01*
X44355076Y-67057358D01*
X44356250Y-67081250D01*
X44356250Y-67568750D01*
X44355076Y-67592642D01*
X44351566Y-67616303D01*
X44345754Y-67639507D01*
X44337696Y-67662029D01*
X44327468Y-67683653D01*
X44315171Y-67704170D01*
X44300921Y-67723383D01*
X44284857Y-67741107D01*
X44267133Y-67757171D01*
X44247920Y-67771421D01*
X44227403Y-67783718D01*
X44205779Y-67793946D01*
X44183257Y-67802004D01*
X44160053Y-67807816D01*
X44136392Y-67811326D01*
X44112500Y-67812500D01*
X43200000Y-67812500D01*
X43176108Y-67811326D01*
X43152447Y-67807816D01*
X43129243Y-67802004D01*
X43106721Y-67793946D01*
X43085097Y-67783718D01*
X43064580Y-67771421D01*
X43045367Y-67757171D01*
X43027643Y-67741107D01*
X43011579Y-67723383D01*
X42997329Y-67704170D01*
X42985032Y-67683653D01*
X42974804Y-67662029D01*
X42966746Y-67639507D01*
X42960934Y-67616303D01*
X42957424Y-67592642D01*
X42956250Y-67568750D01*
X42956250Y-67081250D01*
X42957424Y-67057358D01*
X42960934Y-67033697D01*
X42966746Y-67010493D01*
X42974804Y-66987971D01*
X42985032Y-66966347D01*
X42997329Y-66945830D01*
X43011579Y-66926617D01*
X43027643Y-66908893D01*
X43045367Y-66892829D01*
X43064580Y-66878579D01*
X43085097Y-66866282D01*
X43106721Y-66856054D01*
X43129243Y-66847996D01*
X43152447Y-66842184D01*
X43176108Y-66838674D01*
X43200000Y-66837500D01*
X44112500Y-66837500D01*
X44136392Y-66838674D01*
X44136392Y-66838674D01*
G37*
D21*
X43656250Y-67325000D03*
D20*
G36*
X52867642Y-66838674D02*
G01*
X52891303Y-66842184D01*
X52914507Y-66847996D01*
X52937029Y-66856054D01*
X52958653Y-66866282D01*
X52979170Y-66878579D01*
X52998383Y-66892829D01*
X53016107Y-66908893D01*
X53032171Y-66926617D01*
X53046421Y-66945830D01*
X53058718Y-66966347D01*
X53068946Y-66987971D01*
X53077004Y-67010493D01*
X53082816Y-67033697D01*
X53086326Y-67057358D01*
X53087500Y-67081250D01*
X53087500Y-67568750D01*
X53086326Y-67592642D01*
X53082816Y-67616303D01*
X53077004Y-67639507D01*
X53068946Y-67662029D01*
X53058718Y-67683653D01*
X53046421Y-67704170D01*
X53032171Y-67723383D01*
X53016107Y-67741107D01*
X52998383Y-67757171D01*
X52979170Y-67771421D01*
X52958653Y-67783718D01*
X52937029Y-67793946D01*
X52914507Y-67802004D01*
X52891303Y-67807816D01*
X52867642Y-67811326D01*
X52843750Y-67812500D01*
X51931250Y-67812500D01*
X51907358Y-67811326D01*
X51883697Y-67807816D01*
X51860493Y-67802004D01*
X51837971Y-67793946D01*
X51816347Y-67783718D01*
X51795830Y-67771421D01*
X51776617Y-67757171D01*
X51758893Y-67741107D01*
X51742829Y-67723383D01*
X51728579Y-67704170D01*
X51716282Y-67683653D01*
X51706054Y-67662029D01*
X51697996Y-67639507D01*
X51692184Y-67616303D01*
X51688674Y-67592642D01*
X51687500Y-67568750D01*
X51687500Y-67081250D01*
X51688674Y-67057358D01*
X51692184Y-67033697D01*
X51697996Y-67010493D01*
X51706054Y-66987971D01*
X51716282Y-66966347D01*
X51728579Y-66945830D01*
X51742829Y-66926617D01*
X51758893Y-66908893D01*
X51776617Y-66892829D01*
X51795830Y-66878579D01*
X51816347Y-66866282D01*
X51837971Y-66856054D01*
X51860493Y-66847996D01*
X51883697Y-66842184D01*
X51907358Y-66838674D01*
X51931250Y-66837500D01*
X52843750Y-66837500D01*
X52867642Y-66838674D01*
X52867642Y-66838674D01*
G37*
D21*
X52387500Y-67325000D03*
D20*
G36*
X52867642Y-68713674D02*
G01*
X52891303Y-68717184D01*
X52914507Y-68722996D01*
X52937029Y-68731054D01*
X52958653Y-68741282D01*
X52979170Y-68753579D01*
X52998383Y-68767829D01*
X53016107Y-68783893D01*
X53032171Y-68801617D01*
X53046421Y-68820830D01*
X53058718Y-68841347D01*
X53068946Y-68862971D01*
X53077004Y-68885493D01*
X53082816Y-68908697D01*
X53086326Y-68932358D01*
X53087500Y-68956250D01*
X53087500Y-69443750D01*
X53086326Y-69467642D01*
X53082816Y-69491303D01*
X53077004Y-69514507D01*
X53068946Y-69537029D01*
X53058718Y-69558653D01*
X53046421Y-69579170D01*
X53032171Y-69598383D01*
X53016107Y-69616107D01*
X52998383Y-69632171D01*
X52979170Y-69646421D01*
X52958653Y-69658718D01*
X52937029Y-69668946D01*
X52914507Y-69677004D01*
X52891303Y-69682816D01*
X52867642Y-69686326D01*
X52843750Y-69687500D01*
X51931250Y-69687500D01*
X51907358Y-69686326D01*
X51883697Y-69682816D01*
X51860493Y-69677004D01*
X51837971Y-69668946D01*
X51816347Y-69658718D01*
X51795830Y-69646421D01*
X51776617Y-69632171D01*
X51758893Y-69616107D01*
X51742829Y-69598383D01*
X51728579Y-69579170D01*
X51716282Y-69558653D01*
X51706054Y-69537029D01*
X51697996Y-69514507D01*
X51692184Y-69491303D01*
X51688674Y-69467642D01*
X51687500Y-69443750D01*
X51687500Y-68956250D01*
X51688674Y-68932358D01*
X51692184Y-68908697D01*
X51697996Y-68885493D01*
X51706054Y-68862971D01*
X51716282Y-68841347D01*
X51728579Y-68820830D01*
X51742829Y-68801617D01*
X51758893Y-68783893D01*
X51776617Y-68767829D01*
X51795830Y-68753579D01*
X51816347Y-68741282D01*
X51837971Y-68731054D01*
X51860493Y-68722996D01*
X51883697Y-68717184D01*
X51907358Y-68713674D01*
X51931250Y-68712500D01*
X52843750Y-68712500D01*
X52867642Y-68713674D01*
X52867642Y-68713674D01*
G37*
D21*
X52387500Y-69200000D03*
D20*
G36*
X39215142Y-84700674D02*
G01*
X39238803Y-84704184D01*
X39262007Y-84709996D01*
X39284529Y-84718054D01*
X39306153Y-84728282D01*
X39326670Y-84740579D01*
X39345883Y-84754829D01*
X39363607Y-84770893D01*
X39379671Y-84788617D01*
X39393921Y-84807830D01*
X39406218Y-84828347D01*
X39416446Y-84849971D01*
X39424504Y-84872493D01*
X39430316Y-84895697D01*
X39433826Y-84919358D01*
X39435000Y-84943250D01*
X39435000Y-85430750D01*
X39433826Y-85454642D01*
X39430316Y-85478303D01*
X39424504Y-85501507D01*
X39416446Y-85524029D01*
X39406218Y-85545653D01*
X39393921Y-85566170D01*
X39379671Y-85585383D01*
X39363607Y-85603107D01*
X39345883Y-85619171D01*
X39326670Y-85633421D01*
X39306153Y-85645718D01*
X39284529Y-85655946D01*
X39262007Y-85664004D01*
X39238803Y-85669816D01*
X39215142Y-85673326D01*
X39191250Y-85674500D01*
X38278750Y-85674500D01*
X38254858Y-85673326D01*
X38231197Y-85669816D01*
X38207993Y-85664004D01*
X38185471Y-85655946D01*
X38163847Y-85645718D01*
X38143330Y-85633421D01*
X38124117Y-85619171D01*
X38106393Y-85603107D01*
X38090329Y-85585383D01*
X38076079Y-85566170D01*
X38063782Y-85545653D01*
X38053554Y-85524029D01*
X38045496Y-85501507D01*
X38039684Y-85478303D01*
X38036174Y-85454642D01*
X38035000Y-85430750D01*
X38035000Y-84943250D01*
X38036174Y-84919358D01*
X38039684Y-84895697D01*
X38045496Y-84872493D01*
X38053554Y-84849971D01*
X38063782Y-84828347D01*
X38076079Y-84807830D01*
X38090329Y-84788617D01*
X38106393Y-84770893D01*
X38124117Y-84754829D01*
X38143330Y-84740579D01*
X38163847Y-84728282D01*
X38185471Y-84718054D01*
X38207993Y-84709996D01*
X38231197Y-84704184D01*
X38254858Y-84700674D01*
X38278750Y-84699500D01*
X39191250Y-84699500D01*
X39215142Y-84700674D01*
X39215142Y-84700674D01*
G37*
D21*
X38735000Y-85187000D03*
D20*
G36*
X39215142Y-82825674D02*
G01*
X39238803Y-82829184D01*
X39262007Y-82834996D01*
X39284529Y-82843054D01*
X39306153Y-82853282D01*
X39326670Y-82865579D01*
X39345883Y-82879829D01*
X39363607Y-82895893D01*
X39379671Y-82913617D01*
X39393921Y-82932830D01*
X39406218Y-82953347D01*
X39416446Y-82974971D01*
X39424504Y-82997493D01*
X39430316Y-83020697D01*
X39433826Y-83044358D01*
X39435000Y-83068250D01*
X39435000Y-83555750D01*
X39433826Y-83579642D01*
X39430316Y-83603303D01*
X39424504Y-83626507D01*
X39416446Y-83649029D01*
X39406218Y-83670653D01*
X39393921Y-83691170D01*
X39379671Y-83710383D01*
X39363607Y-83728107D01*
X39345883Y-83744171D01*
X39326670Y-83758421D01*
X39306153Y-83770718D01*
X39284529Y-83780946D01*
X39262007Y-83789004D01*
X39238803Y-83794816D01*
X39215142Y-83798326D01*
X39191250Y-83799500D01*
X38278750Y-83799500D01*
X38254858Y-83798326D01*
X38231197Y-83794816D01*
X38207993Y-83789004D01*
X38185471Y-83780946D01*
X38163847Y-83770718D01*
X38143330Y-83758421D01*
X38124117Y-83744171D01*
X38106393Y-83728107D01*
X38090329Y-83710383D01*
X38076079Y-83691170D01*
X38063782Y-83670653D01*
X38053554Y-83649029D01*
X38045496Y-83626507D01*
X38039684Y-83603303D01*
X38036174Y-83579642D01*
X38035000Y-83555750D01*
X38035000Y-83068250D01*
X38036174Y-83044358D01*
X38039684Y-83020697D01*
X38045496Y-82997493D01*
X38053554Y-82974971D01*
X38063782Y-82953347D01*
X38076079Y-82932830D01*
X38090329Y-82913617D01*
X38106393Y-82895893D01*
X38124117Y-82879829D01*
X38143330Y-82865579D01*
X38163847Y-82853282D01*
X38185471Y-82843054D01*
X38207993Y-82834996D01*
X38231197Y-82829184D01*
X38254858Y-82825674D01*
X38278750Y-82824500D01*
X39191250Y-82824500D01*
X39215142Y-82825674D01*
X39215142Y-82825674D01*
G37*
D21*
X38735000Y-83312000D03*
D20*
G36*
X52670142Y-88709174D02*
G01*
X52693803Y-88712684D01*
X52717007Y-88718496D01*
X52739529Y-88726554D01*
X52761153Y-88736782D01*
X52781670Y-88749079D01*
X52800883Y-88763329D01*
X52818607Y-88779393D01*
X52834671Y-88797117D01*
X52848921Y-88816330D01*
X52861218Y-88836847D01*
X52871446Y-88858471D01*
X52879504Y-88880993D01*
X52885316Y-88904197D01*
X52888826Y-88927858D01*
X52890000Y-88951750D01*
X52890000Y-89864250D01*
X52888826Y-89888142D01*
X52885316Y-89911803D01*
X52879504Y-89935007D01*
X52871446Y-89957529D01*
X52861218Y-89979153D01*
X52848921Y-89999670D01*
X52834671Y-90018883D01*
X52818607Y-90036607D01*
X52800883Y-90052671D01*
X52781670Y-90066921D01*
X52761153Y-90079218D01*
X52739529Y-90089446D01*
X52717007Y-90097504D01*
X52693803Y-90103316D01*
X52670142Y-90106826D01*
X52646250Y-90108000D01*
X52158750Y-90108000D01*
X52134858Y-90106826D01*
X52111197Y-90103316D01*
X52087993Y-90097504D01*
X52065471Y-90089446D01*
X52043847Y-90079218D01*
X52023330Y-90066921D01*
X52004117Y-90052671D01*
X51986393Y-90036607D01*
X51970329Y-90018883D01*
X51956079Y-89999670D01*
X51943782Y-89979153D01*
X51933554Y-89957529D01*
X51925496Y-89935007D01*
X51919684Y-89911803D01*
X51916174Y-89888142D01*
X51915000Y-89864250D01*
X51915000Y-88951750D01*
X51916174Y-88927858D01*
X51919684Y-88904197D01*
X51925496Y-88880993D01*
X51933554Y-88858471D01*
X51943782Y-88836847D01*
X51956079Y-88816330D01*
X51970329Y-88797117D01*
X51986393Y-88779393D01*
X52004117Y-88763329D01*
X52023330Y-88749079D01*
X52043847Y-88736782D01*
X52065471Y-88726554D01*
X52087993Y-88718496D01*
X52111197Y-88712684D01*
X52134858Y-88709174D01*
X52158750Y-88708000D01*
X52646250Y-88708000D01*
X52670142Y-88709174D01*
X52670142Y-88709174D01*
G37*
D21*
X52402500Y-89408000D03*
D20*
G36*
X54545142Y-88709174D02*
G01*
X54568803Y-88712684D01*
X54592007Y-88718496D01*
X54614529Y-88726554D01*
X54636153Y-88736782D01*
X54656670Y-88749079D01*
X54675883Y-88763329D01*
X54693607Y-88779393D01*
X54709671Y-88797117D01*
X54723921Y-88816330D01*
X54736218Y-88836847D01*
X54746446Y-88858471D01*
X54754504Y-88880993D01*
X54760316Y-88904197D01*
X54763826Y-88927858D01*
X54765000Y-88951750D01*
X54765000Y-89864250D01*
X54763826Y-89888142D01*
X54760316Y-89911803D01*
X54754504Y-89935007D01*
X54746446Y-89957529D01*
X54736218Y-89979153D01*
X54723921Y-89999670D01*
X54709671Y-90018883D01*
X54693607Y-90036607D01*
X54675883Y-90052671D01*
X54656670Y-90066921D01*
X54636153Y-90079218D01*
X54614529Y-90089446D01*
X54592007Y-90097504D01*
X54568803Y-90103316D01*
X54545142Y-90106826D01*
X54521250Y-90108000D01*
X54033750Y-90108000D01*
X54009858Y-90106826D01*
X53986197Y-90103316D01*
X53962993Y-90097504D01*
X53940471Y-90089446D01*
X53918847Y-90079218D01*
X53898330Y-90066921D01*
X53879117Y-90052671D01*
X53861393Y-90036607D01*
X53845329Y-90018883D01*
X53831079Y-89999670D01*
X53818782Y-89979153D01*
X53808554Y-89957529D01*
X53800496Y-89935007D01*
X53794684Y-89911803D01*
X53791174Y-89888142D01*
X53790000Y-89864250D01*
X53790000Y-88951750D01*
X53791174Y-88927858D01*
X53794684Y-88904197D01*
X53800496Y-88880993D01*
X53808554Y-88858471D01*
X53818782Y-88836847D01*
X53831079Y-88816330D01*
X53845329Y-88797117D01*
X53861393Y-88779393D01*
X53879117Y-88763329D01*
X53898330Y-88749079D01*
X53918847Y-88736782D01*
X53940471Y-88726554D01*
X53962993Y-88718496D01*
X53986197Y-88712684D01*
X54009858Y-88709174D01*
X54033750Y-88708000D01*
X54521250Y-88708000D01*
X54545142Y-88709174D01*
X54545142Y-88709174D01*
G37*
D21*
X54277500Y-89408000D03*
D20*
G36*
X58138142Y-74395174D02*
G01*
X58161803Y-74398684D01*
X58185007Y-74404496D01*
X58207529Y-74412554D01*
X58229153Y-74422782D01*
X58249670Y-74435079D01*
X58268883Y-74449329D01*
X58286607Y-74465393D01*
X58302671Y-74483117D01*
X58316921Y-74502330D01*
X58329218Y-74522847D01*
X58339446Y-74544471D01*
X58347504Y-74566993D01*
X58353316Y-74590197D01*
X58356826Y-74613858D01*
X58358000Y-74637750D01*
X58358000Y-75125250D01*
X58356826Y-75149142D01*
X58353316Y-75172803D01*
X58347504Y-75196007D01*
X58339446Y-75218529D01*
X58329218Y-75240153D01*
X58316921Y-75260670D01*
X58302671Y-75279883D01*
X58286607Y-75297607D01*
X58268883Y-75313671D01*
X58249670Y-75327921D01*
X58229153Y-75340218D01*
X58207529Y-75350446D01*
X58185007Y-75358504D01*
X58161803Y-75364316D01*
X58138142Y-75367826D01*
X58114250Y-75369000D01*
X57201750Y-75369000D01*
X57177858Y-75367826D01*
X57154197Y-75364316D01*
X57130993Y-75358504D01*
X57108471Y-75350446D01*
X57086847Y-75340218D01*
X57066330Y-75327921D01*
X57047117Y-75313671D01*
X57029393Y-75297607D01*
X57013329Y-75279883D01*
X56999079Y-75260670D01*
X56986782Y-75240153D01*
X56976554Y-75218529D01*
X56968496Y-75196007D01*
X56962684Y-75172803D01*
X56959174Y-75149142D01*
X56958000Y-75125250D01*
X56958000Y-74637750D01*
X56959174Y-74613858D01*
X56962684Y-74590197D01*
X56968496Y-74566993D01*
X56976554Y-74544471D01*
X56986782Y-74522847D01*
X56999079Y-74502330D01*
X57013329Y-74483117D01*
X57029393Y-74465393D01*
X57047117Y-74449329D01*
X57066330Y-74435079D01*
X57086847Y-74422782D01*
X57108471Y-74412554D01*
X57130993Y-74404496D01*
X57154197Y-74398684D01*
X57177858Y-74395174D01*
X57201750Y-74394000D01*
X58114250Y-74394000D01*
X58138142Y-74395174D01*
X58138142Y-74395174D01*
G37*
D21*
X57658000Y-74881500D03*
D20*
G36*
X58138142Y-76270174D02*
G01*
X58161803Y-76273684D01*
X58185007Y-76279496D01*
X58207529Y-76287554D01*
X58229153Y-76297782D01*
X58249670Y-76310079D01*
X58268883Y-76324329D01*
X58286607Y-76340393D01*
X58302671Y-76358117D01*
X58316921Y-76377330D01*
X58329218Y-76397847D01*
X58339446Y-76419471D01*
X58347504Y-76441993D01*
X58353316Y-76465197D01*
X58356826Y-76488858D01*
X58358000Y-76512750D01*
X58358000Y-77000250D01*
X58356826Y-77024142D01*
X58353316Y-77047803D01*
X58347504Y-77071007D01*
X58339446Y-77093529D01*
X58329218Y-77115153D01*
X58316921Y-77135670D01*
X58302671Y-77154883D01*
X58286607Y-77172607D01*
X58268883Y-77188671D01*
X58249670Y-77202921D01*
X58229153Y-77215218D01*
X58207529Y-77225446D01*
X58185007Y-77233504D01*
X58161803Y-77239316D01*
X58138142Y-77242826D01*
X58114250Y-77244000D01*
X57201750Y-77244000D01*
X57177858Y-77242826D01*
X57154197Y-77239316D01*
X57130993Y-77233504D01*
X57108471Y-77225446D01*
X57086847Y-77215218D01*
X57066330Y-77202921D01*
X57047117Y-77188671D01*
X57029393Y-77172607D01*
X57013329Y-77154883D01*
X56999079Y-77135670D01*
X56986782Y-77115153D01*
X56976554Y-77093529D01*
X56968496Y-77071007D01*
X56962684Y-77047803D01*
X56959174Y-77024142D01*
X56958000Y-77000250D01*
X56958000Y-76512750D01*
X56959174Y-76488858D01*
X56962684Y-76465197D01*
X56968496Y-76441993D01*
X56976554Y-76419471D01*
X56986782Y-76397847D01*
X56999079Y-76377330D01*
X57013329Y-76358117D01*
X57029393Y-76340393D01*
X57047117Y-76324329D01*
X57066330Y-76310079D01*
X57086847Y-76297782D01*
X57108471Y-76287554D01*
X57130993Y-76279496D01*
X57154197Y-76273684D01*
X57177858Y-76270174D01*
X57201750Y-76269000D01*
X58114250Y-76269000D01*
X58138142Y-76270174D01*
X58138142Y-76270174D01*
G37*
D21*
X57658000Y-76756500D03*
D20*
G36*
X40993142Y-69569174D02*
G01*
X41016803Y-69572684D01*
X41040007Y-69578496D01*
X41062529Y-69586554D01*
X41084153Y-69596782D01*
X41104670Y-69609079D01*
X41123883Y-69623329D01*
X41141607Y-69639393D01*
X41157671Y-69657117D01*
X41171921Y-69676330D01*
X41184218Y-69696847D01*
X41194446Y-69718471D01*
X41202504Y-69740993D01*
X41208316Y-69764197D01*
X41211826Y-69787858D01*
X41213000Y-69811750D01*
X41213000Y-70299250D01*
X41211826Y-70323142D01*
X41208316Y-70346803D01*
X41202504Y-70370007D01*
X41194446Y-70392529D01*
X41184218Y-70414153D01*
X41171921Y-70434670D01*
X41157671Y-70453883D01*
X41141607Y-70471607D01*
X41123883Y-70487671D01*
X41104670Y-70501921D01*
X41084153Y-70514218D01*
X41062529Y-70524446D01*
X41040007Y-70532504D01*
X41016803Y-70538316D01*
X40993142Y-70541826D01*
X40969250Y-70543000D01*
X40056750Y-70543000D01*
X40032858Y-70541826D01*
X40009197Y-70538316D01*
X39985993Y-70532504D01*
X39963471Y-70524446D01*
X39941847Y-70514218D01*
X39921330Y-70501921D01*
X39902117Y-70487671D01*
X39884393Y-70471607D01*
X39868329Y-70453883D01*
X39854079Y-70434670D01*
X39841782Y-70414153D01*
X39831554Y-70392529D01*
X39823496Y-70370007D01*
X39817684Y-70346803D01*
X39814174Y-70323142D01*
X39813000Y-70299250D01*
X39813000Y-69811750D01*
X39814174Y-69787858D01*
X39817684Y-69764197D01*
X39823496Y-69740993D01*
X39831554Y-69718471D01*
X39841782Y-69696847D01*
X39854079Y-69676330D01*
X39868329Y-69657117D01*
X39884393Y-69639393D01*
X39902117Y-69623329D01*
X39921330Y-69609079D01*
X39941847Y-69596782D01*
X39963471Y-69586554D01*
X39985993Y-69578496D01*
X40009197Y-69572684D01*
X40032858Y-69569174D01*
X40056750Y-69568000D01*
X40969250Y-69568000D01*
X40993142Y-69569174D01*
X40993142Y-69569174D01*
G37*
D21*
X40513000Y-70055500D03*
D20*
G36*
X40993142Y-71444174D02*
G01*
X41016803Y-71447684D01*
X41040007Y-71453496D01*
X41062529Y-71461554D01*
X41084153Y-71471782D01*
X41104670Y-71484079D01*
X41123883Y-71498329D01*
X41141607Y-71514393D01*
X41157671Y-71532117D01*
X41171921Y-71551330D01*
X41184218Y-71571847D01*
X41194446Y-71593471D01*
X41202504Y-71615993D01*
X41208316Y-71639197D01*
X41211826Y-71662858D01*
X41213000Y-71686750D01*
X41213000Y-72174250D01*
X41211826Y-72198142D01*
X41208316Y-72221803D01*
X41202504Y-72245007D01*
X41194446Y-72267529D01*
X41184218Y-72289153D01*
X41171921Y-72309670D01*
X41157671Y-72328883D01*
X41141607Y-72346607D01*
X41123883Y-72362671D01*
X41104670Y-72376921D01*
X41084153Y-72389218D01*
X41062529Y-72399446D01*
X41040007Y-72407504D01*
X41016803Y-72413316D01*
X40993142Y-72416826D01*
X40969250Y-72418000D01*
X40056750Y-72418000D01*
X40032858Y-72416826D01*
X40009197Y-72413316D01*
X39985993Y-72407504D01*
X39963471Y-72399446D01*
X39941847Y-72389218D01*
X39921330Y-72376921D01*
X39902117Y-72362671D01*
X39884393Y-72346607D01*
X39868329Y-72328883D01*
X39854079Y-72309670D01*
X39841782Y-72289153D01*
X39831554Y-72267529D01*
X39823496Y-72245007D01*
X39817684Y-72221803D01*
X39814174Y-72198142D01*
X39813000Y-72174250D01*
X39813000Y-71686750D01*
X39814174Y-71662858D01*
X39817684Y-71639197D01*
X39823496Y-71615993D01*
X39831554Y-71593471D01*
X39841782Y-71571847D01*
X39854079Y-71551330D01*
X39868329Y-71532117D01*
X39884393Y-71514393D01*
X39902117Y-71498329D01*
X39921330Y-71484079D01*
X39941847Y-71471782D01*
X39963471Y-71461554D01*
X39985993Y-71453496D01*
X40009197Y-71447684D01*
X40032858Y-71444174D01*
X40056750Y-71443000D01*
X40969250Y-71443000D01*
X40993142Y-71444174D01*
X40993142Y-71444174D01*
G37*
D21*
X40513000Y-71930500D03*
D24*
X59817000Y-76756500D03*
X55753000Y-89408000D03*
X40996000Y-82575000D03*
X41021000Y-78008250D03*
X38989000Y-69977000D03*
X34850000Y-90372000D03*
X35433000Y-72009000D03*
D25*
X49606250Y-67325000D02*
X49518750Y-67412500D01*
X49215848Y-67412500D02*
X49518750Y-67412500D01*
X47318750Y-69112500D02*
X47515848Y-69112500D01*
X42784000Y-69200000D02*
X43656250Y-69200000D01*
X42037000Y-68453000D02*
X42784000Y-69200000D01*
X49000250Y-65913000D02*
X42672000Y-65913000D01*
X49518750Y-66431500D02*
X49000250Y-65913000D01*
X42037000Y-66548000D02*
X42037000Y-68453000D01*
X42672000Y-65913000D02*
X42037000Y-66548000D01*
X49518750Y-67412500D02*
X49518750Y-66431500D01*
X49321652Y-67412500D02*
X49518750Y-67412500D01*
X47621652Y-69112500D02*
X49321652Y-67412500D01*
X47318750Y-69112500D02*
X47621652Y-69112500D01*
X52300000Y-67412500D02*
X52387500Y-67325000D01*
X49518750Y-67412500D02*
X52300000Y-67412500D01*
X43656250Y-69200000D02*
X43671250Y-69215000D01*
X46818750Y-72362500D02*
X43656250Y-69200000D01*
X46818750Y-73675000D02*
X46818750Y-72362500D01*
X41480500Y-70055500D02*
X40513000Y-70055500D01*
X42545000Y-71120000D02*
X41480500Y-70055500D01*
X45593000Y-71120000D02*
X42545000Y-71120000D01*
X46818750Y-72345750D02*
X45593000Y-71120000D01*
X46818750Y-73675000D02*
X46818750Y-72345750D01*
X33274000Y-77089000D02*
X33274000Y-68799000D01*
X36360000Y-80175000D02*
X33274000Y-77089000D01*
X37935000Y-85187000D02*
X38735000Y-85187000D01*
X30256000Y-85187000D02*
X37935000Y-85187000D01*
X26670000Y-94869000D02*
X26670000Y-88773000D01*
X27313500Y-95512500D02*
X26670000Y-94869000D01*
X26670000Y-88773000D02*
X30256000Y-85187000D01*
X28650000Y-95512500D02*
X27313500Y-95512500D01*
X52451000Y-89359500D02*
X52402500Y-89408000D01*
X52451000Y-87630000D02*
X52451000Y-89359500D01*
X51618750Y-86797750D02*
X52451000Y-87630000D01*
X51618750Y-85075000D02*
X51618750Y-86797750D01*
X57943750Y-86456250D02*
X57943750Y-85868750D01*
X52402500Y-90375500D02*
X53467000Y-91440000D01*
X56070500Y-91440000D02*
X57943750Y-89566750D01*
X53467000Y-91440000D02*
X56070500Y-91440000D01*
X57943750Y-89566750D02*
X57943750Y-86456250D01*
X52402500Y-89408000D02*
X52402500Y-90375500D01*
X37416500Y-79580500D02*
X38011000Y-80175000D01*
X37416500Y-78486000D02*
X37416500Y-79580500D01*
X38011000Y-80175000D02*
X36360000Y-80175000D01*
X42718750Y-80175000D02*
X38011000Y-80175000D01*
X53022000Y-75375000D02*
X54118750Y-75375000D01*
X51689000Y-76708000D02*
X53022000Y-75375000D01*
X50673000Y-77724000D02*
X51689000Y-76708000D01*
X50673000Y-82998250D02*
X50673000Y-77724000D01*
X51618750Y-83944000D02*
X50673000Y-82998250D01*
X50673000Y-77724000D02*
X48514000Y-77724000D01*
X46818750Y-76028750D02*
X46818750Y-73675000D01*
X48514000Y-77724000D02*
X46818750Y-76028750D01*
X45218750Y-83944000D02*
X46231750Y-82931000D01*
X45218750Y-85075000D02*
X45218750Y-83944000D01*
X50605750Y-82931000D02*
X46231750Y-82931000D01*
X51618750Y-83944000D02*
X50605750Y-82931000D01*
X51618750Y-85075000D02*
X51618750Y-83944000D01*
X43849750Y-80175000D02*
X42718750Y-80175000D01*
X45504000Y-80175000D02*
X43849750Y-80175000D01*
X46231750Y-80902750D02*
X45504000Y-80175000D01*
X46231750Y-82931000D02*
X46231750Y-80902750D01*
X31762500Y-67287500D02*
X31762500Y-66412500D01*
X33274000Y-68799000D02*
X31762500Y-67287500D01*
X55928500Y-74881500D02*
X57943750Y-74881500D01*
X57943750Y-74881500D02*
X57658000Y-74881500D01*
X55435000Y-75375000D02*
X55928500Y-74881500D01*
X54118750Y-75375000D02*
X55435000Y-75375000D01*
X40924000Y-87376000D02*
X38735000Y-85187000D01*
X45218750Y-85075000D02*
X45218750Y-85591250D01*
X44323000Y-87376000D02*
X40924000Y-87376000D01*
X45212000Y-86487000D02*
X44323000Y-87376000D01*
X45218750Y-85591250D02*
X45212000Y-85598000D01*
X45212000Y-85598000D02*
X45212000Y-86487000D01*
X39624000Y-83312000D02*
X40361000Y-82575000D01*
X38735000Y-83312000D02*
X39624000Y-83312000D01*
X54277500Y-88440500D02*
X52418750Y-86581750D01*
X52418750Y-86581750D02*
X52418750Y-85075000D01*
X54277500Y-89408000D02*
X54277500Y-88440500D01*
X54277500Y-89408000D02*
X55753000Y-89408000D01*
X40996000Y-82575000D02*
X42718750Y-82575000D01*
X40361000Y-82575000D02*
X40996000Y-82575000D01*
X40996000Y-83380152D02*
X40996000Y-82575000D01*
X44069000Y-86741000D02*
X43180000Y-86741000D01*
X40996000Y-84557000D02*
X40996000Y-83380152D01*
X43180000Y-86741000D02*
X40996000Y-84557000D01*
X44418750Y-86391250D02*
X44069000Y-86741000D01*
X44418750Y-85075000D02*
X44418750Y-86391250D01*
X41587750Y-78575000D02*
X41021000Y-78008250D01*
X42718750Y-78575000D02*
X41587750Y-78575000D01*
X28321000Y-76200000D02*
X27593750Y-76200000D01*
X34696000Y-82575000D02*
X28321000Y-76200000D01*
X37109000Y-82575000D02*
X34696000Y-82575000D01*
X37846000Y-83312000D02*
X37109000Y-82575000D01*
X38735000Y-83312000D02*
X37846000Y-83312000D01*
X59817000Y-76756500D02*
X57658000Y-76756500D01*
X56055500Y-76756500D02*
X57658000Y-76756500D01*
X55474000Y-76175000D02*
X56055500Y-76756500D01*
X54118750Y-76175000D02*
X55474000Y-76175000D01*
X45405250Y-71930500D02*
X40513000Y-71930500D01*
X46018750Y-72544000D02*
X45405250Y-71930500D01*
X46018750Y-73675000D02*
X46018750Y-72544000D01*
X37338000Y-70055500D02*
X39213000Y-71930500D01*
X39213000Y-71930500D02*
X40513000Y-71930500D01*
X37416500Y-69977000D02*
X37338000Y-70055500D01*
X38989000Y-69977000D02*
X37416500Y-69977000D01*
D26*
X73732000Y-65350000D02*
X72350000Y-65350000D01*
X76519500Y-68137500D02*
X73732000Y-65350000D01*
X77787500Y-68137500D02*
X76519500Y-68137500D01*
X78641500Y-71437500D02*
X77787500Y-71437500D01*
X80229000Y-73025000D02*
X78641500Y-71437500D01*
X95504000Y-73025000D02*
X80229000Y-73025000D01*
X96901000Y-71628000D02*
X95504000Y-73025000D01*
X77787500Y-71818500D02*
X77787500Y-71437500D01*
X71031000Y-78575000D02*
X77787500Y-71818500D01*
X54118750Y-78575000D02*
X71031000Y-78575000D01*
X94870000Y-68200000D02*
X91440000Y-64770000D01*
X96837500Y-68200000D02*
X94870000Y-68200000D01*
X96687500Y-90550000D02*
X95250000Y-91987500D01*
X96837500Y-90550000D02*
X96687500Y-90550000D01*
X80079000Y-91987500D02*
X78641500Y-90550000D01*
X78641500Y-90550000D02*
X77787500Y-90550000D01*
X95250000Y-91987500D02*
X80079000Y-91987500D01*
X76933500Y-90550000D02*
X77787500Y-90550000D01*
X62865000Y-90805000D02*
X64008000Y-91948000D01*
X62865000Y-82677000D02*
X62865000Y-90805000D01*
X75535500Y-91948000D02*
X76933500Y-90550000D01*
X64008000Y-91948000D02*
X75535500Y-91948000D01*
X61163000Y-80975000D02*
X62865000Y-82677000D01*
X54118750Y-80975000D02*
X61163000Y-80975000D01*
X73351000Y-84400000D02*
X76201000Y-87250000D01*
X76201000Y-87250000D02*
X77787500Y-87250000D01*
X72350000Y-84400000D02*
X73351000Y-84400000D01*
X96837500Y-87250000D02*
X94870000Y-87250000D01*
X94870000Y-87250000D02*
X91440000Y-83820000D01*
D25*
X24793750Y-71250000D02*
X24793750Y-76200000D01*
X28562500Y-67287500D02*
X28575000Y-67300000D01*
X28562500Y-67287500D02*
X28562500Y-66412500D01*
X24793750Y-71056250D02*
X28562500Y-67287500D01*
X24793750Y-71250000D02*
X24793750Y-71056250D01*
D26*
X66104000Y-84900000D02*
X67350000Y-84900000D01*
X61379000Y-80175000D02*
X66104000Y-84900000D01*
X54118750Y-80175000D02*
X61379000Y-80175000D01*
X78354250Y-79624250D02*
X85090000Y-86360000D01*
X78105000Y-79375000D02*
X78354250Y-79624250D01*
X54118750Y-79375000D02*
X78105000Y-79375000D01*
X28575000Y-70912750D02*
X28384500Y-71103250D01*
X28575000Y-69043750D02*
X28575000Y-70912750D01*
X29362500Y-68256250D02*
X28575000Y-69043750D01*
X29362500Y-66412500D02*
X29362500Y-68256250D01*
X30956250Y-70500000D02*
X31559500Y-71103250D01*
X30956250Y-69056250D02*
X30956250Y-70500000D01*
X30162500Y-68262500D02*
X30956250Y-69056250D01*
X30162500Y-66412500D02*
X30162500Y-68262500D01*
X42081250Y-80975000D02*
X42718750Y-80975000D01*
X42068750Y-80962500D02*
X42081250Y-80975000D01*
X31559500Y-73215500D02*
X30162500Y-74612500D01*
X30162500Y-76200000D02*
X34925000Y-80962500D01*
X31559500Y-72978250D02*
X31559500Y-73215500D01*
X34925000Y-80962500D02*
X42068750Y-80962500D01*
X30162500Y-74612500D02*
X30162500Y-76200000D01*
X56307750Y-83993750D02*
X57943750Y-83993750D01*
X55689000Y-83375000D02*
X56307750Y-83993750D01*
X54118750Y-83375000D02*
X55689000Y-83375000D01*
X49606250Y-69200000D02*
X49518750Y-69112500D01*
X52387500Y-69200000D02*
X49606250Y-69200000D01*
X49518750Y-70623250D02*
X48418750Y-71723250D01*
X48418750Y-71723250D02*
X48418750Y-73675000D01*
X49518750Y-69112500D02*
X49518750Y-70623250D01*
X47231250Y-67325000D02*
X47318750Y-67412500D01*
X43656250Y-67325000D02*
X47231250Y-67325000D01*
X47618750Y-71621750D02*
X47618750Y-73675000D01*
X46101000Y-70104000D02*
X47618750Y-71621750D01*
X46101000Y-67676250D02*
X46101000Y-70104000D01*
X46364750Y-67412500D02*
X46101000Y-67676250D01*
X47318750Y-67412500D02*
X46364750Y-67412500D01*
X40386000Y-78486000D02*
X39291500Y-78486000D01*
X41275000Y-79375000D02*
X40386000Y-78486000D01*
X42718750Y-79375000D02*
X41275000Y-79375000D01*
X34850000Y-91812500D02*
X34850000Y-90372000D01*
X38432500Y-73025000D02*
X37338000Y-71930500D01*
X41783000Y-73025000D02*
X38432500Y-73025000D01*
X45064750Y-72517000D02*
X42291000Y-72517000D01*
X45218750Y-72671000D02*
X45064750Y-72517000D01*
X42291000Y-72517000D02*
X41783000Y-73025000D01*
X45218750Y-73675000D02*
X45218750Y-72671000D01*
X35511500Y-71930500D02*
X35433000Y-72009000D01*
X37338000Y-71930500D02*
X35511500Y-71930500D01*
X29368750Y-76200000D02*
X34943750Y-81775000D01*
X29368750Y-74612500D02*
X29368750Y-76200000D01*
X34943750Y-81775000D02*
X42718750Y-81775000D01*
X28384500Y-73628250D02*
X29368750Y-74612500D01*
X28384500Y-72978250D02*
X28384500Y-73628250D01*
G36*
X25048987Y-61121389D02*
G01*
X25027500Y-61339550D01*
X25027500Y-62485449D01*
X25048987Y-62703610D01*
X25133901Y-62983533D01*
X25271794Y-63241513D01*
X25457366Y-63467634D01*
X25683486Y-63653206D01*
X25941466Y-63791099D01*
X26221389Y-63876013D01*
X26512500Y-63904685D01*
X26803610Y-63876013D01*
X27083533Y-63791099D01*
X27341513Y-63653206D01*
X27567634Y-63467634D01*
X27753206Y-63241514D01*
X27891099Y-62983534D01*
X27976013Y-62703611D01*
X27997500Y-62485450D01*
X27997500Y-61339550D01*
X27976013Y-61121389D01*
X27945257Y-61020000D01*
X32379743Y-61020000D01*
X32348987Y-61121389D01*
X32327500Y-61339550D01*
X32327500Y-62485449D01*
X32348987Y-62703610D01*
X32433901Y-62983533D01*
X32571794Y-63241513D01*
X32757366Y-63467634D01*
X32983486Y-63653206D01*
X33241466Y-63791099D01*
X33521389Y-63876013D01*
X33812500Y-63904685D01*
X34103610Y-63876013D01*
X34383533Y-63791099D01*
X34641513Y-63653206D01*
X34867634Y-63467634D01*
X35053206Y-63241514D01*
X35191099Y-62983534D01*
X35276013Y-62703611D01*
X35297500Y-62485450D01*
X35297500Y-61339550D01*
X35276013Y-61121389D01*
X35245257Y-61020000D01*
X60198000Y-61020000D01*
X60198000Y-75794039D01*
X60118898Y-75761274D01*
X59918939Y-75721500D01*
X59715061Y-75721500D01*
X59515102Y-75761274D01*
X59326744Y-75839295D01*
X59189497Y-75931000D01*
X58772090Y-75931000D01*
X58737792Y-75889208D01*
X58731436Y-75883992D01*
X58809185Y-75820185D01*
X58888537Y-75723494D01*
X58947502Y-75613180D01*
X58983812Y-75493482D01*
X58996072Y-75369000D01*
X58993000Y-75167250D01*
X58834250Y-75008500D01*
X57785000Y-75008500D01*
X57785000Y-75028500D01*
X57531000Y-75028500D01*
X57531000Y-75008500D01*
X56481750Y-75008500D01*
X56323000Y-75167250D01*
X56319928Y-75369000D01*
X56332188Y-75493482D01*
X56368498Y-75613180D01*
X56427463Y-75723494D01*
X56506815Y-75820185D01*
X56584564Y-75883992D01*
X56578208Y-75889208D01*
X56543910Y-75931000D01*
X56397433Y-75931000D01*
X56086398Y-75619966D01*
X56060541Y-75588459D01*
X55934842Y-75485301D01*
X55791434Y-75408647D01*
X55635826Y-75361444D01*
X55514553Y-75349500D01*
X55514550Y-75349500D01*
X55503750Y-75348436D01*
X55503750Y-75247998D01*
X55345002Y-75247998D01*
X55503750Y-75089250D01*
X55493927Y-74972369D01*
X55457015Y-74852855D01*
X55397496Y-74742839D01*
X55317658Y-74646549D01*
X55220568Y-74567684D01*
X55109958Y-74509276D01*
X54990079Y-74473570D01*
X54865537Y-74461936D01*
X54404500Y-74465000D01*
X54245750Y-74623750D01*
X54245750Y-75248000D01*
X54265750Y-75248000D01*
X54265750Y-75261928D01*
X53368750Y-75261928D01*
X53244268Y-75274188D01*
X53124570Y-75310498D01*
X53014256Y-75369463D01*
X52917565Y-75448815D01*
X52838213Y-75545506D01*
X52825833Y-75568667D01*
X52733750Y-75660750D01*
X52743296Y-75774337D01*
X52742938Y-75775518D01*
X52730678Y-75900000D01*
X52730678Y-76450000D01*
X52742938Y-76574482D01*
X52743095Y-76575000D01*
X52742938Y-76575518D01*
X52730678Y-76700000D01*
X52730678Y-77250000D01*
X52742938Y-77374482D01*
X52743095Y-77375000D01*
X52742938Y-77375518D01*
X52730678Y-77500000D01*
X52730678Y-78050000D01*
X52742938Y-78174482D01*
X52743095Y-78175000D01*
X52742938Y-78175518D01*
X52730678Y-78300000D01*
X52730678Y-78850000D01*
X52742938Y-78974482D01*
X52743095Y-78975000D01*
X52742938Y-78975518D01*
X52730678Y-79100000D01*
X52730678Y-79650000D01*
X52742938Y-79774482D01*
X52743095Y-79775000D01*
X52742938Y-79775518D01*
X52730678Y-79900000D01*
X52730678Y-80450000D01*
X52742938Y-80574482D01*
X52743095Y-80575000D01*
X52742938Y-80575518D01*
X52730678Y-80700000D01*
X52730678Y-81250000D01*
X52742938Y-81374482D01*
X52743095Y-81375000D01*
X52742938Y-81375518D01*
X52730678Y-81500000D01*
X52730678Y-82050000D01*
X52742938Y-82174482D01*
X52743095Y-82175000D01*
X52742938Y-82175518D01*
X52730678Y-82300000D01*
X52730678Y-82850000D01*
X52742938Y-82974482D01*
X52743095Y-82975000D01*
X52742938Y-82975518D01*
X52730678Y-83100000D01*
X52730678Y-83650000D01*
X52734712Y-83690962D01*
X52693750Y-83686928D01*
X52143750Y-83686928D01*
X52019268Y-83699188D01*
X52018087Y-83699546D01*
X51904500Y-83690000D01*
X51812417Y-83782083D01*
X51789256Y-83794463D01*
X51692565Y-83873815D01*
X51618750Y-83963759D01*
X51544935Y-83873815D01*
X51448244Y-83794463D01*
X51425083Y-83782083D01*
X51333000Y-83690000D01*
X51219413Y-83699546D01*
X51218232Y-83699188D01*
X51093750Y-83686928D01*
X50543750Y-83686928D01*
X50419268Y-83699188D01*
X50418750Y-83699345D01*
X50418232Y-83699188D01*
X50293750Y-83686928D01*
X49743750Y-83686928D01*
X49619268Y-83699188D01*
X49618750Y-83699345D01*
X49618232Y-83699188D01*
X49493750Y-83686928D01*
X48943750Y-83686928D01*
X48819268Y-83699188D01*
X48818750Y-83699345D01*
X48818232Y-83699188D01*
X48693750Y-83686928D01*
X48143750Y-83686928D01*
X48019268Y-83699188D01*
X48018750Y-83699345D01*
X48018232Y-83699188D01*
X47893750Y-83686928D01*
X47343750Y-83686928D01*
X47219268Y-83699188D01*
X47218750Y-83699345D01*
X47218232Y-83699188D01*
X47093750Y-83686928D01*
X46543750Y-83686928D01*
X46419268Y-83699188D01*
X46418750Y-83699345D01*
X46418232Y-83699188D01*
X46293750Y-83686928D01*
X45743750Y-83686928D01*
X45619268Y-83699188D01*
X45618087Y-83699546D01*
X45504500Y-83690000D01*
X45412417Y-83782083D01*
X45389256Y-83794463D01*
X45292565Y-83873815D01*
X45218750Y-83963759D01*
X45144935Y-83873815D01*
X45048244Y-83794463D01*
X45025083Y-83782083D01*
X44933000Y-83690000D01*
X44819413Y-83699546D01*
X44818232Y-83699188D01*
X44693750Y-83686928D01*
X44143750Y-83686928D01*
X44102788Y-83690962D01*
X44106822Y-83650000D01*
X44106822Y-83100000D01*
X44094562Y-82975518D01*
X44094405Y-82975000D01*
X44094562Y-82974482D01*
X44106822Y-82850000D01*
X44106822Y-82300000D01*
X44094562Y-82175518D01*
X44094405Y-82175000D01*
X44094562Y-82174482D01*
X44106822Y-82050000D01*
X44106822Y-81500000D01*
X44094562Y-81375518D01*
X44094405Y-81375000D01*
X44094562Y-81374482D01*
X44106822Y-81250000D01*
X44106822Y-80700000D01*
X44094562Y-80575518D01*
X44094204Y-80574337D01*
X44103750Y-80460750D01*
X44011667Y-80368667D01*
X43999287Y-80345506D01*
X43919935Y-80248815D01*
X43829991Y-80175000D01*
X43919935Y-80101185D01*
X43999287Y-80004494D01*
X44011667Y-79981333D01*
X44103750Y-79889250D01*
X44094204Y-79775663D01*
X44094562Y-79774482D01*
X44106822Y-79650000D01*
X44106822Y-79100000D01*
X44094562Y-78975518D01*
X44094405Y-78975000D01*
X44094562Y-78974482D01*
X44106822Y-78850000D01*
X44106822Y-78300000D01*
X44094562Y-78175518D01*
X44094405Y-78175000D01*
X44094562Y-78174482D01*
X44106822Y-78050000D01*
X44106822Y-77500000D01*
X44094562Y-77375518D01*
X44094405Y-77375000D01*
X44094562Y-77374482D01*
X44106822Y-77250000D01*
X44106822Y-76700000D01*
X44094562Y-76575518D01*
X44094405Y-76575000D01*
X44094562Y-76574482D01*
X44106822Y-76450000D01*
X44106822Y-75900000D01*
X44094562Y-75775518D01*
X44094405Y-75775000D01*
X44094562Y-75774482D01*
X44106822Y-75650000D01*
X44106822Y-75100000D01*
X44102788Y-75059038D01*
X44143750Y-75063072D01*
X44693750Y-75063072D01*
X44818232Y-75050812D01*
X44818750Y-75050655D01*
X44819268Y-75050812D01*
X44943750Y-75063072D01*
X45493750Y-75063072D01*
X45618232Y-75050812D01*
X45618750Y-75050655D01*
X45619268Y-75050812D01*
X45743750Y-75063072D01*
X46293750Y-75063072D01*
X46418232Y-75050812D01*
X46419413Y-75050454D01*
X46533000Y-75060000D01*
X46625083Y-74967917D01*
X46648244Y-74955537D01*
X46744935Y-74876185D01*
X46818750Y-74786241D01*
X46892565Y-74876185D01*
X46989256Y-74955537D01*
X47012417Y-74967917D01*
X47104500Y-75060000D01*
X47218087Y-75050454D01*
X47219268Y-75050812D01*
X47343750Y-75063072D01*
X47893750Y-75063072D01*
X48018232Y-75050812D01*
X48018750Y-75050655D01*
X48019268Y-75050812D01*
X48143750Y-75063072D01*
X48693750Y-75063072D01*
X48818232Y-75050812D01*
X48818750Y-75050655D01*
X48819268Y-75050812D01*
X48943750Y-75063072D01*
X49493750Y-75063072D01*
X49618232Y-75050812D01*
X49618750Y-75050655D01*
X49619268Y-75050812D01*
X49743750Y-75063072D01*
X50293750Y-75063072D01*
X50418232Y-75050812D01*
X50418750Y-75050655D01*
X50419268Y-75050812D01*
X50543750Y-75063072D01*
X51093750Y-75063072D01*
X51218232Y-75050812D01*
X51218750Y-75050655D01*
X51219268Y-75050812D01*
X51343750Y-75063072D01*
X51893750Y-75063072D01*
X52018232Y-75050812D01*
X52018750Y-75050655D01*
X52019268Y-75050812D01*
X52143750Y-75063072D01*
X52693750Y-75063072D01*
X52736302Y-75058881D01*
X52733750Y-75089250D01*
X52892500Y-75248000D01*
X53991750Y-75248000D01*
X53991750Y-74623750D01*
X53833000Y-74465000D01*
X53371963Y-74461936D01*
X53327778Y-74466064D01*
X53331822Y-74425000D01*
X53331822Y-74394000D01*
X56319928Y-74394000D01*
X56323000Y-74595750D01*
X56481750Y-74754500D01*
X57531000Y-74754500D01*
X57531000Y-73917750D01*
X57785000Y-73917750D01*
X57785000Y-74754500D01*
X58834250Y-74754500D01*
X58993000Y-74595750D01*
X58996072Y-74394000D01*
X58983812Y-74269518D01*
X58947502Y-74149820D01*
X58888537Y-74039506D01*
X58809185Y-73942815D01*
X58712494Y-73863463D01*
X58602180Y-73804498D01*
X58482482Y-73768188D01*
X58358000Y-73755928D01*
X57943750Y-73759000D01*
X57785000Y-73917750D01*
X57531000Y-73917750D01*
X57372250Y-73759000D01*
X56958000Y-73755928D01*
X56833518Y-73768188D01*
X56713820Y-73804498D01*
X56603506Y-73863463D01*
X56506815Y-73942815D01*
X56427463Y-74039506D01*
X56368498Y-74149820D01*
X56332188Y-74269518D01*
X56319928Y-74394000D01*
X53331822Y-74394000D01*
X53331822Y-72925000D01*
X53319562Y-72800518D01*
X53283252Y-72680820D01*
X53224287Y-72570506D01*
X53144935Y-72473815D01*
X53048244Y-72394463D01*
X52937930Y-72335498D01*
X52818232Y-72299188D01*
X52693750Y-72286928D01*
X52143750Y-72286928D01*
X52019268Y-72299188D01*
X52018750Y-72299345D01*
X52018232Y-72299188D01*
X51893750Y-72286928D01*
X51343750Y-72286928D01*
X51219268Y-72299188D01*
X51218750Y-72299345D01*
X51218232Y-72299188D01*
X51093750Y-72286928D01*
X50543750Y-72286928D01*
X50419268Y-72299188D01*
X50418750Y-72299345D01*
X50418232Y-72299188D01*
X50293750Y-72286928D01*
X49743750Y-72286928D01*
X49619268Y-72299188D01*
X49618750Y-72299345D01*
X49618232Y-72299188D01*
X49493750Y-72286928D01*
X49180750Y-72286928D01*
X49180750Y-72038880D01*
X50031102Y-71188529D01*
X50060172Y-71164672D01*
X50087522Y-71131346D01*
X50155395Y-71048643D01*
X50204077Y-70957564D01*
X50226152Y-70916265D01*
X50269724Y-70772628D01*
X50280750Y-70660676D01*
X50280750Y-70660673D01*
X50284436Y-70623250D01*
X50280750Y-70585827D01*
X50280750Y-70344466D01*
X50343232Y-70338312D01*
X50462930Y-70302002D01*
X50573244Y-70243037D01*
X50669935Y-70163685D01*
X50749287Y-70066994D01*
X50805408Y-69962000D01*
X51221297Y-69962000D01*
X51307708Y-70067292D01*
X51441336Y-70176958D01*
X51593791Y-70258447D01*
X51759215Y-70308628D01*
X51931250Y-70325572D01*
X52843750Y-70325572D01*
X53015785Y-70308628D01*
X53181209Y-70258447D01*
X53333664Y-70176958D01*
X53467292Y-70067292D01*
X53576958Y-69933664D01*
X53658447Y-69781209D01*
X53708628Y-69615785D01*
X53725572Y-69443750D01*
X53725572Y-68956250D01*
X53708628Y-68784215D01*
X53658447Y-68618791D01*
X53576958Y-68466336D01*
X53467292Y-68332708D01*
X53460936Y-68327492D01*
X53538685Y-68263685D01*
X53618037Y-68166994D01*
X53677002Y-68056680D01*
X53713312Y-67936982D01*
X53725572Y-67812500D01*
X53722500Y-67610750D01*
X53563750Y-67452000D01*
X52514500Y-67452000D01*
X52514500Y-67472000D01*
X52260500Y-67472000D01*
X52260500Y-67452000D01*
X51211250Y-67452000D01*
X51052500Y-67610750D01*
X51049428Y-67812500D01*
X51061688Y-67936982D01*
X51097998Y-68056680D01*
X51156963Y-68166994D01*
X51236315Y-68263685D01*
X51314064Y-68327492D01*
X51307708Y-68332708D01*
X51221297Y-68438000D01*
X50849485Y-68438000D01*
X50844562Y-68388018D01*
X50808252Y-68268320D01*
X50805141Y-68262500D01*
X50808252Y-68256680D01*
X50844562Y-68136982D01*
X50856822Y-68012500D01*
X50853750Y-67698250D01*
X50695000Y-67539500D01*
X49645750Y-67539500D01*
X49645750Y-67559500D01*
X49391750Y-67559500D01*
X49391750Y-67539500D01*
X49371750Y-67539500D01*
X49371750Y-67285500D01*
X49391750Y-67285500D01*
X49391750Y-66336250D01*
X49645750Y-66336250D01*
X49645750Y-67285500D01*
X50695000Y-67285500D01*
X50853750Y-67126750D01*
X50856577Y-66837500D01*
X51049428Y-66837500D01*
X51052500Y-67039250D01*
X51211250Y-67198000D01*
X52260500Y-67198000D01*
X52260500Y-66361250D01*
X52514500Y-66361250D01*
X52514500Y-67198000D01*
X53563750Y-67198000D01*
X53722500Y-67039250D01*
X53725572Y-66837500D01*
X53713312Y-66713018D01*
X53677002Y-66593320D01*
X53618037Y-66483006D01*
X53538685Y-66386315D01*
X53441994Y-66306963D01*
X53331680Y-66247998D01*
X53211982Y-66211688D01*
X53087500Y-66199428D01*
X52673250Y-66202500D01*
X52514500Y-66361250D01*
X52260500Y-66361250D01*
X52101750Y-66202500D01*
X51687500Y-66199428D01*
X51563018Y-66211688D01*
X51443320Y-66247998D01*
X51333006Y-66306963D01*
X51236315Y-66386315D01*
X51156963Y-66483006D01*
X51097998Y-66593320D01*
X51061688Y-66713018D01*
X51049428Y-66837500D01*
X50856577Y-66837500D01*
X50856822Y-66812500D01*
X50844562Y-66688018D01*
X50808252Y-66568320D01*
X50749287Y-66458006D01*
X50669935Y-66361315D01*
X50573244Y-66281963D01*
X50462930Y-66222998D01*
X50343232Y-66186688D01*
X50218750Y-66174428D01*
X49804500Y-66177500D01*
X49645750Y-66336250D01*
X49391750Y-66336250D01*
X49233000Y-66177500D01*
X48818750Y-66174428D01*
X48694268Y-66186688D01*
X48574570Y-66222998D01*
X48464256Y-66281963D01*
X48418750Y-66319309D01*
X48373244Y-66281963D01*
X48262930Y-66222998D01*
X48143232Y-66186688D01*
X48018750Y-66174428D01*
X46618750Y-66174428D01*
X46494268Y-66186688D01*
X46374570Y-66222998D01*
X46264256Y-66281963D01*
X46167565Y-66361315D01*
X46088213Y-66458006D01*
X46032092Y-66563000D01*
X44822453Y-66563000D01*
X44736042Y-66457708D01*
X44602414Y-66348042D01*
X44449959Y-66266553D01*
X44284535Y-66216372D01*
X44112500Y-66199428D01*
X43200000Y-66199428D01*
X43027965Y-66216372D01*
X42862541Y-66266553D01*
X42710086Y-66348042D01*
X42576458Y-66457708D01*
X42466792Y-66591336D01*
X42385303Y-66743791D01*
X42335122Y-66909215D01*
X42318178Y-67081250D01*
X42318178Y-67568750D01*
X42335122Y-67740785D01*
X42385303Y-67906209D01*
X42466792Y-68058664D01*
X42576458Y-68192292D01*
X42582814Y-68197508D01*
X42505065Y-68261315D01*
X42425713Y-68358006D01*
X42366748Y-68468320D01*
X42330438Y-68588018D01*
X42318178Y-68712500D01*
X42321250Y-68914250D01*
X42480000Y-69073000D01*
X43529250Y-69073000D01*
X43529250Y-69053000D01*
X43783250Y-69053000D01*
X43783250Y-69073000D01*
X44832500Y-69073000D01*
X44991250Y-68914250D01*
X44994322Y-68712500D01*
X44982062Y-68588018D01*
X44945752Y-68468320D01*
X44886787Y-68358006D01*
X44807435Y-68261315D01*
X44729686Y-68197508D01*
X44736042Y-68192292D01*
X44822453Y-68087000D01*
X45339000Y-68087000D01*
X45339001Y-70066567D01*
X45335314Y-70104000D01*
X45350027Y-70253378D01*
X45393599Y-70397015D01*
X45464355Y-70529392D01*
X45530953Y-70610541D01*
X45559579Y-70645422D01*
X45588649Y-70669279D01*
X46856750Y-71937380D01*
X46856750Y-72517455D01*
X46846821Y-72529554D01*
X46841556Y-72476092D01*
X46832306Y-72382174D01*
X46785103Y-72226566D01*
X46751218Y-72163172D01*
X46708449Y-72083157D01*
X46647589Y-72009000D01*
X46605291Y-71957459D01*
X46573789Y-71931606D01*
X46017648Y-71375466D01*
X45991791Y-71343959D01*
X45866092Y-71240801D01*
X45722684Y-71164147D01*
X45567076Y-71116944D01*
X45445803Y-71105000D01*
X45445800Y-71105000D01*
X45405250Y-71101006D01*
X45364700Y-71105000D01*
X41627090Y-71105000D01*
X41592792Y-71063208D01*
X41586436Y-71057992D01*
X41664185Y-70994185D01*
X41743537Y-70897494D01*
X41802502Y-70787180D01*
X41838812Y-70667482D01*
X41851072Y-70543000D01*
X41848000Y-70341250D01*
X41689250Y-70182500D01*
X40640000Y-70182500D01*
X40640000Y-70202500D01*
X40386000Y-70202500D01*
X40386000Y-70182500D01*
X40366000Y-70182500D01*
X40366000Y-69928500D01*
X40386000Y-69928500D01*
X40386000Y-69091750D01*
X40640000Y-69091750D01*
X40640000Y-69928500D01*
X41689250Y-69928500D01*
X41848000Y-69769750D01*
X41849252Y-69687500D01*
X42318178Y-69687500D01*
X42330438Y-69811982D01*
X42366748Y-69931680D01*
X42425713Y-70041994D01*
X42505065Y-70138685D01*
X42601756Y-70218037D01*
X42712070Y-70277002D01*
X42831768Y-70313312D01*
X42956250Y-70325572D01*
X43370500Y-70322500D01*
X43529250Y-70163750D01*
X43529250Y-69327000D01*
X43783250Y-69327000D01*
X43783250Y-70163750D01*
X43942000Y-70322500D01*
X44356250Y-70325572D01*
X44480732Y-70313312D01*
X44600430Y-70277002D01*
X44710744Y-70218037D01*
X44807435Y-70138685D01*
X44886787Y-70041994D01*
X44945752Y-69931680D01*
X44982062Y-69811982D01*
X44994322Y-69687500D01*
X44991250Y-69485750D01*
X44832500Y-69327000D01*
X43783250Y-69327000D01*
X43529250Y-69327000D01*
X42480000Y-69327000D01*
X42321250Y-69485750D01*
X42318178Y-69687500D01*
X41849252Y-69687500D01*
X41851072Y-69568000D01*
X41838812Y-69443518D01*
X41802502Y-69323820D01*
X41743537Y-69213506D01*
X41664185Y-69116815D01*
X41567494Y-69037463D01*
X41457180Y-68978498D01*
X41337482Y-68942188D01*
X41213000Y-68929928D01*
X40798750Y-68933000D01*
X40640000Y-69091750D01*
X40386000Y-69091750D01*
X40227250Y-68933000D01*
X39813000Y-68929928D01*
X39688518Y-68942188D01*
X39568820Y-68978498D01*
X39458506Y-69037463D01*
X39447382Y-69046592D01*
X39290898Y-68981774D01*
X39090939Y-68942000D01*
X38887061Y-68942000D01*
X38687102Y-68981774D01*
X38498744Y-69059795D01*
X38367873Y-69147240D01*
X38284164Y-69078542D01*
X38131709Y-68997053D01*
X37966285Y-68946872D01*
X37794250Y-68929928D01*
X36881750Y-68929928D01*
X36709715Y-68946872D01*
X36544291Y-68997053D01*
X36391836Y-69078542D01*
X36258208Y-69188208D01*
X36148542Y-69321836D01*
X36067053Y-69474291D01*
X36016872Y-69639715D01*
X35999928Y-69811750D01*
X35999928Y-70299250D01*
X36016872Y-70471285D01*
X36067053Y-70636709D01*
X36148542Y-70789164D01*
X36258208Y-70922792D01*
X36343756Y-70993000D01*
X36258208Y-71063208D01*
X36171797Y-71168500D01*
X36038053Y-71168500D01*
X35923256Y-71091795D01*
X35734898Y-71013774D01*
X35534939Y-70974000D01*
X35331061Y-70974000D01*
X35131102Y-71013774D01*
X34942744Y-71091795D01*
X34773226Y-71205063D01*
X34629063Y-71349226D01*
X34515795Y-71518744D01*
X34437774Y-71707102D01*
X34398000Y-71907061D01*
X34398000Y-72110939D01*
X34437774Y-72310898D01*
X34515795Y-72499256D01*
X34629063Y-72668774D01*
X34773226Y-72812937D01*
X34942744Y-72926205D01*
X35131102Y-73004226D01*
X35331061Y-73044000D01*
X35534939Y-73044000D01*
X35734898Y-73004226D01*
X35923256Y-72926205D01*
X36092774Y-72812937D01*
X36190464Y-72715247D01*
X36258208Y-72797792D01*
X36391836Y-72907458D01*
X36544291Y-72988947D01*
X36709715Y-73039128D01*
X36881750Y-73056072D01*
X37385941Y-73056072D01*
X37867221Y-73537352D01*
X37891078Y-73566422D01*
X37920148Y-73590279D01*
X38007107Y-73661645D01*
X38014649Y-73665676D01*
X38139485Y-73732402D01*
X38283122Y-73775974D01*
X38395074Y-73787000D01*
X38395077Y-73787000D01*
X38432500Y-73790686D01*
X38469923Y-73787000D01*
X41745577Y-73787000D01*
X41783000Y-73790686D01*
X41820423Y-73787000D01*
X41820426Y-73787000D01*
X41932378Y-73775974D01*
X42076015Y-73732402D01*
X42208392Y-73661645D01*
X42324422Y-73566422D01*
X42348284Y-73537346D01*
X42606630Y-73279000D01*
X43505678Y-73279000D01*
X43505678Y-74425000D01*
X43509712Y-74465962D01*
X43468750Y-74461928D01*
X41968750Y-74461928D01*
X41844268Y-74474188D01*
X41724570Y-74510498D01*
X41614256Y-74569463D01*
X41517565Y-74648815D01*
X41438213Y-74745506D01*
X41379248Y-74855820D01*
X41342938Y-74975518D01*
X41330678Y-75100000D01*
X41330678Y-75650000D01*
X41342938Y-75774482D01*
X41343095Y-75775000D01*
X41342938Y-75775518D01*
X41330678Y-75900000D01*
X41330678Y-76450000D01*
X41342938Y-76574482D01*
X41343095Y-76575000D01*
X41342938Y-76575518D01*
X41330678Y-76700000D01*
X41330678Y-77016247D01*
X41322898Y-77013024D01*
X41122939Y-76973250D01*
X40919061Y-76973250D01*
X40719102Y-77013024D01*
X40530744Y-77091045D01*
X40361226Y-77204313D01*
X40217063Y-77348476D01*
X40169649Y-77419437D01*
X40158792Y-77406208D01*
X40025164Y-77296542D01*
X39872709Y-77215053D01*
X39707285Y-77164872D01*
X39535250Y-77147928D01*
X39047750Y-77147928D01*
X38875715Y-77164872D01*
X38710291Y-77215053D01*
X38557836Y-77296542D01*
X38424208Y-77406208D01*
X38418992Y-77412564D01*
X38355185Y-77334815D01*
X38258494Y-77255463D01*
X38148180Y-77196498D01*
X38028482Y-77160188D01*
X37904000Y-77147928D01*
X37702250Y-77151000D01*
X37543500Y-77309750D01*
X37543500Y-78359000D01*
X37563500Y-78359000D01*
X37563500Y-78613000D01*
X37543500Y-78613000D01*
X37543500Y-79662250D01*
X37702250Y-79821000D01*
X37904000Y-79824072D01*
X38028482Y-79811812D01*
X38148180Y-79775502D01*
X38258494Y-79716537D01*
X38355185Y-79637185D01*
X38418992Y-79559436D01*
X38424208Y-79565792D01*
X38557836Y-79675458D01*
X38710291Y-79756947D01*
X38875715Y-79807128D01*
X39047750Y-79824072D01*
X39535250Y-79824072D01*
X39707285Y-79807128D01*
X39872709Y-79756947D01*
X40025164Y-79675458D01*
X40158792Y-79565792D01*
X40262181Y-79439812D01*
X40709721Y-79887351D01*
X40733578Y-79916422D01*
X40762648Y-79940279D01*
X40849607Y-80011645D01*
X40917623Y-80048000D01*
X40981985Y-80082402D01*
X41125622Y-80125974D01*
X41237574Y-80137000D01*
X41237577Y-80137000D01*
X41275000Y-80140686D01*
X41312423Y-80137000D01*
X41561206Y-80137000D01*
X41607509Y-80175000D01*
X41576437Y-80200500D01*
X35240631Y-80200500D01*
X34226131Y-79186000D01*
X36290928Y-79186000D01*
X36303188Y-79310482D01*
X36339498Y-79430180D01*
X36398463Y-79540494D01*
X36477815Y-79637185D01*
X36574506Y-79716537D01*
X36684820Y-79775502D01*
X36804518Y-79811812D01*
X36929000Y-79824072D01*
X37130750Y-79821000D01*
X37289500Y-79662250D01*
X37289500Y-78613000D01*
X36452750Y-78613000D01*
X36294000Y-78771750D01*
X36290928Y-79186000D01*
X34226131Y-79186000D01*
X32826131Y-77786000D01*
X36290928Y-77786000D01*
X36294000Y-78200250D01*
X36452750Y-78359000D01*
X37289500Y-78359000D01*
X37289500Y-77309750D01*
X37130750Y-77151000D01*
X36929000Y-77147928D01*
X36804518Y-77160188D01*
X36684820Y-77196498D01*
X36574506Y-77255463D01*
X36477815Y-77334815D01*
X36398463Y-77431506D01*
X36339498Y-77541820D01*
X36303188Y-77661518D01*
X36290928Y-77786000D01*
X32826131Y-77786000D01*
X30924500Y-75884370D01*
X30924500Y-74928130D01*
X31748809Y-74103822D01*
X32015750Y-74103822D01*
X32187785Y-74086878D01*
X32353209Y-74036697D01*
X32505664Y-73955208D01*
X32639292Y-73845542D01*
X32748958Y-73711914D01*
X32830447Y-73559459D01*
X32880628Y-73394035D01*
X32897572Y-73222000D01*
X32897572Y-72734500D01*
X32880628Y-72562465D01*
X32830447Y-72397041D01*
X32748958Y-72244586D01*
X32639292Y-72110958D01*
X32553744Y-72040750D01*
X32639292Y-71970542D01*
X32748958Y-71836914D01*
X32830447Y-71684459D01*
X32880628Y-71519035D01*
X32897572Y-71347000D01*
X32897572Y-70859500D01*
X32880628Y-70687465D01*
X32830447Y-70522041D01*
X32748958Y-70369586D01*
X32639292Y-70235958D01*
X32505664Y-70126292D01*
X32353209Y-70044803D01*
X32187785Y-69994622D01*
X32015750Y-69977678D01*
X31718250Y-69977678D01*
X31718250Y-69093672D01*
X31721936Y-69056249D01*
X31717723Y-69013474D01*
X31707224Y-68906872D01*
X31663652Y-68763235D01*
X31592895Y-68630858D01*
X31497672Y-68514828D01*
X31468603Y-68490972D01*
X31153203Y-68175572D01*
X31212500Y-68175572D01*
X31336982Y-68163312D01*
X31361766Y-68155794D01*
X31381139Y-68161904D01*
X31480750Y-68172500D01*
X31639500Y-68013750D01*
X31639500Y-68008533D01*
X31663685Y-67988685D01*
X31743037Y-67891994D01*
X31802002Y-67781680D01*
X31838312Y-67661982D01*
X31850572Y-67537500D01*
X31850572Y-65287500D01*
X31838312Y-65163018D01*
X31802002Y-65043320D01*
X31743037Y-64933006D01*
X31663685Y-64836315D01*
X31639500Y-64816467D01*
X31639500Y-64811250D01*
X31885500Y-64811250D01*
X31885500Y-66285500D01*
X31909500Y-66285500D01*
X31909500Y-66539500D01*
X31885500Y-66539500D01*
X31885500Y-68013750D01*
X32044250Y-68172500D01*
X32143861Y-68161904D01*
X32263152Y-68124279D01*
X32372811Y-68064104D01*
X32468623Y-67983693D01*
X32546906Y-67886134D01*
X32602623Y-67779078D01*
X32757366Y-67967634D01*
X32983486Y-68153206D01*
X33241466Y-68291099D01*
X33521389Y-68376013D01*
X33812500Y-68404685D01*
X34103610Y-68376013D01*
X34383533Y-68291099D01*
X34641513Y-68153206D01*
X34867634Y-67967634D01*
X35053206Y-67741514D01*
X35191099Y-67483534D01*
X35276013Y-67203611D01*
X35297500Y-66985450D01*
X35297500Y-65839550D01*
X35276013Y-65621389D01*
X35191099Y-65341466D01*
X35053206Y-65083486D01*
X34867634Y-64857366D01*
X34641514Y-64671794D01*
X34383534Y-64533901D01*
X34103611Y-64448987D01*
X33812500Y-64420315D01*
X33521390Y-64448987D01*
X33241467Y-64533901D01*
X32983487Y-64671794D01*
X32757367Y-64857366D01*
X32602623Y-65045921D01*
X32546906Y-64938866D01*
X32468623Y-64841307D01*
X32372811Y-64760896D01*
X32263152Y-64700721D01*
X32143861Y-64663096D01*
X32044250Y-64652500D01*
X31885500Y-64811250D01*
X31639500Y-64811250D01*
X31480750Y-64652500D01*
X31381139Y-64663096D01*
X31361766Y-64669206D01*
X31336982Y-64661688D01*
X31212500Y-64649428D01*
X30712500Y-64649428D01*
X30588018Y-64661688D01*
X30562500Y-64669429D01*
X30536982Y-64661688D01*
X30412500Y-64649428D01*
X29912500Y-64649428D01*
X29788018Y-64661688D01*
X29762500Y-64669429D01*
X29736982Y-64661688D01*
X29612500Y-64649428D01*
X29112500Y-64649428D01*
X28988018Y-64661688D01*
X28962500Y-64669429D01*
X28936982Y-64661688D01*
X28812500Y-64649428D01*
X28312500Y-64649428D01*
X28188018Y-64661688D01*
X28068320Y-64697998D01*
X27958006Y-64756963D01*
X27861315Y-64836315D01*
X27781963Y-64933006D01*
X27722998Y-65043320D01*
X27722254Y-65045771D01*
X27567634Y-64857366D01*
X27341514Y-64671794D01*
X27083534Y-64533901D01*
X26803611Y-64448987D01*
X26512500Y-64420315D01*
X26221390Y-64448987D01*
X25941467Y-64533901D01*
X25683487Y-64671794D01*
X25457367Y-64857366D01*
X25271794Y-65083486D01*
X25133901Y-65341466D01*
X25048987Y-65621389D01*
X25027500Y-65839550D01*
X25027500Y-66985449D01*
X25048987Y-67203610D01*
X25133901Y-67483533D01*
X25271794Y-67741513D01*
X25457366Y-67967634D01*
X25683486Y-68153206D01*
X25941466Y-68291099D01*
X26221389Y-68376013D01*
X26298918Y-68383649D01*
X24238715Y-70443853D01*
X24207209Y-70469709D01*
X24104051Y-70595408D01*
X24027397Y-70738816D01*
X23980194Y-70894424D01*
X23968250Y-71015697D01*
X23964256Y-71056250D01*
X23968250Y-71096800D01*
X23968250Y-71209448D01*
X23968251Y-74813671D01*
X23925364Y-74836595D01*
X23790788Y-74947038D01*
X23680345Y-75081614D01*
X23598278Y-75235150D01*
X23547742Y-75401746D01*
X23530678Y-75575000D01*
X23530678Y-76825000D01*
X23547742Y-76998254D01*
X23598278Y-77164850D01*
X23680345Y-77318386D01*
X23790788Y-77452962D01*
X23925364Y-77563405D01*
X24078900Y-77645472D01*
X24245496Y-77696008D01*
X24418750Y-77713072D01*
X25168750Y-77713072D01*
X25342004Y-77696008D01*
X25508600Y-77645472D01*
X25662136Y-77563405D01*
X25796712Y-77452962D01*
X25907155Y-77318386D01*
X25989222Y-77164850D01*
X26039758Y-76998254D01*
X26056822Y-76825000D01*
X26056822Y-75575000D01*
X26039758Y-75401746D01*
X25989222Y-75235150D01*
X25907155Y-75081614D01*
X25796712Y-74947038D01*
X25662136Y-74836595D01*
X25619250Y-74813672D01*
X25619250Y-71398182D01*
X27813000Y-69204433D01*
X27813001Y-69989029D01*
X27756215Y-69994622D01*
X27590791Y-70044803D01*
X27438336Y-70126292D01*
X27304708Y-70235958D01*
X27195042Y-70369586D01*
X27113553Y-70522041D01*
X27063372Y-70687465D01*
X27046428Y-70859500D01*
X27046428Y-71347000D01*
X27063372Y-71519035D01*
X27113553Y-71684459D01*
X27195042Y-71836914D01*
X27304708Y-71970542D01*
X27390256Y-72040750D01*
X27304708Y-72110958D01*
X27195042Y-72244586D01*
X27113553Y-72397041D01*
X27063372Y-72562465D01*
X27046428Y-72734500D01*
X27046428Y-73222000D01*
X27063372Y-73394035D01*
X27113553Y-73559459D01*
X27195042Y-73711914D01*
X27304708Y-73845542D01*
X27438336Y-73955208D01*
X27590791Y-74036697D01*
X27756215Y-74086878D01*
X27776795Y-74088905D01*
X27819221Y-74140601D01*
X27843079Y-74169672D01*
X27872149Y-74193529D01*
X28606750Y-74928130D01*
X28606750Y-74959270D01*
X28596712Y-74947038D01*
X28462136Y-74836595D01*
X28308600Y-74754528D01*
X28142004Y-74703992D01*
X27968750Y-74686928D01*
X27218750Y-74686928D01*
X27045496Y-74703992D01*
X26878900Y-74754528D01*
X26725364Y-74836595D01*
X26590788Y-74947038D01*
X26480345Y-75081614D01*
X26398278Y-75235150D01*
X26347742Y-75401746D01*
X26330678Y-75575000D01*
X26330678Y-76825000D01*
X26347742Y-76998254D01*
X26398278Y-77164850D01*
X26480345Y-77318386D01*
X26590788Y-77452962D01*
X26725364Y-77563405D01*
X26878900Y-77645472D01*
X27045496Y-77696008D01*
X27218750Y-77713072D01*
X27968750Y-77713072D01*
X28142004Y-77696008D01*
X28308600Y-77645472D01*
X28462136Y-77563405D01*
X28492255Y-77538687D01*
X34083607Y-83130040D01*
X34109459Y-83161541D01*
X34161798Y-83204494D01*
X34235156Y-83264698D01*
X34235158Y-83264699D01*
X34378566Y-83341353D01*
X34534174Y-83388556D01*
X34655447Y-83400500D01*
X34655456Y-83400500D01*
X34695999Y-83404493D01*
X34736542Y-83400500D01*
X36767068Y-83400500D01*
X37233606Y-83867039D01*
X37259459Y-83898541D01*
X37385158Y-84001699D01*
X37528566Y-84078353D01*
X37586889Y-84096045D01*
X37655208Y-84179292D01*
X37661564Y-84184508D01*
X37583815Y-84248315D01*
X37504463Y-84345006D01*
X37445498Y-84455320D01*
X37409188Y-84575018D01*
X37396928Y-84699500D01*
X37400000Y-84901250D01*
X37558750Y-85060000D01*
X38608000Y-85060000D01*
X38608000Y-85040000D01*
X38862000Y-85040000D01*
X38862000Y-85060000D01*
X39911250Y-85060000D01*
X40070000Y-84901250D01*
X40073072Y-84699500D01*
X40060812Y-84575018D01*
X40024502Y-84455320D01*
X39965537Y-84345006D01*
X39886185Y-84248315D01*
X39808436Y-84184508D01*
X39814792Y-84179292D01*
X39883111Y-84096045D01*
X39941434Y-84078353D01*
X40084842Y-84001699D01*
X40170501Y-83931401D01*
X40170500Y-84516449D01*
X40166506Y-84557000D01*
X40170500Y-84597550D01*
X40170500Y-84597552D01*
X40182444Y-84718825D01*
X40203807Y-84789250D01*
X40229647Y-84874433D01*
X40306301Y-85017842D01*
X40334496Y-85052197D01*
X40409459Y-85143541D01*
X40440966Y-85169398D01*
X42567606Y-87296039D01*
X42593459Y-87327541D01*
X42719158Y-87430699D01*
X42862566Y-87507353D01*
X43018174Y-87554556D01*
X43139447Y-87566500D01*
X43139456Y-87566500D01*
X43179999Y-87570493D01*
X43220542Y-87566500D01*
X44028450Y-87566500D01*
X44069000Y-87570494D01*
X44109550Y-87566500D01*
X44109553Y-87566500D01*
X44230826Y-87554556D01*
X44386434Y-87507353D01*
X44529842Y-87430699D01*
X44655541Y-87327541D01*
X44681398Y-87296034D01*
X44973784Y-87003648D01*
X45005291Y-86977791D01*
X45108449Y-86852092D01*
X45185103Y-86708684D01*
X45232306Y-86553076D01*
X45241473Y-86460000D01*
X45345752Y-86460000D01*
X45345752Y-86319834D01*
X45389256Y-86355537D01*
X45412417Y-86367917D01*
X45504500Y-86460000D01*
X45618087Y-86450454D01*
X45619268Y-86450812D01*
X45743750Y-86463072D01*
X46293750Y-86463072D01*
X46418232Y-86450812D01*
X46418750Y-86450655D01*
X46419268Y-86450812D01*
X46543750Y-86463072D01*
X47093750Y-86463072D01*
X47218232Y-86450812D01*
X47218750Y-86450655D01*
X47219268Y-86450812D01*
X47343750Y-86463072D01*
X47893750Y-86463072D01*
X48018232Y-86450812D01*
X48018750Y-86450655D01*
X48019268Y-86450812D01*
X48143750Y-86463072D01*
X48693750Y-86463072D01*
X48818232Y-86450812D01*
X48818750Y-86450655D01*
X48819268Y-86450812D01*
X48943750Y-86463072D01*
X49493750Y-86463072D01*
X49618232Y-86450812D01*
X49618750Y-86450655D01*
X49619268Y-86450812D01*
X49743750Y-86463072D01*
X50293750Y-86463072D01*
X50418232Y-86450812D01*
X50418750Y-86450655D01*
X50419268Y-86450812D01*
X50543750Y-86463072D01*
X51093750Y-86463072D01*
X51218232Y-86450812D01*
X51219413Y-86450454D01*
X51333000Y-86460000D01*
X51425083Y-86367917D01*
X51448244Y-86355537D01*
X51491748Y-86319834D01*
X51491748Y-86460000D01*
X51593250Y-86460000D01*
X51593250Y-86541199D01*
X51589256Y-86581750D01*
X51593250Y-86622300D01*
X51593250Y-86622302D01*
X51605194Y-86743575D01*
X51624566Y-86807435D01*
X51652397Y-86899183D01*
X51729051Y-87042592D01*
X51760530Y-87080949D01*
X51832209Y-87168291D01*
X51863716Y-87194148D01*
X52741753Y-88072185D01*
X52688250Y-88073000D01*
X52529500Y-88231750D01*
X52529500Y-89281000D01*
X52549500Y-89281000D01*
X52549500Y-89535000D01*
X52529500Y-89535000D01*
X52529500Y-90584250D01*
X52688250Y-90743000D01*
X52890000Y-90746072D01*
X53014482Y-90733812D01*
X53134180Y-90697502D01*
X53244494Y-90638537D01*
X53341185Y-90559185D01*
X53404992Y-90481436D01*
X53410208Y-90487792D01*
X53543836Y-90597458D01*
X53696291Y-90678947D01*
X53861715Y-90729128D01*
X54033750Y-90746072D01*
X54521250Y-90746072D01*
X54693285Y-90729128D01*
X54858709Y-90678947D01*
X55011164Y-90597458D01*
X55144792Y-90487792D01*
X55254458Y-90354164D01*
X55268633Y-90327644D01*
X55451102Y-90403226D01*
X55651061Y-90443000D01*
X55854939Y-90443000D01*
X56054898Y-90403226D01*
X56243256Y-90325205D01*
X56412774Y-90211937D01*
X56556937Y-90067774D01*
X56670205Y-89898256D01*
X56748226Y-89709898D01*
X56788000Y-89509939D01*
X56788000Y-89306061D01*
X56748226Y-89106102D01*
X56670205Y-88917744D01*
X56556937Y-88748226D01*
X56412774Y-88604063D01*
X56243256Y-88490795D01*
X56054898Y-88412774D01*
X55854939Y-88373000D01*
X55651061Y-88373000D01*
X55451102Y-88412774D01*
X55268633Y-88488356D01*
X55254458Y-88461836D01*
X55144792Y-88328208D01*
X55091638Y-88284586D01*
X55091056Y-88278674D01*
X55043853Y-88123066D01*
X54967199Y-87979658D01*
X54967198Y-87979656D01*
X54889891Y-87885458D01*
X54864041Y-87853959D01*
X54832539Y-87828106D01*
X53360683Y-86356250D01*
X56605678Y-86356250D01*
X56617938Y-86480732D01*
X56654248Y-86600430D01*
X56713213Y-86710744D01*
X56792565Y-86807435D01*
X56889256Y-86886787D01*
X56999570Y-86945752D01*
X57119268Y-86982062D01*
X57243750Y-86994322D01*
X57658000Y-86991250D01*
X57816750Y-86832500D01*
X57816750Y-85995750D01*
X58070750Y-85995750D01*
X58070750Y-86832500D01*
X58229500Y-86991250D01*
X58643750Y-86994322D01*
X58768232Y-86982062D01*
X58887930Y-86945752D01*
X58998244Y-86886787D01*
X59094935Y-86807435D01*
X59174287Y-86710744D01*
X59233252Y-86600430D01*
X59269562Y-86480732D01*
X59281822Y-86356250D01*
X59278750Y-86154500D01*
X59120000Y-85995750D01*
X58070750Y-85995750D01*
X57816750Y-85995750D01*
X56767500Y-85995750D01*
X56608750Y-86154500D01*
X56605678Y-86356250D01*
X53360683Y-86356250D01*
X53244250Y-86239818D01*
X53244250Y-86142146D01*
X53283252Y-86069180D01*
X53319562Y-85949482D01*
X53331822Y-85825000D01*
X53331822Y-84325000D01*
X53327788Y-84284038D01*
X53368750Y-84288072D01*
X54868750Y-84288072D01*
X54993232Y-84275812D01*
X55112930Y-84239502D01*
X55223244Y-84180537D01*
X55276294Y-84137000D01*
X55373370Y-84137000D01*
X55742466Y-84506096D01*
X55766328Y-84535172D01*
X55814809Y-84574959D01*
X55882357Y-84630395D01*
X55953114Y-84668215D01*
X56014735Y-84701152D01*
X56158372Y-84744724D01*
X56270324Y-84755750D01*
X56270327Y-84755750D01*
X56307750Y-84759436D01*
X56345173Y-84755750D01*
X56777547Y-84755750D01*
X56863958Y-84861042D01*
X56870314Y-84866258D01*
X56792565Y-84930065D01*
X56713213Y-85026756D01*
X56654248Y-85137070D01*
X56617938Y-85256768D01*
X56605678Y-85381250D01*
X56608750Y-85583000D01*
X56767500Y-85741750D01*
X57816750Y-85741750D01*
X57816750Y-85721750D01*
X58070750Y-85721750D01*
X58070750Y-85741750D01*
X59120000Y-85741750D01*
X59278750Y-85583000D01*
X59281822Y-85381250D01*
X59269562Y-85256768D01*
X59233252Y-85137070D01*
X59174287Y-85026756D01*
X59094935Y-84930065D01*
X59017186Y-84866258D01*
X59023542Y-84861042D01*
X59133208Y-84727414D01*
X59214697Y-84574959D01*
X59264878Y-84409535D01*
X59281822Y-84237500D01*
X59281822Y-83750000D01*
X59264878Y-83577965D01*
X59214697Y-83412541D01*
X59133208Y-83260086D01*
X59023542Y-83126458D01*
X58889914Y-83016792D01*
X58737459Y-82935303D01*
X58572035Y-82885122D01*
X58400000Y-82868178D01*
X57487500Y-82868178D01*
X57315465Y-82885122D01*
X57150041Y-82935303D01*
X56997586Y-83016792D01*
X56863958Y-83126458D01*
X56777547Y-83231750D01*
X56623380Y-83231750D01*
X56254284Y-82862654D01*
X56230422Y-82833578D01*
X56114392Y-82738355D01*
X55982015Y-82667598D01*
X55838378Y-82624026D01*
X55726426Y-82613000D01*
X55726423Y-82613000D01*
X55689000Y-82609314D01*
X55651577Y-82613000D01*
X55506822Y-82613000D01*
X55506822Y-82300000D01*
X55494562Y-82175518D01*
X55494405Y-82175000D01*
X55494562Y-82174482D01*
X55506822Y-82050000D01*
X55506822Y-81737000D01*
X60198000Y-81737000D01*
X60198000Y-97730000D01*
X23846492Y-97730000D01*
X23485619Y-97694616D01*
X23171190Y-97599684D01*
X22881188Y-97445488D01*
X22626658Y-97237897D01*
X22417300Y-96984828D01*
X22261079Y-96695902D01*
X22163956Y-96382151D01*
X22130360Y-96062500D01*
X27111928Y-96062500D01*
X27124188Y-96186982D01*
X27160498Y-96306680D01*
X27219463Y-96416994D01*
X27298815Y-96513685D01*
X27395506Y-96593037D01*
X27505820Y-96652002D01*
X27625518Y-96688312D01*
X27750000Y-96700572D01*
X28364250Y-96697500D01*
X28523000Y-96538750D01*
X28523000Y-95639500D01*
X28777000Y-95639500D01*
X28777000Y-96538750D01*
X28935750Y-96697500D01*
X29550000Y-96700572D01*
X29674482Y-96688312D01*
X29794180Y-96652002D01*
X29904494Y-96593037D01*
X30001185Y-96513685D01*
X30080537Y-96416994D01*
X30139502Y-96306680D01*
X30175812Y-96186982D01*
X30188072Y-96062500D01*
X30185000Y-95798250D01*
X30026250Y-95639500D01*
X28777000Y-95639500D01*
X28523000Y-95639500D01*
X27273750Y-95639500D01*
X27115000Y-95798250D01*
X27111928Y-96062500D01*
X22130360Y-96062500D01*
X22126250Y-96023397D01*
X22126250Y-94962500D01*
X27111928Y-94962500D01*
X27115000Y-95226750D01*
X27273750Y-95385500D01*
X28523000Y-95385500D01*
X28523000Y-94486250D01*
X28777000Y-94486250D01*
X28777000Y-95385500D01*
X30026250Y-95385500D01*
X30185000Y-95226750D01*
X30188072Y-94962500D01*
X33311928Y-94962500D01*
X33311928Y-96062500D01*
X33324188Y-96186982D01*
X33360498Y-96306680D01*
X33419463Y-96416994D01*
X33498815Y-96513685D01*
X33595506Y-96593037D01*
X33705820Y-96652002D01*
X33825518Y-96688312D01*
X33950000Y-96700572D01*
X35750000Y-96700572D01*
X35874482Y-96688312D01*
X35994180Y-96652002D01*
X36104494Y-96593037D01*
X36201185Y-96513685D01*
X36280537Y-96416994D01*
X36339502Y-96306680D01*
X36375812Y-96186982D01*
X36388072Y-96062500D01*
X36388072Y-94962500D01*
X36375812Y-94838018D01*
X36339502Y-94718320D01*
X36280537Y-94608006D01*
X36201185Y-94511315D01*
X36104494Y-94431963D01*
X35994180Y-94372998D01*
X35874482Y-94336688D01*
X35750000Y-94324428D01*
X33950000Y-94324428D01*
X33825518Y-94336688D01*
X33705820Y-94372998D01*
X33595506Y-94431963D01*
X33498815Y-94511315D01*
X33419463Y-94608006D01*
X33360498Y-94718320D01*
X33324188Y-94838018D01*
X33311928Y-94962500D01*
X30188072Y-94962500D01*
X30175812Y-94838018D01*
X30139502Y-94718320D01*
X30080537Y-94608006D01*
X30001185Y-94511315D01*
X29904494Y-94431963D01*
X29794180Y-94372998D01*
X29674482Y-94336688D01*
X29550000Y-94324428D01*
X28935750Y-94327500D01*
X28777000Y-94486250D01*
X28523000Y-94486250D01*
X28364250Y-94327500D01*
X27750000Y-94324428D01*
X27625518Y-94336688D01*
X27505820Y-94372998D01*
X27395506Y-94431963D01*
X27298815Y-94511315D01*
X27219463Y-94608006D01*
X27160498Y-94718320D01*
X27124188Y-94838018D01*
X27111928Y-94962500D01*
X22126250Y-94962500D01*
X22126250Y-91262500D01*
X27111928Y-91262500D01*
X27111928Y-92362500D01*
X27124188Y-92486982D01*
X27160498Y-92606680D01*
X27219463Y-92716994D01*
X27298815Y-92813685D01*
X27395506Y-92893037D01*
X27505820Y-92952002D01*
X27625518Y-92988312D01*
X27750000Y-93000572D01*
X29550000Y-93000572D01*
X29674482Y-92988312D01*
X29794180Y-92952002D01*
X29904494Y-92893037D01*
X30001185Y-92813685D01*
X30080537Y-92716994D01*
X30139502Y-92606680D01*
X30175812Y-92486982D01*
X30188072Y-92362500D01*
X30188072Y-91262500D01*
X33311928Y-91262500D01*
X33311928Y-92362500D01*
X33324188Y-92486982D01*
X33360498Y-92606680D01*
X33419463Y-92716994D01*
X33498815Y-92813685D01*
X33595506Y-92893037D01*
X33705820Y-92952002D01*
X33825518Y-92988312D01*
X33950000Y-93000572D01*
X35750000Y-93000572D01*
X35874482Y-92988312D01*
X35994180Y-92952002D01*
X36104494Y-92893037D01*
X36201185Y-92813685D01*
X36280537Y-92716994D01*
X36339502Y-92606680D01*
X36375812Y-92486982D01*
X36388072Y-92362500D01*
X36388072Y-91262500D01*
X36375812Y-91138018D01*
X36339502Y-91018320D01*
X36280537Y-90908006D01*
X36201185Y-90811315D01*
X36104494Y-90731963D01*
X35994180Y-90672998D01*
X35874482Y-90636688D01*
X35853047Y-90634577D01*
X35885000Y-90473939D01*
X35885000Y-90270061D01*
X35852765Y-90108000D01*
X51276928Y-90108000D01*
X51289188Y-90232482D01*
X51325498Y-90352180D01*
X51384463Y-90462494D01*
X51463815Y-90559185D01*
X51560506Y-90638537D01*
X51670820Y-90697502D01*
X51790518Y-90733812D01*
X51915000Y-90746072D01*
X52116750Y-90743000D01*
X52275500Y-90584250D01*
X52275500Y-89535000D01*
X51438750Y-89535000D01*
X51280000Y-89693750D01*
X51276928Y-90108000D01*
X35852765Y-90108000D01*
X35845226Y-90070102D01*
X35767205Y-89881744D01*
X35653937Y-89712226D01*
X35509774Y-89568063D01*
X35340256Y-89454795D01*
X35151898Y-89376774D01*
X34951939Y-89337000D01*
X34748061Y-89337000D01*
X34548102Y-89376774D01*
X34359744Y-89454795D01*
X34190226Y-89568063D01*
X34046063Y-89712226D01*
X33932795Y-89881744D01*
X33854774Y-90070102D01*
X33815000Y-90270061D01*
X33815000Y-90473939D01*
X33846953Y-90634577D01*
X33825518Y-90636688D01*
X33705820Y-90672998D01*
X33595506Y-90731963D01*
X33498815Y-90811315D01*
X33419463Y-90908006D01*
X33360498Y-91018320D01*
X33324188Y-91138018D01*
X33311928Y-91262500D01*
X30188072Y-91262500D01*
X30175812Y-91138018D01*
X30139502Y-91018320D01*
X30080537Y-90908006D01*
X30001185Y-90811315D01*
X29904494Y-90731963D01*
X29794180Y-90672998D01*
X29674482Y-90636688D01*
X29550000Y-90624428D01*
X27750000Y-90624428D01*
X27625518Y-90636688D01*
X27505820Y-90672998D01*
X27395506Y-90731963D01*
X27298815Y-90811315D01*
X27219463Y-90908006D01*
X27160498Y-91018320D01*
X27124188Y-91138018D01*
X27111928Y-91262500D01*
X22126250Y-91262500D01*
X22126250Y-88708000D01*
X51276928Y-88708000D01*
X51280000Y-89122250D01*
X51438750Y-89281000D01*
X52275500Y-89281000D01*
X52275500Y-88231750D01*
X52116750Y-88073000D01*
X51915000Y-88069928D01*
X51790518Y-88082188D01*
X51670820Y-88118498D01*
X51560506Y-88177463D01*
X51463815Y-88256815D01*
X51384463Y-88353506D01*
X51325498Y-88463820D01*
X51289188Y-88583518D01*
X51276928Y-88708000D01*
X22126250Y-88708000D01*
X22126250Y-85674500D01*
X37396928Y-85674500D01*
X37409188Y-85798982D01*
X37445498Y-85918680D01*
X37504463Y-86028994D01*
X37583815Y-86125685D01*
X37680506Y-86205037D01*
X37790820Y-86264002D01*
X37910518Y-86300312D01*
X38035000Y-86312572D01*
X38449250Y-86309500D01*
X38608000Y-86150750D01*
X38608000Y-85314000D01*
X38862000Y-85314000D01*
X38862000Y-86150750D01*
X39020750Y-86309500D01*
X39435000Y-86312572D01*
X39559482Y-86300312D01*
X39679180Y-86264002D01*
X39789494Y-86205037D01*
X39886185Y-86125685D01*
X39965537Y-86028994D01*
X40024502Y-85918680D01*
X40060812Y-85798982D01*
X40073072Y-85674500D01*
X40070000Y-85472750D01*
X39911250Y-85314000D01*
X38862000Y-85314000D01*
X38608000Y-85314000D01*
X37558750Y-85314000D01*
X37400000Y-85472750D01*
X37396928Y-85674500D01*
X22126250Y-85674500D01*
X22126250Y-62740242D01*
X22161634Y-62379369D01*
X22256566Y-62064940D01*
X22410762Y-61774938D01*
X22618352Y-61520408D01*
X22871422Y-61311050D01*
X23160347Y-61154829D01*
X23474100Y-61057706D01*
X23832853Y-61020000D01*
X25079743Y-61020000D01*
X25048987Y-61121389D01*
X25048987Y-61121389D01*
G37*
X25048987Y-61121389D02*
X25027500Y-61339550D01*
X25027500Y-62485449D01*
X25048987Y-62703610D01*
X25133901Y-62983533D01*
X25271794Y-63241513D01*
X25457366Y-63467634D01*
X25683486Y-63653206D01*
X25941466Y-63791099D01*
X26221389Y-63876013D01*
X26512500Y-63904685D01*
X26803610Y-63876013D01*
X27083533Y-63791099D01*
X27341513Y-63653206D01*
X27567634Y-63467634D01*
X27753206Y-63241514D01*
X27891099Y-62983534D01*
X27976013Y-62703611D01*
X27997500Y-62485450D01*
X27997500Y-61339550D01*
X27976013Y-61121389D01*
X27945257Y-61020000D01*
X32379743Y-61020000D01*
X32348987Y-61121389D01*
X32327500Y-61339550D01*
X32327500Y-62485449D01*
X32348987Y-62703610D01*
X32433901Y-62983533D01*
X32571794Y-63241513D01*
X32757366Y-63467634D01*
X32983486Y-63653206D01*
X33241466Y-63791099D01*
X33521389Y-63876013D01*
X33812500Y-63904685D01*
X34103610Y-63876013D01*
X34383533Y-63791099D01*
X34641513Y-63653206D01*
X34867634Y-63467634D01*
X35053206Y-63241514D01*
X35191099Y-62983534D01*
X35276013Y-62703611D01*
X35297500Y-62485450D01*
X35297500Y-61339550D01*
X35276013Y-61121389D01*
X35245257Y-61020000D01*
X60198000Y-61020000D01*
X60198000Y-75794039D01*
X60118898Y-75761274D01*
X59918939Y-75721500D01*
X59715061Y-75721500D01*
X59515102Y-75761274D01*
X59326744Y-75839295D01*
X59189497Y-75931000D01*
X58772090Y-75931000D01*
X58737792Y-75889208D01*
X58731436Y-75883992D01*
X58809185Y-75820185D01*
X58888537Y-75723494D01*
X58947502Y-75613180D01*
X58983812Y-75493482D01*
X58996072Y-75369000D01*
X58993000Y-75167250D01*
X58834250Y-75008500D01*
X57785000Y-75008500D01*
X57785000Y-75028500D01*
X57531000Y-75028500D01*
X57531000Y-75008500D01*
X56481750Y-75008500D01*
X56323000Y-75167250D01*
X56319928Y-75369000D01*
X56332188Y-75493482D01*
X56368498Y-75613180D01*
X56427463Y-75723494D01*
X56506815Y-75820185D01*
X56584564Y-75883992D01*
X56578208Y-75889208D01*
X56543910Y-75931000D01*
X56397433Y-75931000D01*
X56086398Y-75619966D01*
X56060541Y-75588459D01*
X55934842Y-75485301D01*
X55791434Y-75408647D01*
X55635826Y-75361444D01*
X55514553Y-75349500D01*
X55514550Y-75349500D01*
X55503750Y-75348436D01*
X55503750Y-75247998D01*
X55345002Y-75247998D01*
X55503750Y-75089250D01*
X55493927Y-74972369D01*
X55457015Y-74852855D01*
X55397496Y-74742839D01*
X55317658Y-74646549D01*
X55220568Y-74567684D01*
X55109958Y-74509276D01*
X54990079Y-74473570D01*
X54865537Y-74461936D01*
X54404500Y-74465000D01*
X54245750Y-74623750D01*
X54245750Y-75248000D01*
X54265750Y-75248000D01*
X54265750Y-75261928D01*
X53368750Y-75261928D01*
X53244268Y-75274188D01*
X53124570Y-75310498D01*
X53014256Y-75369463D01*
X52917565Y-75448815D01*
X52838213Y-75545506D01*
X52825833Y-75568667D01*
X52733750Y-75660750D01*
X52743296Y-75774337D01*
X52742938Y-75775518D01*
X52730678Y-75900000D01*
X52730678Y-76450000D01*
X52742938Y-76574482D01*
X52743095Y-76575000D01*
X52742938Y-76575518D01*
X52730678Y-76700000D01*
X52730678Y-77250000D01*
X52742938Y-77374482D01*
X52743095Y-77375000D01*
X52742938Y-77375518D01*
X52730678Y-77500000D01*
X52730678Y-78050000D01*
X52742938Y-78174482D01*
X52743095Y-78175000D01*
X52742938Y-78175518D01*
X52730678Y-78300000D01*
X52730678Y-78850000D01*
X52742938Y-78974482D01*
X52743095Y-78975000D01*
X52742938Y-78975518D01*
X52730678Y-79100000D01*
X52730678Y-79650000D01*
X52742938Y-79774482D01*
X52743095Y-79775000D01*
X52742938Y-79775518D01*
X52730678Y-79900000D01*
X52730678Y-80450000D01*
X52742938Y-80574482D01*
X52743095Y-80575000D01*
X52742938Y-80575518D01*
X52730678Y-80700000D01*
X52730678Y-81250000D01*
X52742938Y-81374482D01*
X52743095Y-81375000D01*
X52742938Y-81375518D01*
X52730678Y-81500000D01*
X52730678Y-82050000D01*
X52742938Y-82174482D01*
X52743095Y-82175000D01*
X52742938Y-82175518D01*
X52730678Y-82300000D01*
X52730678Y-82850000D01*
X52742938Y-82974482D01*
X52743095Y-82975000D01*
X52742938Y-82975518D01*
X52730678Y-83100000D01*
X52730678Y-83650000D01*
X52734712Y-83690962D01*
X52693750Y-83686928D01*
X52143750Y-83686928D01*
X52019268Y-83699188D01*
X52018087Y-83699546D01*
X51904500Y-83690000D01*
X51812417Y-83782083D01*
X51789256Y-83794463D01*
X51692565Y-83873815D01*
X51618750Y-83963759D01*
X51544935Y-83873815D01*
X51448244Y-83794463D01*
X51425083Y-83782083D01*
X51333000Y-83690000D01*
X51219413Y-83699546D01*
X51218232Y-83699188D01*
X51093750Y-83686928D01*
X50543750Y-83686928D01*
X50419268Y-83699188D01*
X50418750Y-83699345D01*
X50418232Y-83699188D01*
X50293750Y-83686928D01*
X49743750Y-83686928D01*
X49619268Y-83699188D01*
X49618750Y-83699345D01*
X49618232Y-83699188D01*
X49493750Y-83686928D01*
X48943750Y-83686928D01*
X48819268Y-83699188D01*
X48818750Y-83699345D01*
X48818232Y-83699188D01*
X48693750Y-83686928D01*
X48143750Y-83686928D01*
X48019268Y-83699188D01*
X48018750Y-83699345D01*
X48018232Y-83699188D01*
X47893750Y-83686928D01*
X47343750Y-83686928D01*
X47219268Y-83699188D01*
X47218750Y-83699345D01*
X47218232Y-83699188D01*
X47093750Y-83686928D01*
X46543750Y-83686928D01*
X46419268Y-83699188D01*
X46418750Y-83699345D01*
X46418232Y-83699188D01*
X46293750Y-83686928D01*
X45743750Y-83686928D01*
X45619268Y-83699188D01*
X45618087Y-83699546D01*
X45504500Y-83690000D01*
X45412417Y-83782083D01*
X45389256Y-83794463D01*
X45292565Y-83873815D01*
X45218750Y-83963759D01*
X45144935Y-83873815D01*
X45048244Y-83794463D01*
X45025083Y-83782083D01*
X44933000Y-83690000D01*
X44819413Y-83699546D01*
X44818232Y-83699188D01*
X44693750Y-83686928D01*
X44143750Y-83686928D01*
X44102788Y-83690962D01*
X44106822Y-83650000D01*
X44106822Y-83100000D01*
X44094562Y-82975518D01*
X44094405Y-82975000D01*
X44094562Y-82974482D01*
X44106822Y-82850000D01*
X44106822Y-82300000D01*
X44094562Y-82175518D01*
X44094405Y-82175000D01*
X44094562Y-82174482D01*
X44106822Y-82050000D01*
X44106822Y-81500000D01*
X44094562Y-81375518D01*
X44094405Y-81375000D01*
X44094562Y-81374482D01*
X44106822Y-81250000D01*
X44106822Y-80700000D01*
X44094562Y-80575518D01*
X44094204Y-80574337D01*
X44103750Y-80460750D01*
X44011667Y-80368667D01*
X43999287Y-80345506D01*
X43919935Y-80248815D01*
X43829991Y-80175000D01*
X43919935Y-80101185D01*
X43999287Y-80004494D01*
X44011667Y-79981333D01*
X44103750Y-79889250D01*
X44094204Y-79775663D01*
X44094562Y-79774482D01*
X44106822Y-79650000D01*
X44106822Y-79100000D01*
X44094562Y-78975518D01*
X44094405Y-78975000D01*
X44094562Y-78974482D01*
X44106822Y-78850000D01*
X44106822Y-78300000D01*
X44094562Y-78175518D01*
X44094405Y-78175000D01*
X44094562Y-78174482D01*
X44106822Y-78050000D01*
X44106822Y-77500000D01*
X44094562Y-77375518D01*
X44094405Y-77375000D01*
X44094562Y-77374482D01*
X44106822Y-77250000D01*
X44106822Y-76700000D01*
X44094562Y-76575518D01*
X44094405Y-76575000D01*
X44094562Y-76574482D01*
X44106822Y-76450000D01*
X44106822Y-75900000D01*
X44094562Y-75775518D01*
X44094405Y-75775000D01*
X44094562Y-75774482D01*
X44106822Y-75650000D01*
X44106822Y-75100000D01*
X44102788Y-75059038D01*
X44143750Y-75063072D01*
X44693750Y-75063072D01*
X44818232Y-75050812D01*
X44818750Y-75050655D01*
X44819268Y-75050812D01*
X44943750Y-75063072D01*
X45493750Y-75063072D01*
X45618232Y-75050812D01*
X45618750Y-75050655D01*
X45619268Y-75050812D01*
X45743750Y-75063072D01*
X46293750Y-75063072D01*
X46418232Y-75050812D01*
X46419413Y-75050454D01*
X46533000Y-75060000D01*
X46625083Y-74967917D01*
X46648244Y-74955537D01*
X46744935Y-74876185D01*
X46818750Y-74786241D01*
X46892565Y-74876185D01*
X46989256Y-74955537D01*
X47012417Y-74967917D01*
X47104500Y-75060000D01*
X47218087Y-75050454D01*
X47219268Y-75050812D01*
X47343750Y-75063072D01*
X47893750Y-75063072D01*
X48018232Y-75050812D01*
X48018750Y-75050655D01*
X48019268Y-75050812D01*
X48143750Y-75063072D01*
X48693750Y-75063072D01*
X48818232Y-75050812D01*
X48818750Y-75050655D01*
X48819268Y-75050812D01*
X48943750Y-75063072D01*
X49493750Y-75063072D01*
X49618232Y-75050812D01*
X49618750Y-75050655D01*
X49619268Y-75050812D01*
X49743750Y-75063072D01*
X50293750Y-75063072D01*
X50418232Y-75050812D01*
X50418750Y-75050655D01*
X50419268Y-75050812D01*
X50543750Y-75063072D01*
X51093750Y-75063072D01*
X51218232Y-75050812D01*
X51218750Y-75050655D01*
X51219268Y-75050812D01*
X51343750Y-75063072D01*
X51893750Y-75063072D01*
X52018232Y-75050812D01*
X52018750Y-75050655D01*
X52019268Y-75050812D01*
X52143750Y-75063072D01*
X52693750Y-75063072D01*
X52736302Y-75058881D01*
X52733750Y-75089250D01*
X52892500Y-75248000D01*
X53991750Y-75248000D01*
X53991750Y-74623750D01*
X53833000Y-74465000D01*
X53371963Y-74461936D01*
X53327778Y-74466064D01*
X53331822Y-74425000D01*
X53331822Y-74394000D01*
X56319928Y-74394000D01*
X56323000Y-74595750D01*
X56481750Y-74754500D01*
X57531000Y-74754500D01*
X57531000Y-73917750D01*
X57785000Y-73917750D01*
X57785000Y-74754500D01*
X58834250Y-74754500D01*
X58993000Y-74595750D01*
X58996072Y-74394000D01*
X58983812Y-74269518D01*
X58947502Y-74149820D01*
X58888537Y-74039506D01*
X58809185Y-73942815D01*
X58712494Y-73863463D01*
X58602180Y-73804498D01*
X58482482Y-73768188D01*
X58358000Y-73755928D01*
X57943750Y-73759000D01*
X57785000Y-73917750D01*
X57531000Y-73917750D01*
X57372250Y-73759000D01*
X56958000Y-73755928D01*
X56833518Y-73768188D01*
X56713820Y-73804498D01*
X56603506Y-73863463D01*
X56506815Y-73942815D01*
X56427463Y-74039506D01*
X56368498Y-74149820D01*
X56332188Y-74269518D01*
X56319928Y-74394000D01*
X53331822Y-74394000D01*
X53331822Y-72925000D01*
X53319562Y-72800518D01*
X53283252Y-72680820D01*
X53224287Y-72570506D01*
X53144935Y-72473815D01*
X53048244Y-72394463D01*
X52937930Y-72335498D01*
X52818232Y-72299188D01*
X52693750Y-72286928D01*
X52143750Y-72286928D01*
X52019268Y-72299188D01*
X52018750Y-72299345D01*
X52018232Y-72299188D01*
X51893750Y-72286928D01*
X51343750Y-72286928D01*
X51219268Y-72299188D01*
X51218750Y-72299345D01*
X51218232Y-72299188D01*
X51093750Y-72286928D01*
X50543750Y-72286928D01*
X50419268Y-72299188D01*
X50418750Y-72299345D01*
X50418232Y-72299188D01*
X50293750Y-72286928D01*
X49743750Y-72286928D01*
X49619268Y-72299188D01*
X49618750Y-72299345D01*
X49618232Y-72299188D01*
X49493750Y-72286928D01*
X49180750Y-72286928D01*
X49180750Y-72038880D01*
X50031102Y-71188529D01*
X50060172Y-71164672D01*
X50087522Y-71131346D01*
X50155395Y-71048643D01*
X50204077Y-70957564D01*
X50226152Y-70916265D01*
X50269724Y-70772628D01*
X50280750Y-70660676D01*
X50280750Y-70660673D01*
X50284436Y-70623250D01*
X50280750Y-70585827D01*
X50280750Y-70344466D01*
X50343232Y-70338312D01*
X50462930Y-70302002D01*
X50573244Y-70243037D01*
X50669935Y-70163685D01*
X50749287Y-70066994D01*
X50805408Y-69962000D01*
X51221297Y-69962000D01*
X51307708Y-70067292D01*
X51441336Y-70176958D01*
X51593791Y-70258447D01*
X51759215Y-70308628D01*
X51931250Y-70325572D01*
X52843750Y-70325572D01*
X53015785Y-70308628D01*
X53181209Y-70258447D01*
X53333664Y-70176958D01*
X53467292Y-70067292D01*
X53576958Y-69933664D01*
X53658447Y-69781209D01*
X53708628Y-69615785D01*
X53725572Y-69443750D01*
X53725572Y-68956250D01*
X53708628Y-68784215D01*
X53658447Y-68618791D01*
X53576958Y-68466336D01*
X53467292Y-68332708D01*
X53460936Y-68327492D01*
X53538685Y-68263685D01*
X53618037Y-68166994D01*
X53677002Y-68056680D01*
X53713312Y-67936982D01*
X53725572Y-67812500D01*
X53722500Y-67610750D01*
X53563750Y-67452000D01*
X52514500Y-67452000D01*
X52514500Y-67472000D01*
X52260500Y-67472000D01*
X52260500Y-67452000D01*
X51211250Y-67452000D01*
X51052500Y-67610750D01*
X51049428Y-67812500D01*
X51061688Y-67936982D01*
X51097998Y-68056680D01*
X51156963Y-68166994D01*
X51236315Y-68263685D01*
X51314064Y-68327492D01*
X51307708Y-68332708D01*
X51221297Y-68438000D01*
X50849485Y-68438000D01*
X50844562Y-68388018D01*
X50808252Y-68268320D01*
X50805141Y-68262500D01*
X50808252Y-68256680D01*
X50844562Y-68136982D01*
X50856822Y-68012500D01*
X50853750Y-67698250D01*
X50695000Y-67539500D01*
X49645750Y-67539500D01*
X49645750Y-67559500D01*
X49391750Y-67559500D01*
X49391750Y-67539500D01*
X49371750Y-67539500D01*
X49371750Y-67285500D01*
X49391750Y-67285500D01*
X49391750Y-66336250D01*
X49645750Y-66336250D01*
X49645750Y-67285500D01*
X50695000Y-67285500D01*
X50853750Y-67126750D01*
X50856577Y-66837500D01*
X51049428Y-66837500D01*
X51052500Y-67039250D01*
X51211250Y-67198000D01*
X52260500Y-67198000D01*
X52260500Y-66361250D01*
X52514500Y-66361250D01*
X52514500Y-67198000D01*
X53563750Y-67198000D01*
X53722500Y-67039250D01*
X53725572Y-66837500D01*
X53713312Y-66713018D01*
X53677002Y-66593320D01*
X53618037Y-66483006D01*
X53538685Y-66386315D01*
X53441994Y-66306963D01*
X53331680Y-66247998D01*
X53211982Y-66211688D01*
X53087500Y-66199428D01*
X52673250Y-66202500D01*
X52514500Y-66361250D01*
X52260500Y-66361250D01*
X52101750Y-66202500D01*
X51687500Y-66199428D01*
X51563018Y-66211688D01*
X51443320Y-66247998D01*
X51333006Y-66306963D01*
X51236315Y-66386315D01*
X51156963Y-66483006D01*
X51097998Y-66593320D01*
X51061688Y-66713018D01*
X51049428Y-66837500D01*
X50856577Y-66837500D01*
X50856822Y-66812500D01*
X50844562Y-66688018D01*
X50808252Y-66568320D01*
X50749287Y-66458006D01*
X50669935Y-66361315D01*
X50573244Y-66281963D01*
X50462930Y-66222998D01*
X50343232Y-66186688D01*
X50218750Y-66174428D01*
X49804500Y-66177500D01*
X49645750Y-66336250D01*
X49391750Y-66336250D01*
X49233000Y-66177500D01*
X48818750Y-66174428D01*
X48694268Y-66186688D01*
X48574570Y-66222998D01*
X48464256Y-66281963D01*
X48418750Y-66319309D01*
X48373244Y-66281963D01*
X48262930Y-66222998D01*
X48143232Y-66186688D01*
X48018750Y-66174428D01*
X46618750Y-66174428D01*
X46494268Y-66186688D01*
X46374570Y-66222998D01*
X46264256Y-66281963D01*
X46167565Y-66361315D01*
X46088213Y-66458006D01*
X46032092Y-66563000D01*
X44822453Y-66563000D01*
X44736042Y-66457708D01*
X44602414Y-66348042D01*
X44449959Y-66266553D01*
X44284535Y-66216372D01*
X44112500Y-66199428D01*
X43200000Y-66199428D01*
X43027965Y-66216372D01*
X42862541Y-66266553D01*
X42710086Y-66348042D01*
X42576458Y-66457708D01*
X42466792Y-66591336D01*
X42385303Y-66743791D01*
X42335122Y-66909215D01*
X42318178Y-67081250D01*
X42318178Y-67568750D01*
X42335122Y-67740785D01*
X42385303Y-67906209D01*
X42466792Y-68058664D01*
X42576458Y-68192292D01*
X42582814Y-68197508D01*
X42505065Y-68261315D01*
X42425713Y-68358006D01*
X42366748Y-68468320D01*
X42330438Y-68588018D01*
X42318178Y-68712500D01*
X42321250Y-68914250D01*
X42480000Y-69073000D01*
X43529250Y-69073000D01*
X43529250Y-69053000D01*
X43783250Y-69053000D01*
X43783250Y-69073000D01*
X44832500Y-69073000D01*
X44991250Y-68914250D01*
X44994322Y-68712500D01*
X44982062Y-68588018D01*
X44945752Y-68468320D01*
X44886787Y-68358006D01*
X44807435Y-68261315D01*
X44729686Y-68197508D01*
X44736042Y-68192292D01*
X44822453Y-68087000D01*
X45339000Y-68087000D01*
X45339001Y-70066567D01*
X45335314Y-70104000D01*
X45350027Y-70253378D01*
X45393599Y-70397015D01*
X45464355Y-70529392D01*
X45530953Y-70610541D01*
X45559579Y-70645422D01*
X45588649Y-70669279D01*
X46856750Y-71937380D01*
X46856750Y-72517455D01*
X46846821Y-72529554D01*
X46841556Y-72476092D01*
X46832306Y-72382174D01*
X46785103Y-72226566D01*
X46751218Y-72163172D01*
X46708449Y-72083157D01*
X46647589Y-72009000D01*
X46605291Y-71957459D01*
X46573789Y-71931606D01*
X46017648Y-71375466D01*
X45991791Y-71343959D01*
X45866092Y-71240801D01*
X45722684Y-71164147D01*
X45567076Y-71116944D01*
X45445803Y-71105000D01*
X45445800Y-71105000D01*
X45405250Y-71101006D01*
X45364700Y-71105000D01*
X41627090Y-71105000D01*
X41592792Y-71063208D01*
X41586436Y-71057992D01*
X41664185Y-70994185D01*
X41743537Y-70897494D01*
X41802502Y-70787180D01*
X41838812Y-70667482D01*
X41851072Y-70543000D01*
X41848000Y-70341250D01*
X41689250Y-70182500D01*
X40640000Y-70182500D01*
X40640000Y-70202500D01*
X40386000Y-70202500D01*
X40386000Y-70182500D01*
X40366000Y-70182500D01*
X40366000Y-69928500D01*
X40386000Y-69928500D01*
X40386000Y-69091750D01*
X40640000Y-69091750D01*
X40640000Y-69928500D01*
X41689250Y-69928500D01*
X41848000Y-69769750D01*
X41849252Y-69687500D01*
X42318178Y-69687500D01*
X42330438Y-69811982D01*
X42366748Y-69931680D01*
X42425713Y-70041994D01*
X42505065Y-70138685D01*
X42601756Y-70218037D01*
X42712070Y-70277002D01*
X42831768Y-70313312D01*
X42956250Y-70325572D01*
X43370500Y-70322500D01*
X43529250Y-70163750D01*
X43529250Y-69327000D01*
X43783250Y-69327000D01*
X43783250Y-70163750D01*
X43942000Y-70322500D01*
X44356250Y-70325572D01*
X44480732Y-70313312D01*
X44600430Y-70277002D01*
X44710744Y-70218037D01*
X44807435Y-70138685D01*
X44886787Y-70041994D01*
X44945752Y-69931680D01*
X44982062Y-69811982D01*
X44994322Y-69687500D01*
X44991250Y-69485750D01*
X44832500Y-69327000D01*
X43783250Y-69327000D01*
X43529250Y-69327000D01*
X42480000Y-69327000D01*
X42321250Y-69485750D01*
X42318178Y-69687500D01*
X41849252Y-69687500D01*
X41851072Y-69568000D01*
X41838812Y-69443518D01*
X41802502Y-69323820D01*
X41743537Y-69213506D01*
X41664185Y-69116815D01*
X41567494Y-69037463D01*
X41457180Y-68978498D01*
X41337482Y-68942188D01*
X41213000Y-68929928D01*
X40798750Y-68933000D01*
X40640000Y-69091750D01*
X40386000Y-69091750D01*
X40227250Y-68933000D01*
X39813000Y-68929928D01*
X39688518Y-68942188D01*
X39568820Y-68978498D01*
X39458506Y-69037463D01*
X39447382Y-69046592D01*
X39290898Y-68981774D01*
X39090939Y-68942000D01*
X38887061Y-68942000D01*
X38687102Y-68981774D01*
X38498744Y-69059795D01*
X38367873Y-69147240D01*
X38284164Y-69078542D01*
X38131709Y-68997053D01*
X37966285Y-68946872D01*
X37794250Y-68929928D01*
X36881750Y-68929928D01*
X36709715Y-68946872D01*
X36544291Y-68997053D01*
X36391836Y-69078542D01*
X36258208Y-69188208D01*
X36148542Y-69321836D01*
X36067053Y-69474291D01*
X36016872Y-69639715D01*
X35999928Y-69811750D01*
X35999928Y-70299250D01*
X36016872Y-70471285D01*
X36067053Y-70636709D01*
X36148542Y-70789164D01*
X36258208Y-70922792D01*
X36343756Y-70993000D01*
X36258208Y-71063208D01*
X36171797Y-71168500D01*
X36038053Y-71168500D01*
X35923256Y-71091795D01*
X35734898Y-71013774D01*
X35534939Y-70974000D01*
X35331061Y-70974000D01*
X35131102Y-71013774D01*
X34942744Y-71091795D01*
X34773226Y-71205063D01*
X34629063Y-71349226D01*
X34515795Y-71518744D01*
X34437774Y-71707102D01*
X34398000Y-71907061D01*
X34398000Y-72110939D01*
X34437774Y-72310898D01*
X34515795Y-72499256D01*
X34629063Y-72668774D01*
X34773226Y-72812937D01*
X34942744Y-72926205D01*
X35131102Y-73004226D01*
X35331061Y-73044000D01*
X35534939Y-73044000D01*
X35734898Y-73004226D01*
X35923256Y-72926205D01*
X36092774Y-72812937D01*
X36190464Y-72715247D01*
X36258208Y-72797792D01*
X36391836Y-72907458D01*
X36544291Y-72988947D01*
X36709715Y-73039128D01*
X36881750Y-73056072D01*
X37385941Y-73056072D01*
X37867221Y-73537352D01*
X37891078Y-73566422D01*
X37920148Y-73590279D01*
X38007107Y-73661645D01*
X38014649Y-73665676D01*
X38139485Y-73732402D01*
X38283122Y-73775974D01*
X38395074Y-73787000D01*
X38395077Y-73787000D01*
X38432500Y-73790686D01*
X38469923Y-73787000D01*
X41745577Y-73787000D01*
X41783000Y-73790686D01*
X41820423Y-73787000D01*
X41820426Y-73787000D01*
X41932378Y-73775974D01*
X42076015Y-73732402D01*
X42208392Y-73661645D01*
X42324422Y-73566422D01*
X42348284Y-73537346D01*
X42606630Y-73279000D01*
X43505678Y-73279000D01*
X43505678Y-74425000D01*
X43509712Y-74465962D01*
X43468750Y-74461928D01*
X41968750Y-74461928D01*
X41844268Y-74474188D01*
X41724570Y-74510498D01*
X41614256Y-74569463D01*
X41517565Y-74648815D01*
X41438213Y-74745506D01*
X41379248Y-74855820D01*
X41342938Y-74975518D01*
X41330678Y-75100000D01*
X41330678Y-75650000D01*
X41342938Y-75774482D01*
X41343095Y-75775000D01*
X41342938Y-75775518D01*
X41330678Y-75900000D01*
X41330678Y-76450000D01*
X41342938Y-76574482D01*
X41343095Y-76575000D01*
X41342938Y-76575518D01*
X41330678Y-76700000D01*
X41330678Y-77016247D01*
X41322898Y-77013024D01*
X41122939Y-76973250D01*
X40919061Y-76973250D01*
X40719102Y-77013024D01*
X40530744Y-77091045D01*
X40361226Y-77204313D01*
X40217063Y-77348476D01*
X40169649Y-77419437D01*
X40158792Y-77406208D01*
X40025164Y-77296542D01*
X39872709Y-77215053D01*
X39707285Y-77164872D01*
X39535250Y-77147928D01*
X39047750Y-77147928D01*
X38875715Y-77164872D01*
X38710291Y-77215053D01*
X38557836Y-77296542D01*
X38424208Y-77406208D01*
X38418992Y-77412564D01*
X38355185Y-77334815D01*
X38258494Y-77255463D01*
X38148180Y-77196498D01*
X38028482Y-77160188D01*
X37904000Y-77147928D01*
X37702250Y-77151000D01*
X37543500Y-77309750D01*
X37543500Y-78359000D01*
X37563500Y-78359000D01*
X37563500Y-78613000D01*
X37543500Y-78613000D01*
X37543500Y-79662250D01*
X37702250Y-79821000D01*
X37904000Y-79824072D01*
X38028482Y-79811812D01*
X38148180Y-79775502D01*
X38258494Y-79716537D01*
X38355185Y-79637185D01*
X38418992Y-79559436D01*
X38424208Y-79565792D01*
X38557836Y-79675458D01*
X38710291Y-79756947D01*
X38875715Y-79807128D01*
X39047750Y-79824072D01*
X39535250Y-79824072D01*
X39707285Y-79807128D01*
X39872709Y-79756947D01*
X40025164Y-79675458D01*
X40158792Y-79565792D01*
X40262181Y-79439812D01*
X40709721Y-79887351D01*
X40733578Y-79916422D01*
X40762648Y-79940279D01*
X40849607Y-80011645D01*
X40917623Y-80048000D01*
X40981985Y-80082402D01*
X41125622Y-80125974D01*
X41237574Y-80137000D01*
X41237577Y-80137000D01*
X41275000Y-80140686D01*
X41312423Y-80137000D01*
X41561206Y-80137000D01*
X41607509Y-80175000D01*
X41576437Y-80200500D01*
X35240631Y-80200500D01*
X34226131Y-79186000D01*
X36290928Y-79186000D01*
X36303188Y-79310482D01*
X36339498Y-79430180D01*
X36398463Y-79540494D01*
X36477815Y-79637185D01*
X36574506Y-79716537D01*
X36684820Y-79775502D01*
X36804518Y-79811812D01*
X36929000Y-79824072D01*
X37130750Y-79821000D01*
X37289500Y-79662250D01*
X37289500Y-78613000D01*
X36452750Y-78613000D01*
X36294000Y-78771750D01*
X36290928Y-79186000D01*
X34226131Y-79186000D01*
X32826131Y-77786000D01*
X36290928Y-77786000D01*
X36294000Y-78200250D01*
X36452750Y-78359000D01*
X37289500Y-78359000D01*
X37289500Y-77309750D01*
X37130750Y-77151000D01*
X36929000Y-77147928D01*
X36804518Y-77160188D01*
X36684820Y-77196498D01*
X36574506Y-77255463D01*
X36477815Y-77334815D01*
X36398463Y-77431506D01*
X36339498Y-77541820D01*
X36303188Y-77661518D01*
X36290928Y-77786000D01*
X32826131Y-77786000D01*
X30924500Y-75884370D01*
X30924500Y-74928130D01*
X31748809Y-74103822D01*
X32015750Y-74103822D01*
X32187785Y-74086878D01*
X32353209Y-74036697D01*
X32505664Y-73955208D01*
X32639292Y-73845542D01*
X32748958Y-73711914D01*
X32830447Y-73559459D01*
X32880628Y-73394035D01*
X32897572Y-73222000D01*
X32897572Y-72734500D01*
X32880628Y-72562465D01*
X32830447Y-72397041D01*
X32748958Y-72244586D01*
X32639292Y-72110958D01*
X32553744Y-72040750D01*
X32639292Y-71970542D01*
X32748958Y-71836914D01*
X32830447Y-71684459D01*
X32880628Y-71519035D01*
X32897572Y-71347000D01*
X32897572Y-70859500D01*
X32880628Y-70687465D01*
X32830447Y-70522041D01*
X32748958Y-70369586D01*
X32639292Y-70235958D01*
X32505664Y-70126292D01*
X32353209Y-70044803D01*
X32187785Y-69994622D01*
X32015750Y-69977678D01*
X31718250Y-69977678D01*
X31718250Y-69093672D01*
X31721936Y-69056249D01*
X31717723Y-69013474D01*
X31707224Y-68906872D01*
X31663652Y-68763235D01*
X31592895Y-68630858D01*
X31497672Y-68514828D01*
X31468603Y-68490972D01*
X31153203Y-68175572D01*
X31212500Y-68175572D01*
X31336982Y-68163312D01*
X31361766Y-68155794D01*
X31381139Y-68161904D01*
X31480750Y-68172500D01*
X31639500Y-68013750D01*
X31639500Y-68008533D01*
X31663685Y-67988685D01*
X31743037Y-67891994D01*
X31802002Y-67781680D01*
X31838312Y-67661982D01*
X31850572Y-67537500D01*
X31850572Y-65287500D01*
X31838312Y-65163018D01*
X31802002Y-65043320D01*
X31743037Y-64933006D01*
X31663685Y-64836315D01*
X31639500Y-64816467D01*
X31639500Y-64811250D01*
X31885500Y-64811250D01*
X31885500Y-66285500D01*
X31909500Y-66285500D01*
X31909500Y-66539500D01*
X31885500Y-66539500D01*
X31885500Y-68013750D01*
X32044250Y-68172500D01*
X32143861Y-68161904D01*
X32263152Y-68124279D01*
X32372811Y-68064104D01*
X32468623Y-67983693D01*
X32546906Y-67886134D01*
X32602623Y-67779078D01*
X32757366Y-67967634D01*
X32983486Y-68153206D01*
X33241466Y-68291099D01*
X33521389Y-68376013D01*
X33812500Y-68404685D01*
X34103610Y-68376013D01*
X34383533Y-68291099D01*
X34641513Y-68153206D01*
X34867634Y-67967634D01*
X35053206Y-67741514D01*
X35191099Y-67483534D01*
X35276013Y-67203611D01*
X35297500Y-66985450D01*
X35297500Y-65839550D01*
X35276013Y-65621389D01*
X35191099Y-65341466D01*
X35053206Y-65083486D01*
X34867634Y-64857366D01*
X34641514Y-64671794D01*
X34383534Y-64533901D01*
X34103611Y-64448987D01*
X33812500Y-64420315D01*
X33521390Y-64448987D01*
X33241467Y-64533901D01*
X32983487Y-64671794D01*
X32757367Y-64857366D01*
X32602623Y-65045921D01*
X32546906Y-64938866D01*
X32468623Y-64841307D01*
X32372811Y-64760896D01*
X32263152Y-64700721D01*
X32143861Y-64663096D01*
X32044250Y-64652500D01*
X31885500Y-64811250D01*
X31639500Y-64811250D01*
X31480750Y-64652500D01*
X31381139Y-64663096D01*
X31361766Y-64669206D01*
X31336982Y-64661688D01*
X31212500Y-64649428D01*
X30712500Y-64649428D01*
X30588018Y-64661688D01*
X30562500Y-64669429D01*
X30536982Y-64661688D01*
X30412500Y-64649428D01*
X29912500Y-64649428D01*
X29788018Y-64661688D01*
X29762500Y-64669429D01*
X29736982Y-64661688D01*
X29612500Y-64649428D01*
X29112500Y-64649428D01*
X28988018Y-64661688D01*
X28962500Y-64669429D01*
X28936982Y-64661688D01*
X28812500Y-64649428D01*
X28312500Y-64649428D01*
X28188018Y-64661688D01*
X28068320Y-64697998D01*
X27958006Y-64756963D01*
X27861315Y-64836315D01*
X27781963Y-64933006D01*
X27722998Y-65043320D01*
X27722254Y-65045771D01*
X27567634Y-64857366D01*
X27341514Y-64671794D01*
X27083534Y-64533901D01*
X26803611Y-64448987D01*
X26512500Y-64420315D01*
X26221390Y-64448987D01*
X25941467Y-64533901D01*
X25683487Y-64671794D01*
X25457367Y-64857366D01*
X25271794Y-65083486D01*
X25133901Y-65341466D01*
X25048987Y-65621389D01*
X25027500Y-65839550D01*
X25027500Y-66985449D01*
X25048987Y-67203610D01*
X25133901Y-67483533D01*
X25271794Y-67741513D01*
X25457366Y-67967634D01*
X25683486Y-68153206D01*
X25941466Y-68291099D01*
X26221389Y-68376013D01*
X26298918Y-68383649D01*
X24238715Y-70443853D01*
X24207209Y-70469709D01*
X24104051Y-70595408D01*
X24027397Y-70738816D01*
X23980194Y-70894424D01*
X23968250Y-71015697D01*
X23964256Y-71056250D01*
X23968250Y-71096800D01*
X23968250Y-71209448D01*
X23968251Y-74813671D01*
X23925364Y-74836595D01*
X23790788Y-74947038D01*
X23680345Y-75081614D01*
X23598278Y-75235150D01*
X23547742Y-75401746D01*
X23530678Y-75575000D01*
X23530678Y-76825000D01*
X23547742Y-76998254D01*
X23598278Y-77164850D01*
X23680345Y-77318386D01*
X23790788Y-77452962D01*
X23925364Y-77563405D01*
X24078900Y-77645472D01*
X24245496Y-77696008D01*
X24418750Y-77713072D01*
X25168750Y-77713072D01*
X25342004Y-77696008D01*
X25508600Y-77645472D01*
X25662136Y-77563405D01*
X25796712Y-77452962D01*
X25907155Y-77318386D01*
X25989222Y-77164850D01*
X26039758Y-76998254D01*
X26056822Y-76825000D01*
X26056822Y-75575000D01*
X26039758Y-75401746D01*
X25989222Y-75235150D01*
X25907155Y-75081614D01*
X25796712Y-74947038D01*
X25662136Y-74836595D01*
X25619250Y-74813672D01*
X25619250Y-71398182D01*
X27813000Y-69204433D01*
X27813001Y-69989029D01*
X27756215Y-69994622D01*
X27590791Y-70044803D01*
X27438336Y-70126292D01*
X27304708Y-70235958D01*
X27195042Y-70369586D01*
X27113553Y-70522041D01*
X27063372Y-70687465D01*
X27046428Y-70859500D01*
X27046428Y-71347000D01*
X27063372Y-71519035D01*
X27113553Y-71684459D01*
X27195042Y-71836914D01*
X27304708Y-71970542D01*
X27390256Y-72040750D01*
X27304708Y-72110958D01*
X27195042Y-72244586D01*
X27113553Y-72397041D01*
X27063372Y-72562465D01*
X27046428Y-72734500D01*
X27046428Y-73222000D01*
X27063372Y-73394035D01*
X27113553Y-73559459D01*
X27195042Y-73711914D01*
X27304708Y-73845542D01*
X27438336Y-73955208D01*
X27590791Y-74036697D01*
X27756215Y-74086878D01*
X27776795Y-74088905D01*
X27819221Y-74140601D01*
X27843079Y-74169672D01*
X27872149Y-74193529D01*
X28606750Y-74928130D01*
X28606750Y-74959270D01*
X28596712Y-74947038D01*
X28462136Y-74836595D01*
X28308600Y-74754528D01*
X28142004Y-74703992D01*
X27968750Y-74686928D01*
X27218750Y-74686928D01*
X27045496Y-74703992D01*
X26878900Y-74754528D01*
X26725364Y-74836595D01*
X26590788Y-74947038D01*
X26480345Y-75081614D01*
X26398278Y-75235150D01*
X26347742Y-75401746D01*
X26330678Y-75575000D01*
X26330678Y-76825000D01*
X26347742Y-76998254D01*
X26398278Y-77164850D01*
X26480345Y-77318386D01*
X26590788Y-77452962D01*
X26725364Y-77563405D01*
X26878900Y-77645472D01*
X27045496Y-77696008D01*
X27218750Y-77713072D01*
X27968750Y-77713072D01*
X28142004Y-77696008D01*
X28308600Y-77645472D01*
X28462136Y-77563405D01*
X28492255Y-77538687D01*
X34083607Y-83130040D01*
X34109459Y-83161541D01*
X34161798Y-83204494D01*
X34235156Y-83264698D01*
X34235158Y-83264699D01*
X34378566Y-83341353D01*
X34534174Y-83388556D01*
X34655447Y-83400500D01*
X34655456Y-83400500D01*
X34695999Y-83404493D01*
X34736542Y-83400500D01*
X36767068Y-83400500D01*
X37233606Y-83867039D01*
X37259459Y-83898541D01*
X37385158Y-84001699D01*
X37528566Y-84078353D01*
X37586889Y-84096045D01*
X37655208Y-84179292D01*
X37661564Y-84184508D01*
X37583815Y-84248315D01*
X37504463Y-84345006D01*
X37445498Y-84455320D01*
X37409188Y-84575018D01*
X37396928Y-84699500D01*
X37400000Y-84901250D01*
X37558750Y-85060000D01*
X38608000Y-85060000D01*
X38608000Y-85040000D01*
X38862000Y-85040000D01*
X38862000Y-85060000D01*
X39911250Y-85060000D01*
X40070000Y-84901250D01*
X40073072Y-84699500D01*
X40060812Y-84575018D01*
X40024502Y-84455320D01*
X39965537Y-84345006D01*
X39886185Y-84248315D01*
X39808436Y-84184508D01*
X39814792Y-84179292D01*
X39883111Y-84096045D01*
X39941434Y-84078353D01*
X40084842Y-84001699D01*
X40170501Y-83931401D01*
X40170500Y-84516449D01*
X40166506Y-84557000D01*
X40170500Y-84597550D01*
X40170500Y-84597552D01*
X40182444Y-84718825D01*
X40203807Y-84789250D01*
X40229647Y-84874433D01*
X40306301Y-85017842D01*
X40334496Y-85052197D01*
X40409459Y-85143541D01*
X40440966Y-85169398D01*
X42567606Y-87296039D01*
X42593459Y-87327541D01*
X42719158Y-87430699D01*
X42862566Y-87507353D01*
X43018174Y-87554556D01*
X43139447Y-87566500D01*
X43139456Y-87566500D01*
X43179999Y-87570493D01*
X43220542Y-87566500D01*
X44028450Y-87566500D01*
X44069000Y-87570494D01*
X44109550Y-87566500D01*
X44109553Y-87566500D01*
X44230826Y-87554556D01*
X44386434Y-87507353D01*
X44529842Y-87430699D01*
X44655541Y-87327541D01*
X44681398Y-87296034D01*
X44973784Y-87003648D01*
X45005291Y-86977791D01*
X45108449Y-86852092D01*
X45185103Y-86708684D01*
X45232306Y-86553076D01*
X45241473Y-86460000D01*
X45345752Y-86460000D01*
X45345752Y-86319834D01*
X45389256Y-86355537D01*
X45412417Y-86367917D01*
X45504500Y-86460000D01*
X45618087Y-86450454D01*
X45619268Y-86450812D01*
X45743750Y-86463072D01*
X46293750Y-86463072D01*
X46418232Y-86450812D01*
X46418750Y-86450655D01*
X46419268Y-86450812D01*
X46543750Y-86463072D01*
X47093750Y-86463072D01*
X47218232Y-86450812D01*
X47218750Y-86450655D01*
X47219268Y-86450812D01*
X47343750Y-86463072D01*
X47893750Y-86463072D01*
X48018232Y-86450812D01*
X48018750Y-86450655D01*
X48019268Y-86450812D01*
X48143750Y-86463072D01*
X48693750Y-86463072D01*
X48818232Y-86450812D01*
X48818750Y-86450655D01*
X48819268Y-86450812D01*
X48943750Y-86463072D01*
X49493750Y-86463072D01*
X49618232Y-86450812D01*
X49618750Y-86450655D01*
X49619268Y-86450812D01*
X49743750Y-86463072D01*
X50293750Y-86463072D01*
X50418232Y-86450812D01*
X50418750Y-86450655D01*
X50419268Y-86450812D01*
X50543750Y-86463072D01*
X51093750Y-86463072D01*
X51218232Y-86450812D01*
X51219413Y-86450454D01*
X51333000Y-86460000D01*
X51425083Y-86367917D01*
X51448244Y-86355537D01*
X51491748Y-86319834D01*
X51491748Y-86460000D01*
X51593250Y-86460000D01*
X51593250Y-86541199D01*
X51589256Y-86581750D01*
X51593250Y-86622300D01*
X51593250Y-86622302D01*
X51605194Y-86743575D01*
X51624566Y-86807435D01*
X51652397Y-86899183D01*
X51729051Y-87042592D01*
X51760530Y-87080949D01*
X51832209Y-87168291D01*
X51863716Y-87194148D01*
X52741753Y-88072185D01*
X52688250Y-88073000D01*
X52529500Y-88231750D01*
X52529500Y-89281000D01*
X52549500Y-89281000D01*
X52549500Y-89535000D01*
X52529500Y-89535000D01*
X52529500Y-90584250D01*
X52688250Y-90743000D01*
X52890000Y-90746072D01*
X53014482Y-90733812D01*
X53134180Y-90697502D01*
X53244494Y-90638537D01*
X53341185Y-90559185D01*
X53404992Y-90481436D01*
X53410208Y-90487792D01*
X53543836Y-90597458D01*
X53696291Y-90678947D01*
X53861715Y-90729128D01*
X54033750Y-90746072D01*
X54521250Y-90746072D01*
X54693285Y-90729128D01*
X54858709Y-90678947D01*
X55011164Y-90597458D01*
X55144792Y-90487792D01*
X55254458Y-90354164D01*
X55268633Y-90327644D01*
X55451102Y-90403226D01*
X55651061Y-90443000D01*
X55854939Y-90443000D01*
X56054898Y-90403226D01*
X56243256Y-90325205D01*
X56412774Y-90211937D01*
X56556937Y-90067774D01*
X56670205Y-89898256D01*
X56748226Y-89709898D01*
X56788000Y-89509939D01*
X56788000Y-89306061D01*
X56748226Y-89106102D01*
X56670205Y-88917744D01*
X56556937Y-88748226D01*
X56412774Y-88604063D01*
X56243256Y-88490795D01*
X56054898Y-88412774D01*
X55854939Y-88373000D01*
X55651061Y-88373000D01*
X55451102Y-88412774D01*
X55268633Y-88488356D01*
X55254458Y-88461836D01*
X55144792Y-88328208D01*
X55091638Y-88284586D01*
X55091056Y-88278674D01*
X55043853Y-88123066D01*
X54967199Y-87979658D01*
X54967198Y-87979656D01*
X54889891Y-87885458D01*
X54864041Y-87853959D01*
X54832539Y-87828106D01*
X53360683Y-86356250D01*
X56605678Y-86356250D01*
X56617938Y-86480732D01*
X56654248Y-86600430D01*
X56713213Y-86710744D01*
X56792565Y-86807435D01*
X56889256Y-86886787D01*
X56999570Y-86945752D01*
X57119268Y-86982062D01*
X57243750Y-86994322D01*
X57658000Y-86991250D01*
X57816750Y-86832500D01*
X57816750Y-85995750D01*
X58070750Y-85995750D01*
X58070750Y-86832500D01*
X58229500Y-86991250D01*
X58643750Y-86994322D01*
X58768232Y-86982062D01*
X58887930Y-86945752D01*
X58998244Y-86886787D01*
X59094935Y-86807435D01*
X59174287Y-86710744D01*
X59233252Y-86600430D01*
X59269562Y-86480732D01*
X59281822Y-86356250D01*
X59278750Y-86154500D01*
X59120000Y-85995750D01*
X58070750Y-85995750D01*
X57816750Y-85995750D01*
X56767500Y-85995750D01*
X56608750Y-86154500D01*
X56605678Y-86356250D01*
X53360683Y-86356250D01*
X53244250Y-86239818D01*
X53244250Y-86142146D01*
X53283252Y-86069180D01*
X53319562Y-85949482D01*
X53331822Y-85825000D01*
X53331822Y-84325000D01*
X53327788Y-84284038D01*
X53368750Y-84288072D01*
X54868750Y-84288072D01*
X54993232Y-84275812D01*
X55112930Y-84239502D01*
X55223244Y-84180537D01*
X55276294Y-84137000D01*
X55373370Y-84137000D01*
X55742466Y-84506096D01*
X55766328Y-84535172D01*
X55814809Y-84574959D01*
X55882357Y-84630395D01*
X55953114Y-84668215D01*
X56014735Y-84701152D01*
X56158372Y-84744724D01*
X56270324Y-84755750D01*
X56270327Y-84755750D01*
X56307750Y-84759436D01*
X56345173Y-84755750D01*
X56777547Y-84755750D01*
X56863958Y-84861042D01*
X56870314Y-84866258D01*
X56792565Y-84930065D01*
X56713213Y-85026756D01*
X56654248Y-85137070D01*
X56617938Y-85256768D01*
X56605678Y-85381250D01*
X56608750Y-85583000D01*
X56767500Y-85741750D01*
X57816750Y-85741750D01*
X57816750Y-85721750D01*
X58070750Y-85721750D01*
X58070750Y-85741750D01*
X59120000Y-85741750D01*
X59278750Y-85583000D01*
X59281822Y-85381250D01*
X59269562Y-85256768D01*
X59233252Y-85137070D01*
X59174287Y-85026756D01*
X59094935Y-84930065D01*
X59017186Y-84866258D01*
X59023542Y-84861042D01*
X59133208Y-84727414D01*
X59214697Y-84574959D01*
X59264878Y-84409535D01*
X59281822Y-84237500D01*
X59281822Y-83750000D01*
X59264878Y-83577965D01*
X59214697Y-83412541D01*
X59133208Y-83260086D01*
X59023542Y-83126458D01*
X58889914Y-83016792D01*
X58737459Y-82935303D01*
X58572035Y-82885122D01*
X58400000Y-82868178D01*
X57487500Y-82868178D01*
X57315465Y-82885122D01*
X57150041Y-82935303D01*
X56997586Y-83016792D01*
X56863958Y-83126458D01*
X56777547Y-83231750D01*
X56623380Y-83231750D01*
X56254284Y-82862654D01*
X56230422Y-82833578D01*
X56114392Y-82738355D01*
X55982015Y-82667598D01*
X55838378Y-82624026D01*
X55726426Y-82613000D01*
X55726423Y-82613000D01*
X55689000Y-82609314D01*
X55651577Y-82613000D01*
X55506822Y-82613000D01*
X55506822Y-82300000D01*
X55494562Y-82175518D01*
X55494405Y-82175000D01*
X55494562Y-82174482D01*
X55506822Y-82050000D01*
X55506822Y-81737000D01*
X60198000Y-81737000D01*
X60198000Y-97730000D01*
X23846492Y-97730000D01*
X23485619Y-97694616D01*
X23171190Y-97599684D01*
X22881188Y-97445488D01*
X22626658Y-97237897D01*
X22417300Y-96984828D01*
X22261079Y-96695902D01*
X22163956Y-96382151D01*
X22130360Y-96062500D01*
X27111928Y-96062500D01*
X27124188Y-96186982D01*
X27160498Y-96306680D01*
X27219463Y-96416994D01*
X27298815Y-96513685D01*
X27395506Y-96593037D01*
X27505820Y-96652002D01*
X27625518Y-96688312D01*
X27750000Y-96700572D01*
X28364250Y-96697500D01*
X28523000Y-96538750D01*
X28523000Y-95639500D01*
X28777000Y-95639500D01*
X28777000Y-96538750D01*
X28935750Y-96697500D01*
X29550000Y-96700572D01*
X29674482Y-96688312D01*
X29794180Y-96652002D01*
X29904494Y-96593037D01*
X30001185Y-96513685D01*
X30080537Y-96416994D01*
X30139502Y-96306680D01*
X30175812Y-96186982D01*
X30188072Y-96062500D01*
X30185000Y-95798250D01*
X30026250Y-95639500D01*
X28777000Y-95639500D01*
X28523000Y-95639500D01*
X27273750Y-95639500D01*
X27115000Y-95798250D01*
X27111928Y-96062500D01*
X22130360Y-96062500D01*
X22126250Y-96023397D01*
X22126250Y-94962500D01*
X27111928Y-94962500D01*
X27115000Y-95226750D01*
X27273750Y-95385500D01*
X28523000Y-95385500D01*
X28523000Y-94486250D01*
X28777000Y-94486250D01*
X28777000Y-95385500D01*
X30026250Y-95385500D01*
X30185000Y-95226750D01*
X30188072Y-94962500D01*
X33311928Y-94962500D01*
X33311928Y-96062500D01*
X33324188Y-96186982D01*
X33360498Y-96306680D01*
X33419463Y-96416994D01*
X33498815Y-96513685D01*
X33595506Y-96593037D01*
X33705820Y-96652002D01*
X33825518Y-96688312D01*
X33950000Y-96700572D01*
X35750000Y-96700572D01*
X35874482Y-96688312D01*
X35994180Y-96652002D01*
X36104494Y-96593037D01*
X36201185Y-96513685D01*
X36280537Y-96416994D01*
X36339502Y-96306680D01*
X36375812Y-96186982D01*
X36388072Y-96062500D01*
X36388072Y-94962500D01*
X36375812Y-94838018D01*
X36339502Y-94718320D01*
X36280537Y-94608006D01*
X36201185Y-94511315D01*
X36104494Y-94431963D01*
X35994180Y-94372998D01*
X35874482Y-94336688D01*
X35750000Y-94324428D01*
X33950000Y-94324428D01*
X33825518Y-94336688D01*
X33705820Y-94372998D01*
X33595506Y-94431963D01*
X33498815Y-94511315D01*
X33419463Y-94608006D01*
X33360498Y-94718320D01*
X33324188Y-94838018D01*
X33311928Y-94962500D01*
X30188072Y-94962500D01*
X30175812Y-94838018D01*
X30139502Y-94718320D01*
X30080537Y-94608006D01*
X30001185Y-94511315D01*
X29904494Y-94431963D01*
X29794180Y-94372998D01*
X29674482Y-94336688D01*
X29550000Y-94324428D01*
X28935750Y-94327500D01*
X28777000Y-94486250D01*
X28523000Y-94486250D01*
X28364250Y-94327500D01*
X27750000Y-94324428D01*
X27625518Y-94336688D01*
X27505820Y-94372998D01*
X27395506Y-94431963D01*
X27298815Y-94511315D01*
X27219463Y-94608006D01*
X27160498Y-94718320D01*
X27124188Y-94838018D01*
X27111928Y-94962500D01*
X22126250Y-94962500D01*
X22126250Y-91262500D01*
X27111928Y-91262500D01*
X27111928Y-92362500D01*
X27124188Y-92486982D01*
X27160498Y-92606680D01*
X27219463Y-92716994D01*
X27298815Y-92813685D01*
X27395506Y-92893037D01*
X27505820Y-92952002D01*
X27625518Y-92988312D01*
X27750000Y-93000572D01*
X29550000Y-93000572D01*
X29674482Y-92988312D01*
X29794180Y-92952002D01*
X29904494Y-92893037D01*
X30001185Y-92813685D01*
X30080537Y-92716994D01*
X30139502Y-92606680D01*
X30175812Y-92486982D01*
X30188072Y-92362500D01*
X30188072Y-91262500D01*
X33311928Y-91262500D01*
X33311928Y-92362500D01*
X33324188Y-92486982D01*
X33360498Y-92606680D01*
X33419463Y-92716994D01*
X33498815Y-92813685D01*
X33595506Y-92893037D01*
X33705820Y-92952002D01*
X33825518Y-92988312D01*
X33950000Y-93000572D01*
X35750000Y-93000572D01*
X35874482Y-92988312D01*
X35994180Y-92952002D01*
X36104494Y-92893037D01*
X36201185Y-92813685D01*
X36280537Y-92716994D01*
X36339502Y-92606680D01*
X36375812Y-92486982D01*
X36388072Y-92362500D01*
X36388072Y-91262500D01*
X36375812Y-91138018D01*
X36339502Y-91018320D01*
X36280537Y-90908006D01*
X36201185Y-90811315D01*
X36104494Y-90731963D01*
X35994180Y-90672998D01*
X35874482Y-90636688D01*
X35853047Y-90634577D01*
X35885000Y-90473939D01*
X35885000Y-90270061D01*
X35852765Y-90108000D01*
X51276928Y-90108000D01*
X51289188Y-90232482D01*
X51325498Y-90352180D01*
X51384463Y-90462494D01*
X51463815Y-90559185D01*
X51560506Y-90638537D01*
X51670820Y-90697502D01*
X51790518Y-90733812D01*
X51915000Y-90746072D01*
X52116750Y-90743000D01*
X52275500Y-90584250D01*
X52275500Y-89535000D01*
X51438750Y-89535000D01*
X51280000Y-89693750D01*
X51276928Y-90108000D01*
X35852765Y-90108000D01*
X35845226Y-90070102D01*
X35767205Y-89881744D01*
X35653937Y-89712226D01*
X35509774Y-89568063D01*
X35340256Y-89454795D01*
X35151898Y-89376774D01*
X34951939Y-89337000D01*
X34748061Y-89337000D01*
X34548102Y-89376774D01*
X34359744Y-89454795D01*
X34190226Y-89568063D01*
X34046063Y-89712226D01*
X33932795Y-89881744D01*
X33854774Y-90070102D01*
X33815000Y-90270061D01*
X33815000Y-90473939D01*
X33846953Y-90634577D01*
X33825518Y-90636688D01*
X33705820Y-90672998D01*
X33595506Y-90731963D01*
X33498815Y-90811315D01*
X33419463Y-90908006D01*
X33360498Y-91018320D01*
X33324188Y-91138018D01*
X33311928Y-91262500D01*
X30188072Y-91262500D01*
X30175812Y-91138018D01*
X30139502Y-91018320D01*
X30080537Y-90908006D01*
X30001185Y-90811315D01*
X29904494Y-90731963D01*
X29794180Y-90672998D01*
X29674482Y-90636688D01*
X29550000Y-90624428D01*
X27750000Y-90624428D01*
X27625518Y-90636688D01*
X27505820Y-90672998D01*
X27395506Y-90731963D01*
X27298815Y-90811315D01*
X27219463Y-90908006D01*
X27160498Y-91018320D01*
X27124188Y-91138018D01*
X27111928Y-91262500D01*
X22126250Y-91262500D01*
X22126250Y-88708000D01*
X51276928Y-88708000D01*
X51280000Y-89122250D01*
X51438750Y-89281000D01*
X52275500Y-89281000D01*
X52275500Y-88231750D01*
X52116750Y-88073000D01*
X51915000Y-88069928D01*
X51790518Y-88082188D01*
X51670820Y-88118498D01*
X51560506Y-88177463D01*
X51463815Y-88256815D01*
X51384463Y-88353506D01*
X51325498Y-88463820D01*
X51289188Y-88583518D01*
X51276928Y-88708000D01*
X22126250Y-88708000D01*
X22126250Y-85674500D01*
X37396928Y-85674500D01*
X37409188Y-85798982D01*
X37445498Y-85918680D01*
X37504463Y-86028994D01*
X37583815Y-86125685D01*
X37680506Y-86205037D01*
X37790820Y-86264002D01*
X37910518Y-86300312D01*
X38035000Y-86312572D01*
X38449250Y-86309500D01*
X38608000Y-86150750D01*
X38608000Y-85314000D01*
X38862000Y-85314000D01*
X38862000Y-86150750D01*
X39020750Y-86309500D01*
X39435000Y-86312572D01*
X39559482Y-86300312D01*
X39679180Y-86264002D01*
X39789494Y-86205037D01*
X39886185Y-86125685D01*
X39965537Y-86028994D01*
X40024502Y-85918680D01*
X40060812Y-85798982D01*
X40073072Y-85674500D01*
X40070000Y-85472750D01*
X39911250Y-85314000D01*
X38862000Y-85314000D01*
X38608000Y-85314000D01*
X37558750Y-85314000D01*
X37400000Y-85472750D01*
X37396928Y-85674500D01*
X22126250Y-85674500D01*
X22126250Y-62740242D01*
X22161634Y-62379369D01*
X22256566Y-62064940D01*
X22410762Y-61774938D01*
X22618352Y-61520408D01*
X22871422Y-61311050D01*
X23160347Y-61154829D01*
X23474100Y-61057706D01*
X23832853Y-61020000D01*
X25079743Y-61020000D01*
X25048987Y-61121389D01*
G36*
X47445750Y-68985500D02*
G01*
X47465750Y-68985500D01*
X47465750Y-69239500D01*
X47445750Y-69239500D01*
X47445750Y-69259500D01*
X47191750Y-69259500D01*
X47191750Y-69239500D01*
X47171750Y-69239500D01*
X47171750Y-68985500D01*
X47191750Y-68985500D01*
X47191750Y-68965500D01*
X47445750Y-68965500D01*
X47445750Y-68985500D01*
X47445750Y-68985500D01*
G37*
X47445750Y-68985500D02*
X47465750Y-68985500D01*
X47465750Y-69239500D01*
X47445750Y-69239500D01*
X47445750Y-69259500D01*
X47191750Y-69259500D01*
X47191750Y-69239500D01*
X47171750Y-69239500D01*
X47171750Y-68985500D01*
X47191750Y-68985500D01*
X47191750Y-68965500D01*
X47445750Y-68965500D01*
X47445750Y-68985500D01*
M02*
