G04 #@! TF.GenerationSoftware,KiCad,Pcbnew,(5.1.4-0)*
G04 #@! TF.CreationDate,2021-10-16T03:16:45+01:00*
G04 #@! TF.ProjectId,PR-4PP,50522d34-5050-42e6-9b69-6361645f7063,rev?*
G04 #@! TF.SameCoordinates,Original*
G04 #@! TF.FileFunction,Soldermask,Top*
G04 #@! TF.FilePolarity,Negative*
%FSLAX46Y46*%
G04 Gerber Fmt 4.6, Leading zero omitted, Abs format (unit mm)*
G04 Created by KiCad (PCBNEW (5.1.4-0)) date 2021-10-16 03:16:45*
%MOMM*%
%LPD*%
G04 APERTURE LIST*
%ADD10C,0.100000*%
G04 APERTURE END LIST*
D10*
G36*
X89496474Y-86933684D02*
G01*
X89714474Y-87023983D01*
X89868623Y-87087833D01*
X90203548Y-87311623D01*
X90488377Y-87596452D01*
X90712167Y-87931377D01*
X90744562Y-88009586D01*
X90866316Y-88303526D01*
X90944900Y-88698594D01*
X90944900Y-89101406D01*
X90866316Y-89496474D01*
X90815451Y-89619272D01*
X90712167Y-89868623D01*
X90488377Y-90203548D01*
X90203548Y-90488377D01*
X89868623Y-90712167D01*
X89714474Y-90776017D01*
X89496474Y-90866316D01*
X89101406Y-90944900D01*
X88698594Y-90944900D01*
X88303526Y-90866316D01*
X88085526Y-90776017D01*
X87931377Y-90712167D01*
X87596452Y-90488377D01*
X87311623Y-90203548D01*
X87087833Y-89868623D01*
X86984549Y-89619272D01*
X86933684Y-89496474D01*
X86855100Y-89101406D01*
X86855100Y-88698594D01*
X86933684Y-88303526D01*
X87055438Y-88009586D01*
X87087833Y-87931377D01*
X87311623Y-87596452D01*
X87596452Y-87311623D01*
X87931377Y-87087833D01*
X88085526Y-87023983D01*
X88303526Y-86933684D01*
X88698594Y-86855100D01*
X89101406Y-86855100D01*
X89496474Y-86933684D01*
X89496474Y-86933684D01*
G37*
G36*
X70446474Y-86933684D02*
G01*
X70664474Y-87023983D01*
X70818623Y-87087833D01*
X71153548Y-87311623D01*
X71438377Y-87596452D01*
X71662167Y-87931377D01*
X71694562Y-88009586D01*
X71816316Y-88303526D01*
X71894900Y-88698594D01*
X71894900Y-89101406D01*
X71816316Y-89496474D01*
X71765451Y-89619272D01*
X71662167Y-89868623D01*
X71438377Y-90203548D01*
X71153548Y-90488377D01*
X70818623Y-90712167D01*
X70664474Y-90776017D01*
X70446474Y-90866316D01*
X70051406Y-90944900D01*
X69648594Y-90944900D01*
X69253526Y-90866316D01*
X69035526Y-90776017D01*
X68881377Y-90712167D01*
X68546452Y-90488377D01*
X68261623Y-90203548D01*
X68037833Y-89868623D01*
X67934549Y-89619272D01*
X67883684Y-89496474D01*
X67805100Y-89101406D01*
X67805100Y-88698594D01*
X67883684Y-88303526D01*
X68005438Y-88009586D01*
X68037833Y-87931377D01*
X68261623Y-87596452D01*
X68546452Y-87311623D01*
X68881377Y-87087833D01*
X69035526Y-87023983D01*
X69253526Y-86933684D01*
X69648594Y-86855100D01*
X70051406Y-86855100D01*
X70446474Y-86933684D01*
X70446474Y-86933684D01*
G37*
G36*
X75200104Y-88009585D02*
G01*
X75368626Y-88079389D01*
X75520291Y-88180728D01*
X75649272Y-88309709D01*
X75750611Y-88461374D01*
X75820415Y-88629896D01*
X75856000Y-88808797D01*
X75856000Y-88991203D01*
X75820415Y-89170104D01*
X75750611Y-89338626D01*
X75649272Y-89490291D01*
X75520291Y-89619272D01*
X75368626Y-89720611D01*
X75200104Y-89790415D01*
X75021203Y-89826000D01*
X74838797Y-89826000D01*
X74659896Y-89790415D01*
X74491374Y-89720611D01*
X74339709Y-89619272D01*
X74210728Y-89490291D01*
X74109389Y-89338626D01*
X74039585Y-89170104D01*
X74004000Y-88991203D01*
X74004000Y-88808797D01*
X74039585Y-88629896D01*
X74109389Y-88461374D01*
X74210728Y-88309709D01*
X74339709Y-88180728D01*
X74491374Y-88079389D01*
X74659896Y-88009585D01*
X74838797Y-87974000D01*
X75021203Y-87974000D01*
X75200104Y-88009585D01*
X75200104Y-88009585D01*
G37*
G36*
X65040104Y-88009585D02*
G01*
X65208626Y-88079389D01*
X65360291Y-88180728D01*
X65489272Y-88309709D01*
X65590611Y-88461374D01*
X65660415Y-88629896D01*
X65696000Y-88808797D01*
X65696000Y-88991203D01*
X65660415Y-89170104D01*
X65590611Y-89338626D01*
X65489272Y-89490291D01*
X65360291Y-89619272D01*
X65208626Y-89720611D01*
X65040104Y-89790415D01*
X64861203Y-89826000D01*
X64678797Y-89826000D01*
X64499896Y-89790415D01*
X64331374Y-89720611D01*
X64179709Y-89619272D01*
X64050728Y-89490291D01*
X63949389Y-89338626D01*
X63879585Y-89170104D01*
X63844000Y-88991203D01*
X63844000Y-88808797D01*
X63879585Y-88629896D01*
X63949389Y-88461374D01*
X64050728Y-88309709D01*
X64179709Y-88180728D01*
X64331374Y-88079389D01*
X64499896Y-88009585D01*
X64678797Y-87974000D01*
X64861203Y-87974000D01*
X65040104Y-88009585D01*
X65040104Y-88009585D01*
G37*
G36*
X84090104Y-88009585D02*
G01*
X84258626Y-88079389D01*
X84410291Y-88180728D01*
X84539272Y-88309709D01*
X84640611Y-88461374D01*
X84710415Y-88629896D01*
X84746000Y-88808797D01*
X84746000Y-88991203D01*
X84710415Y-89170104D01*
X84640611Y-89338626D01*
X84539272Y-89490291D01*
X84410291Y-89619272D01*
X84258626Y-89720611D01*
X84090104Y-89790415D01*
X83911203Y-89826000D01*
X83728797Y-89826000D01*
X83549896Y-89790415D01*
X83381374Y-89720611D01*
X83229709Y-89619272D01*
X83100728Y-89490291D01*
X82999389Y-89338626D01*
X82929585Y-89170104D01*
X82894000Y-88991203D01*
X82894000Y-88808797D01*
X82929585Y-88629896D01*
X82999389Y-88461374D01*
X83100728Y-88309709D01*
X83229709Y-88180728D01*
X83381374Y-88079389D01*
X83549896Y-88009585D01*
X83728797Y-87974000D01*
X83911203Y-87974000D01*
X84090104Y-88009585D01*
X84090104Y-88009585D01*
G37*
G36*
X94250104Y-88009585D02*
G01*
X94418626Y-88079389D01*
X94570291Y-88180728D01*
X94699272Y-88309709D01*
X94800611Y-88461374D01*
X94870415Y-88629896D01*
X94906000Y-88808797D01*
X94906000Y-88991203D01*
X94870415Y-89170104D01*
X94800611Y-89338626D01*
X94699272Y-89490291D01*
X94570291Y-89619272D01*
X94418626Y-89720611D01*
X94250104Y-89790415D01*
X94071203Y-89826000D01*
X93888797Y-89826000D01*
X93709896Y-89790415D01*
X93541374Y-89720611D01*
X93389709Y-89619272D01*
X93260728Y-89490291D01*
X93159389Y-89338626D01*
X93089585Y-89170104D01*
X93054000Y-88991203D01*
X93054000Y-88808797D01*
X93089585Y-88629896D01*
X93159389Y-88461374D01*
X93260728Y-88309709D01*
X93389709Y-88180728D01*
X93541374Y-88079389D01*
X93709896Y-88009585D01*
X93888797Y-87974000D01*
X94071203Y-87974000D01*
X94250104Y-88009585D01*
X94250104Y-88009585D01*
G37*
G36*
X89496474Y-67883684D02*
G01*
X89714474Y-67973983D01*
X89868623Y-68037833D01*
X90203548Y-68261623D01*
X90488377Y-68546452D01*
X90712167Y-68881377D01*
X90744562Y-68959586D01*
X90866316Y-69253526D01*
X90944900Y-69648594D01*
X90944900Y-70051406D01*
X90866316Y-70446474D01*
X90815451Y-70569272D01*
X90712167Y-70818623D01*
X90488377Y-71153548D01*
X90203548Y-71438377D01*
X89868623Y-71662167D01*
X89714474Y-71726017D01*
X89496474Y-71816316D01*
X89101406Y-71894900D01*
X88698594Y-71894900D01*
X88303526Y-71816316D01*
X88085526Y-71726017D01*
X87931377Y-71662167D01*
X87596452Y-71438377D01*
X87311623Y-71153548D01*
X87087833Y-70818623D01*
X86984549Y-70569272D01*
X86933684Y-70446474D01*
X86855100Y-70051406D01*
X86855100Y-69648594D01*
X86933684Y-69253526D01*
X87055438Y-68959586D01*
X87087833Y-68881377D01*
X87311623Y-68546452D01*
X87596452Y-68261623D01*
X87931377Y-68037833D01*
X88085526Y-67973983D01*
X88303526Y-67883684D01*
X88698594Y-67805100D01*
X89101406Y-67805100D01*
X89496474Y-67883684D01*
X89496474Y-67883684D01*
G37*
G36*
X70446474Y-67883684D02*
G01*
X70664474Y-67973983D01*
X70818623Y-68037833D01*
X71153548Y-68261623D01*
X71438377Y-68546452D01*
X71662167Y-68881377D01*
X71694562Y-68959586D01*
X71816316Y-69253526D01*
X71894900Y-69648594D01*
X71894900Y-70051406D01*
X71816316Y-70446474D01*
X71765451Y-70569272D01*
X71662167Y-70818623D01*
X71438377Y-71153548D01*
X71153548Y-71438377D01*
X70818623Y-71662167D01*
X70664474Y-71726017D01*
X70446474Y-71816316D01*
X70051406Y-71894900D01*
X69648594Y-71894900D01*
X69253526Y-71816316D01*
X69035526Y-71726017D01*
X68881377Y-71662167D01*
X68546452Y-71438377D01*
X68261623Y-71153548D01*
X68037833Y-70818623D01*
X67934549Y-70569272D01*
X67883684Y-70446474D01*
X67805100Y-70051406D01*
X67805100Y-69648594D01*
X67883684Y-69253526D01*
X68005438Y-68959586D01*
X68037833Y-68881377D01*
X68261623Y-68546452D01*
X68546452Y-68261623D01*
X68881377Y-68037833D01*
X69035526Y-67973983D01*
X69253526Y-67883684D01*
X69648594Y-67805100D01*
X70051406Y-67805100D01*
X70446474Y-67883684D01*
X70446474Y-67883684D01*
G37*
G36*
X94250104Y-68959585D02*
G01*
X94418626Y-69029389D01*
X94570291Y-69130728D01*
X94699272Y-69259709D01*
X94800611Y-69411374D01*
X94870415Y-69579896D01*
X94906000Y-69758797D01*
X94906000Y-69941203D01*
X94870415Y-70120104D01*
X94800611Y-70288626D01*
X94699272Y-70440291D01*
X94570291Y-70569272D01*
X94418626Y-70670611D01*
X94250104Y-70740415D01*
X94071203Y-70776000D01*
X93888797Y-70776000D01*
X93709896Y-70740415D01*
X93541374Y-70670611D01*
X93389709Y-70569272D01*
X93260728Y-70440291D01*
X93159389Y-70288626D01*
X93089585Y-70120104D01*
X93054000Y-69941203D01*
X93054000Y-69758797D01*
X93089585Y-69579896D01*
X93159389Y-69411374D01*
X93260728Y-69259709D01*
X93389709Y-69130728D01*
X93541374Y-69029389D01*
X93709896Y-68959585D01*
X93888797Y-68924000D01*
X94071203Y-68924000D01*
X94250104Y-68959585D01*
X94250104Y-68959585D01*
G37*
G36*
X84090104Y-68959585D02*
G01*
X84258626Y-69029389D01*
X84410291Y-69130728D01*
X84539272Y-69259709D01*
X84640611Y-69411374D01*
X84710415Y-69579896D01*
X84746000Y-69758797D01*
X84746000Y-69941203D01*
X84710415Y-70120104D01*
X84640611Y-70288626D01*
X84539272Y-70440291D01*
X84410291Y-70569272D01*
X84258626Y-70670611D01*
X84090104Y-70740415D01*
X83911203Y-70776000D01*
X83728797Y-70776000D01*
X83549896Y-70740415D01*
X83381374Y-70670611D01*
X83229709Y-70569272D01*
X83100728Y-70440291D01*
X82999389Y-70288626D01*
X82929585Y-70120104D01*
X82894000Y-69941203D01*
X82894000Y-69758797D01*
X82929585Y-69579896D01*
X82999389Y-69411374D01*
X83100728Y-69259709D01*
X83229709Y-69130728D01*
X83381374Y-69029389D01*
X83549896Y-68959585D01*
X83728797Y-68924000D01*
X83911203Y-68924000D01*
X84090104Y-68959585D01*
X84090104Y-68959585D01*
G37*
G36*
X75200104Y-68959585D02*
G01*
X75368626Y-69029389D01*
X75520291Y-69130728D01*
X75649272Y-69259709D01*
X75750611Y-69411374D01*
X75820415Y-69579896D01*
X75856000Y-69758797D01*
X75856000Y-69941203D01*
X75820415Y-70120104D01*
X75750611Y-70288626D01*
X75649272Y-70440291D01*
X75520291Y-70569272D01*
X75368626Y-70670611D01*
X75200104Y-70740415D01*
X75021203Y-70776000D01*
X74838797Y-70776000D01*
X74659896Y-70740415D01*
X74491374Y-70670611D01*
X74339709Y-70569272D01*
X74210728Y-70440291D01*
X74109389Y-70288626D01*
X74039585Y-70120104D01*
X74004000Y-69941203D01*
X74004000Y-69758797D01*
X74039585Y-69579896D01*
X74109389Y-69411374D01*
X74210728Y-69259709D01*
X74339709Y-69130728D01*
X74491374Y-69029389D01*
X74659896Y-68959585D01*
X74838797Y-68924000D01*
X75021203Y-68924000D01*
X75200104Y-68959585D01*
X75200104Y-68959585D01*
G37*
G36*
X65040104Y-68959585D02*
G01*
X65208626Y-69029389D01*
X65360291Y-69130728D01*
X65489272Y-69259709D01*
X65590611Y-69411374D01*
X65660415Y-69579896D01*
X65696000Y-69758797D01*
X65696000Y-69941203D01*
X65660415Y-70120104D01*
X65590611Y-70288626D01*
X65489272Y-70440291D01*
X65360291Y-70569272D01*
X65208626Y-70670611D01*
X65040104Y-70740415D01*
X64861203Y-70776000D01*
X64678797Y-70776000D01*
X64499896Y-70740415D01*
X64331374Y-70670611D01*
X64179709Y-70569272D01*
X64050728Y-70440291D01*
X63949389Y-70288626D01*
X63879585Y-70120104D01*
X63844000Y-69941203D01*
X63844000Y-69758797D01*
X63879585Y-69579896D01*
X63949389Y-69411374D01*
X64050728Y-69259709D01*
X64179709Y-69130728D01*
X64331374Y-69029389D01*
X64499896Y-68959585D01*
X64678797Y-68924000D01*
X64861203Y-68924000D01*
X65040104Y-68959585D01*
X65040104Y-68959585D01*
G37*
G36*
X26689127Y-65024537D02*
G01*
X26858966Y-65076057D01*
X27015491Y-65159722D01*
X27051229Y-65189052D01*
X27152686Y-65272314D01*
X27235948Y-65373771D01*
X27265278Y-65409509D01*
X27348943Y-65566034D01*
X27400463Y-65735873D01*
X27413500Y-65868242D01*
X27413500Y-66956758D01*
X27400463Y-67089127D01*
X27348943Y-67258966D01*
X27265278Y-67415491D01*
X27235948Y-67451229D01*
X27152686Y-67552686D01*
X27015489Y-67665279D01*
X26858967Y-67748942D01*
X26858965Y-67748943D01*
X26689126Y-67800463D01*
X26512500Y-67817859D01*
X26335873Y-67800463D01*
X26166034Y-67748943D01*
X26009509Y-67665278D01*
X25973771Y-67635948D01*
X25872314Y-67552686D01*
X25759721Y-67415489D01*
X25676058Y-67258967D01*
X25676057Y-67258965D01*
X25624537Y-67089126D01*
X25611500Y-66956757D01*
X25611501Y-65868242D01*
X25624538Y-65735873D01*
X25676058Y-65566034D01*
X25759723Y-65409509D01*
X25789053Y-65373771D01*
X25872315Y-65272314D01*
X25973772Y-65189052D01*
X26009510Y-65159722D01*
X26166035Y-65076057D01*
X26335874Y-65024537D01*
X26512500Y-65007141D01*
X26689127Y-65024537D01*
X26689127Y-65024537D01*
G37*
G36*
X33989127Y-65024537D02*
G01*
X34158966Y-65076057D01*
X34315491Y-65159722D01*
X34351229Y-65189052D01*
X34452686Y-65272314D01*
X34535948Y-65373771D01*
X34565278Y-65409509D01*
X34648943Y-65566034D01*
X34700463Y-65735873D01*
X34713500Y-65868242D01*
X34713500Y-66956758D01*
X34700463Y-67089127D01*
X34648943Y-67258966D01*
X34565278Y-67415491D01*
X34535948Y-67451229D01*
X34452686Y-67552686D01*
X34315489Y-67665279D01*
X34158967Y-67748942D01*
X34158965Y-67748943D01*
X33989126Y-67800463D01*
X33812500Y-67817859D01*
X33635873Y-67800463D01*
X33466034Y-67748943D01*
X33309509Y-67665278D01*
X33273771Y-67635948D01*
X33172314Y-67552686D01*
X33059721Y-67415489D01*
X32976058Y-67258967D01*
X32976057Y-67258965D01*
X32924537Y-67089126D01*
X32911500Y-66956757D01*
X32911501Y-65868242D01*
X32924538Y-65735873D01*
X32976058Y-65566034D01*
X33059723Y-65409509D01*
X33089053Y-65373771D01*
X33172315Y-65272314D01*
X33273772Y-65189052D01*
X33309510Y-65159722D01*
X33466035Y-65076057D01*
X33635874Y-65024537D01*
X33812500Y-65007141D01*
X33989127Y-65024537D01*
X33989127Y-65024537D01*
G37*
G36*
X26689127Y-60524537D02*
G01*
X26858966Y-60576057D01*
X27015491Y-60659722D01*
X27051229Y-60689052D01*
X27152686Y-60772314D01*
X27235948Y-60873771D01*
X27265278Y-60909509D01*
X27348943Y-61066034D01*
X27400463Y-61235873D01*
X27413500Y-61368242D01*
X27413500Y-62456758D01*
X27400463Y-62589127D01*
X27348943Y-62758966D01*
X27265278Y-62915491D01*
X27235948Y-62951229D01*
X27152686Y-63052686D01*
X27015489Y-63165279D01*
X26858967Y-63248942D01*
X26858965Y-63248943D01*
X26689126Y-63300463D01*
X26512500Y-63317859D01*
X26335873Y-63300463D01*
X26166034Y-63248943D01*
X26009509Y-63165278D01*
X25973771Y-63135948D01*
X25872314Y-63052686D01*
X25759721Y-62915489D01*
X25676058Y-62758967D01*
X25676057Y-62758965D01*
X25624537Y-62589126D01*
X25611500Y-62456757D01*
X25611501Y-61368242D01*
X25624538Y-61235873D01*
X25676058Y-61066034D01*
X25759723Y-60909509D01*
X25789053Y-60873771D01*
X25872315Y-60772314D01*
X25973772Y-60689052D01*
X26009510Y-60659722D01*
X26166035Y-60576057D01*
X26335874Y-60524537D01*
X26512500Y-60507141D01*
X26689127Y-60524537D01*
X26689127Y-60524537D01*
G37*
G36*
X33989127Y-60524537D02*
G01*
X34158966Y-60576057D01*
X34315491Y-60659722D01*
X34351229Y-60689052D01*
X34452686Y-60772314D01*
X34535948Y-60873771D01*
X34565278Y-60909509D01*
X34648943Y-61066034D01*
X34700463Y-61235873D01*
X34713500Y-61368242D01*
X34713500Y-62456758D01*
X34700463Y-62589127D01*
X34648943Y-62758966D01*
X34565278Y-62915491D01*
X34535948Y-62951229D01*
X34452686Y-63052686D01*
X34315489Y-63165279D01*
X34158967Y-63248942D01*
X34158965Y-63248943D01*
X33989126Y-63300463D01*
X33812500Y-63317859D01*
X33635873Y-63300463D01*
X33466034Y-63248943D01*
X33309509Y-63165278D01*
X33273771Y-63135948D01*
X33172314Y-63052686D01*
X33059721Y-62915489D01*
X32976058Y-62758967D01*
X32976057Y-62758965D01*
X32924537Y-62589126D01*
X32911500Y-62456757D01*
X32911501Y-61368242D01*
X32924538Y-61235873D01*
X32976058Y-61066034D01*
X33059723Y-60909509D01*
X33089053Y-60873771D01*
X33172315Y-60772314D01*
X33273772Y-60689052D01*
X33309510Y-60659722D01*
X33466035Y-60576057D01*
X33635874Y-60524537D01*
X33812500Y-60507141D01*
X33989127Y-60524537D01*
X33989127Y-60524537D01*
G37*
M02*
