G04 #@! TF.GenerationSoftware,KiCad,Pcbnew,(5.1.4-0)*
G04 #@! TF.CreationDate,2021-10-16T03:16:45+01:00*
G04 #@! TF.ProjectId,PR-4PP,50522d34-5050-42e6-9b69-6361645f7063,rev?*
G04 #@! TF.SameCoordinates,Original*
G04 #@! TF.FileFunction,Soldermask,Bot*
G04 #@! TF.FilePolarity,Negative*
%FSLAX46Y46*%
G04 Gerber Fmt 4.6, Leading zero omitted, Abs format (unit mm)*
G04 Created by KiCad (PCBNEW (5.1.4-0)) date 2021-10-16 03:16:45*
%MOMM*%
%LPD*%
G04 APERTURE LIST*
%ADD10C,0.100000*%
G04 APERTURE END LIST*
D10*
G36*
X35801000Y-96113500D02*
G01*
X33899000Y-96113500D01*
X33899000Y-94911500D01*
X35801000Y-94911500D01*
X35801000Y-96113500D01*
X35801000Y-96113500D01*
G37*
G36*
X29601000Y-96113500D02*
G01*
X27699000Y-96113500D01*
X27699000Y-94911500D01*
X29601000Y-94911500D01*
X29601000Y-96113500D01*
X29601000Y-96113500D01*
G37*
G36*
X91173500Y-94983500D02*
G01*
X89166500Y-94983500D01*
X89166500Y-92976500D01*
X91173500Y-92976500D01*
X91173500Y-94983500D01*
X91173500Y-94983500D01*
G37*
G36*
X87756425Y-92981988D02*
G01*
X87922710Y-93015063D01*
X88105336Y-93090709D01*
X88269694Y-93200530D01*
X88409470Y-93340306D01*
X88519291Y-93504664D01*
X88594937Y-93687290D01*
X88633500Y-93881164D01*
X88633500Y-94078836D01*
X88594937Y-94272710D01*
X88519291Y-94455336D01*
X88409470Y-94619694D01*
X88269694Y-94759470D01*
X88105336Y-94869291D01*
X87922710Y-94944937D01*
X87756425Y-94978012D01*
X87728837Y-94983500D01*
X87531163Y-94983500D01*
X87503575Y-94978012D01*
X87337290Y-94944937D01*
X87154664Y-94869291D01*
X86990306Y-94759470D01*
X86850530Y-94619694D01*
X86740709Y-94455336D01*
X86665063Y-94272710D01*
X86626500Y-94078836D01*
X86626500Y-93881164D01*
X86665063Y-93687290D01*
X86740709Y-93504664D01*
X86850530Y-93340306D01*
X86990306Y-93200530D01*
X87154664Y-93090709D01*
X87337290Y-93015063D01*
X87503575Y-92981988D01*
X87531163Y-92976500D01*
X87728837Y-92976500D01*
X87756425Y-92981988D01*
X87756425Y-92981988D01*
G37*
G36*
X72123500Y-94983500D02*
G01*
X70116500Y-94983500D01*
X70116500Y-92976500D01*
X72123500Y-92976500D01*
X72123500Y-94983500D01*
X72123500Y-94983500D01*
G37*
G36*
X68706425Y-92981988D02*
G01*
X68872710Y-93015063D01*
X69055336Y-93090709D01*
X69219694Y-93200530D01*
X69359470Y-93340306D01*
X69469291Y-93504664D01*
X69544937Y-93687290D01*
X69583500Y-93881164D01*
X69583500Y-94078836D01*
X69544937Y-94272710D01*
X69469291Y-94455336D01*
X69359470Y-94619694D01*
X69219694Y-94759470D01*
X69055336Y-94869291D01*
X68872710Y-94944937D01*
X68706425Y-94978012D01*
X68678837Y-94983500D01*
X68481163Y-94983500D01*
X68453575Y-94978012D01*
X68287290Y-94944937D01*
X68104664Y-94869291D01*
X67940306Y-94759470D01*
X67800530Y-94619694D01*
X67690709Y-94455336D01*
X67615063Y-94272710D01*
X67576500Y-94078836D01*
X67576500Y-93881164D01*
X67615063Y-93687290D01*
X67690709Y-93504664D01*
X67800530Y-93340306D01*
X67940306Y-93200530D01*
X68104664Y-93090709D01*
X68287290Y-93015063D01*
X68453575Y-92981988D01*
X68481163Y-92976500D01*
X68678837Y-92976500D01*
X68706425Y-92981988D01*
X68706425Y-92981988D01*
G37*
G36*
X35801000Y-92413500D02*
G01*
X33899000Y-92413500D01*
X33899000Y-91211500D01*
X35801000Y-91211500D01*
X35801000Y-92413500D01*
X35801000Y-92413500D01*
G37*
G36*
X29601000Y-92413500D02*
G01*
X27699000Y-92413500D01*
X27699000Y-91211500D01*
X29601000Y-91211500D01*
X29601000Y-92413500D01*
X29601000Y-92413500D01*
G37*
G36*
X97488500Y-91051000D02*
G01*
X96186500Y-91051000D01*
X96186500Y-90049000D01*
X97488500Y-90049000D01*
X97488500Y-91051000D01*
X97488500Y-91051000D01*
G37*
G36*
X78438500Y-91051000D02*
G01*
X77136500Y-91051000D01*
X77136500Y-90049000D01*
X78438500Y-90049000D01*
X78438500Y-91051000D01*
X78438500Y-91051000D01*
G37*
G36*
X89496474Y-86933684D02*
G01*
X89714474Y-87023983D01*
X89868623Y-87087833D01*
X90203548Y-87311623D01*
X90488377Y-87596452D01*
X90712167Y-87931377D01*
X90744562Y-88009586D01*
X90866316Y-88303526D01*
X90944900Y-88698594D01*
X90944900Y-89101406D01*
X90866316Y-89496474D01*
X90815451Y-89619272D01*
X90712167Y-89868623D01*
X90488377Y-90203548D01*
X90203548Y-90488377D01*
X89868623Y-90712167D01*
X89714474Y-90776017D01*
X89496474Y-90866316D01*
X89101406Y-90944900D01*
X88698594Y-90944900D01*
X88303526Y-90866316D01*
X88085526Y-90776017D01*
X87931377Y-90712167D01*
X87596452Y-90488377D01*
X87311623Y-90203548D01*
X87087833Y-89868623D01*
X86984549Y-89619272D01*
X86933684Y-89496474D01*
X86855100Y-89101406D01*
X86855100Y-88698594D01*
X86933684Y-88303526D01*
X87055438Y-88009586D01*
X87087833Y-87931377D01*
X87311623Y-87596452D01*
X87596452Y-87311623D01*
X87931377Y-87087833D01*
X88085526Y-87023983D01*
X88303526Y-86933684D01*
X88698594Y-86855100D01*
X89101406Y-86855100D01*
X89496474Y-86933684D01*
X89496474Y-86933684D01*
G37*
G36*
X70446474Y-86933684D02*
G01*
X70664474Y-87023983D01*
X70818623Y-87087833D01*
X71153548Y-87311623D01*
X71438377Y-87596452D01*
X71662167Y-87931377D01*
X71694562Y-88009586D01*
X71816316Y-88303526D01*
X71894900Y-88698594D01*
X71894900Y-89101406D01*
X71816316Y-89496474D01*
X71765451Y-89619272D01*
X71662167Y-89868623D01*
X71438377Y-90203548D01*
X71153548Y-90488377D01*
X70818623Y-90712167D01*
X70664474Y-90776017D01*
X70446474Y-90866316D01*
X70051406Y-90944900D01*
X69648594Y-90944900D01*
X69253526Y-90866316D01*
X69035526Y-90776017D01*
X68881377Y-90712167D01*
X68546452Y-90488377D01*
X68261623Y-90203548D01*
X68037833Y-89868623D01*
X67934549Y-89619272D01*
X67883684Y-89496474D01*
X67805100Y-89101406D01*
X67805100Y-88698594D01*
X67883684Y-88303526D01*
X68005438Y-88009586D01*
X68037833Y-87931377D01*
X68261623Y-87596452D01*
X68546452Y-87311623D01*
X68881377Y-87087833D01*
X69035526Y-87023983D01*
X69253526Y-86933684D01*
X69648594Y-86855100D01*
X70051406Y-86855100D01*
X70446474Y-86933684D01*
X70446474Y-86933684D01*
G37*
G36*
X54649468Y-88661565D02*
G01*
X54688138Y-88673296D01*
X54723777Y-88692346D01*
X54755017Y-88717983D01*
X54780654Y-88749223D01*
X54799704Y-88784862D01*
X54811435Y-88823532D01*
X54816000Y-88869888D01*
X54816000Y-89946112D01*
X54811435Y-89992468D01*
X54799704Y-90031138D01*
X54780654Y-90066777D01*
X54755017Y-90098017D01*
X54723777Y-90123654D01*
X54688138Y-90142704D01*
X54649468Y-90154435D01*
X54603112Y-90159000D01*
X53951888Y-90159000D01*
X53905532Y-90154435D01*
X53866862Y-90142704D01*
X53831223Y-90123654D01*
X53799983Y-90098017D01*
X53774346Y-90066777D01*
X53755296Y-90031138D01*
X53743565Y-89992468D01*
X53739000Y-89946112D01*
X53739000Y-88869888D01*
X53743565Y-88823532D01*
X53755296Y-88784862D01*
X53774346Y-88749223D01*
X53799983Y-88717983D01*
X53831223Y-88692346D01*
X53866862Y-88673296D01*
X53905532Y-88661565D01*
X53951888Y-88657000D01*
X54603112Y-88657000D01*
X54649468Y-88661565D01*
X54649468Y-88661565D01*
G37*
G36*
X52774468Y-88661565D02*
G01*
X52813138Y-88673296D01*
X52848777Y-88692346D01*
X52880017Y-88717983D01*
X52905654Y-88749223D01*
X52924704Y-88784862D01*
X52936435Y-88823532D01*
X52941000Y-88869888D01*
X52941000Y-89946112D01*
X52936435Y-89992468D01*
X52924704Y-90031138D01*
X52905654Y-90066777D01*
X52880017Y-90098017D01*
X52848777Y-90123654D01*
X52813138Y-90142704D01*
X52774468Y-90154435D01*
X52728112Y-90159000D01*
X52076888Y-90159000D01*
X52030532Y-90154435D01*
X51991862Y-90142704D01*
X51956223Y-90123654D01*
X51924983Y-90098017D01*
X51899346Y-90066777D01*
X51880296Y-90031138D01*
X51868565Y-89992468D01*
X51864000Y-89946112D01*
X51864000Y-88869888D01*
X51868565Y-88823532D01*
X51880296Y-88784862D01*
X51899346Y-88749223D01*
X51924983Y-88717983D01*
X51956223Y-88692346D01*
X51991862Y-88673296D01*
X52030532Y-88661565D01*
X52076888Y-88657000D01*
X52728112Y-88657000D01*
X52774468Y-88661565D01*
X52774468Y-88661565D01*
G37*
G36*
X94250104Y-88009585D02*
G01*
X94418626Y-88079389D01*
X94570291Y-88180728D01*
X94699272Y-88309709D01*
X94800611Y-88461374D01*
X94870415Y-88629896D01*
X94906000Y-88808797D01*
X94906000Y-88991203D01*
X94870415Y-89170104D01*
X94800611Y-89338626D01*
X94699272Y-89490291D01*
X94570291Y-89619272D01*
X94418626Y-89720611D01*
X94250104Y-89790415D01*
X94071203Y-89826000D01*
X93888797Y-89826000D01*
X93709896Y-89790415D01*
X93541374Y-89720611D01*
X93389709Y-89619272D01*
X93260728Y-89490291D01*
X93159389Y-89338626D01*
X93089585Y-89170104D01*
X93054000Y-88991203D01*
X93054000Y-88808797D01*
X93089585Y-88629896D01*
X93159389Y-88461374D01*
X93260728Y-88309709D01*
X93389709Y-88180728D01*
X93541374Y-88079389D01*
X93709896Y-88009585D01*
X93888797Y-87974000D01*
X94071203Y-87974000D01*
X94250104Y-88009585D01*
X94250104Y-88009585D01*
G37*
G36*
X84090104Y-88009585D02*
G01*
X84258626Y-88079389D01*
X84410291Y-88180728D01*
X84539272Y-88309709D01*
X84640611Y-88461374D01*
X84710415Y-88629896D01*
X84746000Y-88808797D01*
X84746000Y-88991203D01*
X84710415Y-89170104D01*
X84640611Y-89338626D01*
X84539272Y-89490291D01*
X84410291Y-89619272D01*
X84258626Y-89720611D01*
X84090104Y-89790415D01*
X83911203Y-89826000D01*
X83728797Y-89826000D01*
X83549896Y-89790415D01*
X83381374Y-89720611D01*
X83229709Y-89619272D01*
X83100728Y-89490291D01*
X82999389Y-89338626D01*
X82929585Y-89170104D01*
X82894000Y-88991203D01*
X82894000Y-88808797D01*
X82929585Y-88629896D01*
X82999389Y-88461374D01*
X83100728Y-88309709D01*
X83229709Y-88180728D01*
X83381374Y-88079389D01*
X83549896Y-88009585D01*
X83728797Y-87974000D01*
X83911203Y-87974000D01*
X84090104Y-88009585D01*
X84090104Y-88009585D01*
G37*
G36*
X65040104Y-88009585D02*
G01*
X65208626Y-88079389D01*
X65360291Y-88180728D01*
X65489272Y-88309709D01*
X65590611Y-88461374D01*
X65660415Y-88629896D01*
X65696000Y-88808797D01*
X65696000Y-88991203D01*
X65660415Y-89170104D01*
X65590611Y-89338626D01*
X65489272Y-89490291D01*
X65360291Y-89619272D01*
X65208626Y-89720611D01*
X65040104Y-89790415D01*
X64861203Y-89826000D01*
X64678797Y-89826000D01*
X64499896Y-89790415D01*
X64331374Y-89720611D01*
X64179709Y-89619272D01*
X64050728Y-89490291D01*
X63949389Y-89338626D01*
X63879585Y-89170104D01*
X63844000Y-88991203D01*
X63844000Y-88808797D01*
X63879585Y-88629896D01*
X63949389Y-88461374D01*
X64050728Y-88309709D01*
X64179709Y-88180728D01*
X64331374Y-88079389D01*
X64499896Y-88009585D01*
X64678797Y-87974000D01*
X64861203Y-87974000D01*
X65040104Y-88009585D01*
X65040104Y-88009585D01*
G37*
G36*
X75200104Y-88009585D02*
G01*
X75368626Y-88079389D01*
X75520291Y-88180728D01*
X75649272Y-88309709D01*
X75750611Y-88461374D01*
X75820415Y-88629896D01*
X75856000Y-88808797D01*
X75856000Y-88991203D01*
X75820415Y-89170104D01*
X75750611Y-89338626D01*
X75649272Y-89490291D01*
X75520291Y-89619272D01*
X75368626Y-89720611D01*
X75200104Y-89790415D01*
X75021203Y-89826000D01*
X74838797Y-89826000D01*
X74659896Y-89790415D01*
X74491374Y-89720611D01*
X74339709Y-89619272D01*
X74210728Y-89490291D01*
X74109389Y-89338626D01*
X74039585Y-89170104D01*
X74004000Y-88991203D01*
X74004000Y-88808797D01*
X74039585Y-88629896D01*
X74109389Y-88461374D01*
X74210728Y-88309709D01*
X74339709Y-88180728D01*
X74491374Y-88079389D01*
X74659896Y-88009585D01*
X74838797Y-87974000D01*
X75021203Y-87974000D01*
X75200104Y-88009585D01*
X75200104Y-88009585D01*
G37*
G36*
X78438500Y-87751000D02*
G01*
X77136500Y-87751000D01*
X77136500Y-86749000D01*
X78438500Y-86749000D01*
X78438500Y-87751000D01*
X78438500Y-87751000D01*
G37*
G36*
X97488500Y-87751000D02*
G01*
X96186500Y-87751000D01*
X96186500Y-86749000D01*
X97488500Y-86749000D01*
X97488500Y-87751000D01*
X97488500Y-87751000D01*
G37*
G36*
X67373205Y-83723881D02*
G01*
X67378645Y-83724000D01*
X67465828Y-83724000D01*
X67482097Y-83727236D01*
X67500956Y-83729515D01*
X67517532Y-83730246D01*
X67602223Y-83751010D01*
X67607518Y-83752184D01*
X67693027Y-83769193D01*
X67708362Y-83775545D01*
X67726401Y-83781455D01*
X67742521Y-83785407D01*
X67821504Y-83822280D01*
X67826494Y-83824477D01*
X67907045Y-83857842D01*
X67920841Y-83867060D01*
X67937393Y-83876382D01*
X67952426Y-83883400D01*
X68022694Y-83934971D01*
X68027192Y-83938122D01*
X68099656Y-83986541D01*
X68111383Y-83998268D01*
X68125809Y-84010648D01*
X68139179Y-84020461D01*
X68139180Y-84020462D01*
X68198021Y-84084733D01*
X68201829Y-84088714D01*
X68263459Y-84150344D01*
X68272674Y-84164135D01*
X68284396Y-84179078D01*
X68295605Y-84191321D01*
X68340799Y-84265874D01*
X68343746Y-84270501D01*
X68392158Y-84342955D01*
X68398505Y-84358277D01*
X68407092Y-84375231D01*
X68415691Y-84389417D01*
X68445478Y-84471368D01*
X68447452Y-84476448D01*
X68480807Y-84556973D01*
X68480807Y-84556974D01*
X68484041Y-84573233D01*
X68489158Y-84591542D01*
X68494825Y-84607134D01*
X68508055Y-84693345D01*
X68509001Y-84698713D01*
X68526000Y-84784173D01*
X68526000Y-84800752D01*
X68527444Y-84819692D01*
X68529963Y-84836104D01*
X68526120Y-84923249D01*
X68526000Y-84928689D01*
X68526000Y-85015825D01*
X68522766Y-85032083D01*
X68520488Y-85050941D01*
X68519756Y-85067531D01*
X68498988Y-85152237D01*
X68497812Y-85157537D01*
X68480807Y-85243027D01*
X68474457Y-85258357D01*
X68468549Y-85276393D01*
X68464595Y-85292520D01*
X68427711Y-85371526D01*
X68425511Y-85376523D01*
X68392158Y-85457045D01*
X68382944Y-85470835D01*
X68373622Y-85487387D01*
X68366602Y-85502424D01*
X68315011Y-85572720D01*
X68311866Y-85577210D01*
X68263461Y-85649654D01*
X68206460Y-85706655D01*
X68201811Y-85711563D01*
X67632315Y-86346267D01*
X66876723Y-87188376D01*
X66748679Y-87305602D01*
X66649631Y-87365645D01*
X66550583Y-87425689D01*
X66332866Y-87504823D01*
X66103895Y-87539961D01*
X65872470Y-87529754D01*
X65647481Y-87474593D01*
X65542727Y-87425689D01*
X65437579Y-87376602D01*
X65340838Y-87305602D01*
X65250823Y-87239539D01*
X65176394Y-87158241D01*
X65094398Y-87068679D01*
X65012564Y-86933685D01*
X64974311Y-86870583D01*
X64895177Y-86652866D01*
X64860039Y-86423895D01*
X64870246Y-86192470D01*
X64925407Y-85967481D01*
X64976972Y-85857028D01*
X65023398Y-85757580D01*
X65050739Y-85720326D01*
X65126114Y-85617622D01*
X65912922Y-84740723D01*
X66412787Y-84183621D01*
X66423681Y-84169589D01*
X66436539Y-84150346D01*
X66493573Y-84093312D01*
X66498223Y-84088403D01*
X66513278Y-84071624D01*
X66534701Y-84052011D01*
X66538682Y-84048203D01*
X66600346Y-83986539D01*
X66614143Y-83977320D01*
X66629102Y-83965585D01*
X66641321Y-83954398D01*
X66673385Y-83934961D01*
X66715830Y-83909231D01*
X66720421Y-83906308D01*
X66792955Y-83857842D01*
X66808300Y-83851486D01*
X66825248Y-83842901D01*
X66839416Y-83834312D01*
X66839417Y-83834312D01*
X66839418Y-83834311D01*
X66921312Y-83804545D01*
X66926410Y-83802563D01*
X67006973Y-83769193D01*
X67023252Y-83765955D01*
X67041542Y-83760844D01*
X67057135Y-83755177D01*
X67143300Y-83741954D01*
X67148663Y-83741009D01*
X67234173Y-83724000D01*
X67250766Y-83724000D01*
X67269709Y-83722555D01*
X67286106Y-83720039D01*
X67373205Y-83723881D01*
X67373205Y-83723881D01*
G37*
G36*
X86423205Y-83723881D02*
G01*
X86428645Y-83724000D01*
X86515828Y-83724000D01*
X86532097Y-83727236D01*
X86550956Y-83729515D01*
X86567532Y-83730246D01*
X86652223Y-83751010D01*
X86657518Y-83752184D01*
X86743027Y-83769193D01*
X86758362Y-83775545D01*
X86776401Y-83781455D01*
X86792521Y-83785407D01*
X86871504Y-83822280D01*
X86876494Y-83824477D01*
X86957045Y-83857842D01*
X86970841Y-83867060D01*
X86987393Y-83876382D01*
X87002426Y-83883400D01*
X87072694Y-83934971D01*
X87077192Y-83938122D01*
X87149656Y-83986541D01*
X87161383Y-83998268D01*
X87175809Y-84010648D01*
X87189179Y-84020461D01*
X87189180Y-84020462D01*
X87248021Y-84084733D01*
X87251829Y-84088714D01*
X87313459Y-84150344D01*
X87322674Y-84164135D01*
X87334396Y-84179078D01*
X87345605Y-84191321D01*
X87390799Y-84265874D01*
X87393746Y-84270501D01*
X87442158Y-84342955D01*
X87448505Y-84358277D01*
X87457092Y-84375231D01*
X87465691Y-84389417D01*
X87495478Y-84471368D01*
X87497452Y-84476448D01*
X87530807Y-84556973D01*
X87530807Y-84556974D01*
X87534041Y-84573233D01*
X87539158Y-84591542D01*
X87544825Y-84607134D01*
X87558055Y-84693345D01*
X87559001Y-84698713D01*
X87576000Y-84784173D01*
X87576000Y-84800752D01*
X87577444Y-84819692D01*
X87579963Y-84836104D01*
X87576120Y-84923249D01*
X87576000Y-84928689D01*
X87576000Y-85015825D01*
X87572766Y-85032083D01*
X87570488Y-85050941D01*
X87569756Y-85067531D01*
X87548988Y-85152237D01*
X87547812Y-85157537D01*
X87530807Y-85243027D01*
X87524457Y-85258357D01*
X87518549Y-85276393D01*
X87514595Y-85292520D01*
X87477711Y-85371526D01*
X87475511Y-85376523D01*
X87442158Y-85457045D01*
X87432944Y-85470835D01*
X87423622Y-85487387D01*
X87416602Y-85502424D01*
X87365011Y-85572720D01*
X87361866Y-85577210D01*
X87313461Y-85649654D01*
X87256460Y-85706655D01*
X87251811Y-85711563D01*
X86682315Y-86346267D01*
X85926723Y-87188376D01*
X85798679Y-87305602D01*
X85699631Y-87365645D01*
X85600583Y-87425689D01*
X85382866Y-87504823D01*
X85153895Y-87539961D01*
X84922470Y-87529754D01*
X84697481Y-87474593D01*
X84592727Y-87425689D01*
X84487579Y-87376602D01*
X84390838Y-87305602D01*
X84300823Y-87239539D01*
X84226394Y-87158241D01*
X84144398Y-87068679D01*
X84062564Y-86933685D01*
X84024311Y-86870583D01*
X83945177Y-86652866D01*
X83910039Y-86423895D01*
X83920246Y-86192470D01*
X83975407Y-85967481D01*
X84026972Y-85857028D01*
X84073398Y-85757580D01*
X84100739Y-85720326D01*
X84176114Y-85617622D01*
X84962922Y-84740723D01*
X85462787Y-84183621D01*
X85473681Y-84169589D01*
X85486539Y-84150346D01*
X85543573Y-84093312D01*
X85548223Y-84088403D01*
X85563278Y-84071624D01*
X85584701Y-84052011D01*
X85588682Y-84048203D01*
X85650346Y-83986539D01*
X85664143Y-83977320D01*
X85679102Y-83965585D01*
X85691321Y-83954398D01*
X85723385Y-83934961D01*
X85765830Y-83909231D01*
X85770421Y-83906308D01*
X85842955Y-83857842D01*
X85858300Y-83851486D01*
X85875248Y-83842901D01*
X85889416Y-83834312D01*
X85889417Y-83834312D01*
X85889418Y-83834311D01*
X85971312Y-83804545D01*
X85976410Y-83802563D01*
X86056973Y-83769193D01*
X86073252Y-83765955D01*
X86091542Y-83760844D01*
X86107135Y-83755177D01*
X86193300Y-83741954D01*
X86198663Y-83741009D01*
X86284173Y-83724000D01*
X86300766Y-83724000D01*
X86319709Y-83722555D01*
X86336106Y-83720039D01*
X86423205Y-83723881D01*
X86423205Y-83723881D01*
G37*
G36*
X58528218Y-85334815D02*
G01*
X58566888Y-85346546D01*
X58602527Y-85365596D01*
X58633767Y-85391233D01*
X58659404Y-85422473D01*
X58678454Y-85458112D01*
X58690185Y-85496782D01*
X58694750Y-85543138D01*
X58694750Y-86194362D01*
X58690185Y-86240718D01*
X58678454Y-86279388D01*
X58659404Y-86315027D01*
X58633767Y-86346267D01*
X58602527Y-86371904D01*
X58566888Y-86390954D01*
X58528218Y-86402685D01*
X58481862Y-86407250D01*
X57405638Y-86407250D01*
X57359282Y-86402685D01*
X57320612Y-86390954D01*
X57284973Y-86371904D01*
X57253733Y-86346267D01*
X57228096Y-86315027D01*
X57209046Y-86279388D01*
X57197315Y-86240718D01*
X57192750Y-86194362D01*
X57192750Y-85543138D01*
X57197315Y-85496782D01*
X57209046Y-85458112D01*
X57228096Y-85422473D01*
X57253733Y-85391233D01*
X57284973Y-85365596D01*
X57320612Y-85346546D01*
X57359282Y-85334815D01*
X57405638Y-85330250D01*
X58481862Y-85330250D01*
X58528218Y-85334815D01*
X58528218Y-85334815D01*
G37*
G36*
X52744750Y-85876000D02*
G01*
X44092750Y-85876000D01*
X44092750Y-84274000D01*
X52744750Y-84274000D01*
X52744750Y-85876000D01*
X52744750Y-85876000D01*
G37*
G36*
X39319468Y-84653065D02*
G01*
X39358138Y-84664796D01*
X39393777Y-84683846D01*
X39425017Y-84709483D01*
X39450654Y-84740723D01*
X39469704Y-84776362D01*
X39481435Y-84815032D01*
X39486000Y-84861388D01*
X39486000Y-85512612D01*
X39481435Y-85558968D01*
X39469704Y-85597638D01*
X39450654Y-85633277D01*
X39425017Y-85664517D01*
X39393777Y-85690154D01*
X39358138Y-85709204D01*
X39319468Y-85720935D01*
X39273112Y-85725500D01*
X38196888Y-85725500D01*
X38150532Y-85720935D01*
X38111862Y-85709204D01*
X38076223Y-85690154D01*
X38044983Y-85664517D01*
X38019346Y-85633277D01*
X38000296Y-85597638D01*
X37988565Y-85558968D01*
X37984000Y-85512612D01*
X37984000Y-84861388D01*
X37988565Y-84815032D01*
X38000296Y-84776362D01*
X38019346Y-84740723D01*
X38044983Y-84709483D01*
X38076223Y-84683846D01*
X38111862Y-84664796D01*
X38150532Y-84653065D01*
X38196888Y-84648500D01*
X39273112Y-84648500D01*
X39319468Y-84653065D01*
X39319468Y-84653065D01*
G37*
G36*
X72478127Y-82642261D02*
G01*
X72498900Y-82644000D01*
X72505827Y-82644000D01*
X72600754Y-82662882D01*
X72604348Y-82663542D01*
X72699730Y-82679624D01*
X72706203Y-82682085D01*
X72726228Y-82687841D01*
X72733027Y-82689193D01*
X72795414Y-82715034D01*
X72822443Y-82726230D01*
X72825844Y-82727581D01*
X72916255Y-82761961D01*
X72922127Y-82765640D01*
X72940636Y-82775187D01*
X72947045Y-82777842D01*
X73027563Y-82831642D01*
X73030554Y-82833578D01*
X73112557Y-82884959D01*
X73117584Y-82889700D01*
X73133896Y-82902691D01*
X73139652Y-82906537D01*
X73208110Y-82974995D01*
X73210689Y-82977499D01*
X73281090Y-83043889D01*
X73284726Y-83049000D01*
X73285095Y-83049519D01*
X73298559Y-83065444D01*
X73303459Y-83070344D01*
X73357244Y-83150839D01*
X73359291Y-83153807D01*
X73415380Y-83232645D01*
X73418214Y-83238958D01*
X73428308Y-83257193D01*
X73432158Y-83262955D01*
X73469220Y-83352430D01*
X73470624Y-83355685D01*
X73510265Y-83443973D01*
X73511815Y-83450725D01*
X73518152Y-83470562D01*
X73520807Y-83476973D01*
X73528616Y-83516233D01*
X73539692Y-83571917D01*
X73540438Y-83575401D01*
X73562098Y-83669751D01*
X73562098Y-83669754D01*
X73562300Y-83676654D01*
X73564647Y-83697370D01*
X73566000Y-83704174D01*
X73566000Y-83800986D01*
X73566053Y-83804584D01*
X73567188Y-83843277D01*
X73566295Y-83856225D01*
X73566000Y-83864797D01*
X73566000Y-83935826D01*
X73560081Y-83965585D01*
X73559604Y-83967979D01*
X73557500Y-83983750D01*
X73519238Y-84538545D01*
X73490376Y-84709730D01*
X73408038Y-84926255D01*
X73285041Y-85122557D01*
X73126111Y-85291090D01*
X72937355Y-85425380D01*
X72726027Y-85520265D01*
X72500249Y-85572098D01*
X72268698Y-85578889D01*
X72268697Y-85578889D01*
X72223012Y-85571186D01*
X72040270Y-85540376D01*
X71823745Y-85458038D01*
X71627443Y-85335041D01*
X71458910Y-85176111D01*
X71324620Y-84987355D01*
X71229735Y-84776027D01*
X71177902Y-84550249D01*
X71172812Y-84376723D01*
X71213704Y-83783794D01*
X71214000Y-83775196D01*
X71214000Y-83704174D01*
X71232888Y-83609219D01*
X71233544Y-83605645D01*
X71239231Y-83571917D01*
X71249624Y-83510270D01*
X71252085Y-83503799D01*
X71257842Y-83483767D01*
X71259193Y-83476974D01*
X71266048Y-83460424D01*
X71296264Y-83387476D01*
X71297553Y-83384230D01*
X71331962Y-83293745D01*
X71335636Y-83287881D01*
X71345187Y-83269365D01*
X71347842Y-83262955D01*
X71401657Y-83182415D01*
X71403577Y-83179449D01*
X71454959Y-83097443D01*
X71459711Y-83092404D01*
X71472689Y-83076107D01*
X71476537Y-83070348D01*
X71544993Y-83001892D01*
X71547546Y-82999262D01*
X71568023Y-82977548D01*
X71613889Y-82928910D01*
X71619521Y-82924903D01*
X71635447Y-82911438D01*
X71640346Y-82906539D01*
X71720824Y-82852766D01*
X71723806Y-82850710D01*
X71802645Y-82794620D01*
X71808955Y-82791787D01*
X71827194Y-82781691D01*
X71832951Y-82777844D01*
X71832954Y-82777843D01*
X71832955Y-82777842D01*
X71922429Y-82740781D01*
X71925687Y-82739375D01*
X72013973Y-82699735D01*
X72020725Y-82698185D01*
X72040562Y-82691848D01*
X72046973Y-82689193D01*
X72141899Y-82670311D01*
X72145446Y-82669551D01*
X72239751Y-82647901D01*
X72242130Y-82647831D01*
X72246665Y-82647698D01*
X72267381Y-82645351D01*
X72274174Y-82644000D01*
X72370959Y-82644000D01*
X72374584Y-82643947D01*
X72471302Y-82641110D01*
X72478127Y-82642261D01*
X72478127Y-82642261D01*
G37*
G36*
X91528127Y-82642261D02*
G01*
X91548900Y-82644000D01*
X91555827Y-82644000D01*
X91650754Y-82662882D01*
X91654348Y-82663542D01*
X91749730Y-82679624D01*
X91756203Y-82682085D01*
X91776228Y-82687841D01*
X91783027Y-82689193D01*
X91845414Y-82715034D01*
X91872443Y-82726230D01*
X91875844Y-82727581D01*
X91966255Y-82761961D01*
X91972127Y-82765640D01*
X91990636Y-82775187D01*
X91997045Y-82777842D01*
X92077563Y-82831642D01*
X92080554Y-82833578D01*
X92162557Y-82884959D01*
X92167584Y-82889700D01*
X92183896Y-82902691D01*
X92189652Y-82906537D01*
X92258110Y-82974995D01*
X92260689Y-82977499D01*
X92331090Y-83043889D01*
X92334726Y-83049000D01*
X92335095Y-83049519D01*
X92348559Y-83065444D01*
X92353459Y-83070344D01*
X92407244Y-83150839D01*
X92409291Y-83153807D01*
X92465380Y-83232645D01*
X92468214Y-83238958D01*
X92478308Y-83257193D01*
X92482158Y-83262955D01*
X92519220Y-83352430D01*
X92520624Y-83355685D01*
X92560265Y-83443973D01*
X92561815Y-83450725D01*
X92568152Y-83470562D01*
X92570807Y-83476973D01*
X92578616Y-83516233D01*
X92589692Y-83571917D01*
X92590438Y-83575401D01*
X92612098Y-83669751D01*
X92612098Y-83669754D01*
X92612300Y-83676654D01*
X92614647Y-83697370D01*
X92616000Y-83704174D01*
X92616000Y-83800986D01*
X92616053Y-83804584D01*
X92617188Y-83843277D01*
X92616295Y-83856225D01*
X92616000Y-83864797D01*
X92616000Y-83935826D01*
X92610081Y-83965585D01*
X92609604Y-83967979D01*
X92607500Y-83983750D01*
X92569238Y-84538545D01*
X92540376Y-84709730D01*
X92458038Y-84926255D01*
X92335041Y-85122557D01*
X92176111Y-85291090D01*
X91987355Y-85425380D01*
X91776027Y-85520265D01*
X91550249Y-85572098D01*
X91318698Y-85578889D01*
X91318697Y-85578889D01*
X91273012Y-85571186D01*
X91090270Y-85540376D01*
X90873745Y-85458038D01*
X90677443Y-85335041D01*
X90508910Y-85176111D01*
X90374620Y-84987355D01*
X90279735Y-84776027D01*
X90227902Y-84550249D01*
X90222812Y-84376723D01*
X90263704Y-83783794D01*
X90264000Y-83775196D01*
X90264000Y-83704174D01*
X90282888Y-83609219D01*
X90283544Y-83605645D01*
X90289231Y-83571917D01*
X90299624Y-83510270D01*
X90302085Y-83503799D01*
X90307842Y-83483767D01*
X90309193Y-83476974D01*
X90316048Y-83460424D01*
X90346264Y-83387476D01*
X90347553Y-83384230D01*
X90381962Y-83293745D01*
X90385636Y-83287881D01*
X90395187Y-83269365D01*
X90397842Y-83262955D01*
X90451657Y-83182415D01*
X90453577Y-83179449D01*
X90504959Y-83097443D01*
X90509711Y-83092404D01*
X90522689Y-83076107D01*
X90526537Y-83070348D01*
X90594993Y-83001892D01*
X90597546Y-82999262D01*
X90618023Y-82977548D01*
X90663889Y-82928910D01*
X90669521Y-82924903D01*
X90685447Y-82911438D01*
X90690346Y-82906539D01*
X90770824Y-82852766D01*
X90773806Y-82850710D01*
X90852645Y-82794620D01*
X90858955Y-82791787D01*
X90877194Y-82781691D01*
X90882951Y-82777844D01*
X90882954Y-82777843D01*
X90882955Y-82777842D01*
X90972429Y-82740781D01*
X90975687Y-82739375D01*
X91063973Y-82699735D01*
X91070725Y-82698185D01*
X91090562Y-82691848D01*
X91096973Y-82689193D01*
X91191899Y-82670311D01*
X91195446Y-82669551D01*
X91289751Y-82647901D01*
X91292130Y-82647831D01*
X91296665Y-82647698D01*
X91317381Y-82645351D01*
X91324174Y-82644000D01*
X91420959Y-82644000D01*
X91424584Y-82643947D01*
X91521302Y-82641110D01*
X91528127Y-82642261D01*
X91528127Y-82642261D01*
G37*
G36*
X58528218Y-83459815D02*
G01*
X58566888Y-83471546D01*
X58602527Y-83490596D01*
X58633767Y-83516233D01*
X58659404Y-83547473D01*
X58678454Y-83583112D01*
X58690185Y-83621782D01*
X58694750Y-83668138D01*
X58694750Y-84319362D01*
X58690185Y-84365718D01*
X58678454Y-84404388D01*
X58659404Y-84440027D01*
X58633767Y-84471267D01*
X58602527Y-84496904D01*
X58566888Y-84515954D01*
X58528218Y-84527685D01*
X58481862Y-84532250D01*
X57405638Y-84532250D01*
X57359282Y-84527685D01*
X57320612Y-84515954D01*
X57284973Y-84496904D01*
X57253733Y-84471267D01*
X57228096Y-84440027D01*
X57209046Y-84404388D01*
X57197315Y-84365718D01*
X57192750Y-84319362D01*
X57192750Y-83668138D01*
X57197315Y-83621782D01*
X57209046Y-83583112D01*
X57228096Y-83547473D01*
X57253733Y-83516233D01*
X57284973Y-83490596D01*
X57320612Y-83471546D01*
X57359282Y-83459815D01*
X57405638Y-83455250D01*
X58481862Y-83455250D01*
X58528218Y-83459815D01*
X58528218Y-83459815D01*
G37*
G36*
X39319468Y-82778065D02*
G01*
X39358138Y-82789796D01*
X39393777Y-82808846D01*
X39425017Y-82834483D01*
X39450654Y-82865723D01*
X39469704Y-82901362D01*
X39481435Y-82940032D01*
X39486000Y-82986388D01*
X39486000Y-83637612D01*
X39481435Y-83683968D01*
X39469704Y-83722638D01*
X39450654Y-83758277D01*
X39425017Y-83789517D01*
X39393777Y-83815154D01*
X39358138Y-83834204D01*
X39319468Y-83845935D01*
X39273112Y-83850500D01*
X38196888Y-83850500D01*
X38150532Y-83845935D01*
X38111862Y-83834204D01*
X38076223Y-83815154D01*
X38044983Y-83789517D01*
X38019346Y-83758277D01*
X38000296Y-83722638D01*
X37988565Y-83683968D01*
X37984000Y-83637612D01*
X37984000Y-82986388D01*
X37988565Y-82940032D01*
X38000296Y-82901362D01*
X38019346Y-82865723D01*
X38044983Y-82834483D01*
X38076223Y-82808846D01*
X38111862Y-82789796D01*
X38150532Y-82778065D01*
X38196888Y-82773500D01*
X39273112Y-82773500D01*
X39319468Y-82778065D01*
X39319468Y-82778065D01*
G37*
G36*
X54919750Y-83701000D02*
G01*
X53317750Y-83701000D01*
X53317750Y-75049000D01*
X54919750Y-75049000D01*
X54919750Y-83701000D01*
X54919750Y-83701000D01*
G37*
G36*
X43519750Y-83701000D02*
G01*
X41917750Y-83701000D01*
X41917750Y-75049000D01*
X43519750Y-75049000D01*
X43519750Y-83701000D01*
X43519750Y-83701000D01*
G37*
G36*
X37788468Y-77739565D02*
G01*
X37827138Y-77751296D01*
X37862777Y-77770346D01*
X37894017Y-77795983D01*
X37919654Y-77827223D01*
X37938704Y-77862862D01*
X37950435Y-77901532D01*
X37955000Y-77947888D01*
X37955000Y-79024112D01*
X37950435Y-79070468D01*
X37938704Y-79109138D01*
X37919654Y-79144777D01*
X37894017Y-79176017D01*
X37862777Y-79201654D01*
X37827138Y-79220704D01*
X37788468Y-79232435D01*
X37742112Y-79237000D01*
X37090888Y-79237000D01*
X37044532Y-79232435D01*
X37005862Y-79220704D01*
X36970223Y-79201654D01*
X36938983Y-79176017D01*
X36913346Y-79144777D01*
X36894296Y-79109138D01*
X36882565Y-79070468D01*
X36878000Y-79024112D01*
X36878000Y-77947888D01*
X36882565Y-77901532D01*
X36894296Y-77862862D01*
X36913346Y-77827223D01*
X36938983Y-77795983D01*
X36970223Y-77770346D01*
X37005862Y-77751296D01*
X37044532Y-77739565D01*
X37090888Y-77735000D01*
X37742112Y-77735000D01*
X37788468Y-77739565D01*
X37788468Y-77739565D01*
G37*
G36*
X39663468Y-77739565D02*
G01*
X39702138Y-77751296D01*
X39737777Y-77770346D01*
X39769017Y-77795983D01*
X39794654Y-77827223D01*
X39813704Y-77862862D01*
X39825435Y-77901532D01*
X39830000Y-77947888D01*
X39830000Y-79024112D01*
X39825435Y-79070468D01*
X39813704Y-79109138D01*
X39794654Y-79144777D01*
X39769017Y-79176017D01*
X39737777Y-79201654D01*
X39702138Y-79220704D01*
X39663468Y-79232435D01*
X39617112Y-79237000D01*
X38965888Y-79237000D01*
X38919532Y-79232435D01*
X38880862Y-79220704D01*
X38845223Y-79201654D01*
X38813983Y-79176017D01*
X38788346Y-79144777D01*
X38769296Y-79109138D01*
X38757565Y-79070468D01*
X38753000Y-79024112D01*
X38753000Y-77947888D01*
X38757565Y-77901532D01*
X38769296Y-77862862D01*
X38788346Y-77827223D01*
X38813983Y-77795983D01*
X38845223Y-77770346D01*
X38880862Y-77751296D01*
X38919532Y-77739565D01*
X38965888Y-77735000D01*
X39617112Y-77735000D01*
X39663468Y-77739565D01*
X39663468Y-77739565D01*
G37*
G36*
X58242468Y-76222565D02*
G01*
X58281138Y-76234296D01*
X58316777Y-76253346D01*
X58348017Y-76278983D01*
X58373654Y-76310223D01*
X58392704Y-76345862D01*
X58404435Y-76384532D01*
X58409000Y-76430888D01*
X58409000Y-77082112D01*
X58404435Y-77128468D01*
X58392704Y-77167138D01*
X58373654Y-77202777D01*
X58348017Y-77234017D01*
X58316777Y-77259654D01*
X58281138Y-77278704D01*
X58242468Y-77290435D01*
X58196112Y-77295000D01*
X57119888Y-77295000D01*
X57073532Y-77290435D01*
X57034862Y-77278704D01*
X56999223Y-77259654D01*
X56967983Y-77234017D01*
X56942346Y-77202777D01*
X56923296Y-77167138D01*
X56911565Y-77128468D01*
X56907000Y-77082112D01*
X56907000Y-76430888D01*
X56911565Y-76384532D01*
X56923296Y-76345862D01*
X56942346Y-76310223D01*
X56967983Y-76278983D01*
X56999223Y-76253346D01*
X57034862Y-76234296D01*
X57073532Y-76222565D01*
X57119888Y-76218000D01*
X58196112Y-76218000D01*
X58242468Y-76222565D01*
X58242468Y-76222565D01*
G37*
G36*
X25312354Y-75278347D02*
G01*
X25348894Y-75289432D01*
X25382571Y-75307433D01*
X25412091Y-75331659D01*
X25436317Y-75361179D01*
X25454318Y-75394856D01*
X25465403Y-75431396D01*
X25469750Y-75475538D01*
X25469750Y-76924462D01*
X25465403Y-76968604D01*
X25454318Y-77005144D01*
X25436317Y-77038821D01*
X25412091Y-77068341D01*
X25382571Y-77092567D01*
X25348894Y-77110568D01*
X25312354Y-77121653D01*
X25268212Y-77126000D01*
X24319288Y-77126000D01*
X24275146Y-77121653D01*
X24238606Y-77110568D01*
X24204929Y-77092567D01*
X24175409Y-77068341D01*
X24151183Y-77038821D01*
X24133182Y-77005144D01*
X24122097Y-76968604D01*
X24117750Y-76924462D01*
X24117750Y-75475538D01*
X24122097Y-75431396D01*
X24133182Y-75394856D01*
X24151183Y-75361179D01*
X24175409Y-75331659D01*
X24204929Y-75307433D01*
X24238606Y-75289432D01*
X24275146Y-75278347D01*
X24319288Y-75274000D01*
X25268212Y-75274000D01*
X25312354Y-75278347D01*
X25312354Y-75278347D01*
G37*
G36*
X28112354Y-75278347D02*
G01*
X28148894Y-75289432D01*
X28182571Y-75307433D01*
X28212091Y-75331659D01*
X28236317Y-75361179D01*
X28254318Y-75394856D01*
X28265403Y-75431396D01*
X28269750Y-75475538D01*
X28269750Y-76924462D01*
X28265403Y-76968604D01*
X28254318Y-77005144D01*
X28236317Y-77038821D01*
X28212091Y-77068341D01*
X28182571Y-77092567D01*
X28148894Y-77110568D01*
X28112354Y-77121653D01*
X28068212Y-77126000D01*
X27119288Y-77126000D01*
X27075146Y-77121653D01*
X27038606Y-77110568D01*
X27004929Y-77092567D01*
X26975409Y-77068341D01*
X26951183Y-77038821D01*
X26933182Y-77005144D01*
X26922097Y-76968604D01*
X26917750Y-76924462D01*
X26917750Y-75475538D01*
X26922097Y-75431396D01*
X26933182Y-75394856D01*
X26951183Y-75361179D01*
X26975409Y-75331659D01*
X27004929Y-75307433D01*
X27038606Y-75289432D01*
X27075146Y-75278347D01*
X27119288Y-75274000D01*
X28068212Y-75274000D01*
X28112354Y-75278347D01*
X28112354Y-75278347D01*
G37*
G36*
X72123500Y-75933500D02*
G01*
X70116500Y-75933500D01*
X70116500Y-73926500D01*
X72123500Y-73926500D01*
X72123500Y-75933500D01*
X72123500Y-75933500D01*
G37*
G36*
X68706425Y-73931988D02*
G01*
X68872710Y-73965063D01*
X69055336Y-74040709D01*
X69219694Y-74150530D01*
X69359470Y-74290306D01*
X69469291Y-74454664D01*
X69544937Y-74637290D01*
X69583500Y-74831164D01*
X69583500Y-75028836D01*
X69544937Y-75222710D01*
X69469291Y-75405336D01*
X69359470Y-75569694D01*
X69219694Y-75709470D01*
X69055336Y-75819291D01*
X68872710Y-75894937D01*
X68706425Y-75928012D01*
X68678837Y-75933500D01*
X68481163Y-75933500D01*
X68453575Y-75928012D01*
X68287290Y-75894937D01*
X68104664Y-75819291D01*
X67940306Y-75709470D01*
X67800530Y-75569694D01*
X67690709Y-75405336D01*
X67615063Y-75222710D01*
X67576500Y-75028836D01*
X67576500Y-74831164D01*
X67615063Y-74637290D01*
X67690709Y-74454664D01*
X67800530Y-74290306D01*
X67940306Y-74150530D01*
X68104664Y-74040709D01*
X68287290Y-73965063D01*
X68453575Y-73931988D01*
X68481163Y-73926500D01*
X68678837Y-73926500D01*
X68706425Y-73931988D01*
X68706425Y-73931988D01*
G37*
G36*
X91173500Y-75933500D02*
G01*
X89166500Y-75933500D01*
X89166500Y-73926500D01*
X91173500Y-73926500D01*
X91173500Y-75933500D01*
X91173500Y-75933500D01*
G37*
G36*
X87756425Y-73931988D02*
G01*
X87922710Y-73965063D01*
X88105336Y-74040709D01*
X88269694Y-74150530D01*
X88409470Y-74290306D01*
X88519291Y-74454664D01*
X88594937Y-74637290D01*
X88633500Y-74831164D01*
X88633500Y-75028836D01*
X88594937Y-75222710D01*
X88519291Y-75405336D01*
X88409470Y-75569694D01*
X88269694Y-75709470D01*
X88105336Y-75819291D01*
X87922710Y-75894937D01*
X87756425Y-75928012D01*
X87728837Y-75933500D01*
X87531163Y-75933500D01*
X87503575Y-75928012D01*
X87337290Y-75894937D01*
X87154664Y-75819291D01*
X86990306Y-75709470D01*
X86850530Y-75569694D01*
X86740709Y-75405336D01*
X86665063Y-75222710D01*
X86626500Y-75028836D01*
X86626500Y-74831164D01*
X86665063Y-74637290D01*
X86740709Y-74454664D01*
X86850530Y-74290306D01*
X86990306Y-74150530D01*
X87154664Y-74040709D01*
X87337290Y-73965063D01*
X87503575Y-73931988D01*
X87531163Y-73926500D01*
X87728837Y-73926500D01*
X87756425Y-73931988D01*
X87756425Y-73931988D01*
G37*
G36*
X58242468Y-74347565D02*
G01*
X58281138Y-74359296D01*
X58316777Y-74378346D01*
X58348017Y-74403983D01*
X58373654Y-74435223D01*
X58392704Y-74470862D01*
X58404435Y-74509532D01*
X58409000Y-74555888D01*
X58409000Y-75207112D01*
X58404435Y-75253468D01*
X58392704Y-75292138D01*
X58373654Y-75327777D01*
X58348017Y-75359017D01*
X58316777Y-75384654D01*
X58281138Y-75403704D01*
X58242468Y-75415435D01*
X58196112Y-75420000D01*
X57119888Y-75420000D01*
X57073532Y-75415435D01*
X57034862Y-75403704D01*
X56999223Y-75384654D01*
X56967983Y-75359017D01*
X56942346Y-75327777D01*
X56923296Y-75292138D01*
X56911565Y-75253468D01*
X56907000Y-75207112D01*
X56907000Y-74555888D01*
X56911565Y-74509532D01*
X56923296Y-74470862D01*
X56942346Y-74435223D01*
X56967983Y-74403983D01*
X56999223Y-74378346D01*
X57034862Y-74359296D01*
X57073532Y-74347565D01*
X57119888Y-74343000D01*
X58196112Y-74343000D01*
X58242468Y-74347565D01*
X58242468Y-74347565D01*
G37*
G36*
X52744750Y-74476000D02*
G01*
X44092750Y-74476000D01*
X44092750Y-72874000D01*
X52744750Y-72874000D01*
X52744750Y-74476000D01*
X52744750Y-74476000D01*
G37*
G36*
X32143968Y-72444315D02*
G01*
X32182638Y-72456046D01*
X32218277Y-72475096D01*
X32249517Y-72500733D01*
X32275154Y-72531973D01*
X32294204Y-72567612D01*
X32305935Y-72606282D01*
X32310500Y-72652638D01*
X32310500Y-73303862D01*
X32305935Y-73350218D01*
X32294204Y-73388888D01*
X32275154Y-73424527D01*
X32249517Y-73455767D01*
X32218277Y-73481404D01*
X32182638Y-73500454D01*
X32143968Y-73512185D01*
X32097612Y-73516750D01*
X31021388Y-73516750D01*
X30975032Y-73512185D01*
X30936362Y-73500454D01*
X30900723Y-73481404D01*
X30869483Y-73455767D01*
X30843846Y-73424527D01*
X30824796Y-73388888D01*
X30813065Y-73350218D01*
X30808500Y-73303862D01*
X30808500Y-72652638D01*
X30813065Y-72606282D01*
X30824796Y-72567612D01*
X30843846Y-72531973D01*
X30869483Y-72500733D01*
X30900723Y-72475096D01*
X30936362Y-72456046D01*
X30975032Y-72444315D01*
X31021388Y-72439750D01*
X32097612Y-72439750D01*
X32143968Y-72444315D01*
X32143968Y-72444315D01*
G37*
G36*
X28968968Y-72444315D02*
G01*
X29007638Y-72456046D01*
X29043277Y-72475096D01*
X29074517Y-72500733D01*
X29100154Y-72531973D01*
X29119204Y-72567612D01*
X29130935Y-72606282D01*
X29135500Y-72652638D01*
X29135500Y-73303862D01*
X29130935Y-73350218D01*
X29119204Y-73388888D01*
X29100154Y-73424527D01*
X29074517Y-73455767D01*
X29043277Y-73481404D01*
X29007638Y-73500454D01*
X28968968Y-73512185D01*
X28922612Y-73516750D01*
X27846388Y-73516750D01*
X27800032Y-73512185D01*
X27761362Y-73500454D01*
X27725723Y-73481404D01*
X27694483Y-73455767D01*
X27668846Y-73424527D01*
X27649796Y-73388888D01*
X27638065Y-73350218D01*
X27633500Y-73303862D01*
X27633500Y-72652638D01*
X27638065Y-72606282D01*
X27649796Y-72567612D01*
X27668846Y-72531973D01*
X27694483Y-72500733D01*
X27725723Y-72475096D01*
X27761362Y-72456046D01*
X27800032Y-72444315D01*
X27846388Y-72439750D01*
X28922612Y-72439750D01*
X28968968Y-72444315D01*
X28968968Y-72444315D01*
G37*
G36*
X41097468Y-71396565D02*
G01*
X41136138Y-71408296D01*
X41171777Y-71427346D01*
X41203017Y-71452983D01*
X41228654Y-71484223D01*
X41247704Y-71519862D01*
X41259435Y-71558532D01*
X41264000Y-71604888D01*
X41264000Y-72256112D01*
X41259435Y-72302468D01*
X41247704Y-72341138D01*
X41228654Y-72376777D01*
X41203017Y-72408017D01*
X41171777Y-72433654D01*
X41136138Y-72452704D01*
X41097468Y-72464435D01*
X41051112Y-72469000D01*
X39974888Y-72469000D01*
X39928532Y-72464435D01*
X39889862Y-72452704D01*
X39854223Y-72433654D01*
X39822983Y-72408017D01*
X39797346Y-72376777D01*
X39778296Y-72341138D01*
X39766565Y-72302468D01*
X39762000Y-72256112D01*
X39762000Y-71604888D01*
X39766565Y-71558532D01*
X39778296Y-71519862D01*
X39797346Y-71484223D01*
X39822983Y-71452983D01*
X39854223Y-71427346D01*
X39889862Y-71408296D01*
X39928532Y-71396565D01*
X39974888Y-71392000D01*
X41051112Y-71392000D01*
X41097468Y-71396565D01*
X41097468Y-71396565D01*
G37*
G36*
X37922468Y-71396565D02*
G01*
X37961138Y-71408296D01*
X37996777Y-71427346D01*
X38028017Y-71452983D01*
X38053654Y-71484223D01*
X38072704Y-71519862D01*
X38084435Y-71558532D01*
X38089000Y-71604888D01*
X38089000Y-72256112D01*
X38084435Y-72302468D01*
X38072704Y-72341138D01*
X38053654Y-72376777D01*
X38028017Y-72408017D01*
X37996777Y-72433654D01*
X37961138Y-72452704D01*
X37922468Y-72464435D01*
X37876112Y-72469000D01*
X36799888Y-72469000D01*
X36753532Y-72464435D01*
X36714862Y-72452704D01*
X36679223Y-72433654D01*
X36647983Y-72408017D01*
X36622346Y-72376777D01*
X36603296Y-72341138D01*
X36591565Y-72302468D01*
X36587000Y-72256112D01*
X36587000Y-71604888D01*
X36591565Y-71558532D01*
X36603296Y-71519862D01*
X36622346Y-71484223D01*
X36647983Y-71452983D01*
X36679223Y-71427346D01*
X36714862Y-71408296D01*
X36753532Y-71396565D01*
X36799888Y-71392000D01*
X37876112Y-71392000D01*
X37922468Y-71396565D01*
X37922468Y-71396565D01*
G37*
G36*
X97488500Y-72001000D02*
G01*
X96186500Y-72001000D01*
X96186500Y-70999000D01*
X97488500Y-70999000D01*
X97488500Y-72001000D01*
X97488500Y-72001000D01*
G37*
G36*
X78438500Y-71938500D02*
G01*
X77136500Y-71938500D01*
X77136500Y-70936500D01*
X78438500Y-70936500D01*
X78438500Y-71938500D01*
X78438500Y-71938500D01*
G37*
G36*
X89496474Y-67883684D02*
G01*
X89714474Y-67973983D01*
X89868623Y-68037833D01*
X90203548Y-68261623D01*
X90488377Y-68546452D01*
X90712167Y-68881377D01*
X90744562Y-68959586D01*
X90866316Y-69253526D01*
X90944900Y-69648594D01*
X90944900Y-70051406D01*
X90866316Y-70446474D01*
X90792064Y-70625733D01*
X90712167Y-70818623D01*
X90488377Y-71153548D01*
X90203548Y-71438377D01*
X89868623Y-71662167D01*
X89714474Y-71726017D01*
X89496474Y-71816316D01*
X89101406Y-71894900D01*
X88698594Y-71894900D01*
X88303526Y-71816316D01*
X88085526Y-71726017D01*
X87931377Y-71662167D01*
X87596452Y-71438377D01*
X87311623Y-71153548D01*
X87087833Y-70818623D01*
X87007936Y-70625733D01*
X86933684Y-70446474D01*
X86855100Y-70051406D01*
X86855100Y-69648594D01*
X86933684Y-69253526D01*
X87055438Y-68959586D01*
X87087833Y-68881377D01*
X87311623Y-68546452D01*
X87596452Y-68261623D01*
X87931377Y-68037833D01*
X88085526Y-67973983D01*
X88303526Y-67883684D01*
X88698594Y-67805100D01*
X89101406Y-67805100D01*
X89496474Y-67883684D01*
X89496474Y-67883684D01*
G37*
G36*
X70446474Y-67883684D02*
G01*
X70664474Y-67973983D01*
X70818623Y-68037833D01*
X71153548Y-68261623D01*
X71438377Y-68546452D01*
X71662167Y-68881377D01*
X71694562Y-68959586D01*
X71816316Y-69253526D01*
X71894900Y-69648594D01*
X71894900Y-70051406D01*
X71816316Y-70446474D01*
X71742064Y-70625733D01*
X71662167Y-70818623D01*
X71438377Y-71153548D01*
X71153548Y-71438377D01*
X70818623Y-71662167D01*
X70664474Y-71726017D01*
X70446474Y-71816316D01*
X70051406Y-71894900D01*
X69648594Y-71894900D01*
X69253526Y-71816316D01*
X69035526Y-71726017D01*
X68881377Y-71662167D01*
X68546452Y-71438377D01*
X68261623Y-71153548D01*
X68037833Y-70818623D01*
X67957936Y-70625733D01*
X67883684Y-70446474D01*
X67805100Y-70051406D01*
X67805100Y-69648594D01*
X67883684Y-69253526D01*
X68005438Y-68959586D01*
X68037833Y-68881377D01*
X68261623Y-68546452D01*
X68546452Y-68261623D01*
X68881377Y-68037833D01*
X69035526Y-67973983D01*
X69253526Y-67883684D01*
X69648594Y-67805100D01*
X70051406Y-67805100D01*
X70446474Y-67883684D01*
X70446474Y-67883684D01*
G37*
G36*
X32143968Y-70569315D02*
G01*
X32182638Y-70581046D01*
X32218277Y-70600096D01*
X32249517Y-70625733D01*
X32275154Y-70656973D01*
X32294204Y-70692612D01*
X32305935Y-70731282D01*
X32310500Y-70777638D01*
X32310500Y-71428862D01*
X32305935Y-71475218D01*
X32294204Y-71513888D01*
X32275154Y-71549527D01*
X32249517Y-71580767D01*
X32218277Y-71606404D01*
X32182638Y-71625454D01*
X32143968Y-71637185D01*
X32097612Y-71641750D01*
X31021388Y-71641750D01*
X30975032Y-71637185D01*
X30936362Y-71625454D01*
X30900723Y-71606404D01*
X30869483Y-71580767D01*
X30843846Y-71549527D01*
X30824796Y-71513888D01*
X30813065Y-71475218D01*
X30808500Y-71428862D01*
X30808500Y-70777638D01*
X30813065Y-70731282D01*
X30824796Y-70692612D01*
X30843846Y-70656973D01*
X30869483Y-70625733D01*
X30900723Y-70600096D01*
X30936362Y-70581046D01*
X30975032Y-70569315D01*
X31021388Y-70564750D01*
X32097612Y-70564750D01*
X32143968Y-70569315D01*
X32143968Y-70569315D01*
G37*
G36*
X28968968Y-70569315D02*
G01*
X29007638Y-70581046D01*
X29043277Y-70600096D01*
X29074517Y-70625733D01*
X29100154Y-70656973D01*
X29119204Y-70692612D01*
X29130935Y-70731282D01*
X29135500Y-70777638D01*
X29135500Y-71428862D01*
X29130935Y-71475218D01*
X29119204Y-71513888D01*
X29100154Y-71549527D01*
X29074517Y-71580767D01*
X29043277Y-71606404D01*
X29007638Y-71625454D01*
X28968968Y-71637185D01*
X28922612Y-71641750D01*
X27846388Y-71641750D01*
X27800032Y-71637185D01*
X27761362Y-71625454D01*
X27725723Y-71606404D01*
X27694483Y-71580767D01*
X27668846Y-71549527D01*
X27649796Y-71513888D01*
X27638065Y-71475218D01*
X27633500Y-71428862D01*
X27633500Y-70777638D01*
X27638065Y-70731282D01*
X27649796Y-70692612D01*
X27668846Y-70656973D01*
X27694483Y-70625733D01*
X27725723Y-70600096D01*
X27761362Y-70581046D01*
X27800032Y-70569315D01*
X27846388Y-70564750D01*
X28922612Y-70564750D01*
X28968968Y-70569315D01*
X28968968Y-70569315D01*
G37*
G36*
X94250104Y-68959585D02*
G01*
X94418626Y-69029389D01*
X94570291Y-69130728D01*
X94699272Y-69259709D01*
X94800611Y-69411374D01*
X94870415Y-69579896D01*
X94906000Y-69758797D01*
X94906000Y-69941203D01*
X94870415Y-70120104D01*
X94800611Y-70288626D01*
X94699272Y-70440291D01*
X94570291Y-70569272D01*
X94418626Y-70670611D01*
X94250104Y-70740415D01*
X94071203Y-70776000D01*
X93888797Y-70776000D01*
X93709896Y-70740415D01*
X93541374Y-70670611D01*
X93389709Y-70569272D01*
X93260728Y-70440291D01*
X93159389Y-70288626D01*
X93089585Y-70120104D01*
X93054000Y-69941203D01*
X93054000Y-69758797D01*
X93089585Y-69579896D01*
X93159389Y-69411374D01*
X93260728Y-69259709D01*
X93389709Y-69130728D01*
X93541374Y-69029389D01*
X93709896Y-68959585D01*
X93888797Y-68924000D01*
X94071203Y-68924000D01*
X94250104Y-68959585D01*
X94250104Y-68959585D01*
G37*
G36*
X84090104Y-68959585D02*
G01*
X84258626Y-69029389D01*
X84410291Y-69130728D01*
X84539272Y-69259709D01*
X84640611Y-69411374D01*
X84710415Y-69579896D01*
X84746000Y-69758797D01*
X84746000Y-69941203D01*
X84710415Y-70120104D01*
X84640611Y-70288626D01*
X84539272Y-70440291D01*
X84410291Y-70569272D01*
X84258626Y-70670611D01*
X84090104Y-70740415D01*
X83911203Y-70776000D01*
X83728797Y-70776000D01*
X83549896Y-70740415D01*
X83381374Y-70670611D01*
X83229709Y-70569272D01*
X83100728Y-70440291D01*
X82999389Y-70288626D01*
X82929585Y-70120104D01*
X82894000Y-69941203D01*
X82894000Y-69758797D01*
X82929585Y-69579896D01*
X82999389Y-69411374D01*
X83100728Y-69259709D01*
X83229709Y-69130728D01*
X83381374Y-69029389D01*
X83549896Y-68959585D01*
X83728797Y-68924000D01*
X83911203Y-68924000D01*
X84090104Y-68959585D01*
X84090104Y-68959585D01*
G37*
G36*
X75200104Y-68959585D02*
G01*
X75368626Y-69029389D01*
X75520291Y-69130728D01*
X75649272Y-69259709D01*
X75750611Y-69411374D01*
X75820415Y-69579896D01*
X75856000Y-69758797D01*
X75856000Y-69941203D01*
X75820415Y-70120104D01*
X75750611Y-70288626D01*
X75649272Y-70440291D01*
X75520291Y-70569272D01*
X75368626Y-70670611D01*
X75200104Y-70740415D01*
X75021203Y-70776000D01*
X74838797Y-70776000D01*
X74659896Y-70740415D01*
X74491374Y-70670611D01*
X74339709Y-70569272D01*
X74210728Y-70440291D01*
X74109389Y-70288626D01*
X74039585Y-70120104D01*
X74004000Y-69941203D01*
X74004000Y-69758797D01*
X74039585Y-69579896D01*
X74109389Y-69411374D01*
X74210728Y-69259709D01*
X74339709Y-69130728D01*
X74491374Y-69029389D01*
X74659896Y-68959585D01*
X74838797Y-68924000D01*
X75021203Y-68924000D01*
X75200104Y-68959585D01*
X75200104Y-68959585D01*
G37*
G36*
X65040104Y-68959585D02*
G01*
X65208626Y-69029389D01*
X65360291Y-69130728D01*
X65489272Y-69259709D01*
X65590611Y-69411374D01*
X65660415Y-69579896D01*
X65696000Y-69758797D01*
X65696000Y-69941203D01*
X65660415Y-70120104D01*
X65590611Y-70288626D01*
X65489272Y-70440291D01*
X65360291Y-70569272D01*
X65208626Y-70670611D01*
X65040104Y-70740415D01*
X64861203Y-70776000D01*
X64678797Y-70776000D01*
X64499896Y-70740415D01*
X64331374Y-70670611D01*
X64179709Y-70569272D01*
X64050728Y-70440291D01*
X63949389Y-70288626D01*
X63879585Y-70120104D01*
X63844000Y-69941203D01*
X63844000Y-69758797D01*
X63879585Y-69579896D01*
X63949389Y-69411374D01*
X64050728Y-69259709D01*
X64179709Y-69130728D01*
X64331374Y-69029389D01*
X64499896Y-68959585D01*
X64678797Y-68924000D01*
X64861203Y-68924000D01*
X65040104Y-68959585D01*
X65040104Y-68959585D01*
G37*
G36*
X41097468Y-69521565D02*
G01*
X41136138Y-69533296D01*
X41171777Y-69552346D01*
X41203017Y-69577983D01*
X41228654Y-69609223D01*
X41247704Y-69644862D01*
X41259435Y-69683532D01*
X41264000Y-69729888D01*
X41264000Y-70381112D01*
X41259435Y-70427468D01*
X41247704Y-70466138D01*
X41228654Y-70501777D01*
X41203017Y-70533017D01*
X41171777Y-70558654D01*
X41136138Y-70577704D01*
X41097468Y-70589435D01*
X41051112Y-70594000D01*
X39974888Y-70594000D01*
X39928532Y-70589435D01*
X39889862Y-70577704D01*
X39854223Y-70558654D01*
X39822983Y-70533017D01*
X39797346Y-70501777D01*
X39778296Y-70466138D01*
X39766565Y-70427468D01*
X39762000Y-70381112D01*
X39762000Y-69729888D01*
X39766565Y-69683532D01*
X39778296Y-69644862D01*
X39797346Y-69609223D01*
X39822983Y-69577983D01*
X39854223Y-69552346D01*
X39889862Y-69533296D01*
X39928532Y-69521565D01*
X39974888Y-69517000D01*
X41051112Y-69517000D01*
X41097468Y-69521565D01*
X41097468Y-69521565D01*
G37*
G36*
X37922468Y-69521565D02*
G01*
X37961138Y-69533296D01*
X37996777Y-69552346D01*
X38028017Y-69577983D01*
X38053654Y-69609223D01*
X38072704Y-69644862D01*
X38084435Y-69683532D01*
X38089000Y-69729888D01*
X38089000Y-70381112D01*
X38084435Y-70427468D01*
X38072704Y-70466138D01*
X38053654Y-70501777D01*
X38028017Y-70533017D01*
X37996777Y-70558654D01*
X37961138Y-70577704D01*
X37922468Y-70589435D01*
X37876112Y-70594000D01*
X36799888Y-70594000D01*
X36753532Y-70589435D01*
X36714862Y-70577704D01*
X36679223Y-70558654D01*
X36647983Y-70533017D01*
X36622346Y-70501777D01*
X36603296Y-70466138D01*
X36591565Y-70427468D01*
X36587000Y-70381112D01*
X36587000Y-69729888D01*
X36591565Y-69683532D01*
X36603296Y-69644862D01*
X36622346Y-69609223D01*
X36647983Y-69577983D01*
X36679223Y-69552346D01*
X36714862Y-69533296D01*
X36753532Y-69521565D01*
X36799888Y-69517000D01*
X37876112Y-69517000D01*
X37922468Y-69521565D01*
X37922468Y-69521565D01*
G37*
G36*
X48069750Y-69763500D02*
G01*
X46567750Y-69763500D01*
X46567750Y-68461500D01*
X48069750Y-68461500D01*
X48069750Y-69763500D01*
X48069750Y-69763500D01*
G37*
G36*
X50269750Y-69763500D02*
G01*
X48767750Y-69763500D01*
X48767750Y-68461500D01*
X50269750Y-68461500D01*
X50269750Y-69763500D01*
X50269750Y-69763500D01*
G37*
G36*
X44240718Y-68666065D02*
G01*
X44279388Y-68677796D01*
X44315027Y-68696846D01*
X44346267Y-68722483D01*
X44371904Y-68753723D01*
X44390954Y-68789362D01*
X44402685Y-68828032D01*
X44407250Y-68874388D01*
X44407250Y-69525612D01*
X44402685Y-69571968D01*
X44390954Y-69610638D01*
X44371904Y-69646277D01*
X44346267Y-69677517D01*
X44315027Y-69703154D01*
X44279388Y-69722204D01*
X44240718Y-69733935D01*
X44194362Y-69738500D01*
X43118138Y-69738500D01*
X43071782Y-69733935D01*
X43033112Y-69722204D01*
X42997473Y-69703154D01*
X42966233Y-69677517D01*
X42940596Y-69646277D01*
X42921546Y-69610638D01*
X42909815Y-69571968D01*
X42905250Y-69525612D01*
X42905250Y-68874388D01*
X42909815Y-68828032D01*
X42921546Y-68789362D01*
X42940596Y-68753723D01*
X42966233Y-68722483D01*
X42997473Y-68696846D01*
X43033112Y-68677796D01*
X43071782Y-68666065D01*
X43118138Y-68661500D01*
X44194362Y-68661500D01*
X44240718Y-68666065D01*
X44240718Y-68666065D01*
G37*
G36*
X52971968Y-68666065D02*
G01*
X53010638Y-68677796D01*
X53046277Y-68696846D01*
X53077517Y-68722483D01*
X53103154Y-68753723D01*
X53122204Y-68789362D01*
X53133935Y-68828032D01*
X53138500Y-68874388D01*
X53138500Y-69525612D01*
X53133935Y-69571968D01*
X53122204Y-69610638D01*
X53103154Y-69646277D01*
X53077517Y-69677517D01*
X53046277Y-69703154D01*
X53010638Y-69722204D01*
X52971968Y-69733935D01*
X52925612Y-69738500D01*
X51849388Y-69738500D01*
X51803032Y-69733935D01*
X51764362Y-69722204D01*
X51728723Y-69703154D01*
X51697483Y-69677517D01*
X51671846Y-69646277D01*
X51652796Y-69610638D01*
X51641065Y-69571968D01*
X51636500Y-69525612D01*
X51636500Y-68874388D01*
X51641065Y-68828032D01*
X51652796Y-68789362D01*
X51671846Y-68753723D01*
X51697483Y-68722483D01*
X51728723Y-68696846D01*
X51764362Y-68677796D01*
X51803032Y-68666065D01*
X51849388Y-68661500D01*
X52925612Y-68661500D01*
X52971968Y-68666065D01*
X52971968Y-68666065D01*
G37*
G36*
X97488500Y-68701000D02*
G01*
X96186500Y-68701000D01*
X96186500Y-67699000D01*
X97488500Y-67699000D01*
X97488500Y-68701000D01*
X97488500Y-68701000D01*
G37*
G36*
X78438500Y-68638500D02*
G01*
X77136500Y-68638500D01*
X77136500Y-67636500D01*
X78438500Y-67636500D01*
X78438500Y-68638500D01*
X78438500Y-68638500D01*
G37*
G36*
X67373205Y-64673881D02*
G01*
X67378645Y-64674000D01*
X67465828Y-64674000D01*
X67482097Y-64677236D01*
X67500956Y-64679515D01*
X67517532Y-64680246D01*
X67602223Y-64701010D01*
X67607518Y-64702184D01*
X67693027Y-64719193D01*
X67708362Y-64725545D01*
X67726401Y-64731455D01*
X67742521Y-64735407D01*
X67821504Y-64772280D01*
X67826494Y-64774477D01*
X67907045Y-64807842D01*
X67920841Y-64817060D01*
X67937393Y-64826382D01*
X67952426Y-64833400D01*
X68022694Y-64884971D01*
X68027192Y-64888122D01*
X68099656Y-64936541D01*
X68111383Y-64948268D01*
X68125809Y-64960648D01*
X68139179Y-64970461D01*
X68188687Y-65024537D01*
X68198021Y-65034733D01*
X68201829Y-65038714D01*
X68263459Y-65100344D01*
X68272674Y-65114135D01*
X68284396Y-65129078D01*
X68295605Y-65141321D01*
X68340799Y-65215874D01*
X68343746Y-65220501D01*
X68392158Y-65292955D01*
X68398505Y-65308277D01*
X68407092Y-65325231D01*
X68415691Y-65339417D01*
X68445478Y-65421368D01*
X68447452Y-65426448D01*
X68480807Y-65506973D01*
X68480807Y-65506974D01*
X68484041Y-65523233D01*
X68489158Y-65541542D01*
X68494825Y-65557134D01*
X68508055Y-65643345D01*
X68509001Y-65648713D01*
X68526000Y-65734173D01*
X68526000Y-65750752D01*
X68527444Y-65769692D01*
X68529963Y-65786104D01*
X68526120Y-65873249D01*
X68526000Y-65878689D01*
X68526000Y-65965825D01*
X68522766Y-65982083D01*
X68520488Y-66000941D01*
X68519756Y-66017531D01*
X68498988Y-66102237D01*
X68497812Y-66107537D01*
X68480807Y-66193027D01*
X68474457Y-66208357D01*
X68468549Y-66226393D01*
X68464595Y-66242520D01*
X68427711Y-66321526D01*
X68425511Y-66326523D01*
X68392158Y-66407045D01*
X68382944Y-66420835D01*
X68373622Y-66437387D01*
X68366602Y-66452424D01*
X68315011Y-66522720D01*
X68311866Y-66527210D01*
X68263461Y-66599654D01*
X68206460Y-66656655D01*
X68201811Y-66661563D01*
X67848122Y-67055750D01*
X66876723Y-68138376D01*
X66748679Y-68255602D01*
X66649630Y-68315646D01*
X66550583Y-68375689D01*
X66332866Y-68454823D01*
X66103895Y-68489961D01*
X65872470Y-68479754D01*
X65647481Y-68424593D01*
X65542727Y-68375689D01*
X65437579Y-68326602D01*
X65340838Y-68255602D01*
X65250823Y-68189539D01*
X65135433Y-68063500D01*
X65094398Y-68018679D01*
X65012564Y-67883685D01*
X64974311Y-67820583D01*
X64895177Y-67602866D01*
X64860039Y-67373895D01*
X64870246Y-67142470D01*
X64925407Y-66917481D01*
X64978947Y-66802796D01*
X65023398Y-66707580D01*
X65023400Y-66707577D01*
X65126114Y-66567622D01*
X65872409Y-65735875D01*
X66412787Y-65133621D01*
X66423681Y-65119589D01*
X66436539Y-65100346D01*
X66493573Y-65043312D01*
X66498223Y-65038403D01*
X66513278Y-65021624D01*
X66534701Y-65002011D01*
X66538682Y-64998203D01*
X66600346Y-64936539D01*
X66614143Y-64927320D01*
X66629102Y-64915585D01*
X66641321Y-64904398D01*
X66673385Y-64884961D01*
X66715830Y-64859231D01*
X66720421Y-64856308D01*
X66792955Y-64807842D01*
X66808300Y-64801486D01*
X66825248Y-64792901D01*
X66839416Y-64784312D01*
X66839417Y-64784312D01*
X66839418Y-64784311D01*
X66921312Y-64754545D01*
X66926410Y-64752563D01*
X67006973Y-64719193D01*
X67023252Y-64715955D01*
X67041542Y-64710844D01*
X67057135Y-64705177D01*
X67143300Y-64691954D01*
X67148663Y-64691009D01*
X67234173Y-64674000D01*
X67250766Y-64674000D01*
X67269709Y-64672555D01*
X67286106Y-64670039D01*
X67373205Y-64673881D01*
X67373205Y-64673881D01*
G37*
G36*
X86423205Y-64673881D02*
G01*
X86428645Y-64674000D01*
X86515828Y-64674000D01*
X86532097Y-64677236D01*
X86550956Y-64679515D01*
X86567532Y-64680246D01*
X86652223Y-64701010D01*
X86657518Y-64702184D01*
X86743027Y-64719193D01*
X86758362Y-64725545D01*
X86776401Y-64731455D01*
X86792521Y-64735407D01*
X86871504Y-64772280D01*
X86876494Y-64774477D01*
X86957045Y-64807842D01*
X86970841Y-64817060D01*
X86987393Y-64826382D01*
X87002426Y-64833400D01*
X87072694Y-64884971D01*
X87077192Y-64888122D01*
X87149656Y-64936541D01*
X87161383Y-64948268D01*
X87175809Y-64960648D01*
X87189179Y-64970461D01*
X87238687Y-65024537D01*
X87248021Y-65034733D01*
X87251829Y-65038714D01*
X87313459Y-65100344D01*
X87322674Y-65114135D01*
X87334396Y-65129078D01*
X87345605Y-65141321D01*
X87390799Y-65215874D01*
X87393746Y-65220501D01*
X87442158Y-65292955D01*
X87448505Y-65308277D01*
X87457092Y-65325231D01*
X87465691Y-65339417D01*
X87495478Y-65421368D01*
X87497452Y-65426448D01*
X87530807Y-65506973D01*
X87530807Y-65506974D01*
X87534041Y-65523233D01*
X87539158Y-65541542D01*
X87544825Y-65557134D01*
X87558055Y-65643345D01*
X87559001Y-65648713D01*
X87576000Y-65734173D01*
X87576000Y-65750752D01*
X87577444Y-65769692D01*
X87579963Y-65786104D01*
X87576120Y-65873249D01*
X87576000Y-65878689D01*
X87576000Y-65965825D01*
X87572766Y-65982083D01*
X87570488Y-66000941D01*
X87569756Y-66017531D01*
X87548988Y-66102237D01*
X87547812Y-66107537D01*
X87530807Y-66193027D01*
X87524457Y-66208357D01*
X87518549Y-66226393D01*
X87514595Y-66242520D01*
X87477711Y-66321526D01*
X87475511Y-66326523D01*
X87442158Y-66407045D01*
X87432944Y-66420835D01*
X87423622Y-66437387D01*
X87416602Y-66452424D01*
X87365011Y-66522720D01*
X87361866Y-66527210D01*
X87313461Y-66599654D01*
X87256460Y-66656655D01*
X87251811Y-66661563D01*
X86898122Y-67055750D01*
X85926723Y-68138376D01*
X85798679Y-68255602D01*
X85699630Y-68315646D01*
X85600583Y-68375689D01*
X85382866Y-68454823D01*
X85153895Y-68489961D01*
X84922470Y-68479754D01*
X84697481Y-68424593D01*
X84592727Y-68375689D01*
X84487579Y-68326602D01*
X84390838Y-68255602D01*
X84300823Y-68189539D01*
X84185433Y-68063500D01*
X84144398Y-68018679D01*
X84062564Y-67883685D01*
X84024311Y-67820583D01*
X83945177Y-67602866D01*
X83910039Y-67373895D01*
X83920246Y-67142470D01*
X83975407Y-66917481D01*
X84028947Y-66802796D01*
X84073398Y-66707580D01*
X84073400Y-66707577D01*
X84176114Y-66567622D01*
X84922409Y-65735875D01*
X85462787Y-65133621D01*
X85473681Y-65119589D01*
X85486539Y-65100346D01*
X85543573Y-65043312D01*
X85548223Y-65038403D01*
X85563278Y-65021624D01*
X85584701Y-65002011D01*
X85588682Y-64998203D01*
X85650346Y-64936539D01*
X85664143Y-64927320D01*
X85679102Y-64915585D01*
X85691321Y-64904398D01*
X85723385Y-64884961D01*
X85765830Y-64859231D01*
X85770421Y-64856308D01*
X85842955Y-64807842D01*
X85858300Y-64801486D01*
X85875248Y-64792901D01*
X85889416Y-64784312D01*
X85889417Y-64784312D01*
X85889418Y-64784311D01*
X85971312Y-64754545D01*
X85976410Y-64752563D01*
X86056973Y-64719193D01*
X86073252Y-64715955D01*
X86091542Y-64710844D01*
X86107135Y-64705177D01*
X86193300Y-64691954D01*
X86198663Y-64691009D01*
X86284173Y-64674000D01*
X86300766Y-64674000D01*
X86319709Y-64672555D01*
X86336106Y-64670039D01*
X86423205Y-64673881D01*
X86423205Y-64673881D01*
G37*
G36*
X50269750Y-68063500D02*
G01*
X48767750Y-68063500D01*
X48767750Y-66761500D01*
X50269750Y-66761500D01*
X50269750Y-68063500D01*
X50269750Y-68063500D01*
G37*
G36*
X48069750Y-68063500D02*
G01*
X46567750Y-68063500D01*
X46567750Y-66761500D01*
X48069750Y-66761500D01*
X48069750Y-68063500D01*
X48069750Y-68063500D01*
G37*
G36*
X52971968Y-66791065D02*
G01*
X53010638Y-66802796D01*
X53046277Y-66821846D01*
X53077517Y-66847483D01*
X53103154Y-66878723D01*
X53122204Y-66914362D01*
X53133935Y-66953032D01*
X53138500Y-66999388D01*
X53138500Y-67650612D01*
X53133935Y-67696968D01*
X53122204Y-67735638D01*
X53103154Y-67771277D01*
X53077517Y-67802517D01*
X53046277Y-67828154D01*
X53010638Y-67847204D01*
X52971968Y-67858935D01*
X52925612Y-67863500D01*
X51849388Y-67863500D01*
X51803032Y-67858935D01*
X51764362Y-67847204D01*
X51728723Y-67828154D01*
X51697483Y-67802517D01*
X51671846Y-67771277D01*
X51652796Y-67735638D01*
X51641065Y-67696968D01*
X51636500Y-67650612D01*
X51636500Y-66999388D01*
X51641065Y-66953032D01*
X51652796Y-66914362D01*
X51671846Y-66878723D01*
X51697483Y-66847483D01*
X51728723Y-66821846D01*
X51764362Y-66802796D01*
X51803032Y-66791065D01*
X51849388Y-66786500D01*
X52925612Y-66786500D01*
X52971968Y-66791065D01*
X52971968Y-66791065D01*
G37*
G36*
X44240718Y-66791065D02*
G01*
X44279388Y-66802796D01*
X44315027Y-66821846D01*
X44346267Y-66847483D01*
X44371904Y-66878723D01*
X44390954Y-66914362D01*
X44402685Y-66953032D01*
X44407250Y-66999388D01*
X44407250Y-67650612D01*
X44402685Y-67696968D01*
X44390954Y-67735638D01*
X44371904Y-67771277D01*
X44346267Y-67802517D01*
X44315027Y-67828154D01*
X44279388Y-67847204D01*
X44240718Y-67858935D01*
X44194362Y-67863500D01*
X43118138Y-67863500D01*
X43071782Y-67858935D01*
X43033112Y-67847204D01*
X42997473Y-67828154D01*
X42966233Y-67802517D01*
X42940596Y-67771277D01*
X42921546Y-67735638D01*
X42909815Y-67696968D01*
X42905250Y-67650612D01*
X42905250Y-66999388D01*
X42909815Y-66953032D01*
X42921546Y-66914362D01*
X42940596Y-66878723D01*
X42966233Y-66847483D01*
X42997473Y-66821846D01*
X43033112Y-66802796D01*
X43071782Y-66791065D01*
X43118138Y-66786500D01*
X44194362Y-66786500D01*
X44240718Y-66791065D01*
X44240718Y-66791065D01*
G37*
G36*
X26689127Y-65024537D02*
G01*
X26858966Y-65076057D01*
X27015491Y-65159722D01*
X27051229Y-65189052D01*
X27152686Y-65272314D01*
X27207754Y-65339416D01*
X27265278Y-65409509D01*
X27348943Y-65566034D01*
X27400463Y-65735873D01*
X27400463Y-65735875D01*
X27413500Y-65868240D01*
X27413500Y-66956760D01*
X27409301Y-66999388D01*
X27400463Y-67089127D01*
X27348943Y-67258966D01*
X27265278Y-67415491D01*
X27235948Y-67451229D01*
X27152686Y-67552686D01*
X27015489Y-67665279D01*
X26883857Y-67735638D01*
X26858965Y-67748943D01*
X26689126Y-67800463D01*
X26512500Y-67817859D01*
X26335873Y-67800463D01*
X26166034Y-67748943D01*
X26009509Y-67665278D01*
X25933466Y-67602871D01*
X25872314Y-67552686D01*
X25759721Y-67415489D01*
X25676058Y-67258967D01*
X25676057Y-67258965D01*
X25624537Y-67089126D01*
X25611500Y-66956757D01*
X25611501Y-65868242D01*
X25624538Y-65735873D01*
X25676058Y-65566034D01*
X25759723Y-65409509D01*
X25817247Y-65339416D01*
X25872315Y-65272314D01*
X25973772Y-65189052D01*
X26009510Y-65159722D01*
X26166035Y-65076057D01*
X26335874Y-65024537D01*
X26512500Y-65007141D01*
X26689127Y-65024537D01*
X26689127Y-65024537D01*
G37*
G36*
X33989127Y-65024537D02*
G01*
X34158966Y-65076057D01*
X34315491Y-65159722D01*
X34351229Y-65189052D01*
X34452686Y-65272314D01*
X34507754Y-65339416D01*
X34565278Y-65409509D01*
X34648943Y-65566034D01*
X34700463Y-65735873D01*
X34700463Y-65735875D01*
X34713500Y-65868240D01*
X34713500Y-66956760D01*
X34709301Y-66999388D01*
X34700463Y-67089127D01*
X34648943Y-67258966D01*
X34565278Y-67415491D01*
X34535948Y-67451229D01*
X34452686Y-67552686D01*
X34315489Y-67665279D01*
X34183857Y-67735638D01*
X34158965Y-67748943D01*
X33989126Y-67800463D01*
X33812500Y-67817859D01*
X33635873Y-67800463D01*
X33466034Y-67748943D01*
X33309509Y-67665278D01*
X33233466Y-67602871D01*
X33172314Y-67552686D01*
X33059721Y-67415489D01*
X32976058Y-67258967D01*
X32976057Y-67258965D01*
X32924537Y-67089126D01*
X32911500Y-66956757D01*
X32911501Y-65868242D01*
X32924538Y-65735873D01*
X32976058Y-65566034D01*
X33059723Y-65409509D01*
X33117247Y-65339416D01*
X33172315Y-65272314D01*
X33273772Y-65189052D01*
X33309510Y-65159722D01*
X33466035Y-65076057D01*
X33635874Y-65024537D01*
X33812500Y-65007141D01*
X33989127Y-65024537D01*
X33989127Y-65024537D01*
G37*
G36*
X32063500Y-67588500D02*
G01*
X28261500Y-67588500D01*
X28261500Y-65236500D01*
X32063500Y-65236500D01*
X32063500Y-67588500D01*
X32063500Y-67588500D01*
G37*
G36*
X91528127Y-63592261D02*
G01*
X91548900Y-63594000D01*
X91555827Y-63594000D01*
X91650754Y-63612882D01*
X91654348Y-63613542D01*
X91749730Y-63629624D01*
X91756203Y-63632085D01*
X91776228Y-63637841D01*
X91783027Y-63639193D01*
X91845414Y-63665034D01*
X91872443Y-63676230D01*
X91875844Y-63677581D01*
X91966255Y-63711961D01*
X91972127Y-63715640D01*
X91990636Y-63725187D01*
X91997045Y-63727842D01*
X92077563Y-63781642D01*
X92080554Y-63783578D01*
X92162557Y-63834959D01*
X92167584Y-63839700D01*
X92183896Y-63852691D01*
X92189652Y-63856537D01*
X92258110Y-63924995D01*
X92260689Y-63927499D01*
X92331090Y-63993889D01*
X92335095Y-63999519D01*
X92348559Y-64015444D01*
X92353459Y-64020344D01*
X92407244Y-64100839D01*
X92409291Y-64103807D01*
X92465380Y-64182645D01*
X92468214Y-64188958D01*
X92478308Y-64207193D01*
X92482158Y-64212955D01*
X92519220Y-64302430D01*
X92520624Y-64305685D01*
X92560265Y-64393973D01*
X92561815Y-64400725D01*
X92568152Y-64420562D01*
X92570807Y-64426973D01*
X92589692Y-64521917D01*
X92590438Y-64525401D01*
X92612098Y-64619751D01*
X92612098Y-64619754D01*
X92612300Y-64626654D01*
X92614647Y-64647370D01*
X92616000Y-64654174D01*
X92616000Y-64750986D01*
X92616053Y-64754584D01*
X92617188Y-64793277D01*
X92616295Y-64806225D01*
X92616000Y-64814797D01*
X92616000Y-64885826D01*
X92610081Y-64915585D01*
X92609604Y-64917979D01*
X92607500Y-64933750D01*
X92569238Y-65488545D01*
X92540376Y-65659730D01*
X92458038Y-65876255D01*
X92335041Y-66072557D01*
X92176111Y-66241090D01*
X91987355Y-66375380D01*
X91776027Y-66470265D01*
X91550249Y-66522098D01*
X91318698Y-66528889D01*
X91318697Y-66528889D01*
X91273012Y-66521186D01*
X91090270Y-66490376D01*
X90873745Y-66408038D01*
X90677443Y-66285041D01*
X90508910Y-66126111D01*
X90374620Y-65937355D01*
X90279735Y-65726027D01*
X90227902Y-65500249D01*
X90222812Y-65326723D01*
X90263704Y-64733794D01*
X90264000Y-64725196D01*
X90264000Y-64654175D01*
X90282882Y-64559250D01*
X90283544Y-64555645D01*
X90289231Y-64521917D01*
X90299624Y-64460270D01*
X90302085Y-64453799D01*
X90307842Y-64433767D01*
X90309193Y-64426974D01*
X90311843Y-64420576D01*
X90346264Y-64337476D01*
X90347553Y-64334230D01*
X90381962Y-64243745D01*
X90385636Y-64237881D01*
X90395187Y-64219365D01*
X90397842Y-64212955D01*
X90451657Y-64132415D01*
X90453577Y-64129449D01*
X90504959Y-64047443D01*
X90509711Y-64042404D01*
X90522689Y-64026107D01*
X90526537Y-64020348D01*
X90594993Y-63951892D01*
X90597546Y-63949262D01*
X90618023Y-63927548D01*
X90663889Y-63878910D01*
X90669521Y-63874903D01*
X90685447Y-63861438D01*
X90690346Y-63856539D01*
X90770824Y-63802766D01*
X90773806Y-63800710D01*
X90852645Y-63744620D01*
X90858955Y-63741787D01*
X90877194Y-63731691D01*
X90882951Y-63727844D01*
X90882954Y-63727843D01*
X90882955Y-63727842D01*
X90972429Y-63690781D01*
X90975687Y-63689375D01*
X91063973Y-63649735D01*
X91070725Y-63648185D01*
X91090562Y-63641848D01*
X91096973Y-63639193D01*
X91191899Y-63620311D01*
X91195446Y-63619551D01*
X91289751Y-63597901D01*
X91292130Y-63597831D01*
X91296665Y-63597698D01*
X91317381Y-63595351D01*
X91324174Y-63594000D01*
X91420959Y-63594000D01*
X91424584Y-63593947D01*
X91521302Y-63591110D01*
X91528127Y-63592261D01*
X91528127Y-63592261D01*
G37*
G36*
X72478127Y-63592261D02*
G01*
X72498900Y-63594000D01*
X72505827Y-63594000D01*
X72600754Y-63612882D01*
X72604348Y-63613542D01*
X72699730Y-63629624D01*
X72706203Y-63632085D01*
X72726228Y-63637841D01*
X72733027Y-63639193D01*
X72795414Y-63665034D01*
X72822443Y-63676230D01*
X72825844Y-63677581D01*
X72916255Y-63711961D01*
X72922127Y-63715640D01*
X72940636Y-63725187D01*
X72947045Y-63727842D01*
X73027563Y-63781642D01*
X73030554Y-63783578D01*
X73112557Y-63834959D01*
X73117584Y-63839700D01*
X73133896Y-63852691D01*
X73139652Y-63856537D01*
X73208110Y-63924995D01*
X73210689Y-63927499D01*
X73281090Y-63993889D01*
X73285095Y-63999519D01*
X73298559Y-64015444D01*
X73303459Y-64020344D01*
X73357244Y-64100839D01*
X73359291Y-64103807D01*
X73415380Y-64182645D01*
X73418214Y-64188958D01*
X73428308Y-64207193D01*
X73432158Y-64212955D01*
X73469220Y-64302430D01*
X73470624Y-64305685D01*
X73510265Y-64393973D01*
X73511815Y-64400725D01*
X73518152Y-64420562D01*
X73520807Y-64426973D01*
X73539692Y-64521917D01*
X73540438Y-64525401D01*
X73562098Y-64619751D01*
X73562098Y-64619754D01*
X73562300Y-64626654D01*
X73564647Y-64647370D01*
X73566000Y-64654174D01*
X73566000Y-64750986D01*
X73566053Y-64754584D01*
X73567188Y-64793277D01*
X73566295Y-64806225D01*
X73566000Y-64814797D01*
X73566000Y-64885826D01*
X73560081Y-64915585D01*
X73559604Y-64917979D01*
X73557500Y-64933750D01*
X73519238Y-65488545D01*
X73490376Y-65659730D01*
X73408038Y-65876255D01*
X73285041Y-66072557D01*
X73126111Y-66241090D01*
X72937355Y-66375380D01*
X72726027Y-66470265D01*
X72500249Y-66522098D01*
X72268698Y-66528889D01*
X72268697Y-66528889D01*
X72223012Y-66521186D01*
X72040270Y-66490376D01*
X71823745Y-66408038D01*
X71627443Y-66285041D01*
X71458910Y-66126111D01*
X71324620Y-65937355D01*
X71229735Y-65726027D01*
X71177902Y-65500249D01*
X71172812Y-65326723D01*
X71213704Y-64733794D01*
X71214000Y-64725196D01*
X71214000Y-64654175D01*
X71232882Y-64559250D01*
X71233544Y-64555645D01*
X71239231Y-64521917D01*
X71249624Y-64460270D01*
X71252085Y-64453799D01*
X71257842Y-64433767D01*
X71259193Y-64426974D01*
X71261843Y-64420576D01*
X71296264Y-64337476D01*
X71297553Y-64334230D01*
X71331962Y-64243745D01*
X71335636Y-64237881D01*
X71345187Y-64219365D01*
X71347842Y-64212955D01*
X71401657Y-64132415D01*
X71403577Y-64129449D01*
X71454959Y-64047443D01*
X71459711Y-64042404D01*
X71472689Y-64026107D01*
X71476537Y-64020348D01*
X71544993Y-63951892D01*
X71547546Y-63949262D01*
X71568023Y-63927548D01*
X71613889Y-63878910D01*
X71619521Y-63874903D01*
X71635447Y-63861438D01*
X71640346Y-63856539D01*
X71720824Y-63802766D01*
X71723806Y-63800710D01*
X71802645Y-63744620D01*
X71808955Y-63741787D01*
X71827194Y-63731691D01*
X71832951Y-63727844D01*
X71832954Y-63727843D01*
X71832955Y-63727842D01*
X71922429Y-63690781D01*
X71925687Y-63689375D01*
X72013973Y-63649735D01*
X72020725Y-63648185D01*
X72040562Y-63641848D01*
X72046973Y-63639193D01*
X72141899Y-63620311D01*
X72145446Y-63619551D01*
X72239751Y-63597901D01*
X72242130Y-63597831D01*
X72246665Y-63597698D01*
X72267381Y-63595351D01*
X72274174Y-63594000D01*
X72370959Y-63594000D01*
X72374584Y-63593947D01*
X72471302Y-63591110D01*
X72478127Y-63592261D01*
X72478127Y-63592261D01*
G37*
G36*
X26689127Y-60524537D02*
G01*
X26858966Y-60576057D01*
X27015491Y-60659722D01*
X27051229Y-60689052D01*
X27152686Y-60772314D01*
X27235948Y-60873771D01*
X27265278Y-60909509D01*
X27348943Y-61066034D01*
X27400463Y-61235873D01*
X27413500Y-61368242D01*
X27413500Y-62456758D01*
X27400463Y-62589127D01*
X27348943Y-62758966D01*
X27265278Y-62915491D01*
X27235948Y-62951229D01*
X27152686Y-63052686D01*
X27015489Y-63165279D01*
X26858967Y-63248942D01*
X26858965Y-63248943D01*
X26689126Y-63300463D01*
X26512500Y-63317859D01*
X26335873Y-63300463D01*
X26166034Y-63248943D01*
X26009509Y-63165278D01*
X25973771Y-63135948D01*
X25872314Y-63052686D01*
X25759721Y-62915489D01*
X25676058Y-62758967D01*
X25676057Y-62758965D01*
X25624537Y-62589126D01*
X25611500Y-62456757D01*
X25611501Y-61368242D01*
X25624538Y-61235873D01*
X25676058Y-61066034D01*
X25759723Y-60909509D01*
X25789053Y-60873771D01*
X25872315Y-60772314D01*
X25973772Y-60689052D01*
X26009510Y-60659722D01*
X26166035Y-60576057D01*
X26335874Y-60524537D01*
X26512500Y-60507141D01*
X26689127Y-60524537D01*
X26689127Y-60524537D01*
G37*
G36*
X33989127Y-60524537D02*
G01*
X34158966Y-60576057D01*
X34315491Y-60659722D01*
X34351229Y-60689052D01*
X34452686Y-60772314D01*
X34535948Y-60873771D01*
X34565278Y-60909509D01*
X34648943Y-61066034D01*
X34700463Y-61235873D01*
X34713500Y-61368242D01*
X34713500Y-62456758D01*
X34700463Y-62589127D01*
X34648943Y-62758966D01*
X34565278Y-62915491D01*
X34535948Y-62951229D01*
X34452686Y-63052686D01*
X34315489Y-63165279D01*
X34158967Y-63248942D01*
X34158965Y-63248943D01*
X33989126Y-63300463D01*
X33812500Y-63317859D01*
X33635873Y-63300463D01*
X33466034Y-63248943D01*
X33309509Y-63165278D01*
X33273771Y-63135948D01*
X33172314Y-63052686D01*
X33059721Y-62915489D01*
X32976058Y-62758967D01*
X32976057Y-62758965D01*
X32924537Y-62589126D01*
X32911500Y-62456757D01*
X32911501Y-61368242D01*
X32924538Y-61235873D01*
X32976058Y-61066034D01*
X33059723Y-60909509D01*
X33089053Y-60873771D01*
X33172315Y-60772314D01*
X33273772Y-60689052D01*
X33309510Y-60659722D01*
X33466035Y-60576057D01*
X33635874Y-60524537D01*
X33812500Y-60507141D01*
X33989127Y-60524537D01*
X33989127Y-60524537D01*
G37*
M02*
