G04 #@! TF.GenerationSoftware,KiCad,Pcbnew,(5.1.4-0)*
G04 #@! TF.CreationDate,2021-10-16T03:16:45+01:00*
G04 #@! TF.ProjectId,PR-4PP,50522d34-5050-42e6-9b69-6361645f7063,rev?*
G04 #@! TF.SameCoordinates,Original*
G04 #@! TF.FileFunction,Legend,Bot*
G04 #@! TF.FilePolarity,Positive*
%FSLAX46Y46*%
G04 Gerber Fmt 4.6, Leading zero omitted, Abs format (unit mm)*
G04 Created by KiCad (PCBNEW (5.1.4-0)) date 2021-10-16 03:16:45*
%MOMM*%
%LPD*%
G04 APERTURE LIST*
%ADD10C,0.150000*%
%ADD11C,0.120000*%
%ADD12C,1.852000*%
%ADD13R,2.007000X2.007000*%
%ADD14C,2.007000*%
%ADD15C,2.352000*%
%ADD16C,4.089800*%
%ADD17C,2.352000*%
%ADD18O,1.802000X2.802000*%
%ADD19R,0.602000X2.352000*%
%ADD20R,1.502000X1.302000*%
%ADD21R,0.652000X1.602000*%
%ADD22R,1.602000X0.652000*%
%ADD23R,1.902000X1.202000*%
%ADD24C,0.100000*%
%ADD25C,1.077000*%
%ADD26C,1.352000*%
%ADD27R,1.302000X1.002000*%
G04 APERTURE END LIST*
D10*
X53815476Y-95361011D02*
X53815476Y-93361011D01*
X53053571Y-93361011D01*
X52863095Y-93456250D01*
X52767857Y-93551488D01*
X52672619Y-93741964D01*
X52672619Y-94027678D01*
X52767857Y-94218154D01*
X52863095Y-94313392D01*
X53053571Y-94408630D01*
X53815476Y-94408630D01*
X50672619Y-95361011D02*
X51339285Y-94408630D01*
X51815476Y-95361011D02*
X51815476Y-93361011D01*
X51053571Y-93361011D01*
X50863095Y-93456250D01*
X50767857Y-93551488D01*
X50672619Y-93741964D01*
X50672619Y-94027678D01*
X50767857Y-94218154D01*
X50863095Y-94313392D01*
X51053571Y-94408630D01*
X51815476Y-94408630D01*
X49815476Y-94599107D02*
X48291666Y-94599107D01*
X46482142Y-94027678D02*
X46482142Y-95361011D01*
X46958333Y-93265773D02*
X47434523Y-94694345D01*
X46196428Y-94694345D01*
X45434523Y-94599107D02*
X43910714Y-94599107D01*
X44672619Y-95361011D02*
X44672619Y-93837202D01*
X42958333Y-94599107D02*
X41434523Y-94599107D01*
X42196428Y-95361011D02*
X42196428Y-93837202D01*
X26312500Y-61912500D02*
X26312500Y-67362500D01*
X34012500Y-61912500D02*
X34012500Y-67362500D01*
X26312500Y-67362500D02*
X34012500Y-67362500D01*
D11*
X50418750Y-69912500D02*
X46418750Y-69912500D01*
X50418750Y-66612500D02*
X50418750Y-69912500D01*
D10*
X43243750Y-83975000D02*
X41968750Y-83975000D01*
X53593750Y-84550000D02*
X52918750Y-84550000D01*
X53593750Y-74200000D02*
X52918750Y-74200000D01*
X43243750Y-74200000D02*
X43918750Y-74200000D01*
X43243750Y-84550000D02*
X43918750Y-84550000D01*
X43243750Y-74200000D02*
X43243750Y-74875000D01*
X53593750Y-74200000D02*
X53593750Y-74875000D01*
X53593750Y-84550000D02*
X53593750Y-83875000D01*
X43243750Y-84550000D02*
X43243750Y-83975000D01*
X34350000Y-91062500D02*
X29150000Y-91062500D01*
X29150000Y-91062500D02*
X29150000Y-96262500D01*
X29150000Y-96262500D02*
X34350000Y-96262500D01*
X34350000Y-96262500D02*
X34350000Y-91062500D01*
X32750000Y-93662500D02*
G75*
G03X32750000Y-93662500I-1000000J0D01*
G01*
D11*
X57233750Y-85189828D02*
X57233750Y-84672672D01*
X58653750Y-85189828D02*
X58653750Y-84672672D01*
X38048000Y-70734422D02*
X38048000Y-71251578D01*
X36628000Y-70734422D02*
X36628000Y-71251578D01*
X30849500Y-72299328D02*
X30849500Y-71782172D01*
X32269500Y-72299328D02*
X32269500Y-71782172D01*
X27674500Y-72299328D02*
X27674500Y-71782172D01*
X29094500Y-72299328D02*
X29094500Y-71782172D01*
X26795814Y-75290000D02*
X25591686Y-75290000D01*
X26795814Y-77110000D02*
X25591686Y-77110000D01*
X97837500Y-91150000D02*
X97837500Y-87250000D01*
X95837500Y-91150000D02*
X95837500Y-87250000D01*
X97837500Y-91150000D02*
X95837500Y-91150000D01*
X78787500Y-91150000D02*
X78787500Y-87250000D01*
X76787500Y-91150000D02*
X76787500Y-87250000D01*
X78787500Y-91150000D02*
X76787500Y-91150000D01*
X97837500Y-72100000D02*
X97837500Y-68200000D01*
X95837500Y-72100000D02*
X95837500Y-68200000D01*
X97837500Y-72100000D02*
X95837500Y-72100000D01*
X78787500Y-72037500D02*
X78787500Y-68137500D01*
X76787500Y-72037500D02*
X76787500Y-68137500D01*
X78787500Y-72037500D02*
X76787500Y-72037500D01*
X38095422Y-77776000D02*
X38612578Y-77776000D01*
X38095422Y-79196000D02*
X38612578Y-79196000D01*
X44366250Y-68003922D02*
X44366250Y-68521078D01*
X42946250Y-68003922D02*
X42946250Y-68521078D01*
X51677500Y-68521078D02*
X51677500Y-68003922D01*
X53097500Y-68521078D02*
X53097500Y-68003922D01*
X39445000Y-83990922D02*
X39445000Y-84508078D01*
X38025000Y-83990922D02*
X38025000Y-84508078D01*
X53598578Y-90118000D02*
X53081422Y-90118000D01*
X53598578Y-88698000D02*
X53081422Y-88698000D01*
X56948000Y-76077578D02*
X56948000Y-75560422D01*
X58368000Y-76077578D02*
X58368000Y-75560422D01*
X39803000Y-71251578D02*
X39803000Y-70734422D01*
X41223000Y-71251578D02*
X41223000Y-70734422D01*
D10*
X31900595Y-63396880D02*
X31900595Y-64206404D01*
X31852976Y-64301642D01*
X31805357Y-64349261D01*
X31710119Y-64396880D01*
X31519642Y-64396880D01*
X31424404Y-64349261D01*
X31376785Y-64301642D01*
X31329166Y-64206404D01*
X31329166Y-63396880D01*
X30900595Y-64349261D02*
X30757738Y-64396880D01*
X30519642Y-64396880D01*
X30424404Y-64349261D01*
X30376785Y-64301642D01*
X30329166Y-64206404D01*
X30329166Y-64111166D01*
X30376785Y-64015928D01*
X30424404Y-63968309D01*
X30519642Y-63920690D01*
X30710119Y-63873071D01*
X30805357Y-63825452D01*
X30852976Y-63777833D01*
X30900595Y-63682595D01*
X30900595Y-63587357D01*
X30852976Y-63492119D01*
X30805357Y-63444500D01*
X30710119Y-63396880D01*
X30472023Y-63396880D01*
X30329166Y-63444500D01*
X29567261Y-63873071D02*
X29424404Y-63920690D01*
X29376785Y-63968309D01*
X29329166Y-64063547D01*
X29329166Y-64206404D01*
X29376785Y-64301642D01*
X29424404Y-64349261D01*
X29519642Y-64396880D01*
X29900595Y-64396880D01*
X29900595Y-63396880D01*
X29567261Y-63396880D01*
X29472023Y-63444500D01*
X29424404Y-63492119D01*
X29376785Y-63587357D01*
X29376785Y-63682595D01*
X29424404Y-63777833D01*
X29472023Y-63825452D01*
X29567261Y-63873071D01*
X29900595Y-63873071D01*
X28376785Y-64396880D02*
X28948214Y-64396880D01*
X28662499Y-64396880D02*
X28662499Y-63396880D01*
X28757738Y-63539738D01*
X28852976Y-63634976D01*
X28948214Y-63682595D01*
X48894940Y-65788690D02*
X48894940Y-66264880D01*
X49228273Y-65264880D02*
X48894940Y-65788690D01*
X48561607Y-65264880D01*
X47704464Y-66264880D02*
X48275892Y-66264880D01*
X47990178Y-66264880D02*
X47990178Y-65264880D01*
X48085416Y-65407738D01*
X48180654Y-65502976D01*
X48275892Y-65550595D01*
X49180654Y-86277380D02*
X49180654Y-87086904D01*
X49133035Y-87182142D01*
X49085416Y-87229761D01*
X48990178Y-87277380D01*
X48799702Y-87277380D01*
X48704464Y-87229761D01*
X48656845Y-87182142D01*
X48609226Y-87086904D01*
X48609226Y-86277380D01*
X47609226Y-87277380D02*
X48180654Y-87277380D01*
X47894940Y-87277380D02*
X47894940Y-86277380D01*
X47990178Y-86420238D01*
X48085416Y-86515476D01*
X48180654Y-86563095D01*
X33083333Y-98131261D02*
X32940476Y-98178880D01*
X32702380Y-98178880D01*
X32607142Y-98131261D01*
X32559523Y-98083642D01*
X32511904Y-97988404D01*
X32511904Y-97893166D01*
X32559523Y-97797928D01*
X32607142Y-97750309D01*
X32702380Y-97702690D01*
X32892857Y-97655071D01*
X32988095Y-97607452D01*
X33035714Y-97559833D01*
X33083333Y-97464595D01*
X33083333Y-97369357D01*
X33035714Y-97274119D01*
X32988095Y-97226500D01*
X32892857Y-97178880D01*
X32654761Y-97178880D01*
X32511904Y-97226500D01*
X32178571Y-97178880D02*
X31940476Y-98178880D01*
X31750000Y-97464595D01*
X31559523Y-98178880D01*
X31321428Y-97178880D01*
X30416666Y-98178880D02*
X30988095Y-98178880D01*
X30702380Y-98178880D02*
X30702380Y-97178880D01*
X30797619Y-97321738D01*
X30892857Y-97416976D01*
X30988095Y-97464595D01*
X60046130Y-84764583D02*
X59569940Y-84431250D01*
X60046130Y-84193154D02*
X59046130Y-84193154D01*
X59046130Y-84574107D01*
X59093750Y-84669345D01*
X59141369Y-84716964D01*
X59236607Y-84764583D01*
X59379464Y-84764583D01*
X59474702Y-84716964D01*
X59522321Y-84669345D01*
X59569940Y-84574107D01*
X59569940Y-84193154D01*
X59379464Y-85621726D02*
X60046130Y-85621726D01*
X58998511Y-85383630D02*
X59712797Y-85145535D01*
X59712797Y-85764583D01*
X36140380Y-70826333D02*
X35664190Y-70493000D01*
X36140380Y-70254904D02*
X35140380Y-70254904D01*
X35140380Y-70635857D01*
X35188000Y-70731095D01*
X35235619Y-70778714D01*
X35330857Y-70826333D01*
X35473714Y-70826333D01*
X35568952Y-70778714D01*
X35616571Y-70731095D01*
X35664190Y-70635857D01*
X35664190Y-70254904D01*
X36140380Y-71778714D02*
X36140380Y-71207285D01*
X36140380Y-71493000D02*
X35140380Y-71493000D01*
X35283238Y-71397761D01*
X35378476Y-71302523D01*
X35426095Y-71207285D01*
X33661880Y-71874083D02*
X33185690Y-71540750D01*
X33661880Y-71302654D02*
X32661880Y-71302654D01*
X32661880Y-71683607D01*
X32709500Y-71778845D01*
X32757119Y-71826464D01*
X32852357Y-71874083D01*
X32995214Y-71874083D01*
X33090452Y-71826464D01*
X33138071Y-71778845D01*
X33185690Y-71683607D01*
X33185690Y-71302654D01*
X32757119Y-72255035D02*
X32709500Y-72302654D01*
X32661880Y-72397892D01*
X32661880Y-72635988D01*
X32709500Y-72731226D01*
X32757119Y-72778845D01*
X32852357Y-72826464D01*
X32947595Y-72826464D01*
X33090452Y-72778845D01*
X33661880Y-72207416D01*
X33661880Y-72826464D01*
X30486880Y-71874083D02*
X30010690Y-71540750D01*
X30486880Y-71302654D02*
X29486880Y-71302654D01*
X29486880Y-71683607D01*
X29534500Y-71778845D01*
X29582119Y-71826464D01*
X29677357Y-71874083D01*
X29820214Y-71874083D01*
X29915452Y-71826464D01*
X29963071Y-71778845D01*
X30010690Y-71683607D01*
X30010690Y-71302654D01*
X29486880Y-72207416D02*
X29486880Y-72826464D01*
X29867833Y-72493130D01*
X29867833Y-72635988D01*
X29915452Y-72731226D01*
X29963071Y-72778845D01*
X30058309Y-72826464D01*
X30296404Y-72826464D01*
X30391642Y-72778845D01*
X30439261Y-72731226D01*
X30486880Y-72635988D01*
X30486880Y-72350273D01*
X30439261Y-72255035D01*
X30391642Y-72207416D01*
X26527083Y-74308571D02*
X26860416Y-74308571D01*
X26860416Y-74832380D02*
X26860416Y-73832380D01*
X26384226Y-73832380D01*
X25479464Y-74832380D02*
X26050892Y-74832380D01*
X25765178Y-74832380D02*
X25765178Y-73832380D01*
X25860416Y-73975238D01*
X25955654Y-74070476D01*
X26050892Y-74118095D01*
X99289880Y-88161904D02*
X98289880Y-88161904D01*
X98289880Y-88400000D01*
X98337500Y-88542857D01*
X98432738Y-88638095D01*
X98527976Y-88685714D01*
X98718452Y-88733333D01*
X98861309Y-88733333D01*
X99051785Y-88685714D01*
X99147023Y-88638095D01*
X99242261Y-88542857D01*
X99289880Y-88400000D01*
X99289880Y-88161904D01*
X98623214Y-89590476D02*
X99289880Y-89590476D01*
X98242261Y-89352380D02*
X98956547Y-89114285D01*
X98956547Y-89733333D01*
X79335119Y-89638095D02*
X80335119Y-89638095D01*
X80335119Y-89400000D01*
X80287500Y-89257142D01*
X80192261Y-89161904D01*
X80097023Y-89114285D01*
X79906547Y-89066666D01*
X79763690Y-89066666D01*
X79573214Y-89114285D01*
X79477976Y-89161904D01*
X79382738Y-89257142D01*
X79335119Y-89400000D01*
X79335119Y-89638095D01*
X80335119Y-88733333D02*
X80335119Y-88114285D01*
X79954166Y-88447619D01*
X79954166Y-88304761D01*
X79906547Y-88209523D01*
X79858928Y-88161904D01*
X79763690Y-88114285D01*
X79525595Y-88114285D01*
X79430357Y-88161904D01*
X79382738Y-88209523D01*
X79335119Y-88304761D01*
X79335119Y-88590476D01*
X79382738Y-88685714D01*
X79430357Y-88733333D01*
X99289880Y-69111904D02*
X98289880Y-69111904D01*
X98289880Y-69350000D01*
X98337500Y-69492857D01*
X98432738Y-69588095D01*
X98527976Y-69635714D01*
X98718452Y-69683333D01*
X98861309Y-69683333D01*
X99051785Y-69635714D01*
X99147023Y-69588095D01*
X99242261Y-69492857D01*
X99289880Y-69350000D01*
X99289880Y-69111904D01*
X98385119Y-70064285D02*
X98337500Y-70111904D01*
X98289880Y-70207142D01*
X98289880Y-70445238D01*
X98337500Y-70540476D01*
X98385119Y-70588095D01*
X98480357Y-70635714D01*
X98575595Y-70635714D01*
X98718452Y-70588095D01*
X99289880Y-70016666D01*
X99289880Y-70635714D01*
X80239880Y-69049404D02*
X79239880Y-69049404D01*
X79239880Y-69287500D01*
X79287500Y-69430357D01*
X79382738Y-69525595D01*
X79477976Y-69573214D01*
X79668452Y-69620833D01*
X79811309Y-69620833D01*
X80001785Y-69573214D01*
X80097023Y-69525595D01*
X80192261Y-69430357D01*
X80239880Y-69287500D01*
X80239880Y-69049404D01*
X80239880Y-70573214D02*
X80239880Y-70001785D01*
X80239880Y-70287500D02*
X79239880Y-70287500D01*
X79382738Y-70192261D01*
X79477976Y-70097023D01*
X79525595Y-70001785D01*
X38520666Y-80493142D02*
X38568285Y-80540761D01*
X38711142Y-80588380D01*
X38806380Y-80588380D01*
X38949238Y-80540761D01*
X39044476Y-80445523D01*
X39092095Y-80350285D01*
X39139714Y-80159809D01*
X39139714Y-80016952D01*
X39092095Y-79826476D01*
X39044476Y-79731238D01*
X38949238Y-79636000D01*
X38806380Y-79588380D01*
X38711142Y-79588380D01*
X38568285Y-79636000D01*
X38520666Y-79683619D01*
X38187333Y-79588380D02*
X37568285Y-79588380D01*
X37901619Y-79969333D01*
X37758761Y-79969333D01*
X37663523Y-80016952D01*
X37615904Y-80064571D01*
X37568285Y-80159809D01*
X37568285Y-80397904D01*
X37615904Y-80493142D01*
X37663523Y-80540761D01*
X37758761Y-80588380D01*
X38044476Y-80588380D01*
X38139714Y-80540761D01*
X38187333Y-80493142D01*
X42411011Y-68024404D02*
X42458630Y-67929166D01*
X42458630Y-67738690D01*
X42411011Y-67643452D01*
X42363392Y-67595833D01*
X42268154Y-67548214D01*
X41982440Y-67548214D01*
X41887202Y-67595833D01*
X41839583Y-67643452D01*
X41791964Y-67738690D01*
X41791964Y-67929166D01*
X41839583Y-68024404D01*
X41553869Y-68405357D02*
X41506250Y-68452976D01*
X41458630Y-68548214D01*
X41458630Y-68786309D01*
X41506250Y-68881547D01*
X41553869Y-68929166D01*
X41649107Y-68976785D01*
X41744345Y-68976785D01*
X41887202Y-68929166D01*
X42458630Y-68357738D01*
X42458630Y-68976785D01*
X54394642Y-68095833D02*
X54442261Y-68048214D01*
X54489880Y-67905357D01*
X54489880Y-67810119D01*
X54442261Y-67667261D01*
X54347023Y-67572023D01*
X54251785Y-67524404D01*
X54061309Y-67476785D01*
X53918452Y-67476785D01*
X53727976Y-67524404D01*
X53632738Y-67572023D01*
X53537500Y-67667261D01*
X53489880Y-67810119D01*
X53489880Y-67905357D01*
X53537500Y-68048214D01*
X53585119Y-68095833D01*
X54489880Y-69048214D02*
X54489880Y-68476785D01*
X54489880Y-68762500D02*
X53489880Y-68762500D01*
X53632738Y-68667261D01*
X53727976Y-68572023D01*
X53775595Y-68476785D01*
X37442142Y-84082833D02*
X37489761Y-84035214D01*
X37537380Y-83892357D01*
X37537380Y-83797119D01*
X37489761Y-83654261D01*
X37394523Y-83559023D01*
X37299285Y-83511404D01*
X37108809Y-83463785D01*
X36965952Y-83463785D01*
X36775476Y-83511404D01*
X36680238Y-83559023D01*
X36585000Y-83654261D01*
X36537380Y-83797119D01*
X36537380Y-83892357D01*
X36585000Y-84035214D01*
X36632619Y-84082833D01*
X36537380Y-84416166D02*
X36537380Y-85082833D01*
X37537380Y-84654261D01*
X53506666Y-88115142D02*
X53554285Y-88162761D01*
X53697142Y-88210380D01*
X53792380Y-88210380D01*
X53935238Y-88162761D01*
X54030476Y-88067523D01*
X54078095Y-87972285D01*
X54125714Y-87781809D01*
X54125714Y-87638952D01*
X54078095Y-87448476D01*
X54030476Y-87353238D01*
X53935238Y-87258000D01*
X53792380Y-87210380D01*
X53697142Y-87210380D01*
X53554285Y-87258000D01*
X53506666Y-87305619D01*
X52649523Y-87210380D02*
X52840000Y-87210380D01*
X52935238Y-87258000D01*
X52982857Y-87305619D01*
X53078095Y-87448476D01*
X53125714Y-87638952D01*
X53125714Y-88019904D01*
X53078095Y-88115142D01*
X53030476Y-88162761D01*
X52935238Y-88210380D01*
X52744761Y-88210380D01*
X52649523Y-88162761D01*
X52601904Y-88115142D01*
X52554285Y-88019904D01*
X52554285Y-87781809D01*
X52601904Y-87686571D01*
X52649523Y-87638952D01*
X52744761Y-87591333D01*
X52935238Y-87591333D01*
X53030476Y-87638952D01*
X53078095Y-87686571D01*
X53125714Y-87781809D01*
X59665142Y-75652333D02*
X59712761Y-75604714D01*
X59760380Y-75461857D01*
X59760380Y-75366619D01*
X59712761Y-75223761D01*
X59617523Y-75128523D01*
X59522285Y-75080904D01*
X59331809Y-75033285D01*
X59188952Y-75033285D01*
X58998476Y-75080904D01*
X58903238Y-75128523D01*
X58808000Y-75223761D01*
X58760380Y-75366619D01*
X58760380Y-75461857D01*
X58808000Y-75604714D01*
X58855619Y-75652333D01*
X58760380Y-76557095D02*
X58760380Y-76080904D01*
X59236571Y-76033285D01*
X59188952Y-76080904D01*
X59141333Y-76176142D01*
X59141333Y-76414238D01*
X59188952Y-76509476D01*
X59236571Y-76557095D01*
X59331809Y-76604714D01*
X59569904Y-76604714D01*
X59665142Y-76557095D01*
X59712761Y-76509476D01*
X59760380Y-76414238D01*
X59760380Y-76176142D01*
X59712761Y-76080904D01*
X59665142Y-76033285D01*
X42520142Y-70826333D02*
X42567761Y-70778714D01*
X42615380Y-70635857D01*
X42615380Y-70540619D01*
X42567761Y-70397761D01*
X42472523Y-70302523D01*
X42377285Y-70254904D01*
X42186809Y-70207285D01*
X42043952Y-70207285D01*
X41853476Y-70254904D01*
X41758238Y-70302523D01*
X41663000Y-70397761D01*
X41615380Y-70540619D01*
X41615380Y-70635857D01*
X41663000Y-70778714D01*
X41710619Y-70826333D01*
X41948714Y-71683476D02*
X42615380Y-71683476D01*
X41567761Y-71445380D02*
X42282047Y-71207285D01*
X42282047Y-71826333D01*
%LPC*%
D12*
X74930000Y-88900000D03*
X64770000Y-88900000D03*
D13*
X71120000Y-93980000D03*
D14*
X68580000Y-93980000D03*
D15*
X67350000Y-84900000D03*
D16*
X69850000Y-88900000D03*
D15*
X66695001Y-85630000D03*
D17*
X66040000Y-86360000D02*
X67350002Y-84900000D01*
D15*
X72390000Y-83820000D03*
X72370000Y-84110000D03*
D17*
X72350000Y-84400000D02*
X72390000Y-83820000D01*
D12*
X93980000Y-69850000D03*
X83820000Y-69850000D03*
D13*
X90170000Y-74930000D03*
D14*
X87630000Y-74930000D03*
D15*
X86400000Y-65850000D03*
D16*
X88900000Y-69850000D03*
D15*
X85745001Y-66580000D03*
D17*
X85090000Y-67310000D02*
X86400002Y-65850000D01*
D15*
X91440000Y-64770000D03*
X91420000Y-65060000D03*
D17*
X91400000Y-65350000D02*
X91440000Y-64770000D01*
D12*
X74930000Y-69850000D03*
X64770000Y-69850000D03*
D13*
X71120000Y-74930000D03*
D14*
X68580000Y-74930000D03*
D15*
X67350000Y-65850000D03*
D16*
X69850000Y-69850000D03*
D15*
X66695001Y-66580000D03*
D17*
X66040000Y-67310000D02*
X67350002Y-65850000D01*
D15*
X72390000Y-64770000D03*
X72370000Y-65060000D03*
D17*
X72350000Y-65350000D02*
X72390000Y-64770000D01*
D18*
X26512500Y-61912500D03*
X33812500Y-61912500D03*
X33812500Y-66412500D03*
X26512500Y-66412500D03*
D19*
X28562500Y-66412500D03*
X29362500Y-66412500D03*
X30162500Y-66412500D03*
X30962500Y-66412500D03*
X31762500Y-66412500D03*
D20*
X49518750Y-67412500D03*
X47318750Y-67412500D03*
X47318750Y-69112500D03*
X49518750Y-69112500D03*
D21*
X44418750Y-85075000D03*
X45218750Y-85075000D03*
X46018750Y-85075000D03*
X46818750Y-85075000D03*
X47618750Y-85075000D03*
X48418750Y-85075000D03*
X49218750Y-85075000D03*
X50018750Y-85075000D03*
X50818750Y-85075000D03*
X51618750Y-85075000D03*
X52418750Y-85075000D03*
D22*
X54118750Y-83375000D03*
X54118750Y-82575000D03*
X54118750Y-81775000D03*
X54118750Y-80975000D03*
X54118750Y-80175000D03*
X54118750Y-79375000D03*
X54118750Y-78575000D03*
X54118750Y-77775000D03*
X54118750Y-76975000D03*
X54118750Y-76175000D03*
X54118750Y-75375000D03*
D21*
X52418750Y-73675000D03*
X51618750Y-73675000D03*
X50818750Y-73675000D03*
X50018750Y-73675000D03*
X49218750Y-73675000D03*
X48418750Y-73675000D03*
X47618750Y-73675000D03*
X46818750Y-73675000D03*
X46018750Y-73675000D03*
X45218750Y-73675000D03*
X44418750Y-73675000D03*
D22*
X42718750Y-75375000D03*
X42718750Y-76175000D03*
X42718750Y-76975000D03*
X42718750Y-77775000D03*
X42718750Y-78575000D03*
X42718750Y-79375000D03*
X42718750Y-80175000D03*
X42718750Y-80975000D03*
X42718750Y-81775000D03*
X42718750Y-82575000D03*
X42718750Y-83375000D03*
D23*
X34850000Y-95512500D03*
X28650000Y-91812500D03*
X34850000Y-91812500D03*
X28650000Y-95512500D03*
D24*
G36*
X58451891Y-83456547D02*
G01*
X58478028Y-83460424D01*
X58503659Y-83466844D01*
X58528538Y-83475745D01*
X58552424Y-83487043D01*
X58575087Y-83500627D01*
X58596310Y-83516367D01*
X58615889Y-83534111D01*
X58633633Y-83553690D01*
X58649373Y-83574913D01*
X58662957Y-83597576D01*
X58674255Y-83621462D01*
X58683156Y-83646341D01*
X58689576Y-83671972D01*
X58693453Y-83698109D01*
X58694750Y-83724500D01*
X58694750Y-84263000D01*
X58693453Y-84289391D01*
X58689576Y-84315528D01*
X58683156Y-84341159D01*
X58674255Y-84366038D01*
X58662957Y-84389924D01*
X58649373Y-84412587D01*
X58633633Y-84433810D01*
X58615889Y-84453389D01*
X58596310Y-84471133D01*
X58575087Y-84486873D01*
X58552424Y-84500457D01*
X58528538Y-84511755D01*
X58503659Y-84520656D01*
X58478028Y-84527076D01*
X58451891Y-84530953D01*
X58425500Y-84532250D01*
X57462000Y-84532250D01*
X57435609Y-84530953D01*
X57409472Y-84527076D01*
X57383841Y-84520656D01*
X57358962Y-84511755D01*
X57335076Y-84500457D01*
X57312413Y-84486873D01*
X57291190Y-84471133D01*
X57271611Y-84453389D01*
X57253867Y-84433810D01*
X57238127Y-84412587D01*
X57224543Y-84389924D01*
X57213245Y-84366038D01*
X57204344Y-84341159D01*
X57197924Y-84315528D01*
X57194047Y-84289391D01*
X57192750Y-84263000D01*
X57192750Y-83724500D01*
X57194047Y-83698109D01*
X57197924Y-83671972D01*
X57204344Y-83646341D01*
X57213245Y-83621462D01*
X57224543Y-83597576D01*
X57238127Y-83574913D01*
X57253867Y-83553690D01*
X57271611Y-83534111D01*
X57291190Y-83516367D01*
X57312413Y-83500627D01*
X57335076Y-83487043D01*
X57358962Y-83475745D01*
X57383841Y-83466844D01*
X57409472Y-83460424D01*
X57435609Y-83456547D01*
X57462000Y-83455250D01*
X58425500Y-83455250D01*
X58451891Y-83456547D01*
X58451891Y-83456547D01*
G37*
D25*
X57943750Y-83993750D03*
D24*
G36*
X58451891Y-85331547D02*
G01*
X58478028Y-85335424D01*
X58503659Y-85341844D01*
X58528538Y-85350745D01*
X58552424Y-85362043D01*
X58575087Y-85375627D01*
X58596310Y-85391367D01*
X58615889Y-85409111D01*
X58633633Y-85428690D01*
X58649373Y-85449913D01*
X58662957Y-85472576D01*
X58674255Y-85496462D01*
X58683156Y-85521341D01*
X58689576Y-85546972D01*
X58693453Y-85573109D01*
X58694750Y-85599500D01*
X58694750Y-86138000D01*
X58693453Y-86164391D01*
X58689576Y-86190528D01*
X58683156Y-86216159D01*
X58674255Y-86241038D01*
X58662957Y-86264924D01*
X58649373Y-86287587D01*
X58633633Y-86308810D01*
X58615889Y-86328389D01*
X58596310Y-86346133D01*
X58575087Y-86361873D01*
X58552424Y-86375457D01*
X58528538Y-86386755D01*
X58503659Y-86395656D01*
X58478028Y-86402076D01*
X58451891Y-86405953D01*
X58425500Y-86407250D01*
X57462000Y-86407250D01*
X57435609Y-86405953D01*
X57409472Y-86402076D01*
X57383841Y-86395656D01*
X57358962Y-86386755D01*
X57335076Y-86375457D01*
X57312413Y-86361873D01*
X57291190Y-86346133D01*
X57271611Y-86328389D01*
X57253867Y-86308810D01*
X57238127Y-86287587D01*
X57224543Y-86264924D01*
X57213245Y-86241038D01*
X57204344Y-86216159D01*
X57197924Y-86190528D01*
X57194047Y-86164391D01*
X57192750Y-86138000D01*
X57192750Y-85599500D01*
X57194047Y-85573109D01*
X57197924Y-85546972D01*
X57204344Y-85521341D01*
X57213245Y-85496462D01*
X57224543Y-85472576D01*
X57238127Y-85449913D01*
X57253867Y-85428690D01*
X57271611Y-85409111D01*
X57291190Y-85391367D01*
X57312413Y-85375627D01*
X57335076Y-85362043D01*
X57358962Y-85350745D01*
X57383841Y-85341844D01*
X57409472Y-85335424D01*
X57435609Y-85331547D01*
X57462000Y-85330250D01*
X58425500Y-85330250D01*
X58451891Y-85331547D01*
X58451891Y-85331547D01*
G37*
D25*
X57943750Y-85868750D03*
D24*
G36*
X37846141Y-71393297D02*
G01*
X37872278Y-71397174D01*
X37897909Y-71403594D01*
X37922788Y-71412495D01*
X37946674Y-71423793D01*
X37969337Y-71437377D01*
X37990560Y-71453117D01*
X38010139Y-71470861D01*
X38027883Y-71490440D01*
X38043623Y-71511663D01*
X38057207Y-71534326D01*
X38068505Y-71558212D01*
X38077406Y-71583091D01*
X38083826Y-71608722D01*
X38087703Y-71634859D01*
X38089000Y-71661250D01*
X38089000Y-72199750D01*
X38087703Y-72226141D01*
X38083826Y-72252278D01*
X38077406Y-72277909D01*
X38068505Y-72302788D01*
X38057207Y-72326674D01*
X38043623Y-72349337D01*
X38027883Y-72370560D01*
X38010139Y-72390139D01*
X37990560Y-72407883D01*
X37969337Y-72423623D01*
X37946674Y-72437207D01*
X37922788Y-72448505D01*
X37897909Y-72457406D01*
X37872278Y-72463826D01*
X37846141Y-72467703D01*
X37819750Y-72469000D01*
X36856250Y-72469000D01*
X36829859Y-72467703D01*
X36803722Y-72463826D01*
X36778091Y-72457406D01*
X36753212Y-72448505D01*
X36729326Y-72437207D01*
X36706663Y-72423623D01*
X36685440Y-72407883D01*
X36665861Y-72390139D01*
X36648117Y-72370560D01*
X36632377Y-72349337D01*
X36618793Y-72326674D01*
X36607495Y-72302788D01*
X36598594Y-72277909D01*
X36592174Y-72252278D01*
X36588297Y-72226141D01*
X36587000Y-72199750D01*
X36587000Y-71661250D01*
X36588297Y-71634859D01*
X36592174Y-71608722D01*
X36598594Y-71583091D01*
X36607495Y-71558212D01*
X36618793Y-71534326D01*
X36632377Y-71511663D01*
X36648117Y-71490440D01*
X36665861Y-71470861D01*
X36685440Y-71453117D01*
X36706663Y-71437377D01*
X36729326Y-71423793D01*
X36753212Y-71412495D01*
X36778091Y-71403594D01*
X36803722Y-71397174D01*
X36829859Y-71393297D01*
X36856250Y-71392000D01*
X37819750Y-71392000D01*
X37846141Y-71393297D01*
X37846141Y-71393297D01*
G37*
D25*
X37338000Y-71930500D03*
D24*
G36*
X37846141Y-69518297D02*
G01*
X37872278Y-69522174D01*
X37897909Y-69528594D01*
X37922788Y-69537495D01*
X37946674Y-69548793D01*
X37969337Y-69562377D01*
X37990560Y-69578117D01*
X38010139Y-69595861D01*
X38027883Y-69615440D01*
X38043623Y-69636663D01*
X38057207Y-69659326D01*
X38068505Y-69683212D01*
X38077406Y-69708091D01*
X38083826Y-69733722D01*
X38087703Y-69759859D01*
X38089000Y-69786250D01*
X38089000Y-70324750D01*
X38087703Y-70351141D01*
X38083826Y-70377278D01*
X38077406Y-70402909D01*
X38068505Y-70427788D01*
X38057207Y-70451674D01*
X38043623Y-70474337D01*
X38027883Y-70495560D01*
X38010139Y-70515139D01*
X37990560Y-70532883D01*
X37969337Y-70548623D01*
X37946674Y-70562207D01*
X37922788Y-70573505D01*
X37897909Y-70582406D01*
X37872278Y-70588826D01*
X37846141Y-70592703D01*
X37819750Y-70594000D01*
X36856250Y-70594000D01*
X36829859Y-70592703D01*
X36803722Y-70588826D01*
X36778091Y-70582406D01*
X36753212Y-70573505D01*
X36729326Y-70562207D01*
X36706663Y-70548623D01*
X36685440Y-70532883D01*
X36665861Y-70515139D01*
X36648117Y-70495560D01*
X36632377Y-70474337D01*
X36618793Y-70451674D01*
X36607495Y-70427788D01*
X36598594Y-70402909D01*
X36592174Y-70377278D01*
X36588297Y-70351141D01*
X36587000Y-70324750D01*
X36587000Y-69786250D01*
X36588297Y-69759859D01*
X36592174Y-69733722D01*
X36598594Y-69708091D01*
X36607495Y-69683212D01*
X36618793Y-69659326D01*
X36632377Y-69636663D01*
X36648117Y-69615440D01*
X36665861Y-69595861D01*
X36685440Y-69578117D01*
X36706663Y-69562377D01*
X36729326Y-69548793D01*
X36753212Y-69537495D01*
X36778091Y-69528594D01*
X36803722Y-69522174D01*
X36829859Y-69518297D01*
X36856250Y-69517000D01*
X37819750Y-69517000D01*
X37846141Y-69518297D01*
X37846141Y-69518297D01*
G37*
D25*
X37338000Y-70055500D03*
D24*
G36*
X32067641Y-70566047D02*
G01*
X32093778Y-70569924D01*
X32119409Y-70576344D01*
X32144288Y-70585245D01*
X32168174Y-70596543D01*
X32190837Y-70610127D01*
X32212060Y-70625867D01*
X32231639Y-70643611D01*
X32249383Y-70663190D01*
X32265123Y-70684413D01*
X32278707Y-70707076D01*
X32290005Y-70730962D01*
X32298906Y-70755841D01*
X32305326Y-70781472D01*
X32309203Y-70807609D01*
X32310500Y-70834000D01*
X32310500Y-71372500D01*
X32309203Y-71398891D01*
X32305326Y-71425028D01*
X32298906Y-71450659D01*
X32290005Y-71475538D01*
X32278707Y-71499424D01*
X32265123Y-71522087D01*
X32249383Y-71543310D01*
X32231639Y-71562889D01*
X32212060Y-71580633D01*
X32190837Y-71596373D01*
X32168174Y-71609957D01*
X32144288Y-71621255D01*
X32119409Y-71630156D01*
X32093778Y-71636576D01*
X32067641Y-71640453D01*
X32041250Y-71641750D01*
X31077750Y-71641750D01*
X31051359Y-71640453D01*
X31025222Y-71636576D01*
X30999591Y-71630156D01*
X30974712Y-71621255D01*
X30950826Y-71609957D01*
X30928163Y-71596373D01*
X30906940Y-71580633D01*
X30887361Y-71562889D01*
X30869617Y-71543310D01*
X30853877Y-71522087D01*
X30840293Y-71499424D01*
X30828995Y-71475538D01*
X30820094Y-71450659D01*
X30813674Y-71425028D01*
X30809797Y-71398891D01*
X30808500Y-71372500D01*
X30808500Y-70834000D01*
X30809797Y-70807609D01*
X30813674Y-70781472D01*
X30820094Y-70755841D01*
X30828995Y-70730962D01*
X30840293Y-70707076D01*
X30853877Y-70684413D01*
X30869617Y-70663190D01*
X30887361Y-70643611D01*
X30906940Y-70625867D01*
X30928163Y-70610127D01*
X30950826Y-70596543D01*
X30974712Y-70585245D01*
X30999591Y-70576344D01*
X31025222Y-70569924D01*
X31051359Y-70566047D01*
X31077750Y-70564750D01*
X32041250Y-70564750D01*
X32067641Y-70566047D01*
X32067641Y-70566047D01*
G37*
D25*
X31559500Y-71103250D03*
D24*
G36*
X32067641Y-72441047D02*
G01*
X32093778Y-72444924D01*
X32119409Y-72451344D01*
X32144288Y-72460245D01*
X32168174Y-72471543D01*
X32190837Y-72485127D01*
X32212060Y-72500867D01*
X32231639Y-72518611D01*
X32249383Y-72538190D01*
X32265123Y-72559413D01*
X32278707Y-72582076D01*
X32290005Y-72605962D01*
X32298906Y-72630841D01*
X32305326Y-72656472D01*
X32309203Y-72682609D01*
X32310500Y-72709000D01*
X32310500Y-73247500D01*
X32309203Y-73273891D01*
X32305326Y-73300028D01*
X32298906Y-73325659D01*
X32290005Y-73350538D01*
X32278707Y-73374424D01*
X32265123Y-73397087D01*
X32249383Y-73418310D01*
X32231639Y-73437889D01*
X32212060Y-73455633D01*
X32190837Y-73471373D01*
X32168174Y-73484957D01*
X32144288Y-73496255D01*
X32119409Y-73505156D01*
X32093778Y-73511576D01*
X32067641Y-73515453D01*
X32041250Y-73516750D01*
X31077750Y-73516750D01*
X31051359Y-73515453D01*
X31025222Y-73511576D01*
X30999591Y-73505156D01*
X30974712Y-73496255D01*
X30950826Y-73484957D01*
X30928163Y-73471373D01*
X30906940Y-73455633D01*
X30887361Y-73437889D01*
X30869617Y-73418310D01*
X30853877Y-73397087D01*
X30840293Y-73374424D01*
X30828995Y-73350538D01*
X30820094Y-73325659D01*
X30813674Y-73300028D01*
X30809797Y-73273891D01*
X30808500Y-73247500D01*
X30808500Y-72709000D01*
X30809797Y-72682609D01*
X30813674Y-72656472D01*
X30820094Y-72630841D01*
X30828995Y-72605962D01*
X30840293Y-72582076D01*
X30853877Y-72559413D01*
X30869617Y-72538190D01*
X30887361Y-72518611D01*
X30906940Y-72500867D01*
X30928163Y-72485127D01*
X30950826Y-72471543D01*
X30974712Y-72460245D01*
X30999591Y-72451344D01*
X31025222Y-72444924D01*
X31051359Y-72441047D01*
X31077750Y-72439750D01*
X32041250Y-72439750D01*
X32067641Y-72441047D01*
X32067641Y-72441047D01*
G37*
D25*
X31559500Y-72978250D03*
D24*
G36*
X28892641Y-70566047D02*
G01*
X28918778Y-70569924D01*
X28944409Y-70576344D01*
X28969288Y-70585245D01*
X28993174Y-70596543D01*
X29015837Y-70610127D01*
X29037060Y-70625867D01*
X29056639Y-70643611D01*
X29074383Y-70663190D01*
X29090123Y-70684413D01*
X29103707Y-70707076D01*
X29115005Y-70730962D01*
X29123906Y-70755841D01*
X29130326Y-70781472D01*
X29134203Y-70807609D01*
X29135500Y-70834000D01*
X29135500Y-71372500D01*
X29134203Y-71398891D01*
X29130326Y-71425028D01*
X29123906Y-71450659D01*
X29115005Y-71475538D01*
X29103707Y-71499424D01*
X29090123Y-71522087D01*
X29074383Y-71543310D01*
X29056639Y-71562889D01*
X29037060Y-71580633D01*
X29015837Y-71596373D01*
X28993174Y-71609957D01*
X28969288Y-71621255D01*
X28944409Y-71630156D01*
X28918778Y-71636576D01*
X28892641Y-71640453D01*
X28866250Y-71641750D01*
X27902750Y-71641750D01*
X27876359Y-71640453D01*
X27850222Y-71636576D01*
X27824591Y-71630156D01*
X27799712Y-71621255D01*
X27775826Y-71609957D01*
X27753163Y-71596373D01*
X27731940Y-71580633D01*
X27712361Y-71562889D01*
X27694617Y-71543310D01*
X27678877Y-71522087D01*
X27665293Y-71499424D01*
X27653995Y-71475538D01*
X27645094Y-71450659D01*
X27638674Y-71425028D01*
X27634797Y-71398891D01*
X27633500Y-71372500D01*
X27633500Y-70834000D01*
X27634797Y-70807609D01*
X27638674Y-70781472D01*
X27645094Y-70755841D01*
X27653995Y-70730962D01*
X27665293Y-70707076D01*
X27678877Y-70684413D01*
X27694617Y-70663190D01*
X27712361Y-70643611D01*
X27731940Y-70625867D01*
X27753163Y-70610127D01*
X27775826Y-70596543D01*
X27799712Y-70585245D01*
X27824591Y-70576344D01*
X27850222Y-70569924D01*
X27876359Y-70566047D01*
X27902750Y-70564750D01*
X28866250Y-70564750D01*
X28892641Y-70566047D01*
X28892641Y-70566047D01*
G37*
D25*
X28384500Y-71103250D03*
D24*
G36*
X28892641Y-72441047D02*
G01*
X28918778Y-72444924D01*
X28944409Y-72451344D01*
X28969288Y-72460245D01*
X28993174Y-72471543D01*
X29015837Y-72485127D01*
X29037060Y-72500867D01*
X29056639Y-72518611D01*
X29074383Y-72538190D01*
X29090123Y-72559413D01*
X29103707Y-72582076D01*
X29115005Y-72605962D01*
X29123906Y-72630841D01*
X29130326Y-72656472D01*
X29134203Y-72682609D01*
X29135500Y-72709000D01*
X29135500Y-73247500D01*
X29134203Y-73273891D01*
X29130326Y-73300028D01*
X29123906Y-73325659D01*
X29115005Y-73350538D01*
X29103707Y-73374424D01*
X29090123Y-73397087D01*
X29074383Y-73418310D01*
X29056639Y-73437889D01*
X29037060Y-73455633D01*
X29015837Y-73471373D01*
X28993174Y-73484957D01*
X28969288Y-73496255D01*
X28944409Y-73505156D01*
X28918778Y-73511576D01*
X28892641Y-73515453D01*
X28866250Y-73516750D01*
X27902750Y-73516750D01*
X27876359Y-73515453D01*
X27850222Y-73511576D01*
X27824591Y-73505156D01*
X27799712Y-73496255D01*
X27775826Y-73484957D01*
X27753163Y-73471373D01*
X27731940Y-73455633D01*
X27712361Y-73437889D01*
X27694617Y-73418310D01*
X27678877Y-73397087D01*
X27665293Y-73374424D01*
X27653995Y-73350538D01*
X27645094Y-73325659D01*
X27638674Y-73300028D01*
X27634797Y-73273891D01*
X27633500Y-73247500D01*
X27633500Y-72709000D01*
X27634797Y-72682609D01*
X27638674Y-72656472D01*
X27645094Y-72630841D01*
X27653995Y-72605962D01*
X27665293Y-72582076D01*
X27678877Y-72559413D01*
X27694617Y-72538190D01*
X27712361Y-72518611D01*
X27731940Y-72500867D01*
X27753163Y-72485127D01*
X27775826Y-72471543D01*
X27799712Y-72460245D01*
X27824591Y-72451344D01*
X27850222Y-72444924D01*
X27876359Y-72441047D01*
X27902750Y-72439750D01*
X28866250Y-72439750D01*
X28892641Y-72441047D01*
X28892641Y-72441047D01*
G37*
D25*
X28384500Y-72978250D03*
D12*
X93980000Y-88900000D03*
X83820000Y-88900000D03*
D13*
X90170000Y-93980000D03*
D14*
X87630000Y-93980000D03*
D15*
X86400000Y-84900000D03*
D16*
X88900000Y-88900000D03*
D15*
X85745001Y-85630000D03*
D17*
X85090000Y-86360000D02*
X86400002Y-84900000D01*
D15*
X91440000Y-83820000D03*
X91420000Y-84110000D03*
D17*
X91400000Y-84400000D02*
X91440000Y-83820000D01*
D24*
G36*
X28025854Y-75275302D02*
G01*
X28052102Y-75279196D01*
X28077843Y-75285643D01*
X28102828Y-75294583D01*
X28126816Y-75305928D01*
X28149576Y-75319571D01*
X28170890Y-75335378D01*
X28190552Y-75353198D01*
X28208372Y-75372860D01*
X28224179Y-75394174D01*
X28237822Y-75416934D01*
X28249167Y-75440922D01*
X28258107Y-75465907D01*
X28264554Y-75491648D01*
X28268448Y-75517896D01*
X28269750Y-75544400D01*
X28269750Y-76855600D01*
X28268448Y-76882104D01*
X28264554Y-76908352D01*
X28258107Y-76934093D01*
X28249167Y-76959078D01*
X28237822Y-76983066D01*
X28224179Y-77005826D01*
X28208372Y-77027140D01*
X28190552Y-77046802D01*
X28170890Y-77064622D01*
X28149576Y-77080429D01*
X28126816Y-77094072D01*
X28102828Y-77105417D01*
X28077843Y-77114357D01*
X28052102Y-77120804D01*
X28025854Y-77124698D01*
X27999350Y-77126000D01*
X27188150Y-77126000D01*
X27161646Y-77124698D01*
X27135398Y-77120804D01*
X27109657Y-77114357D01*
X27084672Y-77105417D01*
X27060684Y-77094072D01*
X27037924Y-77080429D01*
X27016610Y-77064622D01*
X26996948Y-77046802D01*
X26979128Y-77027140D01*
X26963321Y-77005826D01*
X26949678Y-76983066D01*
X26938333Y-76959078D01*
X26929393Y-76934093D01*
X26922946Y-76908352D01*
X26919052Y-76882104D01*
X26917750Y-76855600D01*
X26917750Y-75544400D01*
X26919052Y-75517896D01*
X26922946Y-75491648D01*
X26929393Y-75465907D01*
X26938333Y-75440922D01*
X26949678Y-75416934D01*
X26963321Y-75394174D01*
X26979128Y-75372860D01*
X26996948Y-75353198D01*
X27016610Y-75335378D01*
X27037924Y-75319571D01*
X27060684Y-75305928D01*
X27084672Y-75294583D01*
X27109657Y-75285643D01*
X27135398Y-75279196D01*
X27161646Y-75275302D01*
X27188150Y-75274000D01*
X27999350Y-75274000D01*
X28025854Y-75275302D01*
X28025854Y-75275302D01*
G37*
D26*
X27593750Y-76200000D03*
D24*
G36*
X25225854Y-75275302D02*
G01*
X25252102Y-75279196D01*
X25277843Y-75285643D01*
X25302828Y-75294583D01*
X25326816Y-75305928D01*
X25349576Y-75319571D01*
X25370890Y-75335378D01*
X25390552Y-75353198D01*
X25408372Y-75372860D01*
X25424179Y-75394174D01*
X25437822Y-75416934D01*
X25449167Y-75440922D01*
X25458107Y-75465907D01*
X25464554Y-75491648D01*
X25468448Y-75517896D01*
X25469750Y-75544400D01*
X25469750Y-76855600D01*
X25468448Y-76882104D01*
X25464554Y-76908352D01*
X25458107Y-76934093D01*
X25449167Y-76959078D01*
X25437822Y-76983066D01*
X25424179Y-77005826D01*
X25408372Y-77027140D01*
X25390552Y-77046802D01*
X25370890Y-77064622D01*
X25349576Y-77080429D01*
X25326816Y-77094072D01*
X25302828Y-77105417D01*
X25277843Y-77114357D01*
X25252102Y-77120804D01*
X25225854Y-77124698D01*
X25199350Y-77126000D01*
X24388150Y-77126000D01*
X24361646Y-77124698D01*
X24335398Y-77120804D01*
X24309657Y-77114357D01*
X24284672Y-77105417D01*
X24260684Y-77094072D01*
X24237924Y-77080429D01*
X24216610Y-77064622D01*
X24196948Y-77046802D01*
X24179128Y-77027140D01*
X24163321Y-77005826D01*
X24149678Y-76983066D01*
X24138333Y-76959078D01*
X24129393Y-76934093D01*
X24122946Y-76908352D01*
X24119052Y-76882104D01*
X24117750Y-76855600D01*
X24117750Y-75544400D01*
X24119052Y-75517896D01*
X24122946Y-75491648D01*
X24129393Y-75465907D01*
X24138333Y-75440922D01*
X24149678Y-75416934D01*
X24163321Y-75394174D01*
X24179128Y-75372860D01*
X24196948Y-75353198D01*
X24216610Y-75335378D01*
X24237924Y-75319571D01*
X24260684Y-75305928D01*
X24284672Y-75294583D01*
X24309657Y-75285643D01*
X24335398Y-75279196D01*
X24361646Y-75275302D01*
X24388150Y-75274000D01*
X25199350Y-75274000D01*
X25225854Y-75275302D01*
X25225854Y-75275302D01*
G37*
D26*
X24793750Y-76200000D03*
D27*
X96837500Y-87250000D03*
X96837500Y-90550000D03*
X77787500Y-87250000D03*
X77787500Y-90550000D03*
X96837500Y-68200000D03*
X96837500Y-71500000D03*
X77787500Y-68137500D03*
X77787500Y-71437500D03*
D24*
G36*
X39587141Y-77736297D02*
G01*
X39613278Y-77740174D01*
X39638909Y-77746594D01*
X39663788Y-77755495D01*
X39687674Y-77766793D01*
X39710337Y-77780377D01*
X39731560Y-77796117D01*
X39751139Y-77813861D01*
X39768883Y-77833440D01*
X39784623Y-77854663D01*
X39798207Y-77877326D01*
X39809505Y-77901212D01*
X39818406Y-77926091D01*
X39824826Y-77951722D01*
X39828703Y-77977859D01*
X39830000Y-78004250D01*
X39830000Y-78967750D01*
X39828703Y-78994141D01*
X39824826Y-79020278D01*
X39818406Y-79045909D01*
X39809505Y-79070788D01*
X39798207Y-79094674D01*
X39784623Y-79117337D01*
X39768883Y-79138560D01*
X39751139Y-79158139D01*
X39731560Y-79175883D01*
X39710337Y-79191623D01*
X39687674Y-79205207D01*
X39663788Y-79216505D01*
X39638909Y-79225406D01*
X39613278Y-79231826D01*
X39587141Y-79235703D01*
X39560750Y-79237000D01*
X39022250Y-79237000D01*
X38995859Y-79235703D01*
X38969722Y-79231826D01*
X38944091Y-79225406D01*
X38919212Y-79216505D01*
X38895326Y-79205207D01*
X38872663Y-79191623D01*
X38851440Y-79175883D01*
X38831861Y-79158139D01*
X38814117Y-79138560D01*
X38798377Y-79117337D01*
X38784793Y-79094674D01*
X38773495Y-79070788D01*
X38764594Y-79045909D01*
X38758174Y-79020278D01*
X38754297Y-78994141D01*
X38753000Y-78967750D01*
X38753000Y-78004250D01*
X38754297Y-77977859D01*
X38758174Y-77951722D01*
X38764594Y-77926091D01*
X38773495Y-77901212D01*
X38784793Y-77877326D01*
X38798377Y-77854663D01*
X38814117Y-77833440D01*
X38831861Y-77813861D01*
X38851440Y-77796117D01*
X38872663Y-77780377D01*
X38895326Y-77766793D01*
X38919212Y-77755495D01*
X38944091Y-77746594D01*
X38969722Y-77740174D01*
X38995859Y-77736297D01*
X39022250Y-77735000D01*
X39560750Y-77735000D01*
X39587141Y-77736297D01*
X39587141Y-77736297D01*
G37*
D25*
X39291500Y-78486000D03*
D24*
G36*
X37712141Y-77736297D02*
G01*
X37738278Y-77740174D01*
X37763909Y-77746594D01*
X37788788Y-77755495D01*
X37812674Y-77766793D01*
X37835337Y-77780377D01*
X37856560Y-77796117D01*
X37876139Y-77813861D01*
X37893883Y-77833440D01*
X37909623Y-77854663D01*
X37923207Y-77877326D01*
X37934505Y-77901212D01*
X37943406Y-77926091D01*
X37949826Y-77951722D01*
X37953703Y-77977859D01*
X37955000Y-78004250D01*
X37955000Y-78967750D01*
X37953703Y-78994141D01*
X37949826Y-79020278D01*
X37943406Y-79045909D01*
X37934505Y-79070788D01*
X37923207Y-79094674D01*
X37909623Y-79117337D01*
X37893883Y-79138560D01*
X37876139Y-79158139D01*
X37856560Y-79175883D01*
X37835337Y-79191623D01*
X37812674Y-79205207D01*
X37788788Y-79216505D01*
X37763909Y-79225406D01*
X37738278Y-79231826D01*
X37712141Y-79235703D01*
X37685750Y-79237000D01*
X37147250Y-79237000D01*
X37120859Y-79235703D01*
X37094722Y-79231826D01*
X37069091Y-79225406D01*
X37044212Y-79216505D01*
X37020326Y-79205207D01*
X36997663Y-79191623D01*
X36976440Y-79175883D01*
X36956861Y-79158139D01*
X36939117Y-79138560D01*
X36923377Y-79117337D01*
X36909793Y-79094674D01*
X36898495Y-79070788D01*
X36889594Y-79045909D01*
X36883174Y-79020278D01*
X36879297Y-78994141D01*
X36878000Y-78967750D01*
X36878000Y-78004250D01*
X36879297Y-77977859D01*
X36883174Y-77951722D01*
X36889594Y-77926091D01*
X36898495Y-77901212D01*
X36909793Y-77877326D01*
X36923377Y-77854663D01*
X36939117Y-77833440D01*
X36956861Y-77813861D01*
X36976440Y-77796117D01*
X36997663Y-77780377D01*
X37020326Y-77766793D01*
X37044212Y-77755495D01*
X37069091Y-77746594D01*
X37094722Y-77740174D01*
X37120859Y-77736297D01*
X37147250Y-77735000D01*
X37685750Y-77735000D01*
X37712141Y-77736297D01*
X37712141Y-77736297D01*
G37*
D25*
X37416500Y-78486000D03*
D24*
G36*
X44164391Y-68662797D02*
G01*
X44190528Y-68666674D01*
X44216159Y-68673094D01*
X44241038Y-68681995D01*
X44264924Y-68693293D01*
X44287587Y-68706877D01*
X44308810Y-68722617D01*
X44328389Y-68740361D01*
X44346133Y-68759940D01*
X44361873Y-68781163D01*
X44375457Y-68803826D01*
X44386755Y-68827712D01*
X44395656Y-68852591D01*
X44402076Y-68878222D01*
X44405953Y-68904359D01*
X44407250Y-68930750D01*
X44407250Y-69469250D01*
X44405953Y-69495641D01*
X44402076Y-69521778D01*
X44395656Y-69547409D01*
X44386755Y-69572288D01*
X44375457Y-69596174D01*
X44361873Y-69618837D01*
X44346133Y-69640060D01*
X44328389Y-69659639D01*
X44308810Y-69677383D01*
X44287587Y-69693123D01*
X44264924Y-69706707D01*
X44241038Y-69718005D01*
X44216159Y-69726906D01*
X44190528Y-69733326D01*
X44164391Y-69737203D01*
X44138000Y-69738500D01*
X43174500Y-69738500D01*
X43148109Y-69737203D01*
X43121972Y-69733326D01*
X43096341Y-69726906D01*
X43071462Y-69718005D01*
X43047576Y-69706707D01*
X43024913Y-69693123D01*
X43003690Y-69677383D01*
X42984111Y-69659639D01*
X42966367Y-69640060D01*
X42950627Y-69618837D01*
X42937043Y-69596174D01*
X42925745Y-69572288D01*
X42916844Y-69547409D01*
X42910424Y-69521778D01*
X42906547Y-69495641D01*
X42905250Y-69469250D01*
X42905250Y-68930750D01*
X42906547Y-68904359D01*
X42910424Y-68878222D01*
X42916844Y-68852591D01*
X42925745Y-68827712D01*
X42937043Y-68803826D01*
X42950627Y-68781163D01*
X42966367Y-68759940D01*
X42984111Y-68740361D01*
X43003690Y-68722617D01*
X43024913Y-68706877D01*
X43047576Y-68693293D01*
X43071462Y-68681995D01*
X43096341Y-68673094D01*
X43121972Y-68666674D01*
X43148109Y-68662797D01*
X43174500Y-68661500D01*
X44138000Y-68661500D01*
X44164391Y-68662797D01*
X44164391Y-68662797D01*
G37*
D25*
X43656250Y-69200000D03*
D24*
G36*
X44164391Y-66787797D02*
G01*
X44190528Y-66791674D01*
X44216159Y-66798094D01*
X44241038Y-66806995D01*
X44264924Y-66818293D01*
X44287587Y-66831877D01*
X44308810Y-66847617D01*
X44328389Y-66865361D01*
X44346133Y-66884940D01*
X44361873Y-66906163D01*
X44375457Y-66928826D01*
X44386755Y-66952712D01*
X44395656Y-66977591D01*
X44402076Y-67003222D01*
X44405953Y-67029359D01*
X44407250Y-67055750D01*
X44407250Y-67594250D01*
X44405953Y-67620641D01*
X44402076Y-67646778D01*
X44395656Y-67672409D01*
X44386755Y-67697288D01*
X44375457Y-67721174D01*
X44361873Y-67743837D01*
X44346133Y-67765060D01*
X44328389Y-67784639D01*
X44308810Y-67802383D01*
X44287587Y-67818123D01*
X44264924Y-67831707D01*
X44241038Y-67843005D01*
X44216159Y-67851906D01*
X44190528Y-67858326D01*
X44164391Y-67862203D01*
X44138000Y-67863500D01*
X43174500Y-67863500D01*
X43148109Y-67862203D01*
X43121972Y-67858326D01*
X43096341Y-67851906D01*
X43071462Y-67843005D01*
X43047576Y-67831707D01*
X43024913Y-67818123D01*
X43003690Y-67802383D01*
X42984111Y-67784639D01*
X42966367Y-67765060D01*
X42950627Y-67743837D01*
X42937043Y-67721174D01*
X42925745Y-67697288D01*
X42916844Y-67672409D01*
X42910424Y-67646778D01*
X42906547Y-67620641D01*
X42905250Y-67594250D01*
X42905250Y-67055750D01*
X42906547Y-67029359D01*
X42910424Y-67003222D01*
X42916844Y-66977591D01*
X42925745Y-66952712D01*
X42937043Y-66928826D01*
X42950627Y-66906163D01*
X42966367Y-66884940D01*
X42984111Y-66865361D01*
X43003690Y-66847617D01*
X43024913Y-66831877D01*
X43047576Y-66818293D01*
X43071462Y-66806995D01*
X43096341Y-66798094D01*
X43121972Y-66791674D01*
X43148109Y-66787797D01*
X43174500Y-66786500D01*
X44138000Y-66786500D01*
X44164391Y-66787797D01*
X44164391Y-66787797D01*
G37*
D25*
X43656250Y-67325000D03*
D24*
G36*
X52895641Y-66787797D02*
G01*
X52921778Y-66791674D01*
X52947409Y-66798094D01*
X52972288Y-66806995D01*
X52996174Y-66818293D01*
X53018837Y-66831877D01*
X53040060Y-66847617D01*
X53059639Y-66865361D01*
X53077383Y-66884940D01*
X53093123Y-66906163D01*
X53106707Y-66928826D01*
X53118005Y-66952712D01*
X53126906Y-66977591D01*
X53133326Y-67003222D01*
X53137203Y-67029359D01*
X53138500Y-67055750D01*
X53138500Y-67594250D01*
X53137203Y-67620641D01*
X53133326Y-67646778D01*
X53126906Y-67672409D01*
X53118005Y-67697288D01*
X53106707Y-67721174D01*
X53093123Y-67743837D01*
X53077383Y-67765060D01*
X53059639Y-67784639D01*
X53040060Y-67802383D01*
X53018837Y-67818123D01*
X52996174Y-67831707D01*
X52972288Y-67843005D01*
X52947409Y-67851906D01*
X52921778Y-67858326D01*
X52895641Y-67862203D01*
X52869250Y-67863500D01*
X51905750Y-67863500D01*
X51879359Y-67862203D01*
X51853222Y-67858326D01*
X51827591Y-67851906D01*
X51802712Y-67843005D01*
X51778826Y-67831707D01*
X51756163Y-67818123D01*
X51734940Y-67802383D01*
X51715361Y-67784639D01*
X51697617Y-67765060D01*
X51681877Y-67743837D01*
X51668293Y-67721174D01*
X51656995Y-67697288D01*
X51648094Y-67672409D01*
X51641674Y-67646778D01*
X51637797Y-67620641D01*
X51636500Y-67594250D01*
X51636500Y-67055750D01*
X51637797Y-67029359D01*
X51641674Y-67003222D01*
X51648094Y-66977591D01*
X51656995Y-66952712D01*
X51668293Y-66928826D01*
X51681877Y-66906163D01*
X51697617Y-66884940D01*
X51715361Y-66865361D01*
X51734940Y-66847617D01*
X51756163Y-66831877D01*
X51778826Y-66818293D01*
X51802712Y-66806995D01*
X51827591Y-66798094D01*
X51853222Y-66791674D01*
X51879359Y-66787797D01*
X51905750Y-66786500D01*
X52869250Y-66786500D01*
X52895641Y-66787797D01*
X52895641Y-66787797D01*
G37*
D25*
X52387500Y-67325000D03*
D24*
G36*
X52895641Y-68662797D02*
G01*
X52921778Y-68666674D01*
X52947409Y-68673094D01*
X52972288Y-68681995D01*
X52996174Y-68693293D01*
X53018837Y-68706877D01*
X53040060Y-68722617D01*
X53059639Y-68740361D01*
X53077383Y-68759940D01*
X53093123Y-68781163D01*
X53106707Y-68803826D01*
X53118005Y-68827712D01*
X53126906Y-68852591D01*
X53133326Y-68878222D01*
X53137203Y-68904359D01*
X53138500Y-68930750D01*
X53138500Y-69469250D01*
X53137203Y-69495641D01*
X53133326Y-69521778D01*
X53126906Y-69547409D01*
X53118005Y-69572288D01*
X53106707Y-69596174D01*
X53093123Y-69618837D01*
X53077383Y-69640060D01*
X53059639Y-69659639D01*
X53040060Y-69677383D01*
X53018837Y-69693123D01*
X52996174Y-69706707D01*
X52972288Y-69718005D01*
X52947409Y-69726906D01*
X52921778Y-69733326D01*
X52895641Y-69737203D01*
X52869250Y-69738500D01*
X51905750Y-69738500D01*
X51879359Y-69737203D01*
X51853222Y-69733326D01*
X51827591Y-69726906D01*
X51802712Y-69718005D01*
X51778826Y-69706707D01*
X51756163Y-69693123D01*
X51734940Y-69677383D01*
X51715361Y-69659639D01*
X51697617Y-69640060D01*
X51681877Y-69618837D01*
X51668293Y-69596174D01*
X51656995Y-69572288D01*
X51648094Y-69547409D01*
X51641674Y-69521778D01*
X51637797Y-69495641D01*
X51636500Y-69469250D01*
X51636500Y-68930750D01*
X51637797Y-68904359D01*
X51641674Y-68878222D01*
X51648094Y-68852591D01*
X51656995Y-68827712D01*
X51668293Y-68803826D01*
X51681877Y-68781163D01*
X51697617Y-68759940D01*
X51715361Y-68740361D01*
X51734940Y-68722617D01*
X51756163Y-68706877D01*
X51778826Y-68693293D01*
X51802712Y-68681995D01*
X51827591Y-68673094D01*
X51853222Y-68666674D01*
X51879359Y-68662797D01*
X51905750Y-68661500D01*
X52869250Y-68661500D01*
X52895641Y-68662797D01*
X52895641Y-68662797D01*
G37*
D25*
X52387500Y-69200000D03*
D24*
G36*
X39243141Y-84649797D02*
G01*
X39269278Y-84653674D01*
X39294909Y-84660094D01*
X39319788Y-84668995D01*
X39343674Y-84680293D01*
X39366337Y-84693877D01*
X39387560Y-84709617D01*
X39407139Y-84727361D01*
X39424883Y-84746940D01*
X39440623Y-84768163D01*
X39454207Y-84790826D01*
X39465505Y-84814712D01*
X39474406Y-84839591D01*
X39480826Y-84865222D01*
X39484703Y-84891359D01*
X39486000Y-84917750D01*
X39486000Y-85456250D01*
X39484703Y-85482641D01*
X39480826Y-85508778D01*
X39474406Y-85534409D01*
X39465505Y-85559288D01*
X39454207Y-85583174D01*
X39440623Y-85605837D01*
X39424883Y-85627060D01*
X39407139Y-85646639D01*
X39387560Y-85664383D01*
X39366337Y-85680123D01*
X39343674Y-85693707D01*
X39319788Y-85705005D01*
X39294909Y-85713906D01*
X39269278Y-85720326D01*
X39243141Y-85724203D01*
X39216750Y-85725500D01*
X38253250Y-85725500D01*
X38226859Y-85724203D01*
X38200722Y-85720326D01*
X38175091Y-85713906D01*
X38150212Y-85705005D01*
X38126326Y-85693707D01*
X38103663Y-85680123D01*
X38082440Y-85664383D01*
X38062861Y-85646639D01*
X38045117Y-85627060D01*
X38029377Y-85605837D01*
X38015793Y-85583174D01*
X38004495Y-85559288D01*
X37995594Y-85534409D01*
X37989174Y-85508778D01*
X37985297Y-85482641D01*
X37984000Y-85456250D01*
X37984000Y-84917750D01*
X37985297Y-84891359D01*
X37989174Y-84865222D01*
X37995594Y-84839591D01*
X38004495Y-84814712D01*
X38015793Y-84790826D01*
X38029377Y-84768163D01*
X38045117Y-84746940D01*
X38062861Y-84727361D01*
X38082440Y-84709617D01*
X38103663Y-84693877D01*
X38126326Y-84680293D01*
X38150212Y-84668995D01*
X38175091Y-84660094D01*
X38200722Y-84653674D01*
X38226859Y-84649797D01*
X38253250Y-84648500D01*
X39216750Y-84648500D01*
X39243141Y-84649797D01*
X39243141Y-84649797D01*
G37*
D25*
X38735000Y-85187000D03*
D24*
G36*
X39243141Y-82774797D02*
G01*
X39269278Y-82778674D01*
X39294909Y-82785094D01*
X39319788Y-82793995D01*
X39343674Y-82805293D01*
X39366337Y-82818877D01*
X39387560Y-82834617D01*
X39407139Y-82852361D01*
X39424883Y-82871940D01*
X39440623Y-82893163D01*
X39454207Y-82915826D01*
X39465505Y-82939712D01*
X39474406Y-82964591D01*
X39480826Y-82990222D01*
X39484703Y-83016359D01*
X39486000Y-83042750D01*
X39486000Y-83581250D01*
X39484703Y-83607641D01*
X39480826Y-83633778D01*
X39474406Y-83659409D01*
X39465505Y-83684288D01*
X39454207Y-83708174D01*
X39440623Y-83730837D01*
X39424883Y-83752060D01*
X39407139Y-83771639D01*
X39387560Y-83789383D01*
X39366337Y-83805123D01*
X39343674Y-83818707D01*
X39319788Y-83830005D01*
X39294909Y-83838906D01*
X39269278Y-83845326D01*
X39243141Y-83849203D01*
X39216750Y-83850500D01*
X38253250Y-83850500D01*
X38226859Y-83849203D01*
X38200722Y-83845326D01*
X38175091Y-83838906D01*
X38150212Y-83830005D01*
X38126326Y-83818707D01*
X38103663Y-83805123D01*
X38082440Y-83789383D01*
X38062861Y-83771639D01*
X38045117Y-83752060D01*
X38029377Y-83730837D01*
X38015793Y-83708174D01*
X38004495Y-83684288D01*
X37995594Y-83659409D01*
X37989174Y-83633778D01*
X37985297Y-83607641D01*
X37984000Y-83581250D01*
X37984000Y-83042750D01*
X37985297Y-83016359D01*
X37989174Y-82990222D01*
X37995594Y-82964591D01*
X38004495Y-82939712D01*
X38015793Y-82915826D01*
X38029377Y-82893163D01*
X38045117Y-82871940D01*
X38062861Y-82852361D01*
X38082440Y-82834617D01*
X38103663Y-82818877D01*
X38126326Y-82805293D01*
X38150212Y-82793995D01*
X38175091Y-82785094D01*
X38200722Y-82778674D01*
X38226859Y-82774797D01*
X38253250Y-82773500D01*
X39216750Y-82773500D01*
X39243141Y-82774797D01*
X39243141Y-82774797D01*
G37*
D25*
X38735000Y-83312000D03*
D24*
G36*
X52698141Y-88658297D02*
G01*
X52724278Y-88662174D01*
X52749909Y-88668594D01*
X52774788Y-88677495D01*
X52798674Y-88688793D01*
X52821337Y-88702377D01*
X52842560Y-88718117D01*
X52862139Y-88735861D01*
X52879883Y-88755440D01*
X52895623Y-88776663D01*
X52909207Y-88799326D01*
X52920505Y-88823212D01*
X52929406Y-88848091D01*
X52935826Y-88873722D01*
X52939703Y-88899859D01*
X52941000Y-88926250D01*
X52941000Y-89889750D01*
X52939703Y-89916141D01*
X52935826Y-89942278D01*
X52929406Y-89967909D01*
X52920505Y-89992788D01*
X52909207Y-90016674D01*
X52895623Y-90039337D01*
X52879883Y-90060560D01*
X52862139Y-90080139D01*
X52842560Y-90097883D01*
X52821337Y-90113623D01*
X52798674Y-90127207D01*
X52774788Y-90138505D01*
X52749909Y-90147406D01*
X52724278Y-90153826D01*
X52698141Y-90157703D01*
X52671750Y-90159000D01*
X52133250Y-90159000D01*
X52106859Y-90157703D01*
X52080722Y-90153826D01*
X52055091Y-90147406D01*
X52030212Y-90138505D01*
X52006326Y-90127207D01*
X51983663Y-90113623D01*
X51962440Y-90097883D01*
X51942861Y-90080139D01*
X51925117Y-90060560D01*
X51909377Y-90039337D01*
X51895793Y-90016674D01*
X51884495Y-89992788D01*
X51875594Y-89967909D01*
X51869174Y-89942278D01*
X51865297Y-89916141D01*
X51864000Y-89889750D01*
X51864000Y-88926250D01*
X51865297Y-88899859D01*
X51869174Y-88873722D01*
X51875594Y-88848091D01*
X51884495Y-88823212D01*
X51895793Y-88799326D01*
X51909377Y-88776663D01*
X51925117Y-88755440D01*
X51942861Y-88735861D01*
X51962440Y-88718117D01*
X51983663Y-88702377D01*
X52006326Y-88688793D01*
X52030212Y-88677495D01*
X52055091Y-88668594D01*
X52080722Y-88662174D01*
X52106859Y-88658297D01*
X52133250Y-88657000D01*
X52671750Y-88657000D01*
X52698141Y-88658297D01*
X52698141Y-88658297D01*
G37*
D25*
X52402500Y-89408000D03*
D24*
G36*
X54573141Y-88658297D02*
G01*
X54599278Y-88662174D01*
X54624909Y-88668594D01*
X54649788Y-88677495D01*
X54673674Y-88688793D01*
X54696337Y-88702377D01*
X54717560Y-88718117D01*
X54737139Y-88735861D01*
X54754883Y-88755440D01*
X54770623Y-88776663D01*
X54784207Y-88799326D01*
X54795505Y-88823212D01*
X54804406Y-88848091D01*
X54810826Y-88873722D01*
X54814703Y-88899859D01*
X54816000Y-88926250D01*
X54816000Y-89889750D01*
X54814703Y-89916141D01*
X54810826Y-89942278D01*
X54804406Y-89967909D01*
X54795505Y-89992788D01*
X54784207Y-90016674D01*
X54770623Y-90039337D01*
X54754883Y-90060560D01*
X54737139Y-90080139D01*
X54717560Y-90097883D01*
X54696337Y-90113623D01*
X54673674Y-90127207D01*
X54649788Y-90138505D01*
X54624909Y-90147406D01*
X54599278Y-90153826D01*
X54573141Y-90157703D01*
X54546750Y-90159000D01*
X54008250Y-90159000D01*
X53981859Y-90157703D01*
X53955722Y-90153826D01*
X53930091Y-90147406D01*
X53905212Y-90138505D01*
X53881326Y-90127207D01*
X53858663Y-90113623D01*
X53837440Y-90097883D01*
X53817861Y-90080139D01*
X53800117Y-90060560D01*
X53784377Y-90039337D01*
X53770793Y-90016674D01*
X53759495Y-89992788D01*
X53750594Y-89967909D01*
X53744174Y-89942278D01*
X53740297Y-89916141D01*
X53739000Y-89889750D01*
X53739000Y-88926250D01*
X53740297Y-88899859D01*
X53744174Y-88873722D01*
X53750594Y-88848091D01*
X53759495Y-88823212D01*
X53770793Y-88799326D01*
X53784377Y-88776663D01*
X53800117Y-88755440D01*
X53817861Y-88735861D01*
X53837440Y-88718117D01*
X53858663Y-88702377D01*
X53881326Y-88688793D01*
X53905212Y-88677495D01*
X53930091Y-88668594D01*
X53955722Y-88662174D01*
X53981859Y-88658297D01*
X54008250Y-88657000D01*
X54546750Y-88657000D01*
X54573141Y-88658297D01*
X54573141Y-88658297D01*
G37*
D25*
X54277500Y-89408000D03*
D24*
G36*
X58166141Y-74344297D02*
G01*
X58192278Y-74348174D01*
X58217909Y-74354594D01*
X58242788Y-74363495D01*
X58266674Y-74374793D01*
X58289337Y-74388377D01*
X58310560Y-74404117D01*
X58330139Y-74421861D01*
X58347883Y-74441440D01*
X58363623Y-74462663D01*
X58377207Y-74485326D01*
X58388505Y-74509212D01*
X58397406Y-74534091D01*
X58403826Y-74559722D01*
X58407703Y-74585859D01*
X58409000Y-74612250D01*
X58409000Y-75150750D01*
X58407703Y-75177141D01*
X58403826Y-75203278D01*
X58397406Y-75228909D01*
X58388505Y-75253788D01*
X58377207Y-75277674D01*
X58363623Y-75300337D01*
X58347883Y-75321560D01*
X58330139Y-75341139D01*
X58310560Y-75358883D01*
X58289337Y-75374623D01*
X58266674Y-75388207D01*
X58242788Y-75399505D01*
X58217909Y-75408406D01*
X58192278Y-75414826D01*
X58166141Y-75418703D01*
X58139750Y-75420000D01*
X57176250Y-75420000D01*
X57149859Y-75418703D01*
X57123722Y-75414826D01*
X57098091Y-75408406D01*
X57073212Y-75399505D01*
X57049326Y-75388207D01*
X57026663Y-75374623D01*
X57005440Y-75358883D01*
X56985861Y-75341139D01*
X56968117Y-75321560D01*
X56952377Y-75300337D01*
X56938793Y-75277674D01*
X56927495Y-75253788D01*
X56918594Y-75228909D01*
X56912174Y-75203278D01*
X56908297Y-75177141D01*
X56907000Y-75150750D01*
X56907000Y-74612250D01*
X56908297Y-74585859D01*
X56912174Y-74559722D01*
X56918594Y-74534091D01*
X56927495Y-74509212D01*
X56938793Y-74485326D01*
X56952377Y-74462663D01*
X56968117Y-74441440D01*
X56985861Y-74421861D01*
X57005440Y-74404117D01*
X57026663Y-74388377D01*
X57049326Y-74374793D01*
X57073212Y-74363495D01*
X57098091Y-74354594D01*
X57123722Y-74348174D01*
X57149859Y-74344297D01*
X57176250Y-74343000D01*
X58139750Y-74343000D01*
X58166141Y-74344297D01*
X58166141Y-74344297D01*
G37*
D25*
X57658000Y-74881500D03*
D24*
G36*
X58166141Y-76219297D02*
G01*
X58192278Y-76223174D01*
X58217909Y-76229594D01*
X58242788Y-76238495D01*
X58266674Y-76249793D01*
X58289337Y-76263377D01*
X58310560Y-76279117D01*
X58330139Y-76296861D01*
X58347883Y-76316440D01*
X58363623Y-76337663D01*
X58377207Y-76360326D01*
X58388505Y-76384212D01*
X58397406Y-76409091D01*
X58403826Y-76434722D01*
X58407703Y-76460859D01*
X58409000Y-76487250D01*
X58409000Y-77025750D01*
X58407703Y-77052141D01*
X58403826Y-77078278D01*
X58397406Y-77103909D01*
X58388505Y-77128788D01*
X58377207Y-77152674D01*
X58363623Y-77175337D01*
X58347883Y-77196560D01*
X58330139Y-77216139D01*
X58310560Y-77233883D01*
X58289337Y-77249623D01*
X58266674Y-77263207D01*
X58242788Y-77274505D01*
X58217909Y-77283406D01*
X58192278Y-77289826D01*
X58166141Y-77293703D01*
X58139750Y-77295000D01*
X57176250Y-77295000D01*
X57149859Y-77293703D01*
X57123722Y-77289826D01*
X57098091Y-77283406D01*
X57073212Y-77274505D01*
X57049326Y-77263207D01*
X57026663Y-77249623D01*
X57005440Y-77233883D01*
X56985861Y-77216139D01*
X56968117Y-77196560D01*
X56952377Y-77175337D01*
X56938793Y-77152674D01*
X56927495Y-77128788D01*
X56918594Y-77103909D01*
X56912174Y-77078278D01*
X56908297Y-77052141D01*
X56907000Y-77025750D01*
X56907000Y-76487250D01*
X56908297Y-76460859D01*
X56912174Y-76434722D01*
X56918594Y-76409091D01*
X56927495Y-76384212D01*
X56938793Y-76360326D01*
X56952377Y-76337663D01*
X56968117Y-76316440D01*
X56985861Y-76296861D01*
X57005440Y-76279117D01*
X57026663Y-76263377D01*
X57049326Y-76249793D01*
X57073212Y-76238495D01*
X57098091Y-76229594D01*
X57123722Y-76223174D01*
X57149859Y-76219297D01*
X57176250Y-76218000D01*
X58139750Y-76218000D01*
X58166141Y-76219297D01*
X58166141Y-76219297D01*
G37*
D25*
X57658000Y-76756500D03*
D24*
G36*
X41021141Y-69518297D02*
G01*
X41047278Y-69522174D01*
X41072909Y-69528594D01*
X41097788Y-69537495D01*
X41121674Y-69548793D01*
X41144337Y-69562377D01*
X41165560Y-69578117D01*
X41185139Y-69595861D01*
X41202883Y-69615440D01*
X41218623Y-69636663D01*
X41232207Y-69659326D01*
X41243505Y-69683212D01*
X41252406Y-69708091D01*
X41258826Y-69733722D01*
X41262703Y-69759859D01*
X41264000Y-69786250D01*
X41264000Y-70324750D01*
X41262703Y-70351141D01*
X41258826Y-70377278D01*
X41252406Y-70402909D01*
X41243505Y-70427788D01*
X41232207Y-70451674D01*
X41218623Y-70474337D01*
X41202883Y-70495560D01*
X41185139Y-70515139D01*
X41165560Y-70532883D01*
X41144337Y-70548623D01*
X41121674Y-70562207D01*
X41097788Y-70573505D01*
X41072909Y-70582406D01*
X41047278Y-70588826D01*
X41021141Y-70592703D01*
X40994750Y-70594000D01*
X40031250Y-70594000D01*
X40004859Y-70592703D01*
X39978722Y-70588826D01*
X39953091Y-70582406D01*
X39928212Y-70573505D01*
X39904326Y-70562207D01*
X39881663Y-70548623D01*
X39860440Y-70532883D01*
X39840861Y-70515139D01*
X39823117Y-70495560D01*
X39807377Y-70474337D01*
X39793793Y-70451674D01*
X39782495Y-70427788D01*
X39773594Y-70402909D01*
X39767174Y-70377278D01*
X39763297Y-70351141D01*
X39762000Y-70324750D01*
X39762000Y-69786250D01*
X39763297Y-69759859D01*
X39767174Y-69733722D01*
X39773594Y-69708091D01*
X39782495Y-69683212D01*
X39793793Y-69659326D01*
X39807377Y-69636663D01*
X39823117Y-69615440D01*
X39840861Y-69595861D01*
X39860440Y-69578117D01*
X39881663Y-69562377D01*
X39904326Y-69548793D01*
X39928212Y-69537495D01*
X39953091Y-69528594D01*
X39978722Y-69522174D01*
X40004859Y-69518297D01*
X40031250Y-69517000D01*
X40994750Y-69517000D01*
X41021141Y-69518297D01*
X41021141Y-69518297D01*
G37*
D25*
X40513000Y-70055500D03*
D24*
G36*
X41021141Y-71393297D02*
G01*
X41047278Y-71397174D01*
X41072909Y-71403594D01*
X41097788Y-71412495D01*
X41121674Y-71423793D01*
X41144337Y-71437377D01*
X41165560Y-71453117D01*
X41185139Y-71470861D01*
X41202883Y-71490440D01*
X41218623Y-71511663D01*
X41232207Y-71534326D01*
X41243505Y-71558212D01*
X41252406Y-71583091D01*
X41258826Y-71608722D01*
X41262703Y-71634859D01*
X41264000Y-71661250D01*
X41264000Y-72199750D01*
X41262703Y-72226141D01*
X41258826Y-72252278D01*
X41252406Y-72277909D01*
X41243505Y-72302788D01*
X41232207Y-72326674D01*
X41218623Y-72349337D01*
X41202883Y-72370560D01*
X41185139Y-72390139D01*
X41165560Y-72407883D01*
X41144337Y-72423623D01*
X41121674Y-72437207D01*
X41097788Y-72448505D01*
X41072909Y-72457406D01*
X41047278Y-72463826D01*
X41021141Y-72467703D01*
X40994750Y-72469000D01*
X40031250Y-72469000D01*
X40004859Y-72467703D01*
X39978722Y-72463826D01*
X39953091Y-72457406D01*
X39928212Y-72448505D01*
X39904326Y-72437207D01*
X39881663Y-72423623D01*
X39860440Y-72407883D01*
X39840861Y-72390139D01*
X39823117Y-72370560D01*
X39807377Y-72349337D01*
X39793793Y-72326674D01*
X39782495Y-72302788D01*
X39773594Y-72277909D01*
X39767174Y-72252278D01*
X39763297Y-72226141D01*
X39762000Y-72199750D01*
X39762000Y-71661250D01*
X39763297Y-71634859D01*
X39767174Y-71608722D01*
X39773594Y-71583091D01*
X39782495Y-71558212D01*
X39793793Y-71534326D01*
X39807377Y-71511663D01*
X39823117Y-71490440D01*
X39840861Y-71470861D01*
X39860440Y-71453117D01*
X39881663Y-71437377D01*
X39904326Y-71423793D01*
X39928212Y-71412495D01*
X39953091Y-71403594D01*
X39978722Y-71397174D01*
X40004859Y-71393297D01*
X40031250Y-71392000D01*
X40994750Y-71392000D01*
X41021141Y-71393297D01*
X41021141Y-71393297D01*
G37*
D25*
X40513000Y-71930500D03*
M02*
