M48
; DRILL file {KiCad (5.1.4-0)} date 2021 October 16, Saturday 03:17:02
; FORMAT={-:-/ absolute / inch / decimal}
; #@! TF.CreationDate,2021-10-16T03:17:02+01:00
; #@! TF.GenerationSoftware,Kicad,Pcbnew,(5.1.4-0)
; #@! TF.FileFunction,Plated,1,2,PTH
FMAT,2
INCH
T1C0.0157
T2C0.0276
T3C0.0409
T4C0.0579
%
G90
G05
T1
X1.372Y-3.558
X1.395Y-2.835
X1.535Y-2.755
X1.614Y-3.251
X1.615Y-3.0712
X2.195Y-3.52
X2.355Y-3.0219
T3
X2.7Y-2.95
X2.8Y-2.95
X3.45Y-3.7
X3.55Y-3.7
X3.45Y-2.95
X3.55Y-2.95
X2.7Y-3.7
X2.8Y-3.7
T4
X2.6Y-2.65
X2.6516Y-2.5925
X2.8484Y-2.5728
X2.85Y-2.55
X3.35Y-2.65
X3.4016Y-2.5925
X3.5984Y-2.5728
X3.6Y-2.55
X3.35Y-3.4
X3.4016Y-3.3425
X3.5984Y-3.3228
X3.6Y-3.3
X2.6Y-3.4
X2.6516Y-3.3425
X2.8484Y-3.3228
X2.85Y-3.3
T2
G00X1.0438Y-2.4139
M15
G01X1.0438Y-2.4611
M16
G05
G00X1.0438Y-2.591
M15
G01X1.0438Y-2.6383
M16
G05
G00X1.3312Y-2.4139
M15
G01X1.3312Y-2.4611
M16
G05
G00X1.3312Y-2.591
M15
G01X1.3312Y-2.6383
M16
G05
T0
M30
